<svg width="343" height="136" viewBox="0 0 343 136" fill="none" xmlns="http://www.w3.org/2000/svg">
<rect width="343" height="136" rx="8" fill="#339BE2"/>
<g clip-path="url(#clip0_257_2979)">
<circle cx="151.5" cy="125.5" r="2.5" fill="#0D0D0D"/>
<circle cx="161.5" cy="125.5" r="2.5" fill="#C9C9C9"/>
<circle cx="171.5" cy="125.5" r="2.5" fill="#C9C9C9"/>
<circle cx="181.5" cy="125.5" r="2.5" fill="#C9C9C9"/>
<circle cx="191.5" cy="125.5" r="2.5" fill="#C9C9C9"/>
</g>
<rect x="308" y="8" width="24" height="14" rx="7" fill="#E0E0E0"/>
<path d="M314.668 18L316.746 12.3633H317.285V13.2734H317.062L315.406 18H314.668ZM315.609 16.3867L315.828 15.7891H318.375L318.594 16.3867H315.609ZM318.781 18L317.125 13.2734V12.3633H317.441L319.52 18H318.781ZM320.508 18V12.3633H322.441C322.999 12.3633 323.475 12.4753 323.871 12.6992C324.27 12.9206 324.574 13.2409 324.785 13.6602C324.996 14.0794 325.102 14.5846 325.102 15.1758V15.1836C325.102 15.7747 324.996 16.2812 324.785 16.7031C324.574 17.1224 324.271 17.444 323.875 17.668C323.479 17.8893 323.001 18 322.441 18H320.508ZM321.211 17.3672H322.395C322.814 17.3672 323.172 17.2812 323.469 17.1094C323.766 16.9375 323.992 16.6888 324.148 16.3633C324.305 16.0378 324.383 15.6471 324.383 15.1914V15.1836C324.383 14.7253 324.303 14.3333 324.145 14.0078C323.988 13.6797 323.762 13.4297 323.465 13.2578C323.168 13.0833 322.811 12.9961 322.395 12.9961H321.211V17.3672Z" fill="#0D0D0D"/>
<path d="M29.464 34.254H31.326V47.26H29.464V34.254ZM24.34 35.164C25.0027 35.164 25.5907 35.3553 26.104 35.738C26.6173 36.1113 27.0187 36.648 27.308 37.348C27.6067 38.0387 27.756 38.8553 27.756 39.798C27.756 40.75 27.6067 41.576 27.308 42.276C27.0187 42.9667 26.6173 43.5033 26.104 43.886C25.5907 44.2593 25.0027 44.446 24.34 44.446C23.6867 44.446 23.1033 44.2593 22.59 43.886C22.0767 43.5033 21.6707 42.9667 21.372 42.276C21.0827 41.576 20.938 40.75 20.938 39.798C20.938 38.8553 21.0827 38.0387 21.372 37.348C21.6707 36.648 22.0767 36.1113 22.59 35.738C23.1033 35.3553 23.6867 35.164 24.34 35.164ZM24.34 36.858C24.0227 36.858 23.7427 36.97 23.5 37.194C23.2573 37.418 23.066 37.7493 22.926 38.188C22.7953 38.6173 22.73 39.154 22.73 39.798C22.73 40.4327 22.7953 40.974 22.926 41.422C23.066 41.8607 23.2573 42.192 23.5 42.416C23.7427 42.64 24.0227 42.752 24.34 42.752C24.6667 42.752 24.9513 42.64 25.194 42.416C25.4367 42.192 25.6233 41.8607 25.754 41.422C25.894 40.974 25.964 40.4327 25.964 39.798C25.964 39.154 25.894 38.6173 25.754 38.188C25.6233 37.7493 25.4367 37.418 25.194 37.194C24.9513 36.97 24.6667 36.858 24.34 36.858ZM38.2409 35.71H39.8649V36.102C39.8649 36.55 39.7902 36.984 39.6409 37.404C39.5009 37.824 39.2862 38.216 38.9969 38.58C38.7076 38.9347 38.3529 39.2567 37.9329 39.546C37.5222 39.826 37.0462 40.064 36.5049 40.26C35.9636 40.456 35.3616 40.596 34.6989 40.68L34.0129 39.238C34.5916 39.1633 35.1049 39.0513 35.5529 38.902C36.0102 38.7433 36.4069 38.5613 36.7429 38.356C37.0789 38.1413 37.3589 37.9127 37.5829 37.67C37.8069 37.4273 37.9702 37.1707 38.0729 36.9C38.1849 36.6293 38.2409 36.3633 38.2409 36.102V35.71ZM38.7869 35.71H40.3969V36.102C40.3969 36.3633 40.4482 36.6293 40.5509 36.9C40.6629 37.1707 40.8309 37.4273 41.0549 37.67C41.2789 37.9127 41.5589 38.1413 41.8949 38.356C42.2402 38.5613 42.6369 38.7433 43.0849 38.902C43.5329 39.0513 44.0462 39.1633 44.6249 39.238L43.9389 40.68C43.2762 40.596 42.6742 40.456 42.1329 40.26C41.5916 40.064 41.1109 39.826 40.6909 39.546C40.2802 39.2567 39.9302 38.9347 39.6409 38.58C39.3609 38.216 39.1462 37.824 38.9969 37.404C38.8569 36.984 38.7869 36.55 38.7869 36.102V35.71ZM38.3389 42.5H40.2009V47.246H38.3389V42.5ZM33.4529 41.422H45.1849V42.92H33.4529V41.422ZM34.4889 34.94H44.1069V36.41H34.4889V34.94ZM50.5038 35.136C51.1758 35.136 51.7825 35.2713 52.3238 35.542C52.8651 35.8127 53.2898 36.1907 53.5978 36.676C53.9058 37.152 54.0598 37.7027 54.0598 38.328C54.0598 38.944 53.9058 39.4947 53.5978 39.98C53.2898 40.4653 52.8651 40.8433 52.3238 41.114C51.7825 41.3847 51.1758 41.52 50.5038 41.52C49.8225 41.52 49.2111 41.3847 48.6698 41.114C48.1285 40.8433 47.6991 40.4653 47.3818 39.98C47.0738 39.4947 46.9198 38.944 46.9198 38.328C46.9198 37.7027 47.0738 37.152 47.3818 36.676C47.6991 36.1907 48.1285 35.8127 48.6698 35.542C49.2111 35.2713 49.8225 35.136 50.5038 35.136ZM50.5038 36.732C50.1678 36.732 49.8645 36.7973 49.5938 36.928C49.3325 37.0493 49.1225 37.2313 48.9638 37.474C48.8145 37.7073 48.7398 37.992 48.7398 38.328C48.7398 38.664 48.8145 38.9533 48.9638 39.196C49.1225 39.4387 49.3325 39.6253 49.5938 39.756C49.8645 39.8773 50.1678 39.938 50.5038 39.938C50.8305 39.938 51.1245 39.8773 51.3858 39.756C51.6471 39.6253 51.8525 39.4387 52.0018 39.196C52.1605 38.9533 52.2398 38.664 52.2398 38.328C52.2398 37.992 52.1605 37.7073 52.0018 37.474C51.8525 37.2313 51.6471 37.0493 51.3858 36.928C51.1245 36.7973 50.8305 36.732 50.5038 36.732ZM55.2778 34.254H57.1398V47.26H55.2778V34.254ZM46.5978 44.642L46.3878 43.13C47.1438 43.13 47.9791 43.1253 48.8938 43.116C49.8178 43.0973 50.7651 43.06 51.7358 43.004C52.7158 42.9387 53.6631 42.8407 54.5778 42.71L54.7038 44.054C53.7705 44.2407 52.8231 44.376 51.8618 44.46C50.9005 44.5347 49.9718 44.586 49.0758 44.614C48.1798 44.6327 47.3538 44.642 46.5978 44.642ZM62.7619 46V35.8182H66.8386C67.5877 35.8182 68.2124 35.9292 68.7129 36.1513C69.2134 36.3733 69.5895 36.6816 69.8414 37.076C70.0933 37.4671 70.2193 37.9179 70.2193 38.4283C70.2193 38.826 70.1397 39.1757 69.9806 39.4773C69.8216 39.7756 69.6028 40.0208 69.3244 40.2131C69.0493 40.402 68.7344 40.5362 68.3798 40.6158V40.7152C68.7676 40.7318 69.1305 40.8411 69.4686 41.0433C69.81 41.2455 70.0867 41.5289 70.2988 41.8935C70.5109 42.2547 70.617 42.6856 70.617 43.1861C70.617 43.7263 70.4828 44.2086 70.2143 44.6328C69.9492 45.0537 69.5564 45.3868 69.036 45.6321C68.5157 45.8774 67.8743 46 67.112 46H62.7619ZM64.9146 44.2401H66.6696C67.2695 44.2401 67.707 44.1257 67.9821 43.897C68.2572 43.665 68.3947 43.3568 68.3947 42.9723C68.3947 42.6906 68.3268 42.442 68.1909 42.2266C68.055 42.0111 67.8611 41.8421 67.6092 41.7195C67.3606 41.5968 67.064 41.5355 66.7193 41.5355H64.9146V44.2401ZM64.9146 40.0788H66.5105C66.8055 40.0788 67.0673 40.0275 67.296 39.9247C67.528 39.8187 67.7103 39.6695 67.8429 39.4773C67.9788 39.285 68.0467 39.0547 68.0467 38.7862C68.0467 38.4183 67.9158 38.1217 67.6539 37.8963C67.3954 37.6709 67.0275 37.5582 66.5502 37.5582H64.9146V40.0788ZM72.0178 46V35.8182H78.8786V37.593H74.1705V40.0192H78.5256V41.794H74.1705V44.2251H78.8984V46H72.0178ZM86.1135 38.7464C86.0737 38.3454 85.903 38.0339 85.6014 37.8118C85.2998 37.5897 84.8904 37.4787 84.3734 37.4787C84.0221 37.4787 83.7254 37.5284 83.4835 37.6278C83.2415 37.724 83.0559 37.8582 82.9267 38.0305C82.8007 38.2029 82.7377 38.3984 82.7377 38.6172C82.7311 38.7995 82.7692 38.9586 82.8521 39.0945C82.9383 39.2304 83.0559 39.348 83.2051 39.4474C83.3542 39.5436 83.5266 39.6281 83.7221 39.701C83.9177 39.7706 84.1265 39.8303 84.3485 39.88L85.2633 40.0987C85.7074 40.1982 86.1151 40.3307 86.4863 40.4964C86.8575 40.6622 87.179 40.866 87.4508 41.108C87.7226 41.3499 87.9331 41.6349 88.0822 41.9631C88.2347 42.2912 88.3126 42.6674 88.3159 43.0916C88.3126 43.7147 88.1535 44.255 87.8386 44.7124C87.527 45.1664 87.0763 45.5194 86.4863 45.7713C85.8997 46.0199 85.1921 46.1442 84.3635 46.1442C83.5415 46.1442 82.8256 46.0182 82.2157 45.7663C81.6092 45.5144 81.1352 45.1416 80.7939 44.6477C80.4558 44.1506 80.2785 43.5357 80.2619 42.8033H82.345C82.3682 43.1446 82.466 43.4297 82.6383 43.6584C82.814 43.8838 83.0476 44.0545 83.3393 44.1705C83.6343 44.2831 83.9674 44.3395 84.3386 44.3395C84.7032 44.3395 85.0197 44.2865 85.2882 44.1804C85.56 44.0743 85.7704 43.9268 85.9196 43.7379C86.0687 43.549 86.1433 43.3319 86.1433 43.0866C86.1433 42.858 86.0753 42.6657 85.9395 42.5099C85.8069 42.3542 85.6113 42.2216 85.3528 42.1122C85.0976 42.0028 84.7844 41.9034 84.4132 41.8139L83.3045 41.5355C82.4461 41.3267 81.7683 41.0002 81.2711 40.5561C80.774 40.112 80.527 39.5137 80.5304 38.7614C80.527 38.1449 80.6911 37.6063 81.0225 37.1456C81.3573 36.6849 81.8163 36.3253 82.3997 36.0668C82.983 35.8082 83.6459 35.679 84.3883 35.679C85.144 35.679 85.8036 35.8082 86.367 36.0668C86.9338 36.3253 87.3746 36.6849 87.6895 37.1456C88.0043 37.6063 88.1667 38.1399 88.1767 38.7464H86.1135ZM89.3761 37.593V35.8182H97.7383V37.593H94.6211V46H92.4933V37.593H89.3761ZM102.045 44.306H113.791V45.818H102.045V44.306ZM106.973 41.842H108.821V44.908H106.973V41.842ZM103.375 35.108H112.461V39.434H105.237V41.604H103.389V37.978H110.613V36.592H103.375V35.108ZM103.389 40.876H112.755V42.36H103.389V40.876ZM121.7 37.054H124.178V38.524H121.7V37.054ZM119.726 34.828H121.658C121.658 35.9947 121.457 37.0073 121.056 37.866C120.664 38.7247 120.038 39.4387 119.18 40.008C118.321 40.5773 117.196 41.0253 115.806 41.352L115.134 39.938C116.03 39.742 116.772 39.504 117.36 39.224C117.957 38.944 118.424 38.6267 118.76 38.272C119.105 37.9173 119.352 37.53 119.502 37.11C119.651 36.6807 119.726 36.2327 119.726 35.766V34.828ZM115.848 34.828H121.056V36.27H115.848V34.828ZM120.09 36.984V38.216L115.47 38.552L115.218 37.152L120.09 36.984ZM123.898 34.268H125.774V40.806H123.898V34.268ZM117.206 41.31H125.774V44.838H119.068V46.448H117.22V43.494H123.926V42.752H117.206V41.31ZM117.22 45.65H126.026V47.106H117.22V45.65ZM133.927 35.724H135.453V36.536C135.453 37.3573 135.317 38.1367 135.047 38.874C134.785 39.6113 134.384 40.26 133.843 40.82C133.301 41.3707 132.615 41.7813 131.785 42.052L130.861 40.582C131.57 40.3487 132.149 40.022 132.597 39.602C133.054 39.1727 133.39 38.692 133.605 38.16C133.819 37.6187 133.927 37.0773 133.927 36.536V35.724ZM134.305 35.724H135.803V36.536C135.803 37.04 135.905 37.53 136.111 38.006C136.316 38.4727 136.633 38.8927 137.063 39.266C137.501 39.6393 138.071 39.9333 138.771 40.148L137.875 41.604C137.053 41.3613 136.377 40.988 135.845 40.484C135.322 39.9707 134.935 39.378 134.683 38.706C134.431 38.0247 134.305 37.3013 134.305 36.536V35.724ZM131.337 35.136H138.351V36.62H131.337V35.136ZM139.373 34.282H141.235V41.968H139.373V34.282ZM140.731 37.25H142.957V38.776H140.731V37.25ZM137.007 42.192C137.912 42.192 138.691 42.2947 139.345 42.5C139.998 42.696 140.502 42.9807 140.857 43.354C141.211 43.7273 141.389 44.18 141.389 44.712C141.389 45.244 141.211 45.6967 140.857 46.07C140.502 46.4527 139.998 46.742 139.345 46.938C138.691 47.1433 137.912 47.246 137.007 47.246C136.111 47.246 135.331 47.1433 134.669 46.938C134.015 46.742 133.507 46.4527 133.143 46.07C132.788 45.6967 132.611 45.244 132.611 44.712C132.611 44.18 132.788 43.7273 133.143 43.354C133.507 42.9807 134.015 42.696 134.669 42.5C135.331 42.2947 136.111 42.192 137.007 42.192ZM137.007 43.648C136.456 43.648 135.994 43.6853 135.621 43.76C135.247 43.8347 134.963 43.9513 134.767 44.11C134.571 44.2687 134.473 44.4693 134.473 44.712C134.473 44.964 134.571 45.1693 134.767 45.328C134.963 45.4867 135.247 45.608 135.621 45.692C135.994 45.7667 136.456 45.804 137.007 45.804C137.557 45.804 138.019 45.7667 138.393 45.692C138.775 45.608 139.06 45.4867 139.247 45.328C139.443 45.1693 139.541 44.964 139.541 44.712C139.541 44.4693 139.443 44.2687 139.247 44.11C139.06 43.9513 138.775 43.8347 138.393 43.76C138.019 43.6853 137.557 43.648 137.007 43.648ZM143.922 44.208H155.668V45.72H143.922V44.208ZM148.794 41.324H150.656V44.614H148.794V41.324ZM148.738 34.996H150.362V35.934C150.362 36.4847 150.282 37.0167 150.124 37.53C149.974 38.0433 149.746 38.5287 149.438 38.986C149.139 39.4433 148.77 39.8587 148.332 40.232C147.893 40.596 147.389 40.9087 146.82 41.17C146.26 41.4313 145.639 41.6227 144.958 41.744L144.188 40.19C144.785 40.0967 145.322 39.9473 145.798 39.742C146.274 39.5367 146.694 39.294 147.058 39.014C147.431 38.7247 147.739 38.412 147.982 38.076C148.234 37.7307 148.42 37.376 148.542 37.012C148.672 36.648 148.738 36.2887 148.738 35.934V34.996ZM149.088 34.996H150.726V35.934C150.726 36.298 150.786 36.662 150.908 37.026C151.038 37.39 151.225 37.74 151.468 38.076C151.72 38.412 152.028 38.7247 152.392 39.014C152.756 39.294 153.176 39.5367 153.652 39.742C154.137 39.9473 154.674 40.0967 155.262 40.19L154.492 41.744C153.81 41.6133 153.19 41.422 152.63 41.17C152.07 40.9087 151.57 40.596 151.132 40.232C150.693 39.868 150.32 39.462 150.012 39.014C149.713 38.5567 149.484 38.0713 149.326 37.558C149.167 37.0353 149.088 36.494 149.088 35.934V34.996ZM159.602 35.8182L159.408 42.9474H157.589L157.39 35.8182H159.602ZM158.499 46.1293C158.17 46.1293 157.889 46.0133 157.653 45.7812C157.418 45.5459 157.302 45.2642 157.305 44.9361C157.302 44.6113 157.418 44.3329 157.653 44.1009C157.889 43.8688 158.17 43.7528 158.499 43.7528C158.813 43.7528 159.09 43.8688 159.329 44.1009C159.567 44.3329 159.688 44.6113 159.692 44.9361C159.688 45.1548 159.63 45.3554 159.518 45.5376C159.408 45.7166 159.264 45.8608 159.085 45.9702C158.906 46.0762 158.711 46.1293 158.499 46.1293ZM29.086 54.352H30.556V67.176H29.086V54.352ZM30.234 59.266H32.544V60.484H30.234V59.266ZM21.162 62.808H22.198C22.9633 62.808 23.668 62.7987 24.312 62.78C24.956 62.752 25.5813 62.71 26.188 62.654C26.7947 62.5887 27.4107 62.5 28.036 62.388L28.19 63.606C27.546 63.7273 26.9113 63.8207 26.286 63.886C25.67 63.942 25.026 63.984 24.354 64.012C23.6913 64.0307 22.9727 64.04 22.198 64.04H21.162V62.808ZM21.162 55.57H27.112V56.76H22.618V63.382H21.162V55.57ZM33.5229 61.366H45.1149V62.556H33.5229V61.366ZM35.0069 65.706H43.9389V66.896H35.0069V65.706ZM35.0069 63.424H36.4769V66.196H35.0069V63.424ZM34.9649 54.716H43.6589V58.062H36.4349V59.616H34.9929V57.012H42.2029V55.85H34.9649V54.716ZM34.9929 59.252H43.9109V60.372H34.9929V59.252ZM53.4949 60.764H54.9649V63.564H53.4949V60.764ZM54.2369 55.15C54.9089 55.15 55.5062 55.2807 56.0289 55.542C56.5516 55.8033 56.9622 56.1673 57.2609 56.634C57.5596 57.0913 57.7089 57.6187 57.7089 58.216C57.7089 58.8133 57.5596 59.3453 57.2609 59.812C56.9622 60.2787 56.5516 60.6427 56.0289 60.904C55.5062 61.1653 54.9089 61.296 54.2369 61.296C53.5742 61.296 52.9816 61.1653 52.4589 60.904C51.9362 60.6427 51.5209 60.2787 51.2129 59.812C50.9142 59.3453 50.7649 58.8133 50.7649 58.216C50.7649 57.6187 50.9142 57.0913 51.2129 56.634C51.5209 56.1673 51.9362 55.8033 52.4589 55.542C52.9816 55.2807 53.5742 55.15 54.2369 55.15ZM54.2369 56.41C53.8542 56.41 53.5042 56.4847 53.1869 56.634C52.8789 56.7833 52.6362 56.9933 52.4589 57.264C52.2816 57.5347 52.1929 57.852 52.1929 58.216C52.1929 58.5893 52.2816 58.916 52.4589 59.196C52.6362 59.4667 52.8789 59.6767 53.1869 59.826C53.5042 59.966 53.8542 60.036 54.2369 60.036C54.6289 60.036 54.9742 59.966 55.2729 59.826C55.5809 59.6767 55.8236 59.4667 56.0009 59.196C56.1782 58.916 56.2669 58.5893 56.2669 58.216C56.2669 57.852 56.1782 57.5347 56.0009 57.264C55.8236 56.9933 55.5809 56.7833 55.2729 56.634C54.9742 56.4847 54.6289 56.41 54.2369 56.41ZM59.1649 54.352H60.6349V67.176H59.1649V54.352ZM50.3589 64.488L50.1629 63.284C50.9376 63.284 51.7869 63.2793 52.7109 63.27C53.6349 63.2513 54.5822 63.214 55.5529 63.158C56.5329 63.0927 57.4802 62.99 58.3949 62.85L58.5069 63.928C57.5642 64.1053 56.6076 64.236 55.6369 64.32C54.6756 64.3947 53.7422 64.4413 52.8369 64.46C51.9316 64.4787 51.1056 64.488 50.3589 64.488ZM64.4418 54.94H72.6178V56.116H64.4418V54.94ZM62.9858 59.434H74.5778V60.624H62.9858V59.434ZM68.0398 60.26H69.4958V63.13H68.0398V60.26ZM71.6938 54.94H73.1358V55.906C73.1358 56.4473 73.1171 57.0493 73.0798 57.712C73.0518 58.3747 72.9351 59.1353 72.7298 59.994L71.2878 59.854C71.4931 59.0047 71.6098 58.2673 71.6378 57.642C71.6751 57.0167 71.6938 56.438 71.6938 55.906V54.94ZM64.1758 62.724H73.1918V67.162H71.7218V63.9H64.1758V62.724ZM84.9367 54.366H86.4067V63.648H84.9367V54.366ZM78.0627 65.706H86.7707V66.896H78.0627V65.706ZM78.0627 62.71H79.5187V66.168H78.0627V62.71ZM79.5047 55.22C80.1487 55.22 80.7274 55.3553 81.2407 55.626C81.754 55.8967 82.16 56.2747 82.4587 56.76C82.7574 57.236 82.9067 57.7867 82.9067 58.412C82.9067 59.028 82.7574 59.5787 82.4587 60.064C82.16 60.5493 81.754 60.9273 81.2407 61.198C80.7274 61.4687 80.1487 61.604 79.5047 61.604C78.8607 61.604 78.282 61.4687 77.7687 61.198C77.2554 60.9273 76.8494 60.5493 76.5507 60.064C76.252 59.5787 76.1027 59.028 76.1027 58.412C76.1027 57.7867 76.252 57.236 76.5507 56.76C76.8494 56.2747 77.2554 55.8967 77.7687 55.626C78.282 55.3553 78.8607 55.22 79.5047 55.22ZM79.5047 56.494C79.1314 56.494 78.7954 56.5733 78.4967 56.732C78.198 56.8907 77.9647 57.1147 77.7967 57.404C77.6287 57.684 77.5447 58.02 77.5447 58.412C77.5447 58.804 77.6287 59.1447 77.7967 59.434C77.9647 59.714 78.198 59.9333 78.4967 60.092C78.7954 60.2507 79.1314 60.33 79.5047 60.33C79.878 60.33 80.214 60.2507 80.5127 60.092C80.8114 59.9333 81.0447 59.714 81.2127 59.434C81.39 59.1447 81.4787 58.804 81.4787 58.412C81.4787 58.02 81.39 57.684 81.2127 57.404C81.0447 57.1147 80.8114 56.8907 80.5127 56.732C80.214 56.5733 79.878 56.494 79.5047 56.494ZM101.521 54.366H102.991V63.774H101.521V54.366ZM94.6467 65.706H103.355V66.896H94.6467V65.706ZM94.6467 62.92H96.1027V66.378H94.6467V62.92ZM95.7667 56.844H96.9567V57.348C96.9567 58.104 96.812 58.818 96.5227 59.49C96.2427 60.1527 95.832 60.7313 95.2907 61.226C94.7587 61.7207 94.11 62.0893 93.3447 62.332L92.6447 61.184C93.1394 61.0253 93.578 60.8153 93.9607 60.554C94.3527 60.2833 94.6794 59.98 94.9407 59.644C95.2114 59.308 95.4167 58.944 95.5567 58.552C95.6967 58.16 95.7667 57.7587 95.7667 57.348V56.844ZM96.0187 56.844H97.2227V57.348C97.2227 57.7307 97.2927 58.1087 97.4327 58.482C97.5727 58.846 97.778 59.1913 98.0487 59.518C98.3194 59.8353 98.646 60.12 99.0287 60.372C99.4207 60.6147 99.864 60.806 100.359 60.946L99.6727 62.108C98.9074 61.8747 98.2494 61.5247 97.6987 61.058C97.1574 60.582 96.742 60.0267 96.4527 59.392C96.1634 58.7573 96.0187 58.076 96.0187 57.348V56.844ZM92.9947 55.962H99.9667V57.124H92.9947V55.962ZM95.7667 54.422H97.2227V56.48H95.7667V54.422ZM106.728 55.15H114.722V56.326H106.728V55.15ZM105.328 60.624H116.892V61.814H105.328V60.624ZM110.326 61.45H111.81V67.162H110.326V61.45ZM114.008 55.15H115.45V56.27C115.45 56.718 115.44 57.194 115.422 57.698C115.412 58.202 115.37 58.7573 115.296 59.364C115.23 59.9613 115.118 60.624 114.96 61.352L113.504 61.17C113.756 60.1247 113.9 59.21 113.938 58.426C113.984 57.642 114.008 56.9233 114.008 56.27V55.15ZM118.221 59.532H129.785V60.708H118.221V59.532ZM119.705 57.488H128.413V58.65H119.705V57.488ZM119.705 54.702H128.287V55.878H121.16V58.454H119.705V54.702ZM119.565 61.646H128.315V64.824H121.035V66.196H119.593V63.76H126.873V62.766H119.565V61.646ZM119.593 65.888H128.679V67.022H119.593V65.888ZM131.085 61.002H142.649V62.178H131.085V61.002ZM132.527 65.706H141.361V66.896H132.527V65.706ZM132.527 63.186H133.997V66.084H132.527V63.186ZM136.867 54.772C137.782 54.772 138.58 54.8747 139.261 55.08C139.943 55.2853 140.47 55.584 140.843 55.976C141.226 56.3587 141.417 56.816 141.417 57.348C141.417 57.8893 141.226 58.356 140.843 58.748C140.47 59.1307 139.943 59.4293 139.261 59.644C138.58 59.8493 137.782 59.952 136.867 59.952C135.943 59.952 135.141 59.8493 134.459 59.644C133.778 59.4293 133.246 59.1307 132.863 58.748C132.49 58.356 132.303 57.8893 132.303 57.348C132.303 56.816 132.49 56.3587 132.863 55.976C133.246 55.584 133.778 55.2853 134.459 55.08C135.141 54.8747 135.943 54.772 136.867 54.772ZM136.867 55.948C136.242 55.948 135.701 56.004 135.243 56.116C134.786 56.228 134.431 56.3867 134.179 56.592C133.937 56.7973 133.815 57.0493 133.815 57.348C133.815 57.6467 133.937 57.9033 134.179 58.118C134.431 58.3327 134.786 58.496 135.243 58.608C135.701 58.72 136.242 58.776 136.867 58.776C137.493 58.776 138.034 58.72 138.491 58.608C138.949 58.496 139.299 58.3327 139.541 58.118C139.784 57.9033 139.905 57.6467 139.905 57.348C139.905 57.0493 139.784 56.7973 139.541 56.592C139.299 56.3867 138.949 56.228 138.491 56.116C138.034 56.004 137.493 55.948 136.867 55.948ZM151.113 55.29C151.748 55.29 152.308 55.4767 152.793 55.85C153.279 56.2233 153.661 56.746 153.941 57.418C154.221 58.09 154.361 58.8833 154.361 59.798C154.361 60.722 154.221 61.5247 153.941 62.206C153.661 62.878 153.279 63.4007 152.793 63.774C152.308 64.138 151.748 64.32 151.113 64.32C150.488 64.32 149.928 64.138 149.433 63.774C148.948 63.4007 148.565 62.878 148.285 62.206C148.015 61.5247 147.879 60.722 147.879 59.798C147.879 58.8833 148.015 58.09 148.285 57.418C148.565 56.746 148.948 56.2233 149.433 55.85C149.928 55.4767 150.488 55.29 151.113 55.29ZM151.113 56.62C150.749 56.62 150.427 56.746 150.147 56.998C149.877 57.25 149.662 57.614 149.503 58.09C149.354 58.566 149.279 59.1353 149.279 59.798C149.279 60.47 149.354 61.044 149.503 61.52C149.662 61.996 149.877 62.3647 150.147 62.626C150.427 62.878 150.749 63.004 151.113 63.004C151.487 63.004 151.809 62.878 152.079 62.626C152.359 62.3647 152.574 61.996 152.723 61.52C152.882 61.044 152.961 60.47 152.961 59.798C152.961 59.1353 152.882 58.566 152.723 58.09C152.574 57.614 152.359 57.25 152.079 56.998C151.809 56.746 151.487 56.62 151.113 56.62ZM156.825 54.352H158.295V67.176H156.825V54.352ZM153.899 59.112H157.455V60.302H153.899V59.112ZM169.606 54.352H171.076V67.176H169.606V54.352ZM161.346 62.836H162.41C163.278 62.836 164.048 62.8267 164.72 62.808C165.402 62.78 166.036 62.738 166.624 62.682C167.222 62.6167 167.824 62.528 168.43 62.416L168.57 63.648C167.954 63.76 167.343 63.8487 166.736 63.914C166.13 63.97 165.476 64.0073 164.776 64.026C164.086 64.0447 163.297 64.054 162.41 64.054H161.346V62.836ZM161.346 55.542H167.45V56.746H162.802V63.298H161.346V55.542ZM178.579 59.21H180.861V60.414H178.579V59.21ZM182.947 54.352H184.347V67.148H182.947V54.352ZM180.385 54.604H181.757V66.546H180.385V54.604ZM176.297 55.346C176.857 55.346 177.343 55.5327 177.753 55.906C178.173 56.27 178.495 56.7927 178.719 57.474C178.943 58.146 179.055 58.9533 179.055 59.896C179.055 60.8293 178.943 61.6367 178.719 62.318C178.495 62.9993 178.173 63.522 177.753 63.886C177.343 64.25 176.857 64.432 176.297 64.432C175.747 64.432 175.266 64.25 174.855 63.886C174.445 63.522 174.127 62.9993 173.903 62.318C173.679 61.6367 173.567 60.8293 173.567 59.896C173.567 58.9533 173.679 58.146 173.903 57.474C174.127 56.7927 174.445 56.27 174.855 55.906C175.275 55.5327 175.756 55.346 176.297 55.346ZM176.297 56.732C176.017 56.732 175.77 56.8533 175.555 57.096C175.341 57.3387 175.177 57.698 175.065 58.174C174.953 58.6407 174.897 59.2147 174.897 59.896C174.897 60.5587 174.953 61.128 175.065 61.604C175.177 62.08 175.341 62.444 175.555 62.696C175.77 62.9387 176.017 63.06 176.297 63.06C176.596 63.06 176.848 62.9387 177.053 62.696C177.268 62.444 177.431 62.08 177.543 61.604C177.655 61.128 177.711 60.5587 177.711 59.896C177.711 59.2147 177.655 58.6407 177.543 58.174C177.431 57.698 177.268 57.3387 177.053 57.096C176.848 56.8533 176.596 56.732 176.297 56.732ZM198.537 54.338H199.993V61.492H198.537V54.338ZM199.601 57.39H201.799V58.594H199.601V57.39ZM194.939 55.136H196.507C196.507 56.2373 196.269 57.2313 195.793 58.118C195.327 58.9953 194.645 59.7467 193.749 60.372C192.863 60.988 191.789 61.464 190.529 61.8L189.955 60.624C191.038 60.3347 191.943 59.9567 192.671 59.49C193.409 59.014 193.969 58.468 194.351 57.852C194.743 57.2267 194.939 56.5547 194.939 55.836V55.136ZM190.571 55.136H195.835V56.312H190.571V55.136ZM192.923 61.996H194.029V62.766C194.029 63.3633 193.922 63.9467 193.707 64.516C193.502 65.076 193.189 65.5753 192.769 66.014C192.349 66.4527 191.822 66.7933 191.187 67.036L190.459 65.958C191.001 65.762 191.453 65.496 191.817 65.16C192.191 64.8147 192.466 64.4367 192.643 64.026C192.83 63.606 192.923 63.186 192.923 62.766V61.996ZM193.273 61.996H194.337V62.766C194.337 63.1953 194.417 63.6247 194.575 64.054C194.734 64.474 194.977 64.8613 195.303 65.216C195.639 65.5707 196.069 65.8553 196.591 66.07L195.975 67.148C195.331 66.896 194.809 66.5413 194.407 66.084C194.015 65.6267 193.726 65.1087 193.539 64.53C193.362 63.9513 193.273 63.3633 193.273 62.766V61.996ZM197.599 61.996H198.677V62.766C198.677 63.3073 198.584 63.8673 198.397 64.446C198.22 65.0247 197.931 65.552 197.529 66.028C197.137 66.504 196.619 66.8773 195.975 67.148L195.359 66.07C195.882 65.8367 196.307 65.5333 196.633 65.16C196.969 64.7773 197.212 64.376 197.361 63.956C197.52 63.536 197.599 63.1393 197.599 62.766V61.996ZM197.935 61.996H199.055V62.766C199.055 63.214 199.144 63.648 199.321 64.068C199.508 64.488 199.783 64.866 200.147 65.202C200.511 65.5287 200.964 65.7807 201.505 65.958L200.791 67.036C200.147 66.8027 199.611 66.4713 199.181 66.042C198.761 65.6127 198.449 65.118 198.243 64.558C198.038 63.998 197.935 63.4007 197.935 62.766V61.996ZM208.672 54.562C210.109 54.562 211.225 54.7533 212.018 55.136C212.821 55.5093 213.222 56.0507 213.222 56.76C213.222 57.4693 212.821 58.0153 212.018 58.398C211.225 58.7807 210.109 58.972 208.672 58.972C207.235 58.972 206.115 58.7807 205.312 58.398C204.509 58.0153 204.108 57.4693 204.108 56.76C204.108 56.0507 204.509 55.5093 205.312 55.136C206.115 54.7533 207.235 54.562 208.672 54.562ZM208.658 55.654C208.005 55.654 207.449 55.696 206.992 55.78C206.544 55.864 206.203 55.99 205.97 56.158C205.746 56.3167 205.634 56.5173 205.634 56.76C205.634 57.0027 205.746 57.208 205.97 57.376C206.203 57.544 206.544 57.67 206.992 57.754C207.449 57.838 208.005 57.88 208.658 57.88C209.33 57.88 209.89 57.838 210.338 57.754C210.786 57.67 211.127 57.544 211.36 57.376C211.593 57.208 211.71 57.0027 211.71 56.76C211.71 56.5173 211.593 56.3167 211.36 56.158C211.127 55.99 210.786 55.864 210.338 55.78C209.89 55.696 209.33 55.654 208.658 55.654ZM202.89 59.714H214.454V60.876H202.89V59.714ZM204.248 61.8H212.998V64.866H205.718V66.224H204.276V63.83H211.556V62.906H204.248V61.8ZM204.276 65.916H213.362V67.036H204.276V65.916ZM224.407 54.352H225.863V67.148H224.407V54.352ZM225.401 59.504H227.669V60.722H225.401V59.504ZM218.205 55.71H219.563C219.563 56.5313 219.526 57.3293 219.451 58.104C219.376 58.8693 219.236 59.6113 219.031 60.33C218.826 61.0487 218.541 61.744 218.177 62.416C217.813 63.088 217.346 63.7367 216.777 64.362L215.615 63.536C216.128 62.9853 216.553 62.4207 216.889 61.842C217.225 61.2633 217.486 60.6613 217.673 60.036C217.869 59.4013 218.004 58.7387 218.079 58.048C218.163 57.3573 218.205 56.6293 218.205 55.864V55.71ZM216.105 55.71H218.765V56.9H216.105V55.71ZM221.705 55.71H223.077C223.077 56.55 223.044 57.3853 222.979 58.216C222.914 59.0467 222.788 59.868 222.601 60.68C222.414 61.4827 222.144 62.262 221.789 63.018C221.434 63.774 220.972 64.4973 220.403 65.188L219.241 64.39C219.754 63.7647 220.17 63.1207 220.487 62.458C220.814 61.786 221.066 61.0953 221.243 60.386C221.42 59.6767 221.542 58.944 221.607 58.188C221.672 57.432 221.705 56.6527 221.705 55.85V55.71ZM219.997 55.71H222.307V56.9H219.997V55.71ZM231.364 60.904H232.82V64.628H231.364V60.904ZM236.04 60.904H237.51V64.628H236.04V60.904ZM228.648 64.376H240.24V65.58H228.648V64.376ZM234.43 55.094C235.335 55.094 236.143 55.234 236.852 55.514C237.561 55.7847 238.117 56.172 238.518 56.676C238.929 57.1707 239.134 57.7587 239.134 58.44C239.134 59.1213 238.929 59.714 238.518 60.218C238.117 60.7127 237.561 61.1 236.852 61.38C236.143 61.6507 235.335 61.786 234.43 61.786C233.525 61.786 232.713 61.6507 231.994 61.38C231.285 61.1 230.725 60.7127 230.314 60.218C229.913 59.714 229.712 59.1213 229.712 58.44C229.712 57.7587 229.913 57.1707 230.314 56.676C230.725 56.172 231.285 55.7847 231.994 55.514C232.713 55.234 233.525 55.094 234.43 55.094ZM234.43 56.242C233.786 56.242 233.217 56.3307 232.722 56.508C232.227 56.6853 231.84 56.942 231.56 57.278C231.289 57.6047 231.154 57.992 231.154 58.44C231.154 58.888 231.289 59.28 231.56 59.616C231.84 59.9427 232.227 60.1993 232.722 60.386C233.217 60.5633 233.786 60.652 234.43 60.652C235.074 60.652 235.639 60.5633 236.124 60.386C236.619 60.1993 237.006 59.9427 237.286 59.616C237.566 59.28 237.706 58.888 237.706 58.44C237.706 57.992 237.566 57.6047 237.286 57.278C237.006 56.942 236.619 56.6853 236.124 56.508C235.639 56.3307 235.074 56.242 234.43 56.242ZM243.508 63.0717V62.9773C243.514 62.3608 243.576 61.8703 243.692 61.5057C243.811 61.1411 243.98 60.8461 244.199 60.6207C244.418 60.3954 244.681 60.1899 244.989 60.0043C245.188 59.8783 245.367 59.7375 245.526 59.5817C245.685 59.4259 245.811 59.2469 245.904 59.0447C245.997 58.8426 246.043 58.6188 246.043 58.3736C246.043 58.0786 245.974 57.8234 245.835 57.608C245.695 57.3925 245.51 57.2268 245.278 57.1108C245.049 56.9915 244.794 56.9318 244.512 56.9318C244.257 56.9318 244.013 56.9848 243.781 57.0909C243.549 57.197 243.357 57.3627 243.205 57.5881C243.052 57.8101 242.964 58.0968 242.941 58.4482H241.43C241.453 57.8516 241.604 57.3478 241.882 56.9368C242.161 56.5225 242.528 56.2093 242.986 55.9972C243.446 55.785 243.955 55.679 244.512 55.679C245.122 55.679 245.656 55.7933 246.113 56.022C246.57 56.2474 246.925 56.5639 247.177 56.9716C247.432 57.3759 247.56 57.8482 247.56 58.3885C247.56 58.7597 247.502 59.0945 247.386 59.3928C247.27 59.6877 247.104 59.9512 246.888 60.1832C246.676 60.4152 246.421 60.6207 246.123 60.7997C245.841 60.9754 245.612 61.1577 245.437 61.3466C245.264 61.5355 245.138 61.7592 245.059 62.0178C244.979 62.2763 244.936 62.5961 244.93 62.9773V63.0717H243.508ZM244.259 66.0945C243.987 66.0945 243.753 65.9983 243.558 65.8061C243.362 65.6106 243.264 65.3752 243.264 65.1001C243.264 64.8284 243.362 64.5964 243.558 64.4041C243.753 64.2086 243.987 64.1108 244.259 64.1108C244.527 64.1108 244.759 64.2086 244.955 64.4041C245.153 64.5964 245.253 64.8284 245.253 65.1001C245.253 65.2824 245.206 65.4498 245.114 65.6023C245.024 65.7514 244.905 65.8707 244.756 65.9602C244.607 66.0497 244.441 66.0945 244.259 66.0945Z" fill="white"/>
<path d="M22 85H276" stroke="#F3F3F3" stroke-width="0.5"/>
<path d="M29.7036 96.392H30.3676V101.912H29.7036V96.392ZM28.4796 98.312H29.9756V98.856H28.4796V98.312ZM28.4796 99.832H29.9756V100.368H28.4796V99.832ZM24.4236 97.272H28.4796V97.808H24.4236V97.272ZM26.4716 98.2C26.797 98.2 27.0823 98.2587 27.3276 98.376C27.573 98.4933 27.765 98.656 27.9036 98.864C28.0423 99.072 28.1116 99.312 28.1116 99.584C28.1116 99.856 28.0423 100.099 27.9036 100.312C27.765 100.52 27.573 100.683 27.3276 100.8C27.0823 100.912 26.797 100.968 26.4716 100.968C26.1516 100.968 25.869 100.912 25.6236 100.8C25.3783 100.683 25.1863 100.52 25.0476 100.312C24.909 100.099 24.8396 99.856 24.8396 99.584C24.8396 99.312 24.909 99.072 25.0476 98.864C25.1863 98.656 25.3783 98.4933 25.6236 98.376C25.869 98.2587 26.1516 98.2 26.4716 98.2ZM26.4716 98.728C26.173 98.728 25.9303 98.808 25.7436 98.968C25.557 99.1227 25.4636 99.328 25.4636 99.584C25.4636 99.8453 25.557 100.056 25.7436 100.216C25.9303 100.371 26.173 100.448 26.4716 100.448C26.7703 100.448 27.013 100.371 27.1996 100.216C27.3916 100.056 27.4876 99.8453 27.4876 99.584C27.4876 99.328 27.3916 99.1227 27.1996 98.968C27.013 98.808 26.7703 98.728 26.4716 98.728ZM26.1516 96.384H26.8076V97.608H26.1516V96.384ZM25.7196 102.92H30.5356V103.464H25.7196V102.92ZM25.7196 101.432H26.3836V103.176H25.7196V101.432ZM33.687 97.424H34.231V98.592C34.231 98.976 34.1777 99.3547 34.071 99.728C33.9643 100.096 33.815 100.445 33.623 100.776C33.4363 101.101 33.2177 101.389 32.967 101.64C32.7163 101.891 32.447 102.088 32.159 102.232L31.775 101.704C32.0363 101.576 32.2817 101.403 32.511 101.184C32.7457 100.965 32.951 100.715 33.127 100.432C33.303 100.149 33.439 99.8507 33.535 99.536C33.6363 99.2213 33.687 98.9067 33.687 98.592V97.424ZM33.823 97.424H34.359V98.592C34.359 98.896 34.407 99.2 34.503 99.504C34.6043 99.8027 34.743 100.085 34.919 100.352C35.1003 100.613 35.3057 100.845 35.535 101.048C35.7697 101.251 36.0203 101.411 36.287 101.528L35.919 102.056C35.6257 101.917 35.351 101.731 35.095 101.496C34.839 101.261 34.615 100.992 34.423 100.688C34.2363 100.379 34.0897 100.048 33.983 99.696C33.8763 99.3387 33.823 98.9707 33.823 98.592V97.424ZM32.007 97.128H36.047V97.68H32.007V97.128ZM37.031 96.384H37.695V103.624H37.031V96.384ZM44.3984 96.392H45.0624V101.672H44.3984V96.392ZM40.4144 102.92H45.2864V103.464H40.4144V102.92ZM40.4144 101.136H41.0784V103.104H40.4144V101.136ZM41.1824 96.896C41.545 96.896 41.8677 96.9707 42.1504 97.12C42.433 97.2693 42.657 97.48 42.8224 97.752C42.9877 98.0187 43.0704 98.3253 43.0704 98.672C43.0704 99.0187 42.9877 99.328 42.8224 99.6C42.657 99.8667 42.433 100.077 42.1504 100.232C41.8677 100.381 41.545 100.456 41.1824 100.456C40.825 100.456 40.5024 100.381 40.2144 100.232C39.9317 100.077 39.7077 99.8667 39.5424 99.6C39.377 99.328 39.2944 99.0187 39.2944 98.672C39.2944 98.3253 39.377 98.0187 39.5424 97.752C39.7077 97.48 39.9317 97.2693 40.2144 97.12C40.5024 96.9707 40.825 96.896 41.1824 96.896ZM41.1824 97.472C40.9477 97.472 40.737 97.5227 40.5504 97.624C40.3637 97.7253 40.2144 97.8667 40.1024 98.048C39.9957 98.2293 39.9424 98.4373 39.9424 98.672C39.9424 98.912 39.9957 99.1227 40.1024 99.304C40.2144 99.48 40.3637 99.6187 40.5504 99.72C40.737 99.8213 40.9477 99.872 41.1824 99.872C41.417 99.872 41.6277 99.8213 41.8144 99.72C42.0064 99.6187 42.1557 99.48 42.2624 99.304C42.369 99.1227 42.4224 98.912 42.4224 98.672C42.4224 98.4373 42.369 98.2293 42.2624 98.048C42.1557 97.8667 42.0064 97.7253 41.8144 97.624C41.6277 97.5227 41.417 97.472 41.1824 97.472ZM51.7498 96.384H52.4138V103.632H51.7498V96.384ZM48.5978 96.944C48.9551 96.944 49.2698 97.048 49.5418 97.256C49.8191 97.4587 50.0351 97.7493 50.1898 98.128C50.3498 98.5067 50.4298 98.952 50.4298 99.464C50.4298 99.976 50.3498 100.421 50.1898 100.8C50.0351 101.179 49.8191 101.472 49.5418 101.68C49.2698 101.888 48.9551 101.992 48.5978 101.992C48.2404 101.992 47.9231 101.888 47.6458 101.68C47.3684 101.472 47.1498 101.179 46.9898 100.8C46.8351 100.421 46.7578 99.976 46.7578 99.464C46.7578 98.952 46.8351 98.5067 46.9898 98.128C47.1498 97.7493 47.3684 97.4587 47.6458 97.256C47.9231 97.048 48.2404 96.944 48.5978 96.944ZM48.5978 97.536C48.3578 97.536 48.1471 97.616 47.9658 97.776C47.7898 97.9307 47.6511 98.1547 47.5498 98.448C47.4484 98.736 47.3978 99.0747 47.3978 99.464C47.3978 99.8533 47.4484 100.195 47.5498 100.488C47.6511 100.776 47.7898 101 47.9658 101.16C48.1471 101.32 48.3578 101.4 48.5978 101.4C48.8324 101.4 49.0378 101.32 49.2138 101.16C49.3951 101 49.5364 100.776 49.6378 100.488C49.7391 100.195 49.7898 99.8533 49.7898 99.464C49.7898 99.0747 49.7391 98.736 49.6378 98.448C49.5364 98.1547 49.3951 97.9307 49.2138 97.776C49.0378 97.616 48.8324 97.536 48.5978 97.536ZM59.0391 100.984H59.6951V103.632H59.0391V100.984ZM56.1031 100.76H62.6391V101.312H56.1031V100.76ZM59.0391 97.632H59.6231V97.816C59.6231 98.0613 59.5725 98.296 59.4711 98.52C59.3698 98.7387 59.2285 98.9413 59.0471 99.128C58.8658 99.3147 58.6525 99.4827 58.4071 99.632C58.1671 99.776 57.9058 99.8987 57.6231 100C57.3458 100.096 57.0551 100.165 56.7511 100.208L56.5111 99.68C56.7725 99.6427 57.0258 99.584 57.2711 99.504C57.5218 99.424 57.7511 99.3253 57.9591 99.208C58.1725 99.0907 58.3591 98.96 58.5191 98.816C58.6845 98.6667 58.8125 98.5093 58.9031 98.344C58.9938 98.1733 59.0391 97.9973 59.0391 97.816V97.632ZM59.1191 97.632H59.7031V97.816C59.7031 97.992 59.7485 98.1653 59.8391 98.336C59.9298 98.5013 60.0551 98.6587 60.2151 98.808C60.3751 98.952 60.5591 99.0853 60.7671 99.208C60.9805 99.3253 61.2098 99.424 61.4551 99.504C61.7058 99.584 61.9618 99.6427 62.2231 99.68L61.9831 100.208C61.6791 100.165 61.3858 100.096 61.1031 100C60.8258 99.8987 60.5645 99.776 60.3191 99.632C60.0791 99.4827 59.8685 99.3147 59.6871 99.128C59.5111 98.9413 59.3725 98.7387 59.2711 98.52C59.1698 98.296 59.1191 98.0613 59.1191 97.816V97.632ZM56.7351 97.28H62.0071V97.816H56.7351V97.28ZM59.0391 96.384H59.6951V97.464H59.0391V96.384ZM65.2705 97.752H65.8145V98.112C65.8145 98.544 65.7318 98.9467 65.5665 99.32C65.4012 99.688 65.1665 100.008 64.8625 100.28C64.5638 100.552 64.2118 100.76 63.8065 100.904L63.4785 100.384C63.8358 100.267 64.1478 100.093 64.4145 99.864C64.6865 99.6347 64.8972 99.3707 65.0465 99.072C65.1958 98.768 65.2705 98.448 65.2705 98.112V97.752ZM65.3825 97.752H65.9265V98.112C65.9265 98.4267 66.0012 98.728 66.1505 99.016C66.3052 99.2987 66.5185 99.5467 66.7905 99.76C67.0625 99.9733 67.3772 100.139 67.7345 100.256L67.4065 100.776C67.0065 100.643 66.6545 100.448 66.3505 100.192C66.0465 99.9307 65.8092 99.624 65.6385 99.272C65.4678 98.9147 65.3825 98.528 65.3825 98.112V97.752ZM63.6625 97.352H67.5265V97.888H63.6625V97.352ZM65.2705 96.432H65.9345V97.552H65.2705V96.432ZM67.2785 98.608H69.1025V99.168H67.2785V98.608ZM68.7505 96.392H69.4145V101.792H68.7505V96.392ZM64.7985 102.92H69.6145V103.464H64.7985V102.92ZM64.7985 101.312H65.4545V103.208H64.7985V101.312ZM75.7259 96.384H76.3819V103.624H75.7259V96.384ZM76.2299 99.36H77.5659V99.92H76.2299V99.36ZM70.7819 97.544H75.0459V98.088H70.7819V97.544ZM72.9499 98.68C73.2912 98.68 73.5925 98.752 73.8539 98.896C74.1205 99.04 74.3285 99.2373 74.4779 99.488C74.6325 99.7333 74.7099 100.019 74.7099 100.344C74.7099 100.669 74.6325 100.957 74.4779 101.208C74.3285 101.459 74.1205 101.656 73.8539 101.8C73.5925 101.939 73.2912 102.008 72.9499 102.008C72.6085 102.008 72.3045 101.939 72.0379 101.8C71.7765 101.656 71.5685 101.459 71.4139 101.208C71.2592 100.957 71.1819 100.669 71.1819 100.344C71.1819 100.019 71.2592 99.7333 71.4139 99.488C71.5685 99.2373 71.7765 99.04 72.0379 98.896C72.3045 98.752 72.6085 98.68 72.9499 98.68ZM72.9499 99.232C72.7312 99.232 72.5365 99.28 72.3659 99.376C72.1952 99.472 72.0592 99.6027 71.9579 99.768C71.8619 99.9333 71.8139 100.125 71.8139 100.344C71.8139 100.563 71.8619 100.757 71.9579 100.928C72.0592 101.093 72.1952 101.224 72.3659 101.32C72.5365 101.411 72.7312 101.456 72.9499 101.456C73.1632 101.456 73.3552 101.411 73.5259 101.32C73.6965 101.224 73.8299 101.093 73.9259 100.928C74.0272 100.757 74.0779 100.563 74.0779 100.344C74.0779 100.125 74.0272 99.9333 73.9259 99.768C73.8299 99.6027 73.6965 99.472 73.5259 99.376C73.3552 99.28 73.1632 99.232 72.9499 99.232ZM72.6059 96.472H73.2699V97.784H72.6059V96.472ZM78.8773 97.112H83.5333V97.656H78.8773V97.112ZM78.1813 102.056H84.7173V102.608H78.1813V102.056ZM80.7253 99.472H81.3813V102.336H80.7253V99.472ZM83.2773 97.112H83.9413V97.824C83.9413 98.1227 83.9359 98.4373 83.9253 98.768C83.9199 99.0987 83.8986 99.4613 83.8613 99.856C83.8293 100.251 83.7679 100.691 83.6773 101.176L83.0053 101.096C83.1439 100.403 83.2239 99.7947 83.2453 99.272C83.2666 98.744 83.2773 98.2613 83.2773 97.824V97.112ZM89.7986 100H90.4626V101.648H89.7986V100ZM90.1346 96.856C90.5133 96.856 90.8466 96.928 91.1346 97.072C91.428 97.2107 91.6573 97.408 91.8226 97.664C91.988 97.92 92.0706 98.2187 92.0706 98.56C92.0706 98.8907 91.988 99.1867 91.8226 99.448C91.6573 99.704 91.428 99.904 91.1346 100.048C90.8466 100.187 90.5133 100.256 90.1346 100.256C89.7613 100.256 89.428 100.187 89.1346 100.048C88.8413 99.904 88.6093 99.704 88.4386 99.448C88.2733 99.1867 88.1906 98.8907 88.1906 98.56C88.1906 98.2187 88.2733 97.92 88.4386 97.664C88.6093 97.408 88.8413 97.2107 89.1346 97.072C89.428 96.928 89.7613 96.856 90.1346 96.856ZM90.1346 97.432C89.8893 97.432 89.668 97.48 89.4706 97.576C89.2786 97.6667 89.1266 97.7973 89.0146 97.968C88.9026 98.1333 88.8466 98.3307 88.8466 98.56C88.8466 98.7787 88.9026 98.976 89.0146 99.152C89.1266 99.3227 89.2786 99.456 89.4706 99.552C89.668 99.6427 89.8893 99.688 90.1346 99.688C90.3853 99.688 90.6066 99.6427 90.7986 99.552C90.9906 99.456 91.1426 99.3227 91.2546 99.152C91.3666 98.976 91.4226 98.7787 91.4226 98.56C91.4226 98.3307 91.3666 98.1333 91.2546 97.968C91.1426 97.7973 90.9906 97.6667 90.7986 97.576C90.6066 97.48 90.3853 97.432 90.1346 97.432ZM93.0226 96.384H93.6866V103.632H93.0226V96.384ZM87.9186 102.056L87.8306 101.504C88.2733 101.504 88.7586 101.501 89.2866 101.496C89.8146 101.485 90.3586 101.464 90.9186 101.432C91.484 101.395 92.028 101.336 92.5506 101.256L92.6066 101.744C92.0626 101.845 91.5106 101.917 90.9506 101.96C90.396 102.003 89.86 102.029 89.3426 102.04C88.8253 102.051 88.3506 102.056 87.9186 102.056ZM95.982 96.728H100.638V97.272H95.982V96.728ZM95.15 99.312H101.71V99.856H95.15V99.312ZM98.086 99.688H98.75V101.384H98.086V99.688ZM100.206 96.728H100.862V97.256C100.862 97.5547 100.851 97.8933 100.83 98.272C100.809 98.6453 100.739 99.08 100.622 99.576L99.974 99.504C100.091 99.0133 100.158 98.5893 100.174 98.232C100.195 97.8747 100.206 97.5493 100.206 97.256V96.728ZM95.83 101.176H100.902V103.624H100.238V101.712H95.83V101.176ZM107.773 96.392H108.437V101.672H107.773V96.392ZM103.789 102.92H108.661V103.464H103.789V102.92ZM103.789 101.136H104.453V103.104H103.789V101.136ZM104.557 96.896C104.92 96.896 105.243 96.9707 105.525 97.12C105.808 97.2693 106.032 97.48 106.197 97.752C106.363 98.0187 106.445 98.3253 106.445 98.672C106.445 99.0187 106.363 99.328 106.197 99.6C106.032 99.8667 105.808 100.077 105.525 100.232C105.243 100.381 104.92 100.456 104.557 100.456C104.2 100.456 103.877 100.381 103.589 100.232C103.307 100.077 103.083 99.8667 102.917 99.6C102.752 99.328 102.669 99.0187 102.669 98.672C102.669 98.3253 102.752 98.0187 102.917 97.752C103.083 97.48 103.307 97.2693 103.589 97.12C103.877 96.9707 104.2 96.896 104.557 96.896ZM104.557 97.472C104.323 97.472 104.112 97.5227 103.925 97.624C103.739 97.7253 103.589 97.8667 103.477 98.048C103.371 98.2293 103.317 98.4373 103.317 98.672C103.317 98.912 103.371 99.1227 103.477 99.304C103.589 99.48 103.739 99.6187 103.925 99.72C104.112 99.8213 104.323 99.872 104.557 99.872C104.792 99.872 105.003 99.8213 105.189 99.72C105.381 99.6187 105.531 99.48 105.637 99.304C105.744 99.1227 105.797 98.912 105.797 98.672C105.797 98.4373 105.744 98.2293 105.637 98.048C105.531 97.8667 105.381 97.7253 105.189 97.624C105.003 97.5227 104.792 97.472 104.557 97.472ZM115.125 96.384H115.789V103.632H115.125V96.384ZM111.973 96.944C112.33 96.944 112.645 97.048 112.917 97.256C113.194 97.4587 113.41 97.7493 113.565 98.128C113.725 98.5067 113.805 98.952 113.805 99.464C113.805 99.976 113.725 100.421 113.565 100.8C113.41 101.179 113.194 101.472 112.917 101.68C112.645 101.888 112.33 101.992 111.973 101.992C111.615 101.992 111.298 101.888 111.021 101.68C110.743 101.472 110.525 101.179 110.365 100.8C110.21 100.421 110.133 99.976 110.133 99.464C110.133 98.952 110.21 98.5067 110.365 98.128C110.525 97.7493 110.743 97.4587 111.021 97.256C111.298 97.048 111.615 96.944 111.973 96.944ZM111.973 97.536C111.733 97.536 111.522 97.616 111.341 97.776C111.165 97.9307 111.026 98.1547 110.925 98.448C110.823 98.736 110.773 99.0747 110.773 99.464C110.773 99.8533 110.823 100.195 110.925 100.488C111.026 100.776 111.165 101 111.341 101.16C111.522 101.32 111.733 101.4 111.973 101.4C112.207 101.4 112.413 101.32 112.589 101.16C112.77 101 112.911 100.776 113.013 100.488C113.114 100.195 113.165 99.8533 113.165 99.464C113.165 99.0747 113.114 98.736 113.013 98.448C112.911 98.1547 112.77 97.9307 112.589 97.776C112.413 97.616 112.207 97.536 111.973 97.536ZM122.486 96.856H123.182C123.182 97.4587 123.046 98.0053 122.774 98.496C122.502 98.9813 122.115 99.3973 121.614 99.744C121.118 100.091 120.523 100.365 119.83 100.568L119.558 100.048C120.166 99.872 120.689 99.6427 121.126 99.36C121.563 99.0773 121.899 98.7493 122.134 98.376C122.369 97.9973 122.486 97.584 122.486 97.136V96.856ZM119.926 96.856H122.934V97.392H119.926V96.856ZM124.766 96.392H125.43V100.512H124.766V96.392ZM123.198 98.248H124.886V98.8H123.198V98.248ZM120.766 100.824H125.43V103.52H120.766V100.824ZM124.774 101.352H121.414V102.984H124.774V101.352ZM126.838 99.824H133.374V100.368H126.838V99.824ZM130.102 100.992C130.875 100.992 131.48 101.107 131.918 101.336C132.355 101.565 132.574 101.888 132.574 102.304C132.574 102.72 132.355 103.04 131.918 103.264C131.48 103.493 130.875 103.608 130.102 103.608C129.328 103.608 128.72 103.493 128.278 103.264C127.84 103.04 127.622 102.72 127.622 102.304C127.622 101.888 127.84 101.565 128.278 101.336C128.72 101.107 129.328 100.992 130.102 100.992ZM130.102 101.52C129.723 101.52 129.398 101.549 129.126 101.608C128.859 101.667 128.654 101.755 128.51 101.872C128.366 101.989 128.294 102.133 128.294 102.304C128.294 102.469 128.366 102.611 128.51 102.728C128.654 102.84 128.859 102.928 129.126 102.992C129.398 103.051 129.723 103.08 130.102 103.08C130.48 103.08 130.803 103.051 131.07 102.992C131.342 102.928 131.55 102.84 131.694 102.728C131.838 102.611 131.91 102.469 131.91 102.304C131.91 102.133 131.838 101.989 131.694 101.872C131.55 101.755 131.342 101.667 131.07 101.608C130.803 101.549 130.48 101.52 130.102 101.52ZM129.678 97.04H130.262V97.256C130.262 97.4907 130.211 97.7093 130.11 97.912C130.014 98.1093 129.878 98.2907 129.702 98.456C129.526 98.6213 129.318 98.768 129.078 98.896C128.843 99.024 128.587 99.1307 128.31 99.216C128.032 99.296 127.742 99.3547 127.438 99.392L127.198 98.864C127.459 98.8373 127.71 98.7893 127.95 98.72C128.195 98.6507 128.422 98.568 128.63 98.472C128.843 98.3707 129.027 98.2587 129.182 98.136C129.336 98.008 129.456 97.872 129.542 97.728C129.632 97.5787 129.678 97.4213 129.678 97.256V97.04ZM129.95 97.04H130.534V97.256C130.534 97.4213 130.576 97.5787 130.661 97.728C130.752 97.872 130.875 98.008 131.03 98.136C131.184 98.264 131.366 98.3787 131.574 98.48C131.787 98.576 132.014 98.6587 132.254 98.728C132.499 98.792 132.752 98.8373 133.014 98.864L132.774 99.392C132.47 99.3547 132.179 99.296 131.902 99.216C131.624 99.1307 131.366 99.024 131.126 98.896C130.891 98.768 130.686 98.6213 130.51 98.456C130.334 98.2907 130.195 98.1067 130.094 97.904C129.998 97.7013 129.95 97.4853 129.95 97.256V97.04ZM127.438 96.752H132.782V97.296H127.438V96.752ZM139.149 96.392H139.813V101.816H139.149V96.392ZM139.605 98.768H140.877V99.32H139.605V98.768ZM134.213 97.272H138.485V97.808H134.213V97.272ZM136.349 98.2C136.69 98.2 136.992 98.2587 137.253 98.376C137.514 98.488 137.717 98.6453 137.861 98.848C138.005 99.0453 138.077 99.28 138.077 99.552C138.077 99.824 138.005 100.061 137.861 100.264C137.717 100.461 137.514 100.616 137.253 100.728C136.992 100.84 136.69 100.896 136.349 100.896C136.008 100.896 135.706 100.84 135.445 100.728C135.184 100.616 134.978 100.461 134.829 100.264C134.685 100.061 134.613 99.824 134.613 99.552C134.613 99.28 134.685 99.0453 134.829 98.848C134.978 98.6453 135.184 98.488 135.445 98.376C135.706 98.2587 136.008 98.2 136.349 98.2ZM136.349 98.72C136.024 98.72 135.76 98.7973 135.557 98.952C135.354 99.1013 135.253 99.3013 135.253 99.552C135.253 99.8027 135.354 100.003 135.557 100.152C135.76 100.301 136.024 100.376 136.349 100.376C136.68 100.376 136.944 100.301 137.141 100.152C137.344 100.003 137.445 99.8027 137.445 99.552C137.445 99.3013 137.344 99.1013 137.141 98.952C136.944 98.7973 136.68 98.72 136.349 98.72ZM136.021 96.392H136.685V97.544H136.021V96.392ZM135.309 102.92H140.133V103.464H135.309V102.92ZM135.309 101.384H135.965V103.144H135.309V101.384ZM143.822 97.2H148.094V97.728H143.822V97.2ZM145.958 98.104C146.3 98.104 146.601 98.16 146.862 98.272C147.124 98.3787 147.326 98.5307 147.47 98.728C147.614 98.92 147.686 99.1467 147.686 99.408C147.686 99.6693 147.614 99.8987 147.47 100.096C147.326 100.293 147.124 100.448 146.862 100.56C146.601 100.667 146.3 100.72 145.958 100.72C145.617 100.72 145.316 100.667 145.054 100.56C144.793 100.448 144.588 100.293 144.438 100.096C144.294 99.8987 144.222 99.6693 144.222 99.408C144.222 99.1467 144.294 98.92 144.438 98.728C144.588 98.5307 144.793 98.3787 145.054 98.272C145.316 98.16 145.617 98.104 145.958 98.104ZM145.958 98.624C145.628 98.624 145.361 98.696 145.158 98.84C144.961 98.9787 144.862 99.168 144.862 99.408C144.862 99.648 144.961 99.84 145.158 99.984C145.361 100.128 145.628 100.2 145.958 100.2C146.284 100.2 146.548 100.128 146.75 99.984C146.953 99.84 147.054 99.648 147.054 99.408C147.054 99.168 146.953 98.9787 146.75 98.84C146.548 98.696 146.284 98.624 145.958 98.624ZM145.63 96.336H146.294V97.464H145.63V96.336ZM148.758 96.384H149.422V101.456H148.758V96.384ZM149.238 98.48H150.486V99.04H149.238V98.48ZM146.902 101.056H147.47V101.168C147.47 101.499 147.396 101.8 147.246 102.072C147.102 102.339 146.902 102.576 146.646 102.784C146.396 102.987 146.105 103.155 145.774 103.288C145.444 103.427 145.097 103.528 144.734 103.592L144.486 103.08C144.806 103.032 145.11 102.952 145.398 102.84C145.692 102.723 145.95 102.581 146.174 102.416C146.404 102.251 146.582 102.064 146.71 101.856C146.838 101.643 146.902 101.413 146.902 101.168V101.056ZM146.998 101.056H147.558V101.168C147.558 101.413 147.622 101.643 147.75 101.856C147.884 102.064 148.062 102.251 148.286 102.416C148.516 102.581 148.774 102.723 149.062 102.84C149.356 102.952 149.662 103.032 149.982 103.08L149.734 103.592C149.372 103.528 149.025 103.427 148.694 103.288C148.369 103.155 148.078 102.987 147.822 102.784C147.566 102.576 147.364 102.339 147.214 102.072C147.07 101.8 146.998 101.499 146.998 101.168V101.056ZM151.774 96.608H157.078V97.12H151.774V96.608ZM151.798 98.496H157.054V99.008H151.798V98.496ZM152.862 96.8H153.526V98.84H152.862V96.8ZM155.326 96.8H155.99V98.84H155.326V96.8ZM151.166 99.608H157.702V100.144H151.166V99.608ZM151.958 100.776H156.862V102.368H152.622V103.24H151.974V101.888H156.214V101.272H151.958V100.776ZM151.974 103.032H157.078V103.544H151.974V103.032ZM158.765 101.288H159.245C159.682 101.288 160.114 101.277 160.541 101.256C160.973 101.229 161.437 101.173 161.933 101.088L161.989 101.632C161.482 101.723 161.01 101.781 160.573 101.808C160.141 101.829 159.698 101.84 159.245 101.84H158.765V101.288ZM158.749 97.184H161.325V99.696H159.405V101.52H158.765V99.16H160.685V97.728H158.749V97.184ZM164.029 96.384H164.661V103.624H164.029V96.384ZM161.669 98.984H162.845V99.536H161.669V98.984ZM162.565 96.56H163.189V103.24H162.565V96.56ZM171.14 96.384H171.804V103.632H171.14V96.384ZM167.988 96.944C168.346 96.944 168.66 97.048 168.932 97.256C169.21 97.4587 169.426 97.7493 169.58 98.128C169.74 98.5067 169.82 98.952 169.82 99.464C169.82 99.976 169.74 100.421 169.58 100.8C169.426 101.179 169.21 101.472 168.932 101.68C168.66 101.888 168.346 101.992 167.988 101.992C167.631 101.992 167.314 101.888 167.036 101.68C166.759 101.472 166.54 101.179 166.38 100.8C166.226 100.421 166.148 99.976 166.148 99.464C166.148 98.952 166.226 98.5067 166.38 98.128C166.54 97.7493 166.759 97.4587 167.036 97.256C167.314 97.048 167.631 96.944 167.988 96.944ZM167.988 97.536C167.748 97.536 167.538 97.616 167.356 97.776C167.18 97.9307 167.042 98.1547 166.94 98.448C166.839 98.736 166.788 99.0747 166.788 99.464C166.788 99.8533 166.839 100.195 166.94 100.488C167.042 100.776 167.18 101 167.356 101.16C167.538 101.32 167.748 101.4 167.988 101.4C168.223 101.4 168.428 101.32 168.604 101.16C168.786 101 168.927 100.776 169.028 100.488C169.13 100.195 169.18 99.8533 169.18 99.464C169.18 99.0747 169.13 98.736 169.028 98.448C168.927 98.1547 168.786 97.9307 168.604 97.776C168.428 97.616 168.223 97.536 167.988 97.536ZM176.14 96.88H176.724V97.44C176.724 97.7547 176.668 98.0533 176.556 98.336C176.449 98.6187 176.3 98.8827 176.108 99.128C175.921 99.368 175.702 99.584 175.452 99.776C175.206 99.968 174.942 100.131 174.66 100.264C174.382 100.397 174.1 100.499 173.812 100.568L173.516 100.016C173.766 99.9627 174.017 99.88 174.268 99.768C174.524 99.656 174.764 99.52 174.988 99.36C175.212 99.1947 175.409 99.0107 175.58 98.808C175.756 98.6053 175.892 98.3893 175.988 98.16C176.089 97.9253 176.14 97.6853 176.14 97.44V96.88ZM176.268 96.88H176.836V97.44C176.836 97.6853 176.886 97.9253 176.988 98.16C177.089 98.3893 177.225 98.6053 177.396 98.808C177.572 99.0107 177.772 99.1947 177.996 99.36C178.22 99.52 178.457 99.6587 178.708 99.776C178.964 99.888 179.22 99.968 179.476 100.016L179.172 100.568C178.884 100.499 178.601 100.397 178.324 100.264C178.046 100.131 177.782 99.968 177.532 99.776C177.286 99.584 177.068 99.368 176.876 99.128C176.684 98.8827 176.534 98.6187 176.428 98.336C176.321 98.0533 176.268 97.7547 176.268 97.44V96.88ZM173.244 102.096H179.804V102.648H173.244V102.096ZM180.595 99.744H187.155V100.256H180.595V99.744ZM181.379 100.832H186.339V102.376H182.051V103.224H181.395V101.92H185.683V101.312H181.379V100.832ZM181.395 103.048H186.571V103.528H181.395V103.048ZM181.427 96.6H186.315V98.104H182.099V98.888H181.443V97.656H185.659V97.072H181.427V96.6ZM181.443 98.728H186.443V99.208H181.443V98.728ZM190.541 99.752H191.093C191.578 99.752 192.002 99.7493 192.365 99.744C192.733 99.7333 193.069 99.712 193.373 99.68C193.682 99.648 193.997 99.6027 194.317 99.544L194.389 100.08C194.063 100.139 193.741 100.184 193.421 100.216C193.106 100.243 192.762 100.261 192.389 100.272C192.015 100.283 191.583 100.288 191.093 100.288H190.541V99.752ZM190.541 96.832H193.845V97.376H191.205V100.008H190.541V96.832ZM190.988 98.272H193.717V98.808H190.988V98.272ZM191.285 101.024H195.829V103.528H191.285V101.024ZM195.173 101.552H191.933V102.984H195.173V101.552ZM195.165 96.384H195.829V100.64H195.165V96.384ZM195.645 98.176H196.893V98.736H195.645V98.176ZM199.084 96.824H199.612V97.784C199.612 98.1467 199.545 98.5067 199.412 98.864C199.284 99.2213 199.095 99.544 198.844 99.832C198.593 100.12 198.289 100.344 197.932 100.504L197.572 99.984C197.887 99.84 198.156 99.648 198.38 99.408C198.609 99.168 198.783 98.9067 198.9 98.624C199.023 98.3413 199.084 98.0613 199.084 97.784V96.824ZM199.196 96.824H199.724V97.784C199.724 98.056 199.78 98.3253 199.892 98.592C200.009 98.8533 200.177 99.0907 200.396 99.304C200.615 99.5173 200.876 99.6853 201.18 99.808L200.828 100.32C200.481 100.176 200.185 99.9733 199.94 99.712C199.695 99.4507 199.508 99.1547 199.38 98.824C199.257 98.4933 199.196 98.1467 199.196 97.784V96.824ZM203.036 96.392H203.668V100.76H203.036V96.392ZM201.868 98.272H203.228V98.824H201.868V98.272ZM201.484 96.52H202.108V100.72H201.484V96.52ZM198.82 101.16H203.668V103.624H203.012V101.704H198.82V101.16ZM209.835 96.384H210.491V103.624H209.835V96.384ZM210.339 99.36H211.675V99.92H210.339V99.36ZM204.891 97.544H209.155V98.088H204.891V97.544ZM207.059 98.68C207.401 98.68 207.702 98.752 207.963 98.896C208.23 99.04 208.438 99.2373 208.587 99.488C208.742 99.7333 208.819 100.019 208.819 100.344C208.819 100.669 208.742 100.957 208.587 101.208C208.438 101.459 208.23 101.656 207.963 101.8C207.702 101.939 207.401 102.008 207.059 102.008C206.718 102.008 206.414 101.939 206.147 101.8C205.886 101.656 205.678 101.459 205.523 101.208C205.369 100.957 205.291 100.669 205.291 100.344C205.291 100.019 205.369 99.7333 205.523 99.488C205.678 99.2373 205.886 99.04 206.147 98.896C206.414 98.752 206.718 98.68 207.059 98.68ZM207.059 99.232C206.841 99.232 206.646 99.28 206.475 99.376C206.305 99.472 206.169 99.6027 206.067 99.768C205.971 99.9333 205.923 100.125 205.923 100.344C205.923 100.563 205.971 100.757 206.067 100.928C206.169 101.093 206.305 101.224 206.475 101.32C206.646 101.411 206.841 101.456 207.059 101.456C207.273 101.456 207.465 101.411 207.635 101.32C207.806 101.224 207.939 101.093 208.035 100.928C208.137 100.757 208.187 100.563 208.187 100.344C208.187 100.125 208.137 99.9333 208.035 99.768C207.939 99.6027 207.806 99.472 207.635 99.376C207.465 99.28 207.273 99.232 207.059 99.232ZM206.715 96.472H207.379V97.784H206.715V96.472ZM215.139 98.976H216.531V99.528H215.139V98.976ZM213.795 97.064H214.315V98.448C214.315 98.8213 214.275 99.1893 214.195 99.552C214.12 99.9147 214.008 100.256 213.859 100.576C213.715 100.896 213.539 101.184 213.331 101.44C213.123 101.696 212.888 101.904 212.627 102.064L212.211 101.568C212.456 101.419 212.677 101.232 212.875 101.008C213.072 100.784 213.237 100.533 213.371 100.256C213.509 99.9733 213.613 99.68 213.683 99.376C213.757 99.0667 213.795 98.7573 213.795 98.448V97.064ZM213.923 97.064H214.435V98.424C214.435 98.712 214.467 99.0027 214.531 99.296C214.6 99.584 214.696 99.8613 214.819 100.128C214.947 100.389 215.104 100.629 215.291 100.848C215.477 101.067 215.688 101.248 215.923 101.392L215.547 101.904C215.285 101.744 215.053 101.541 214.851 101.296C214.648 101.045 214.477 100.765 214.339 100.456C214.2 100.141 214.096 99.8107 214.027 99.464C213.957 99.1173 213.923 98.7707 213.923 98.424V97.064ZM217.803 96.384H218.443V103.624H217.803V96.384ZM216.331 96.536H216.955V103.256H216.331V96.536ZM221.258 100.112H221.914V102.272H221.258V100.112ZM223.93 100.112H224.594V102.272H223.93V100.112ZM219.65 102.144H226.21V102.696H219.65V102.144ZM222.914 96.84C223.426 96.84 223.879 96.9173 224.274 97.072C224.669 97.2267 224.978 97.4427 225.202 97.72C225.431 97.9973 225.546 98.3253 225.546 98.704C225.546 99.0773 225.431 99.4053 225.202 99.688C224.978 99.9653 224.669 100.181 224.274 100.336C223.879 100.485 223.426 100.56 222.914 100.56C222.407 100.56 221.954 100.485 221.554 100.336C221.159 100.181 220.85 99.9653 220.626 99.688C220.402 99.4053 220.29 99.0773 220.29 98.704C220.29 98.3253 220.402 97.9973 220.626 97.72C220.85 97.4427 221.159 97.2267 221.554 97.072C221.954 96.9173 222.407 96.84 222.914 96.84ZM222.914 97.368C222.53 97.368 222.189 97.424 221.89 97.536C221.591 97.648 221.357 97.8053 221.186 98.008C221.015 98.2053 220.93 98.4373 220.93 98.704C220.93 98.9707 221.015 99.2053 221.186 99.408C221.357 99.6053 221.591 99.76 221.89 99.872C222.189 99.984 222.53 100.04 222.914 100.04C223.303 100.04 223.647 99.984 223.946 99.872C224.245 99.76 224.479 99.6053 224.65 99.408C224.821 99.2053 224.906 98.9707 224.906 98.704C224.906 98.4373 224.821 98.2053 224.65 98.008C224.479 97.8053 224.245 97.648 223.946 97.536C223.647 97.424 223.303 97.368 222.914 97.368ZM227.797 103.039C227.659 103.039 227.539 102.99 227.438 102.891C227.339 102.789 227.289 102.669 227.289 102.531C227.289 102.391 227.339 102.271 227.438 102.172C227.539 102.073 227.659 102.023 227.797 102.023C227.938 102.023 228.057 102.073 228.156 102.172C228.255 102.271 228.305 102.391 228.305 102.531C228.305 102.669 228.255 102.789 228.156 102.891C228.057 102.99 227.938 103.039 227.797 103.039Z" fill="white"/>
<path d="M272.177 102.181C269.433 96.9908 264.462 85.0117 264.674 79.5551C264.714 78.5253 265.755 78.5896 266.487 79.0942C269.965 81.4929 269.844 85.4223 271.659 88.8431C273.057 91.4768 273.776 93.723 273.997 97.1437C274.049 97.9535 274.213 98.5286 274.287 97.6724C274.841 91.288 274.798 88.3581 275.161 83.5678C275.888 73.9619 276.249 71.32 277.559 69.2754C277.844 68.8306 278.573 68.9783 278.942 69.3387C283.983 74.2604 279.315 88.9086 279.023 93.2075C278.697 97.9966 278.149 99.6995 277.931 100.285C276.577 103.912 281.779 90.1056 282.876 86.8313C284.355 82.4145 287.31 78.8954 289.643 77.1392C290.227 76.6998 290.805 76.1256 291.247 76.1169C291.688 76.1081 291.976 76.6848 292.125 77.4144C292.796 80.7096 290.098 84.5398 288.348 87.0279C286.602 89.51 284.567 91.827 282.234 94.671C280.17 97.1865 278.879 98.8257 278.874 99.267C278.822 104.519 289.626 91.5648 292.701 89.1554C295.033 87.3292 296.926 86.165 297.874 86.0886C298.184 86.0636 297.813 87.0213 297.376 87.6089C295.637 89.9484 291.854 91.1017 287.701 94.1599C284.479 96.5326 281.369 99.5422 280.183 101.305C277.484 105.316 288.901 98.5461 292.697 97.0171C296.944 95.3064 301.583 94.754 303.256 95.0424C303.97 95.1653 304.209 95.9074 304.213 96.637C304.223 98.2566 302.767 99.6995 301.24 100.789C299.08 102.332 296.074 102.758 293.23 103.417C290.679 103.636 279.412 103.928 273.348 102.478C272.911 102.181 272.334 102.181 271.74 102.181" stroke="#FF6868" stroke-width="6.156" stroke-linecap="round"/>
<path d="M298.176 98.7065L289.379 100.466" stroke="#FF6868" stroke-width="4.617" stroke-linecap="round"/>
<path d="M264 80.9849C264 81.2628 264.05 81.8195 264.089 82.8468C264.11 83.4233 264.203 83.9273 264.254 84.8396C264.29 85.4871 264.431 86.1357 264.596 86.6056C264.74 87.016 264.812 87.4805 264.913 87.9131C265.016 88.3512 265.193 88.801 265.345 89.2834C265.493 89.7542 265.599 90.1717 265.738 90.5784C265.875 90.9782 265.954 91.3901 266.119 91.7968C266.28 92.1953 266.361 92.6086 266.436 93.0152C266.514 93.4339 266.716 93.8772 266.83 94.3098C266.942 94.7342 267.096 95.1215 267.261 95.5282C267.423 95.9267 267.553 96.34 267.667 96.7466C267.833 97.1532 267.934 97.483 268.035 97.7236C268.086 97.8386 268.137 97.9391 268.188 98.0427" stroke="#FF6868" stroke-width="4.617" stroke-linecap="round"/>
<path d="M264.578 79.8779C264.548 80.7154 264.488 82.6761 264.592 83.9943C264.634 84.5248 264.906 84.9675 264.967 85.5367C265.033 86.1594 265.207 86.7341 265.371 87.3936C265.51 87.9559 265.595 88.6211 265.745 89.2955C265.875 89.8787 265.925 90.3589 266.089 90.8388C266.281 91.3992 266.434 92.1256 266.584 92.6656C266.764 93.3153 267.002 94.0108 267.123 94.762C267.21 95.2962 267.422 95.7504 267.528 96.2303C267.645 96.7667 267.872 97.4865 268.021 98.1168C268.167 98.7306 268.47 99.2243 268.695 99.7347C268.9 100.199 269.099 100.693 269.354 101.172C269.623 101.679 270.027 102.13 270.417 102.67C270.728 103.1 271.195 103.36 271.675 103.674C272.118 103.965 272.692 104.078 273.232 104.169C273.87 104.277 274.399 104.379 274.939 104.558C275.54 104.758 276.284 104.679 278.251 104.753C279.675 104.807 282.375 104.769 283.824 104.754C285.872 104.733 286.889 104.619 288.146 104.574C288.778 104.469 289.375 104.409 290.258 104.335C290.543 104.319 290.899 104.319 291.535 104.229" stroke="#FF6868" stroke-width="4.617" stroke-linecap="round"/>
<path d="M264.61 85.1731C264.533 86.0039 264.634 87.6328 264.825 88.1285C264.983 88.5413 265.117 88.9532 265.282 89.3599C265.443 89.7584 265.574 90.1717 265.688 90.5783C265.717 90.6832 265.776 90.7809 265.802 90.707C266.029 90.0609 265.702 89.6173 265.587 89.1474C265.475 88.6864 265.321 88.1963 265.219 87.6248C265.109 87.008 265.042 86.2925 264.927 86.0359C264.647 85.4102 265.066 87.0251 265.066 87.0894C265.066 87.609 264.965 86.2148 264.902 86.1128C264.445 85.3755 264.812 88.4963 264.901 88.9155C264.999 89.377 265.041 89.7909 265.142 90.1975C265.244 90.6042 265.295 91.0596 265.421 91.5172C265.565 92.037 265.65 92.5064 265.815 92.939C265.963 93.328 266.005 93.7507 266.069 94.2206C266.131 94.6699 266.309 95.1717 266.449 95.68C266.585 96.1723 266.716 96.5683 266.944 96.975C267.156 97.3538 267.299 97.7868 267.49 98.2566C267.66 98.6743 267.908 99.0813 268.175 99.5512C268.414 99.9722 268.72 100.426 269.025 100.808C269.365 101.233 269.811 101.645 270.319 101.976C271.158 102.523 271.992 102.889 273.147 103.195C273.607 103.316 274.703 103.297 276.224 103.272C277.246 103.255 277.757 103.094 277.998 102.968C278.213 102.791 278.392 102.587 278.531 102.385C278.595 102.283 278.646 102.182 278.697 102.079" stroke="#FF6868" stroke-width="4.617" stroke-linecap="round"/>
<path d="M276.552 92.2329L276.587 92.5386" stroke="#0D0D0D" stroke-width="2.25" stroke-linecap="round"/>
<path d="M282.708 91.3093L282.743 91.615" stroke="#0D0D0D" stroke-width="2.25" stroke-linecap="round"/>
<path d="M272.55 88.2314L276.598 89.0011" stroke="#0D0D0D" stroke-width="1.8" stroke-linecap="round"/>
<path d="M282.092 95.6428C280.364 95.5516 278.722 95.7322 277.898 95.9612C277.044 96.1985 276.439 97.3108 276.132 97.9522C275.775 98.6982 275.978 99.5034 276.175 99.8529C276.447 100.336 278.216 100.205 279.292 100.054C279.928 99.964 280.417 99.8711 281.372 99.6886C283.543 99.2737 284.37 99.2945 284.813 98.914C285.463 98.3562 284.711 96.4403 284.269 95.8568C284.162 95.7952 284.041 95.7651 283.799 95.7496C283.556 95.734 283.195 95.734 282.549 95.6428" stroke="#0D0D0D" stroke-width="1.8" stroke-linecap="round"/>
<path d="M281.477 88.3257L283.975 87.0001" stroke="#0D0D0D" stroke-width="1.8" stroke-linecap="round"/>
<path d="M300.682 45.443C298.157 44.0016 296.238 42.7987 293.647 42.7318C293.071 42.717 292.742 43.2683 292.498 43.691C292.013 44.5311 292.012 46.393 292.25 48.6183C292.565 51.5526 297.293 52.0609 300.012 52.8448C300.514 52.9896 300.559 53.6214 300.143 54.2843C298.061 57.6064 295.993 59.9937 295.325 62.414C295.195 62.8843 295.263 63.3749 295.502 63.7397C295.74 64.1046 296.217 64.343 296.939 64.4658C297.662 64.5886 298.615 64.5886 299.285 64.1714C304.948 60.6459 300.92 47.7404 302.002 45.5116C302.968 43.5225 304.887 41.8378 307.475 40.0912C309.691 38.5954 312.704 38.5794 315.124 38.9984C315.633 39.0866 316.085 39.4175 316.39 39.7787C316.997 40.4963 316.937 41.5849 316.699 42.5458C315.998 45.3718 312.256 47.2419 307.683 49.469C306.287 50.1484 305.262 50.6159 304.48 51.696C303.668 52.8179 303.933 54.4667 304.112 55.7292C304.405 57.7991 307.885 60.1165 310.428 62.2948C311.29 63.0328 312.357 63.2629 313.437 63.3839C316.885 63.7702 320.42 60.8606 321.811 58.8196C322.961 57.1321 321.756 55.0808 321.216 54.1199C319.936 51.8414 317.429 50.3847 314.9 48.7609C313.776 48.0388 312.61 47.6104 311.168 47.8488C309.581 48.1114 308.633 49.413 308.091 50.5509C307.746 51.2747 307.906 52.5232 308.264 53.495C309.473 56.7803 312.834 56.9954 315.781 58.2633C316.524 58.5829 317.284 58.4476 317.712 58.2091C318.14 57.9707 318.26 57.4939 318.321 56.9502C318.382 56.4066 318.382 55.8105 318.084 55.3246C317.19 54.4812 316.099 53.9935 315.079 53.7533C314.535 53.6322 313.939 53.513 313.325 53.3902" stroke="#FFF06C" stroke-width="8.448" stroke-linecap="round"/>
<path d="M301.866 50.6655C301.866 50.5736 301.958 50.2964 302.189 49.9022C302.512 49.6459 302.885 49.5052 303.256 49.4355C303.443 49.4118 303.626 49.4118 304.095 49.6904" stroke="#0D0D0D" stroke-width="1.6" stroke-linecap="round"/>
<path d="M308.666 48.7821C308.666 48.6902 308.711 48.459 308.873 48.1344C308.989 47.9937 309.173 47.9018 309.52 47.8544C309.868 47.807 310.373 47.807 311.034 47.9463" stroke="#0D0D0D" stroke-width="1.6" stroke-linecap="round"/>
<path d="M307.065 52.7833C307.065 52.9672 307.065 54.1192 307.341 55.7211C307.445 56.3228 308.169 56.2658 308.522 56.1969C309.045 56.0947 309.247 55.664 309.409 55.2935C309.565 54.9377 309.573 54.3657 309.504 53.7396C308.971 53.0173 308.46 52.5061 308.09 52.2971C307.858 52.2261 307.536 52.2261 307.205 52.2261" stroke="#0D0D0D" stroke-width="1.6" stroke-linecap="round"/>
<defs>
<clipPath id="clip0_257_2979">
<rect width="45" height="5" fill="white" transform="translate(149 123)"/>
</clipPath>
</defs>
</svg>
