<svg width="343" height="136" viewBox="0 0 343 136" fill="none" xmlns="http://www.w3.org/2000/svg">
<rect width="343" height="136" rx="8" fill="#6E56F6"/>
<g clip-path="url(#clip0_257_2978)">
<circle cx="151.5" cy="125.5" r="2.5" fill="#0D0D0D"/>
<circle cx="161.5" cy="125.5" r="2.5" fill="#0D0D0D"/>
<circle cx="171.5" cy="125.5" r="2.5" fill="#C9C9C9"/>
<circle cx="181.5" cy="125.5" r="2.5" fill="#C9C9C9"/>
<circle cx="191.5" cy="125.5" r="2.5" fill="#C9C9C9"/>
</g>
<rect x="308" y="8" width="24" height="14" rx="7" fill="#E0E0E0"/>
<path d="M314.668 18L316.746 12.3633H317.285V13.2734H317.062L315.406 18H314.668ZM315.609 16.3867L315.828 15.7891H318.375L318.594 16.3867H315.609ZM318.781 18L317.125 13.2734V12.3633H317.441L319.52 18H318.781ZM320.508 18V12.3633H322.441C322.999 12.3633 323.475 12.4753 323.871 12.6992C324.27 12.9206 324.574 13.2409 324.785 13.6602C324.996 14.0794 325.102 14.5846 325.102 15.1758V15.1836C325.102 15.7747 324.996 16.2812 324.785 16.7031C324.574 17.1224 324.271 17.444 323.875 17.668C323.479 17.8893 323.001 18 322.441 18H320.508ZM321.211 17.3672H322.395C322.814 17.3672 323.172 17.2812 323.469 17.1094C323.766 16.9375 323.992 16.6888 324.148 16.3633C324.305 16.0378 324.383 15.6471 324.383 15.1914V15.1836C324.383 14.7253 324.303 14.3333 324.145 14.0078C323.988 13.6797 323.762 13.4297 323.465 13.2578C323.168 13.0833 322.811 12.9961 322.395 12.9961H321.211V17.3672Z" fill="#0D0D0D"/>
<path d="M23.696 36.326H25.18V37.782C25.18 38.5287 25.1007 39.2613 24.942 39.98C24.7927 40.6987 24.564 41.3753 24.256 42.01C23.9573 42.6353 23.5793 43.1907 23.122 43.676C22.6647 44.152 22.1327 44.53 21.526 44.81L20.462 43.34C21.0033 43.088 21.4747 42.7613 21.876 42.36C22.2867 41.9587 22.6227 41.5107 22.884 41.016C23.1547 40.512 23.3553 39.9847 23.486 39.434C23.626 38.874 23.696 38.3233 23.696 37.782V36.326ZM24.102 36.326H25.572V37.782C25.572 38.2953 25.6373 38.818 25.768 39.35C25.908 39.8727 26.1087 40.372 26.37 40.848C26.6313 41.3147 26.9627 41.7347 27.364 42.108C27.7653 42.4813 28.2413 42.78 28.792 43.004L27.77 44.488C27.154 44.2173 26.6173 43.8533 26.16 43.396C25.7027 42.9387 25.32 42.4113 25.012 41.814C24.704 41.2167 24.4753 40.5773 24.326 39.896C24.1767 39.2053 24.102 38.5007 24.102 37.782V36.326ZM20.98 35.514H28.26V37.054H20.98V35.514ZM29.464 34.282H31.326V47.246H29.464V34.282ZM34.8949 34.856H43.0989V36.326H34.8949V34.856ZM33.4529 39.518H45.1989V40.988H33.4529V39.518ZM41.9789 34.856H43.8129V35.892C43.8129 36.4427 43.7989 37.0353 43.7709 37.67C43.7429 38.3047 43.6309 39.042 43.4349 39.882L41.5729 39.868C41.7782 39.0187 41.8949 38.2813 41.9229 37.656C41.9602 37.0307 41.9789 36.4427 41.9789 35.892V34.856ZM34.8249 42.346H43.7569V47.106H34.8249V42.346ZM41.9369 43.802H36.6589V45.636H41.9369V43.802ZM58.896 34.268H60.66V47.232H58.896V34.268ZM57.202 39.266H59.358V40.764H57.202V39.266ZM55.998 34.492H57.734V46.63H55.998V34.492ZM50.076 35.71H51.938V43.2H50.076V35.71ZM50.076 42.486H50.972C51.5974 42.486 52.2694 42.4673 52.988 42.43C53.716 42.3833 54.4814 42.2807 55.284 42.122L55.452 43.718C54.612 43.8673 53.8187 43.9653 53.072 44.012C52.3254 44.0587 51.6254 44.082 50.972 44.082H50.076V42.486ZM74.0212 34.268H75.8832V41.506H74.0212V34.268ZM75.3792 37.096H77.6052V38.608H75.3792V37.096ZM70.3112 35.01H72.2852C72.2852 36.158 72.0519 37.1847 71.5852 38.09C71.1279 38.986 70.4512 39.7467 69.5552 40.372C68.6592 40.988 67.5672 41.464 66.2792 41.8L65.5512 40.344C66.6152 40.0733 67.4972 39.7187 68.1972 39.28C68.8972 38.8413 69.4245 38.3373 69.7792 37.768C70.1339 37.1987 70.3112 36.592 70.3112 35.948V35.01ZM66.1672 35.01H71.4172V36.494H66.1672V35.01ZM67.4832 42.01H75.8832V47.106H67.4832V42.01ZM74.0632 43.48H69.3172V45.636H74.0632V43.48ZM85.5981 37.404H88.0621V38.916H85.5981V37.404ZM87.5441 34.282H89.4201V41.982H87.5441V34.282ZM85.0241 42.262C85.9388 42.262 86.7274 42.36 87.3901 42.556C88.0528 42.752 88.5614 43.0367 88.9161 43.41C89.2801 43.7833 89.4621 44.2313 89.4621 44.754C89.4621 45.5567 89.0654 46.1727 88.2721 46.602C87.4788 47.0407 86.3961 47.26 85.0241 47.26C83.6521 47.26 82.5694 47.0407 81.7761 46.602C80.9828 46.1727 80.5861 45.5567 80.5861 44.754C80.5861 44.2313 80.7634 43.7833 81.1181 43.41C81.4821 43.0367 81.9954 42.752 82.6581 42.556C83.3208 42.36 84.1094 42.262 85.0241 42.262ZM85.0241 43.676C84.4641 43.676 83.9928 43.718 83.6101 43.802C83.2274 43.8767 82.9334 43.9933 82.7281 44.152C82.5321 44.3107 82.4341 44.5113 82.4341 44.754C82.4341 44.9967 82.5321 45.202 82.7281 45.37C82.9334 45.5287 83.2274 45.65 83.6101 45.734C83.9928 45.8087 84.4641 45.846 85.0241 45.846C85.5841 45.846 86.0554 45.8087 86.4381 45.734C86.8208 45.65 87.1101 45.5287 87.3061 45.37C87.5021 45.202 87.6001 44.9967 87.6001 44.754C87.6001 44.5113 87.5021 44.3107 87.3061 44.152C87.1101 43.9933 86.8208 43.8767 86.4381 43.802C86.0554 43.718 85.5841 43.676 85.0241 43.676ZM81.5661 35.57H83.0781V36.396C83.0781 37.2173 82.9474 38.0013 82.6861 38.748C82.4248 39.4947 82.0234 40.1527 81.4821 40.722C80.9501 41.282 80.2688 41.702 79.4381 41.982L78.5001 40.512C79.0321 40.3347 79.4894 40.0967 79.8721 39.798C80.2641 39.4993 80.5814 39.168 80.8241 38.804C81.0761 38.4307 81.2628 38.0387 81.3841 37.628C81.5054 37.2173 81.5661 36.8067 81.5661 36.396V35.57ZM81.9581 35.57H83.4421V36.382C83.4421 36.8953 83.5448 37.3993 83.7501 37.894C83.9554 38.3887 84.2728 38.8367 84.7021 39.238C85.1408 39.6393 85.7008 39.9567 86.3821 40.19L85.4721 41.646C84.6694 41.3753 84.0068 40.9787 83.4841 40.456C82.9708 39.924 82.5881 39.308 82.3361 38.608C82.0841 37.8987 81.9581 37.1567 81.9581 36.382V35.57ZM79.0041 35.066H85.9761V36.536H79.0041V35.066ZM91.435 40.89H103.167V42.36H91.435V40.89ZM92.863 45.524H101.851V47.022H92.863V45.524ZM92.863 43.228H94.725V46H92.863V43.228ZM97.301 34.66C98.2437 34.66 99.065 34.7673 99.765 34.982C100.474 35.1967 101.025 35.5047 101.417 35.906C101.809 36.3073 102.005 36.7787 102.005 37.32C102.005 37.8707 101.809 38.3467 101.417 38.748C101.025 39.1493 100.474 39.4573 99.765 39.672C99.065 39.8867 98.2437 39.994 97.301 39.994C96.3677 39.994 95.5463 39.8867 94.837 39.672C94.137 39.4573 93.591 39.1493 93.199 38.748C92.807 38.3467 92.611 37.8707 92.611 37.32C92.611 36.7787 92.807 36.3073 93.199 35.906C93.591 35.5047 94.137 35.1967 94.837 34.982C95.5463 34.7673 96.3677 34.66 97.301 34.66ZM97.301 36.13C96.7317 36.13 96.237 36.1767 95.817 36.27C95.397 36.3633 95.0797 36.4987 94.865 36.676C94.6503 36.844 94.543 37.0587 94.543 37.32C94.543 37.5813 94.6503 37.8007 94.865 37.978C95.0797 38.1553 95.397 38.2907 95.817 38.384C96.237 38.4773 96.7317 38.524 97.301 38.524C97.889 38.524 98.3883 38.4773 98.799 38.384C99.2097 38.2907 99.5223 38.1553 99.737 37.978C99.961 37.8007 100.073 37.5813 100.073 37.32C100.073 37.0587 99.961 36.844 99.737 36.676C99.5223 36.4987 99.2097 36.3633 98.799 36.27C98.3883 36.1767 97.889 36.13 97.301 36.13ZM106.419 42.9474V42.7784C106.422 42.1984 106.473 41.736 106.573 41.3913C106.676 41.0466 106.825 40.7682 107.02 40.5561C107.216 40.344 107.451 40.1518 107.726 39.9794C107.932 39.8468 108.116 39.7093 108.278 39.5668C108.44 39.4242 108.57 39.2668 108.666 39.0945C108.762 38.9188 108.81 38.7232 108.81 38.5078C108.81 38.2791 108.755 38.0786 108.646 37.9062C108.537 37.7339 108.389 37.6013 108.203 37.5085C108.021 37.4157 107.819 37.3693 107.597 37.3693C107.382 37.3693 107.178 37.4174 106.985 37.5135C106.793 37.6063 106.636 37.7455 106.513 37.9311C106.391 38.1134 106.324 38.3404 106.314 38.6122H104.286C104.302 37.9493 104.462 37.4025 104.763 36.9716C105.065 36.5374 105.464 36.2143 105.961 36.0021C106.458 35.7867 107.007 35.679 107.607 35.679C108.266 35.679 108.85 35.7884 109.357 36.0071C109.864 36.2225 110.262 36.5357 110.55 36.9467C110.838 37.3577 110.983 37.8532 110.983 38.4332C110.983 38.821 110.918 39.1657 110.789 39.4673C110.663 39.7656 110.485 40.0308 110.257 40.2628C110.028 40.4915 109.758 40.6986 109.446 40.8842C109.185 41.04 108.969 41.2024 108.8 41.3714C108.634 41.5405 108.51 41.736 108.427 41.9581C108.348 42.1802 108.306 42.4536 108.303 42.7784V42.9474H106.419ZM107.403 46.1293C107.072 46.1293 106.788 46.0133 106.553 45.7812C106.321 45.5459 106.207 45.2642 106.21 44.9361C106.207 44.6113 106.321 44.3329 106.553 44.1009C106.788 43.8688 107.072 43.7528 107.403 43.7528C107.718 43.7528 107.995 43.8688 108.233 44.1009C108.472 44.3329 108.593 44.6113 108.596 44.9361C108.593 45.1548 108.535 45.3554 108.422 45.5376C108.313 45.7166 108.169 45.8608 107.99 45.9702C107.811 46.0762 107.615 46.1293 107.403 46.1293ZM21.9787 66H20.348L24.0121 55.8182H25.7869L29.451 66H27.8203L24.9418 57.6676H24.8622L21.9787 66ZM22.2521 62.0128H27.5419V63.3054H22.2521V62.0128ZM32.4576 55.8182V66H30.9213V55.8182H32.4576ZM46.9973 54.366H48.4673V63.774H46.9973V54.366ZM40.1233 65.706H48.8313V66.896H40.1233V65.706ZM40.1233 62.92H41.5793V66.378H40.1233V62.92ZM41.2433 56.844H42.4333V57.348C42.4333 58.104 42.2886 58.818 41.9993 59.49C41.7193 60.1527 41.3086 60.7313 40.7673 61.226C40.2353 61.7207 39.5866 62.0893 38.8213 62.332L38.1213 61.184C38.6159 61.0253 39.0546 60.8153 39.4373 60.554C39.8293 60.2833 40.1559 59.98 40.4173 59.644C40.6879 59.308 40.8933 58.944 41.0333 58.552C41.1733 58.16 41.2433 57.7587 41.2433 57.348V56.844ZM41.4953 56.844H42.6993V57.348C42.6993 57.7307 42.7693 58.1087 42.9093 58.482C43.0493 58.846 43.2546 59.1913 43.5253 59.518C43.7959 59.8353 44.1226 60.12 44.5053 60.372C44.8973 60.6147 45.3406 60.806 45.8353 60.946L45.1493 62.108C44.3839 61.8747 43.7259 61.5247 43.1753 61.058C42.6339 60.582 42.2186 60.0267 41.9293 59.392C41.6399 58.7573 41.4953 58.076 41.4953 57.348V56.844ZM38.4713 55.962H45.4433V57.124H38.4713V55.962ZM41.2433 54.422H42.6993V56.48H41.2433V54.422ZM52.2042 55.15H60.1982V56.326H52.2042V55.15ZM50.8042 60.624H62.3682V61.814H50.8042V60.624ZM55.8022 61.45H57.2862V67.162H55.8022V61.45ZM59.4842 55.15H60.9262V56.27C60.9262 56.718 60.9168 57.194 60.8982 57.698C60.8888 58.202 60.8468 58.7573 60.7722 59.364C60.7068 59.9613 60.5948 60.624 60.4362 61.352L58.9802 61.17C59.2322 60.1247 59.3768 59.21 59.4142 58.426C59.4608 57.642 59.4842 56.9233 59.4842 56.27V55.15ZM66.7631 60.834H68.2191V63.872H66.7631V60.834ZM67.4771 55.15C68.1304 55.15 68.7137 55.2807 69.2271 55.542C69.7497 55.8033 70.1604 56.1673 70.4591 56.634C70.7577 57.0913 70.9071 57.6187 70.9071 58.216C70.9071 58.8133 70.7577 59.3453 70.4591 59.812C70.1604 60.2787 69.7497 60.6427 69.2271 60.904C68.7137 61.1653 68.1304 61.296 67.4771 61.296C66.8237 61.296 66.2357 61.1653 65.7131 60.904C65.1997 60.6427 64.7937 60.2787 64.4951 59.812C64.1964 59.3453 64.0471 58.8133 64.0471 58.216C64.0471 57.6187 64.1964 57.0913 64.4951 56.634C64.7937 56.1673 65.1997 55.8033 65.7131 55.542C66.2357 55.2807 66.8237 55.15 67.4771 55.15ZM67.4771 56.41C67.0944 56.41 66.7491 56.4847 66.4411 56.634C66.1424 56.774 65.9044 56.984 65.7271 57.264C65.5591 57.5347 65.4751 57.852 65.4751 58.216C65.4751 58.5893 65.5591 58.916 65.7271 59.196C65.9044 59.4667 66.1424 59.6767 66.4411 59.826C66.7491 59.9753 67.0944 60.05 67.4771 60.05C67.8597 60.05 68.2004 59.9753 68.4991 59.826C68.7977 59.6767 69.0357 59.4667 69.2131 59.196C69.3904 58.916 69.4791 58.5893 69.4791 58.216C69.4791 57.852 69.3904 57.5347 69.2131 57.264C69.0357 56.984 68.7977 56.774 68.4991 56.634C68.2004 56.4847 67.8597 56.41 67.4771 56.41ZM72.1671 54.352H73.6231V67.148H72.1671V54.352ZM73.1891 59.518H75.4991V60.736H73.1891V59.518ZM63.7391 64.488L63.5431 63.284C64.2897 63.284 65.1111 63.2793 66.0071 63.27C66.9031 63.2607 67.8131 63.228 68.7371 63.172C69.6704 63.116 70.5664 63.032 71.4251 62.92L71.5371 63.998C70.6411 64.1567 69.7311 64.2733 68.8071 64.348C67.8924 64.4133 67.0011 64.4553 66.1331 64.474C65.2651 64.4833 64.4671 64.488 63.7391 64.488ZM89.773 54.352H91.173V67.148H89.773V54.352ZM87.813 59.392H90.137V60.596H87.813V59.392ZM86.889 54.618H88.261V66.518H86.889V54.618ZM80.687 62.906H81.541C82.129 62.906 82.6704 62.8967 83.165 62.878C83.6597 62.8593 84.1404 62.8267 84.607 62.78C85.083 62.724 85.5684 62.6493 86.063 62.556L86.203 63.76C85.6897 63.8627 85.1904 63.942 84.705 63.998C84.2197 64.0447 83.7204 64.0773 83.207 64.096C82.703 64.1147 82.1477 64.124 81.541 64.124H80.687V62.906ZM80.687 55.878H85.419V57.068H82.129V63.466H80.687V55.878ZM96.296 61.968H97.766V64.04H96.296V61.968ZM101.672 54.366H103.142V67.162H101.672V54.366ZM102.652 59.686H104.962V60.904H102.652V59.686ZM93.202 64.852L93.006 63.648C93.762 63.648 94.588 63.6433 95.484 63.634C96.38 63.6247 97.2993 63.592 98.242 63.536C99.1846 63.48 100.09 63.3913 100.958 63.27L101.07 64.334C100.165 64.502 99.2453 64.6233 98.312 64.698C97.3786 64.7727 96.478 64.8193 95.61 64.838C94.742 64.8473 93.9393 64.852 93.202 64.852ZM93.23 55.85H100.818V57.012H93.23V55.85ZM97.038 57.642C97.6353 57.642 98.1626 57.7447 98.62 57.95C99.0866 58.146 99.4506 58.4213 99.712 58.776C99.9733 59.1307 100.104 59.5507 100.104 60.036C100.104 60.512 99.9733 60.932 99.712 61.296C99.4506 61.6507 99.0866 61.926 98.62 62.122C98.1626 62.318 97.6353 62.416 97.038 62.416C96.4313 62.416 95.8946 62.318 95.428 62.122C94.9706 61.926 94.6113 61.6507 94.35 61.296C94.098 60.932 93.972 60.512 93.972 60.036C93.972 59.5507 94.098 59.1307 94.35 58.776C94.6113 58.4213 94.9706 58.146 95.428 57.95C95.8946 57.7447 96.4313 57.642 97.038 57.642ZM97.038 58.762C96.534 58.762 96.128 58.8787 95.82 59.112C95.512 59.336 95.358 59.644 95.358 60.036C95.358 60.428 95.512 60.736 95.82 60.96C96.128 61.184 96.534 61.296 97.038 61.296C97.542 61.296 97.948 61.184 98.256 60.96C98.564 60.736 98.718 60.428 98.718 60.036C98.718 59.644 98.564 59.336 98.256 59.112C97.948 58.8787 97.542 58.762 97.038 58.762ZM96.296 54.394H97.766V56.676H96.296V54.394ZM114.481 54.366H115.951V67.162H114.481V54.366ZM115.615 59.504H117.925V60.722H115.615V59.504ZM105.955 56.34H113.459V57.516H105.955V56.34ZM109.763 58.426C110.37 58.426 110.911 58.5567 111.387 58.818C111.863 59.07 112.236 59.42 112.507 59.868C112.787 60.316 112.927 60.8293 112.927 61.408C112.927 61.996 112.787 62.514 112.507 62.962C112.236 63.41 111.863 63.7647 111.387 64.026C110.911 64.278 110.365 64.404 109.749 64.404C109.142 64.404 108.601 64.278 108.125 64.026C107.649 63.7647 107.271 63.41 106.991 62.962C106.72 62.514 106.585 61.996 106.585 61.408C106.585 60.8293 106.72 60.316 106.991 59.868C107.271 59.42 107.649 59.07 108.125 58.818C108.601 58.5567 109.147 58.426 109.763 58.426ZM109.749 59.63C109.413 59.63 109.11 59.7047 108.839 59.854C108.568 60.0033 108.354 60.2133 108.195 60.484C108.046 60.7453 107.971 61.0533 107.971 61.408C107.971 61.772 108.046 62.0893 108.195 62.36C108.354 62.6213 108.568 62.8267 108.839 62.976C109.11 63.1253 109.413 63.2 109.749 63.2C110.094 63.2 110.398 63.1253 110.659 62.976C110.93 62.8267 111.14 62.6213 111.289 62.36C111.448 62.0893 111.527 61.772 111.527 61.408C111.527 61.0533 111.448 60.7453 111.289 60.484C111.14 60.2133 110.93 60.0033 110.659 59.854C110.398 59.7047 110.094 59.63 109.749 59.63ZM109.007 54.534H110.477V56.83H109.007V54.534ZM120.108 55.556H128.284V56.746H120.108V55.556ZM118.904 64.278H130.468V65.482H118.904V64.278ZM123.216 59.784H124.686V64.866H123.216V59.784ZM127.752 55.556H129.208V56.802C129.208 57.334 129.203 57.894 129.194 58.482C129.184 59.07 129.147 59.7187 129.082 60.428C129.016 61.1373 128.9 61.9353 128.732 62.822L127.262 62.654C127.504 61.4033 127.644 60.3067 127.682 59.364C127.728 58.4213 127.752 57.5673 127.752 56.802V55.556ZM135.936 55.598H141.928V63.97H135.936V55.598ZM140.486 56.774H137.378V62.808H140.486V56.774ZM143.93 54.366H145.4V67.162H143.93V54.366ZM145.078 59.35H147.388V60.568H145.078V59.35ZM154.149 54.618C155.082 54.618 155.889 54.716 156.571 54.912C157.252 55.108 157.775 55.388 158.139 55.752C158.512 56.116 158.699 56.5593 158.699 57.082C158.699 57.586 158.512 58.0247 158.139 58.398C157.775 58.762 157.252 59.042 156.571 59.238C155.889 59.4247 155.082 59.518 154.149 59.518C153.225 59.518 152.417 59.4247 151.727 59.238C151.045 59.042 150.518 58.762 150.145 58.398C149.771 58.0247 149.585 57.586 149.585 57.082C149.585 56.5593 149.771 56.116 150.145 55.752C150.518 55.388 151.045 55.108 151.727 54.912C152.417 54.716 153.225 54.618 154.149 54.618ZM154.149 55.766C153.514 55.766 152.968 55.8173 152.511 55.92C152.053 56.0227 151.703 56.172 151.461 56.368C151.218 56.5547 151.097 56.7927 151.097 57.082C151.097 57.3527 151.218 57.586 151.461 57.782C151.703 57.978 152.053 58.1273 152.511 58.23C152.968 58.3327 153.514 58.384 154.149 58.384C154.783 58.384 155.325 58.3327 155.773 58.23C156.23 58.1273 156.58 57.978 156.823 57.782C157.065 57.586 157.187 57.3527 157.187 57.082C157.187 56.7927 157.065 56.5547 156.823 56.368C156.58 56.172 156.23 56.0227 155.773 55.92C155.325 55.8173 154.783 55.766 154.149 55.766ZM149.753 62.724H158.531V66.994H149.753V62.724ZM157.089 63.886H151.181V65.832H157.089V63.886ZM148.367 60.456H159.931V61.632H148.367V60.456ZM167.919 55.038H169.137V56.27C169.137 57.1007 168.997 57.88 168.717 58.608C168.446 59.3267 168.045 59.9567 167.513 60.498C166.99 61.0393 166.355 61.4453 165.609 61.716L164.825 60.554C165.497 60.3207 166.061 59.9847 166.519 59.546C166.985 59.1073 167.335 58.608 167.569 58.048C167.802 57.4787 167.919 56.886 167.919 56.27V55.038ZM168.213 55.038H169.403V56.396C169.403 56.8067 169.468 57.208 169.599 57.6C169.729 57.9827 169.921 58.3467 170.173 58.692C170.434 59.028 170.751 59.3267 171.125 59.588C171.498 59.8493 171.923 60.0593 172.399 60.218L171.629 61.366C170.91 61.1047 170.294 60.7267 169.781 60.232C169.277 59.7373 168.889 59.1633 168.619 58.51C168.348 57.8473 168.213 57.1427 168.213 56.396V55.038ZM173.477 54.366H174.933V62.038H173.477V54.366ZM174.541 57.516H176.739V58.734H174.541V57.516ZM170.817 62.36C171.703 62.36 172.459 62.4533 173.085 62.64C173.719 62.8267 174.209 63.102 174.555 63.466C174.9 63.8207 175.073 64.25 175.073 64.754C175.073 65.2487 174.9 65.6733 174.555 66.028C174.209 66.392 173.719 66.6673 173.085 66.854C172.459 67.0407 171.703 67.134 170.817 67.134C169.939 67.134 169.179 67.0407 168.535 66.854C167.9 66.6673 167.41 66.392 167.065 66.028C166.729 65.6733 166.561 65.2487 166.561 64.754C166.561 64.25 166.729 63.8207 167.065 63.466C167.41 63.102 167.9 62.8267 168.535 62.64C169.179 62.4533 169.939 62.36 170.817 62.36ZM170.817 63.508C170.229 63.508 169.725 63.5547 169.305 63.648C168.885 63.7413 168.563 63.8813 168.339 64.068C168.115 64.2547 168.003 64.4833 168.003 64.754C168.003 65.0153 168.115 65.2393 168.339 65.426C168.563 65.6127 168.885 65.7573 169.305 65.86C169.725 65.9533 170.229 66 170.817 66C171.414 66 171.918 65.9533 172.329 65.86C172.749 65.7573 173.071 65.6127 173.295 65.426C173.519 65.2393 173.631 65.0153 173.631 64.754C173.631 64.4833 173.519 64.2547 173.295 64.068C173.071 63.8813 172.749 63.7413 172.329 63.648C171.918 63.5547 171.414 63.508 170.817 63.508ZM178.292 62.878H179.16C179.813 62.878 180.392 62.8733 180.896 62.864C181.409 62.8453 181.89 62.8173 182.338 62.78C182.795 62.7333 183.262 62.6727 183.738 62.598L183.878 63.788C183.383 63.872 182.902 63.942 182.436 63.998C181.969 64.0447 181.47 64.0727 180.938 64.082C180.415 64.0913 179.822 64.096 179.16 64.096H178.292V62.878ZM178.292 55.766H183.388V56.942H179.692V63.354H178.292V55.766ZM179.286 59.126H183.164V60.274H179.286V59.126ZM187.35 54.352H188.75V67.148H187.35V54.352ZM185.53 59.406H187.84V60.61H185.53V59.406ZM184.564 54.604H185.936V66.546H184.564V54.604ZM190.708 60.218H202.3V61.296H190.708V60.218ZM192.052 62.164H200.872V65.02H193.522V66.35H192.08V64.068H199.43V63.172H192.052V62.164ZM192.08 66H201.264V67.022H192.08V66ZM192.15 54.66H200.844V57.488H193.62V58.72H192.178V56.536H199.388V55.682H192.15V54.66ZM192.178 58.398H201.068V59.42H192.178V58.398ZM210.442 60.302H211.898V62.01H210.442V60.302ZM215.846 54.366H217.302V63.004H215.846V54.366ZM216.742 58.132H219.066V59.35H216.742V58.132ZM207.362 62.682L207.18 61.52C207.955 61.52 208.79 61.5153 209.686 61.506C210.592 61.4967 211.511 61.4687 212.444 61.422C213.387 61.366 214.297 61.2773 215.174 61.156L215.286 62.178C214.381 62.3367 213.462 62.4533 212.528 62.528C211.595 62.5933 210.685 62.6353 209.798 62.654C208.921 62.6727 208.109 62.682 207.362 62.682ZM208.776 63.592H217.302V67.162H215.846V64.74H208.776V63.592ZM207.502 55.416H214.81V56.494H207.502V55.416ZM211.156 56.9C212.08 56.9 212.818 57.0727 213.368 57.418C213.928 57.754 214.208 58.216 214.208 58.804C214.208 59.392 213.928 59.854 213.368 60.19C212.818 60.526 212.08 60.694 211.156 60.694C210.242 60.694 209.504 60.526 208.944 60.19C208.394 59.854 208.118 59.392 208.118 58.804C208.118 58.216 208.394 57.754 208.944 57.418C209.504 57.0727 210.242 56.9 211.156 56.9ZM211.156 57.88C210.652 57.88 210.251 57.9593 209.952 58.118C209.654 58.2767 209.504 58.5053 209.504 58.804C209.504 59.084 209.654 59.308 209.952 59.476C210.251 59.6347 210.652 59.714 211.156 59.714C211.67 59.714 212.071 59.6347 212.36 59.476C212.659 59.308 212.808 59.084 212.808 58.804C212.808 58.5053 212.659 58.2767 212.36 58.118C212.071 57.9593 211.67 57.88 211.156 57.88ZM210.442 54.254H211.898V55.934H210.442V54.254ZM229.243 54.366H230.713V63.648H229.243V54.366ZM222.369 65.706H231.077V66.896H222.369V65.706ZM222.369 62.71H223.825V66.168H222.369V62.71ZM223.811 55.22C224.455 55.22 225.034 55.3553 225.547 55.626C226.061 55.8967 226.467 56.2747 226.765 56.76C227.064 57.236 227.213 57.7867 227.213 58.412C227.213 59.028 227.064 59.5787 226.765 60.064C226.467 60.5493 226.061 60.9273 225.547 61.198C225.034 61.4687 224.455 61.604 223.811 61.604C223.167 61.604 222.589 61.4687 222.075 61.198C221.562 60.9273 221.156 60.5493 220.857 60.064C220.559 59.5787 220.409 59.028 220.409 58.412C220.409 57.7867 220.559 57.236 220.857 56.76C221.156 56.2747 221.562 55.8967 222.075 55.626C222.589 55.3553 223.167 55.22 223.811 55.22ZM223.811 56.494C223.438 56.494 223.102 56.5733 222.803 56.732C222.505 56.8907 222.271 57.1147 222.103 57.404C221.935 57.684 221.851 58.02 221.851 58.412C221.851 58.804 221.935 59.1447 222.103 59.434C222.271 59.714 222.505 59.9333 222.803 60.092C223.102 60.2507 223.438 60.33 223.811 60.33C224.185 60.33 224.521 60.2507 224.819 60.092C225.118 59.9333 225.351 59.714 225.519 59.434C225.697 59.1447 225.785 58.804 225.785 58.412C225.785 58.02 225.697 57.684 225.519 57.404C225.351 57.1147 225.118 56.8907 224.819 56.732C224.521 56.5733 224.185 56.494 223.811 56.494ZM241.506 54.366H242.976V67.162H241.506V54.366ZM242.64 59.504H244.95V60.722H242.64V59.504ZM232.98 56.34H240.484V57.516H232.98V56.34ZM236.788 58.426C237.395 58.426 237.936 58.5567 238.412 58.818C238.888 59.07 239.262 59.42 239.532 59.868C239.812 60.316 239.952 60.8293 239.952 61.408C239.952 61.996 239.812 62.514 239.532 62.962C239.262 63.41 238.888 63.7647 238.412 64.026C237.936 64.278 237.39 64.404 236.774 64.404C236.168 64.404 235.626 64.278 235.15 64.026C234.674 63.7647 234.296 63.41 234.016 62.962C233.746 62.514 233.61 61.996 233.61 61.408C233.61 60.8293 233.746 60.316 234.016 59.868C234.296 59.42 234.674 59.07 235.15 58.818C235.626 58.5567 236.172 58.426 236.788 58.426ZM236.774 59.63C236.438 59.63 236.135 59.7047 235.864 59.854C235.594 60.0033 235.379 60.2133 235.22 60.484C235.071 60.7453 234.996 61.0533 234.996 61.408C234.996 61.772 235.071 62.0893 235.22 62.36C235.379 62.6213 235.594 62.8267 235.864 62.976C236.135 63.1253 236.438 63.2 236.774 63.2C237.12 63.2 237.423 63.1253 237.684 62.976C237.955 62.8267 238.165 62.6213 238.314 62.36C238.473 62.0893 238.552 61.772 238.552 61.408C238.552 61.0533 238.473 60.7453 238.314 60.484C238.165 60.2133 237.955 60.0033 237.684 59.854C237.423 59.7047 237.12 59.63 236.774 59.63ZM236.032 54.534H237.502V56.83H236.032V54.534ZM250.969 58.818H253.279V60.022H250.969V58.818ZM248.435 55.528H249.569V57.838C249.569 58.5287 249.504 59.21 249.373 59.882C249.252 60.5447 249.07 61.17 248.827 61.758C248.584 62.346 248.281 62.878 247.917 63.354C247.553 63.8207 247.128 64.1987 246.643 64.488L245.733 63.382C246.19 63.1113 246.587 62.7753 246.923 62.374C247.259 61.9727 247.539 61.5247 247.763 61.03C247.996 60.5353 248.164 60.0173 248.267 59.476C248.379 58.9253 248.435 58.3793 248.435 57.838V55.528ZM248.729 55.528H249.849V57.768C249.849 58.2813 249.896 58.7993 249.989 59.322C250.092 59.8353 250.246 60.3253 250.451 60.792C250.656 61.2587 250.913 61.688 251.221 62.08C251.529 62.472 251.898 62.8033 252.327 63.074L251.515 64.208C251.03 63.9187 250.61 63.5453 250.255 63.088C249.91 62.6213 249.625 62.1033 249.401 61.534C249.177 60.9553 249.009 60.3487 248.897 59.714C248.785 59.07 248.729 58.4213 248.729 57.768V55.528ZM255.449 54.352H256.849V67.148H255.449V54.352ZM252.845 54.604H254.217V66.546H252.845V54.604ZM261.524 60.904H262.98V64.628H261.524V60.904ZM266.2 60.904H267.67V64.628H266.2V60.904ZM258.808 64.376H270.4V65.58H258.808V64.376ZM264.59 55.094C265.495 55.094 266.303 55.234 267.012 55.514C267.721 55.7847 268.277 56.172 268.678 56.676C269.089 57.1707 269.294 57.7587 269.294 58.44C269.294 59.1213 269.089 59.714 268.678 60.218C268.277 60.7127 267.721 61.1 267.012 61.38C266.303 61.6507 265.495 61.786 264.59 61.786C263.685 61.786 262.873 61.6507 262.154 61.38C261.445 61.1 260.885 60.7127 260.474 60.218C260.073 59.714 259.872 59.1213 259.872 58.44C259.872 57.7587 260.073 57.1707 260.474 56.676C260.885 56.172 261.445 55.7847 262.154 55.514C262.873 55.234 263.685 55.094 264.59 55.094ZM264.59 56.242C263.946 56.242 263.377 56.3307 262.882 56.508C262.387 56.6853 262 56.942 261.72 57.278C261.449 57.6047 261.314 57.992 261.314 58.44C261.314 58.888 261.449 59.28 261.72 59.616C262 59.9427 262.387 60.1993 262.882 60.386C263.377 60.5633 263.946 60.652 264.59 60.652C265.234 60.652 265.799 60.5633 266.284 60.386C266.779 60.1993 267.166 59.9427 267.446 59.616C267.726 59.28 267.866 58.888 267.866 58.44C267.866 57.992 267.726 57.6047 267.446 57.278C267.166 56.942 266.779 56.6853 266.284 56.508C265.799 56.3307 265.234 56.242 264.59 56.242ZM273.022 66.0945C272.75 66.0945 272.516 65.9983 272.321 65.8061C272.125 65.6106 272.027 65.3752 272.027 65.1001C272.027 64.8284 272.125 64.5964 272.321 64.4041C272.516 64.2086 272.75 64.1108 273.022 64.1108C273.293 64.1108 273.527 64.2086 273.723 64.4041C273.918 64.5964 274.016 64.8284 274.016 65.1001C274.016 65.2824 273.97 65.4498 273.877 65.6023C273.787 65.7514 273.668 65.8707 273.519 65.9602C273.37 66.0497 273.204 66.0945 273.022 66.0945Z" fill="white"/>
<path d="M22 85H276" stroke="#F3F3F3" stroke-width="0.5"/>
<path d="M26.0526 96.384H26.6926V103.624H26.0526V96.384ZM24.9006 99.248H26.2926V99.8H24.9006V99.248ZM24.4446 96.536H25.0766V103.256H24.4446V96.536ZM20.7966 97.224H23.5566V101.68H20.7966V97.224ZM22.9326 97.752H21.4206V101.152H22.9326V97.752ZM29.932 96.648C30.2947 96.648 30.6147 96.7173 30.892 96.856C31.1747 96.9893 31.396 97.176 31.556 97.416C31.716 97.656 31.796 97.936 31.796 98.256C31.796 98.5707 31.716 98.8507 31.556 99.096C31.396 99.336 31.1747 99.5227 30.892 99.656C30.6147 99.7893 30.2947 99.856 29.932 99.856C29.5747 99.856 29.2547 99.7893 28.972 99.656C28.6893 99.5227 28.4653 99.336 28.3 99.096C28.14 98.8507 28.06 98.5707 28.06 98.256C28.06 97.936 28.14 97.656 28.3 97.416C28.4653 97.176 28.6893 96.9893 28.972 96.856C29.2547 96.7173 29.5747 96.648 29.932 96.648ZM29.932 97.2C29.6973 97.2 29.4867 97.2453 29.3 97.336C29.1187 97.4213 28.9747 97.544 28.868 97.704C28.7613 97.864 28.708 98.048 28.708 98.256C28.708 98.464 28.7613 98.648 28.868 98.808C28.9747 98.9627 29.1187 99.0853 29.3 99.176C29.4867 99.2667 29.6973 99.312 29.932 99.312C30.1667 99.312 30.3747 99.2667 30.556 99.176C30.7427 99.0853 30.8893 98.9627 30.996 98.808C31.1027 98.648 31.156 98.464 31.156 98.256C31.156 98.048 31.1027 97.864 30.996 97.704C30.8893 97.544 30.7427 97.4213 30.556 97.336C30.3747 97.2453 30.1667 97.2 29.932 97.2ZM33.164 96.384H33.828V100.088H33.164V96.384ZM29.148 100.448H33.828V102.2H29.812V103.288H29.172V101.704H33.172V100.976H29.148V100.448ZM29.172 102.992H34.076V103.528H29.172V102.992ZM42.8934 99.272H44.2214V99.824H42.8934V99.272ZM42.4054 96.384H43.0694V103.616H42.4054V96.384ZM37.7974 97.096H38.4534V101.576H37.7974V97.096ZM37.7974 101.232H38.3734C38.9014 101.232 39.4427 101.208 39.9974 101.16C40.5574 101.112 41.136 101.027 41.7334 100.904L41.8134 101.464C41.1947 101.587 40.6027 101.672 40.0374 101.72C39.4774 101.763 38.9227 101.784 38.3734 101.784H37.7974V101.232ZM47.2128 96.912C47.5914 96.912 47.9248 96.984 48.2128 97.128C48.5061 97.2667 48.7354 97.464 48.9008 97.72C49.0661 97.976 49.1488 98.2747 49.1488 98.616C49.1488 98.952 49.0661 99.2507 48.9008 99.512C48.7354 99.768 48.5061 99.968 48.2128 100.112C47.9248 100.251 47.5914 100.32 47.2128 100.32C46.8394 100.32 46.5061 100.251 46.2128 100.112C45.9194 99.968 45.6874 99.768 45.5168 99.512C45.3514 99.2507 45.2688 98.952 45.2688 98.616C45.2688 98.2747 45.3514 97.976 45.5168 97.72C45.6874 97.464 45.9194 97.2667 46.2128 97.128C46.5061 96.984 46.8394 96.912 47.2128 96.912ZM47.2128 97.488C46.9674 97.488 46.7461 97.536 46.5488 97.632C46.3568 97.7227 46.2048 97.8533 46.0928 98.024C45.9808 98.1947 45.9248 98.392 45.9248 98.616C45.9248 98.84 45.9808 99.0373 46.0928 99.208C46.2048 99.3787 46.3568 99.512 46.5488 99.608C46.7461 99.6987 46.9674 99.744 47.2128 99.744C47.4634 99.744 47.6848 99.6987 47.8768 99.608C48.0688 99.512 48.2208 99.3787 48.3328 99.208C48.4448 99.0373 48.5008 98.84 48.5008 98.616C48.5008 98.392 48.4448 98.1947 48.3328 98.024C48.2208 97.8533 48.0688 97.7227 47.8768 97.632C47.6848 97.536 47.4634 97.488 47.2128 97.488ZM50.1008 96.384H50.7648V103.632H50.1008V96.384ZM44.9967 102.048L44.9088 101.488C45.3514 101.488 45.8368 101.485 46.3648 101.48C46.8928 101.469 47.4368 101.448 47.9968 101.416C48.5621 101.379 49.1061 101.32 49.6288 101.24L49.6848 101.728C49.1408 101.829 48.5888 101.904 48.0288 101.952C47.4741 101.995 46.9381 102.021 46.4208 102.032C45.9034 102.043 45.4287 102.048 44.9967 102.048ZM59.4301 96.384H60.0941V100.488H59.4301V96.384ZM59.9101 98.144H61.1581V98.696H59.9101V98.144ZM57.4221 96.856H58.1261C58.1261 97.464 57.9901 98.0133 57.7181 98.504C57.4515 98.9893 57.0648 99.4053 56.5581 99.752C56.0515 100.099 55.4435 100.371 54.7341 100.568L54.4701 100.032C55.0995 99.8667 55.6328 99.6427 56.0701 99.36C56.5075 99.072 56.8408 98.7413 57.0701 98.368C57.3048 97.9947 57.4221 97.5867 57.4221 97.144V96.856ZM54.7901 96.856H57.7981V97.392H54.7901V96.856ZM55.5341 100.824H60.0941V103.52H55.5341V100.824ZM59.4381 101.368H56.1901V102.984H59.4381V101.368ZM65.7015 98.264H67.3255V98.816H65.7015V98.264ZM67.1255 96.384H67.7895V100.696H67.1255V96.384ZM65.4055 100.92C65.9068 100.92 66.3362 100.973 66.6935 101.08C67.0562 101.187 67.3335 101.341 67.5255 101.544C67.7175 101.741 67.8135 101.984 67.8135 102.272C67.8135 102.699 67.5975 103.029 67.1655 103.264C66.7388 103.499 66.1522 103.616 65.4055 103.616C64.6588 103.616 64.0695 103.499 63.6375 103.264C63.2108 103.029 62.9975 102.699 62.9975 102.272C62.9975 101.984 63.0935 101.741 63.2855 101.544C63.4828 101.341 63.7602 101.187 64.1175 101.08C64.4802 100.973 64.9095 100.92 65.4055 100.92ZM65.4055 101.44C65.0428 101.44 64.7308 101.472 64.4695 101.536C64.2082 101.6 64.0055 101.693 63.8615 101.816C63.7228 101.939 63.6535 102.091 63.6535 102.272C63.6535 102.443 63.7228 102.589 63.8615 102.712C64.0055 102.835 64.2082 102.931 64.4695 103C64.7308 103.064 65.0428 103.096 65.4055 103.096C65.7735 103.096 66.0855 103.064 66.3415 103C66.6028 102.931 66.8028 102.835 66.9415 102.712C67.0855 102.589 67.1575 102.443 67.1575 102.272C67.1575 102.091 67.0855 101.939 66.9415 101.816C66.8028 101.693 66.6028 101.6 66.3415 101.536C66.0855 101.472 65.7735 101.44 65.4055 101.44ZM63.6775 97.12H64.2215V97.704C64.2215 98.1467 64.1362 98.5627 63.9655 98.952C63.8002 99.336 63.5655 99.6747 63.2615 99.968C62.9575 100.256 62.6055 100.477 62.2055 100.632L61.8615 100.104C62.1335 100.008 62.3788 99.8773 62.5975 99.712C62.8215 99.5467 63.0135 99.3573 63.1735 99.144C63.3388 98.9307 63.4642 98.7013 63.5495 98.456C63.6348 98.2107 63.6775 97.96 63.6775 97.704V97.12ZM63.8055 97.12H64.3495V97.696C64.3495 98.0053 64.4215 98.3067 64.5655 98.6C64.7095 98.8933 64.9148 99.152 65.1815 99.376C65.4482 99.6 65.7548 99.776 66.1015 99.904L65.7655 100.432C65.3708 100.288 65.0268 100.08 64.7335 99.808C64.4402 99.5307 64.2108 99.2107 64.0455 98.848C63.8855 98.4853 63.8055 98.1013 63.8055 97.696V97.12ZM62.0695 96.912H65.9335V97.456H62.0695V96.912ZM74.9029 97.712H76.9829V98.256H74.9029V97.712ZM74.9029 99.272H76.9989V99.816H74.9029V99.272ZM76.7349 96.392H77.3989V101.744H76.7349V96.392ZM72.7509 102.92H77.5669V103.464H72.7509V102.92ZM72.7509 101.224H73.4149V103.192H72.7509V101.224ZM71.7989 96.872H72.4629V98.144H74.4149V96.872H75.0709V100.512H71.7989V96.872ZM72.4629 98.664V99.976H74.4149V98.664H72.4629ZM80.6783 100.696H81.3423V101.872H80.6783V100.696ZM83.7183 96.384H84.3823V103.624H83.7183V96.384ZM84.1743 99.456H85.5103V100.016H84.1743V99.456ZM78.8223 102.248L78.7183 101.688C79.1556 101.688 79.6303 101.685 80.1423 101.68C80.6596 101.669 81.1876 101.648 81.7263 101.616C82.2649 101.584 82.7849 101.533 83.2863 101.464L83.3343 101.952C82.8169 102.043 82.2889 102.109 81.7503 102.152C81.2169 102.195 80.6996 102.221 80.1983 102.232C79.7023 102.243 79.2436 102.248 78.8223 102.248ZM78.8463 97.264H83.1663V97.8H78.8463V97.264ZM81.0143 98.216C81.3503 98.216 81.6463 98.272 81.9023 98.384C82.1583 98.496 82.3583 98.6533 82.5023 98.856C82.6463 99.0533 82.7183 99.288 82.7183 99.56C82.7183 99.8267 82.6463 100.061 82.5023 100.264C82.3583 100.467 82.1583 100.624 81.9023 100.736C81.6463 100.843 81.3503 100.896 81.0143 100.896C80.6783 100.896 80.3796 100.843 80.1183 100.736C79.8623 100.624 79.6623 100.467 79.5183 100.264C79.3796 100.061 79.3103 99.8267 79.3103 99.56C79.3103 99.288 79.3796 99.0533 79.5183 98.856C79.6623 98.6533 79.8623 98.496 80.1183 98.384C80.3796 98.272 80.6783 98.216 81.0143 98.216ZM81.0143 98.736C80.6889 98.736 80.4276 98.8107 80.2303 98.96C80.0329 99.1093 79.9343 99.3093 79.9343 99.56C79.9343 99.8053 80.0329 100.003 80.2303 100.152C80.4276 100.301 80.6889 100.376 81.0143 100.376C81.3343 100.376 81.5929 100.301 81.7903 100.152C81.9876 100.003 82.0863 99.8053 82.0863 99.56C82.0863 99.3093 81.9876 99.1093 81.7903 98.96C81.5929 98.8107 81.3343 98.736 81.0143 98.736ZM80.6783 96.4H81.3423V97.616H80.6783V96.4ZM86.1576 99.744H92.7176V100.256H86.1576V99.744ZM86.9416 100.832H91.9016V102.376H87.6136V103.224H86.9576V101.92H91.2456V101.312H86.9416V100.832ZM86.9576 103.048H92.1336V103.528H86.9576V103.048ZM86.9896 96.6H91.8776V98.104H87.6616V98.888H87.0056V97.656H91.2216V97.072H86.9896V96.6ZM87.0056 98.728H92.0056V99.208H87.0056V98.728ZM101.047 96.384H101.711V103.624H101.047V96.384ZM98.927 97.168H99.583C99.583 97.6907 99.519 98.1947 99.391 98.68C99.2683 99.1653 99.0737 99.6267 98.807 100.064C98.5403 100.496 98.1937 100.899 97.767 101.272C97.3403 101.645 96.823 101.979 96.215 102.272L95.863 101.736C96.5617 101.4 97.1377 101.008 97.591 100.56C98.0443 100.112 98.3803 99.6133 98.599 99.064C98.8177 98.5093 98.927 97.912 98.927 97.272V97.168ZM96.199 97.168H99.207V97.704H96.199V97.168ZM103.126 100.368H109.686V100.912H103.126V100.368ZM103.958 96.568H108.846V98.328H104.63V99.296H103.974V97.832H108.19V97.096H103.958V96.568ZM103.974 99.08H108.998V99.608H103.974V99.08ZM106.078 99.352H106.734V100.632H106.078V99.352ZM103.862 101.464H108.886V103.552H108.222V102H103.862V101.464ZM115.398 96.384H116.054V103.624H115.398V96.384ZM115.902 99.36H117.238V99.92H115.902V99.36ZM110.454 97.544H114.718V98.088H110.454V97.544ZM112.622 98.68C112.963 98.68 113.264 98.752 113.526 98.896C113.792 99.04 114 99.2373 114.15 99.488C114.304 99.7333 114.382 100.019 114.382 100.344C114.382 100.669 114.304 100.957 114.15 101.208C114 101.459 113.792 101.656 113.526 101.8C113.264 101.939 112.963 102.008 112.622 102.008C112.28 102.008 111.976 101.939 111.71 101.8C111.448 101.656 111.24 101.459 111.086 101.208C110.931 100.957 110.854 100.669 110.854 100.344C110.854 100.019 110.931 99.7333 111.086 99.488C111.24 99.2373 111.448 99.04 111.71 98.896C111.976 98.752 112.28 98.68 112.622 98.68ZM112.622 99.232C112.403 99.232 112.208 99.28 112.038 99.376C111.867 99.472 111.731 99.6027 111.63 99.768C111.534 99.9333 111.486 100.125 111.486 100.344C111.486 100.563 111.534 100.757 111.63 100.928C111.731 101.093 111.867 101.224 112.038 101.32C112.208 101.411 112.403 101.456 112.622 101.456C112.835 101.456 113.027 101.411 113.198 101.32C113.368 101.224 113.502 101.093 113.598 100.928C113.699 100.757 113.75 100.563 113.75 100.344C113.75 100.125 113.699 99.9333 113.598 99.768C113.502 99.6027 113.368 99.472 113.198 99.376C113.027 99.28 112.835 99.232 112.622 99.232ZM112.278 96.472H112.942V97.784H112.278V96.472ZM118.549 97.112H123.205V97.656H118.549V97.112ZM117.853 102.056H124.389V102.608H117.853V102.056ZM120.397 99.472H121.053V102.336H120.397V99.472ZM122.949 97.112H123.613V97.824C123.613 98.1227 123.608 98.4373 123.597 98.768C123.592 99.0987 123.57 99.4613 123.533 99.856C123.501 100.251 123.44 100.691 123.349 101.176L122.677 101.096C122.816 100.403 122.896 99.7947 122.917 99.272C122.938 98.744 122.949 98.2613 122.949 97.824V97.112ZM132.727 96.392H133.391V100.496H132.727V96.392ZM128.719 100.912H133.391V103.528H128.719V100.912ZM132.743 101.448H129.367V102.984H132.743V101.448ZM129.343 96.672H129.895V97.376C129.895 97.824 129.809 98.2453 129.639 98.64C129.468 99.0293 129.228 99.368 128.919 99.656C128.615 99.944 128.257 100.165 127.847 100.32L127.519 99.792C127.791 99.696 128.039 99.5653 128.263 99.4C128.487 99.2347 128.679 99.0453 128.839 98.832C129.004 98.6187 129.129 98.3893 129.215 98.144C129.3 97.8933 129.343 97.6373 129.343 97.376V96.672ZM129.463 96.672H130.015V97.376C130.015 97.632 130.057 97.8773 130.143 98.112C130.233 98.3467 130.359 98.5653 130.519 98.768C130.684 98.9653 130.876 99.1413 131.095 99.296C131.319 99.4507 131.564 99.5733 131.831 99.664L131.503 100.176C131.204 100.075 130.929 99.9333 130.679 99.752C130.428 99.5707 130.212 99.3573 130.031 99.112C129.849 98.8667 129.708 98.5973 129.607 98.304C129.511 98.0107 129.463 97.7013 129.463 97.376V96.672ZM140.094 96.384H140.75V103.632H140.094V96.384ZM135.238 101.328H135.838C136.249 101.328 136.643 101.323 137.022 101.312C137.406 101.296 137.793 101.269 138.182 101.232C138.577 101.195 138.987 101.141 139.414 101.072L139.478 101.616C138.827 101.723 138.214 101.795 137.638 101.832C137.062 101.864 136.462 101.88 135.838 101.88H135.238V101.328ZM135.222 97.056H138.566V99.64H135.91V101.536H135.238V99.104H137.894V97.6H135.222V97.056ZM144.021 97.12H144.565V97.712C144.565 98.1493 144.48 98.56 144.309 98.944C144.144 99.328 143.909 99.664 143.605 99.952C143.301 100.235 142.949 100.451 142.549 100.6L142.205 100.072C142.472 99.976 142.715 99.848 142.933 99.688C143.157 99.528 143.352 99.344 143.517 99.136C143.683 98.9227 143.808 98.696 143.893 98.456C143.979 98.2107 144.021 97.9627 144.021 97.712V97.12ZM144.149 97.12H144.693V97.704C144.693 98.0133 144.765 98.3147 144.909 98.608C145.053 98.896 145.259 99.1547 145.525 99.384C145.792 99.608 146.099 99.784 146.445 99.912L146.109 100.432C145.715 100.288 145.371 100.08 145.077 99.808C144.784 99.536 144.555 99.2187 144.389 98.856C144.229 98.4933 144.149 98.1093 144.149 97.704V97.12ZM146.053 98.272H147.661V98.824H146.053V98.272ZM142.413 96.88H146.277V97.424H142.413V96.88ZM143.301 101.104H148.133V103.624H147.469V101.648H143.301V101.104ZM147.469 96.384H148.133V100.712H147.469V96.384ZM156.743 96.384H157.407V101.712H156.743V96.384ZM157.199 98.584H158.471V99.136H157.199V98.584ZM152.903 102.92H157.727V103.464H152.903V102.92ZM152.903 101.168H153.559V103.136H152.903V101.168ZM153.807 96.896C154.169 96.896 154.492 96.9733 154.775 97.128C155.057 97.2773 155.281 97.4853 155.447 97.752C155.612 98.0187 155.695 98.328 155.695 98.68C155.695 99.0213 155.612 99.328 155.447 99.6C155.281 99.872 155.057 100.085 154.775 100.24C154.492 100.389 154.169 100.464 153.807 100.464C153.449 100.464 153.127 100.389 152.839 100.24C152.556 100.085 152.332 99.872 152.167 99.6C152.001 99.328 151.919 99.0213 151.919 98.68C151.919 98.328 152.001 98.0187 152.167 97.752C152.332 97.4853 152.556 97.2773 152.839 97.128C153.127 96.9733 153.449 96.896 153.807 96.896ZM153.807 97.472C153.572 97.472 153.361 97.5227 153.175 97.624C152.988 97.7253 152.839 97.8667 152.727 98.048C152.62 98.2293 152.567 98.44 152.567 98.68C152.567 98.9147 152.62 99.1227 152.727 99.304C152.839 99.4853 152.988 99.6267 153.175 99.728C153.361 99.8293 153.572 99.88 153.807 99.88C154.041 99.88 154.252 99.8293 154.439 99.728C154.631 99.6267 154.78 99.4853 154.887 99.304C154.999 99.1227 155.055 98.9147 155.055 98.68C155.055 98.44 154.999 98.2293 154.887 98.048C154.78 97.8667 154.631 97.7253 154.439 97.624C154.252 97.5227 154.041 97.472 153.807 97.472ZM163.014 98.264H164.638V98.816H163.014V98.264ZM164.438 96.384H165.102V100.696H164.438V96.384ZM162.718 100.92C163.219 100.92 163.649 100.973 164.006 101.08C164.369 101.187 164.646 101.341 164.838 101.544C165.03 101.741 165.126 101.984 165.126 102.272C165.126 102.699 164.91 103.029 164.478 103.264C164.051 103.499 163.465 103.616 162.718 103.616C161.971 103.616 161.382 103.499 160.95 103.264C160.523 103.029 160.31 102.699 160.31 102.272C160.31 101.984 160.406 101.741 160.598 101.544C160.795 101.341 161.073 101.187 161.43 101.08C161.793 100.973 162.222 100.92 162.718 100.92ZM162.718 101.44C162.355 101.44 162.043 101.472 161.782 101.536C161.521 101.6 161.318 101.693 161.174 101.816C161.035 101.939 160.966 102.091 160.966 102.272C160.966 102.443 161.035 102.589 161.174 102.712C161.318 102.835 161.521 102.931 161.782 103C162.043 103.064 162.355 103.096 162.718 103.096C163.086 103.096 163.398 103.064 163.654 103C163.915 102.931 164.115 102.835 164.254 102.712C164.398 102.589 164.47 102.443 164.47 102.272C164.47 102.091 164.398 101.939 164.254 101.816C164.115 101.693 163.915 101.6 163.654 101.536C163.398 101.472 163.086 101.44 162.718 101.44ZM160.99 97.12H161.534V97.704C161.534 98.1467 161.449 98.5627 161.278 98.952C161.113 99.336 160.878 99.6747 160.574 99.968C160.27 100.256 159.918 100.477 159.518 100.632L159.174 100.104C159.446 100.008 159.691 99.8773 159.91 99.712C160.134 99.5467 160.326 99.3573 160.486 99.144C160.651 98.9307 160.777 98.7013 160.862 98.456C160.947 98.2107 160.99 97.96 160.99 97.704V97.12ZM161.118 97.12H161.662V97.696C161.662 98.0053 161.734 98.3067 161.878 98.6C162.022 98.8933 162.227 99.152 162.494 99.376C162.761 99.6 163.067 99.776 163.414 99.904L163.078 100.432C162.683 100.288 162.339 100.08 162.046 99.808C161.753 99.5307 161.523 99.2107 161.358 98.848C161.198 98.4853 161.118 98.1013 161.118 97.696V97.12ZM159.382 96.912H163.246V97.456H159.382V96.912ZM171.461 96.384H172.125V100.488H171.461V96.384ZM171.941 98.144H173.189V98.696H171.941V98.144ZM169.453 96.856H170.157C170.157 97.464 170.021 98.0133 169.749 98.504C169.483 98.9893 169.096 99.4053 168.589 99.752C168.083 100.099 167.475 100.371 166.765 100.568L166.501 100.032C167.131 99.8667 167.664 99.6427 168.101 99.36C168.539 99.072 168.872 98.7413 169.101 98.368C169.336 97.9947 169.453 97.5867 169.453 97.144V96.856ZM166.821 96.856H169.829V97.392H166.821V96.856ZM167.565 100.824H172.125V103.52H167.565V100.824ZM171.469 101.368H168.221V102.984H171.469V101.368ZM177.133 96.512C177.933 96.512 178.557 96.6213 179.005 96.84C179.453 97.0533 179.677 97.36 179.677 97.76C179.677 98.1653 179.453 98.4773 179.005 98.696C178.557 98.9093 177.933 99.016 177.133 99.016C176.338 99.016 175.714 98.9093 175.261 98.696C174.813 98.4773 174.589 98.1653 174.589 97.76C174.589 97.36 174.813 97.0533 175.261 96.84C175.714 96.6213 176.338 96.512 177.133 96.512ZM177.133 97.008C176.743 97.008 176.41 97.0373 176.133 97.096C175.855 97.1547 175.642 97.24 175.493 97.352C175.349 97.464 175.277 97.6 175.277 97.76C175.277 97.92 175.349 98.0587 175.493 98.176C175.642 98.288 175.855 98.3733 176.133 98.432C176.41 98.4853 176.743 98.512 177.133 98.512C177.527 98.512 177.863 98.4853 178.141 98.432C178.418 98.3733 178.629 98.288 178.773 98.176C178.922 98.0587 178.997 97.92 178.997 97.76C178.997 97.6 178.922 97.464 178.773 97.352C178.629 97.24 178.418 97.1547 178.141 97.096C177.863 97.0373 177.527 97.008 177.133 97.008ZM173.869 99.504H180.405V100.04H173.869V99.504ZM174.661 100.656H179.565V102.288H175.325V103.16H174.677V101.8H178.917V101.168H174.661V100.656ZM174.677 103.024H179.781V103.544H174.677V103.024ZM183.87 96.944H187.07V97.496H183.87V96.944ZM184.958 98.56H185.614V100.368H184.958V98.56ZM186.806 96.944H187.454V97.328C187.454 97.568 187.446 97.8667 187.43 98.224C187.419 98.5813 187.366 98.9973 187.27 99.472L186.614 99.408C186.71 98.928 186.766 98.52 186.782 98.184C186.798 97.848 186.806 97.5627 186.806 97.328V96.944ZM188.438 96.384H189.11V101.832H188.438V96.384ZM188.806 98.736H190.142V99.296H188.806V98.736ZM184.534 102.92H189.342V103.464H184.534V102.92ZM184.534 101.336H185.198V103.08H184.534V101.336ZM183.502 100.68L183.43 100.136C183.857 100.136 184.329 100.131 184.846 100.12C185.363 100.109 185.889 100.088 186.422 100.056C186.955 100.019 187.467 99.968 187.958 99.904L187.998 100.392C187.502 100.477 186.987 100.541 186.454 100.584C185.921 100.627 185.401 100.653 184.894 100.664C184.393 100.675 183.929 100.68 183.502 100.68ZM196.11 96.384H196.766V103.632H196.11V96.384ZM191.254 101.328H191.854C192.264 101.328 192.659 101.323 193.038 101.312C193.422 101.296 193.808 101.269 194.198 101.232C194.592 101.195 195.003 101.141 195.43 101.072L195.494 101.616C194.843 101.723 194.23 101.795 193.654 101.832C193.078 101.864 192.478 101.88 191.854 101.88H191.254V101.328ZM191.238 97.056H194.582V99.64H191.926V101.536H191.254V99.104H193.91V97.6H191.238V97.056ZM198.181 97.624H201.773V98.168H198.181V97.624ZM199.981 98.648C200.285 98.648 200.552 98.7173 200.781 98.856C201.016 98.9947 201.2 99.1893 201.333 99.44C201.466 99.6853 201.533 99.9707 201.533 100.296C201.533 100.621 201.466 100.909 201.333 101.16C201.2 101.405 201.016 101.6 200.781 101.744C200.552 101.883 200.285 101.952 199.981 101.952C199.682 101.952 199.416 101.883 199.181 101.744C198.946 101.6 198.762 101.405 198.629 101.16C198.496 100.909 198.429 100.621 198.429 100.296C198.429 99.9707 198.496 99.6853 198.629 99.44C198.762 99.1947 198.946 99.0027 199.181 98.864C199.416 98.72 199.682 98.648 199.981 98.648ZM199.981 99.208C199.8 99.208 199.634 99.256 199.485 99.352C199.341 99.4427 199.226 99.5707 199.141 99.736C199.061 99.896 199.021 100.083 199.021 100.296C199.021 100.509 199.061 100.699 199.141 100.864C199.226 101.029 199.341 101.157 199.485 101.248C199.634 101.339 199.8 101.384 199.981 101.384C200.168 101.384 200.333 101.339 200.477 101.248C200.621 101.157 200.733 101.029 200.813 100.864C200.898 100.699 200.941 100.509 200.941 100.296C200.941 100.083 200.898 99.896 200.813 99.736C200.733 99.5707 200.621 99.4427 200.477 99.352C200.333 99.256 200.168 99.208 199.981 99.208ZM203.685 96.384H204.317V103.624H203.685V96.384ZM202.525 99.432H203.893V99.976H202.525V99.432ZM202.133 96.552H202.757V103.272H202.133V96.552ZM199.653 96.6H200.309V97.952H199.653V96.6ZM207.806 102.152H214.366V102.704H207.806V102.152ZM210.742 100.416H211.398V102.312H210.742V100.416ZM208.574 96.896H209.238V98.184H212.918V96.896H213.574V100.6H208.574V96.896ZM209.238 98.728V100.056H212.918V98.728H209.238ZM218.014 98.976H219.406V99.528H218.014V98.976ZM216.67 97.064H217.19V98.448C217.19 98.8213 217.15 99.1893 217.07 99.552C216.995 99.9147 216.883 100.256 216.734 100.576C216.59 100.896 216.414 101.184 216.206 101.44C215.998 101.696 215.763 101.904 215.502 102.064L215.086 101.568C215.331 101.419 215.552 101.232 215.75 101.008C215.947 100.784 216.112 100.533 216.246 100.256C216.384 99.9733 216.488 99.68 216.558 99.376C216.632 99.0667 216.67 98.7573 216.67 98.448V97.064ZM216.798 97.064H217.31V98.424C217.31 98.712 217.342 99.0027 217.406 99.296C217.475 99.584 217.571 99.8613 217.694 100.128C217.822 100.389 217.979 100.629 218.166 100.848C218.352 101.067 218.563 101.248 218.798 101.392L218.422 101.904C218.16 101.744 217.928 101.541 217.726 101.296C217.523 101.045 217.352 100.765 217.214 100.456C217.075 100.141 216.971 99.8107 216.902 99.464C216.832 99.1173 216.798 98.7707 216.798 98.424V97.064ZM220.678 96.384H221.318V103.624H220.678V96.384ZM219.206 96.536H219.83V103.256H219.206V96.536ZM224.133 100.112H224.789V102.272H224.133V100.112ZM226.805 100.112H227.469V102.272H226.805V100.112ZM222.525 102.144H229.085V102.696H222.525V102.144ZM225.789 96.84C226.301 96.84 226.754 96.9173 227.149 97.072C227.544 97.2267 227.853 97.4427 228.077 97.72C228.306 97.9973 228.421 98.3253 228.421 98.704C228.421 99.0773 228.306 99.4053 228.077 99.688C227.853 99.9653 227.544 100.181 227.149 100.336C226.754 100.485 226.301 100.56 225.789 100.56C225.282 100.56 224.829 100.485 224.429 100.336C224.034 100.181 223.725 99.9653 223.501 99.688C223.277 99.4053 223.165 99.0773 223.165 98.704C223.165 98.3253 223.277 97.9973 223.501 97.72C223.725 97.4427 224.034 97.2267 224.429 97.072C224.829 96.9173 225.282 96.84 225.789 96.84ZM225.789 97.368C225.405 97.368 225.064 97.424 224.765 97.536C224.466 97.648 224.232 97.8053 224.061 98.008C223.89 98.2053 223.805 98.4373 223.805 98.704C223.805 98.9707 223.89 99.2053 224.061 99.408C224.232 99.6053 224.466 99.76 224.765 99.872C225.064 99.984 225.405 100.04 225.789 100.04C226.178 100.04 226.522 99.984 226.821 99.872C227.12 99.76 227.354 99.6053 227.525 99.408C227.696 99.2053 227.781 98.9707 227.781 98.704C227.781 98.4373 227.696 98.2053 227.525 98.008C227.354 97.8053 227.12 97.648 226.821 97.536C226.522 97.424 226.178 97.368 225.789 97.368ZM230.672 103.039C230.534 103.039 230.414 102.99 230.312 102.891C230.214 102.789 230.164 102.669 230.164 102.531C230.164 102.391 230.214 102.271 230.312 102.172C230.414 102.073 230.534 102.023 230.672 102.023C230.812 102.023 230.932 102.073 231.031 102.172C231.13 102.271 231.18 102.391 231.18 102.531C231.18 102.669 231.13 102.789 231.031 102.891C230.932 102.99 230.812 103.039 230.672 103.039Z" fill="white"/>
<path d="M274.734 81.35C271.577 79.5483 269.18 78.0447 265.94 77.9611C265.22 77.9426 264.809 78.6317 264.504 79.16C263.898 80.2102 263.897 82.5376 264.195 85.3191C264.588 88.9871 270.498 89.6224 273.896 90.6023C274.524 90.7833 274.58 91.5731 274.061 92.4017C271.458 96.5543 268.873 99.5384 268.037 102.564C267.875 103.152 267.96 103.765 268.258 104.221C268.557 104.677 269.153 104.975 270.056 105.129C270.959 105.282 272.151 105.282 272.988 104.761C280.066 100.354 275.032 84.2219 276.384 81.4358C277.591 78.9495 279.99 76.8436 283.225 74.6603C285.996 72.7905 289.761 72.7706 292.787 73.2944C293.423 73.4045 293.988 73.8182 294.369 74.2697C295.127 75.1667 295.053 76.5275 294.755 77.7286C293.879 81.2611 289.201 83.5987 283.485 86.3825C281.741 87.2318 280.459 87.8162 279.482 89.1663C278.466 90.5687 278.798 92.6297 279.021 94.2079C279.388 96.7952 283.738 99.6919 286.916 102.415C287.994 103.337 289.328 103.625 290.678 103.776C294.987 104.259 299.406 100.622 301.145 98.0709C302.582 95.9614 301.077 93.3973 300.402 92.1962C298.801 89.3481 295.668 87.5272 292.507 85.4975C291.101 84.5948 289.644 84.0593 287.842 84.3573C285.858 84.6856 284.672 86.3126 283.995 87.7349C283.564 88.6397 283.765 90.2004 284.212 91.415C285.723 95.5218 289.924 95.7906 293.608 97.3755C294.537 97.7749 295.487 97.6058 296.022 97.3077C296.557 97.0097 296.706 96.4137 296.783 95.7341C296.86 95.0545 296.86 94.3095 296.487 93.7021C295.369 92.6478 294.006 92.0382 292.73 91.7379C292.051 91.5866 291.306 91.4376 290.538 91.2841" stroke="#FFF06C" stroke-width="10.56" stroke-linecap="round"/>
<path d="M276.213 87.8783C276.213 87.7633 276.328 87.4168 276.617 86.924C277.021 86.6036 277.488 86.4278 277.951 86.3407C278.184 86.3111 278.414 86.3111 278.999 86.6594" stroke="#0D0D0D" stroke-width="2" stroke-linecap="round"/>
<path d="M284.713 85.5241C284.713 85.4092 284.771 85.1201 284.973 84.7144C285.117 84.5386 285.347 84.4236 285.782 84.3644C286.216 84.3052 286.848 84.3052 287.674 84.4794" stroke="#0D0D0D" stroke-width="2" stroke-linecap="round"/>
<path d="M282.713 90.5254C282.713 90.7552 282.713 92.1952 283.058 94.1977C283.188 94.9498 284.092 94.8785 284.534 94.7923C285.188 94.6647 285.44 94.1263 285.643 93.6631C285.838 93.2184 285.848 92.5034 285.761 91.7207C285.095 90.8179 284.456 90.1789 283.994 89.9177C283.704 89.8289 283.302 89.8289 282.888 89.8289" stroke="#0D0D0D" stroke-width="2" stroke-linecap="round"/>
<path d="M296.053 40.8118C295.106 40.7668 292.92 40.9456 291.873 41.5827C291.009 42.1078 289.785 43.3523 288.96 44.2651C288.262 45.0376 288.369 46.1274 288.321 48.5567C288.298 49.7457 288.819 50.4498 289.252 51.1783C289.692 51.9183 290.59 52.4963 292.113 53.2706C293.684 54.0691 296.14 53.4105 297.116 53.0475C299.068 52.3221 299.914 51.866 300.553 51.297C301.349 50.5891 301.601 49.23 301.987 47.3943C302.456 45.1628 302.011 43.4969 301.898 43.134C301.553 42.0289 300.059 41.1775 299.194 41.0397C298.31 40.8988 297.603 40.7218 294.723 40.7429C293.894 40.749 293.418 41.3098 292.806 41.786C291.573 42.7442 291.687 45.931 292.23 48.6945C292.399 49.5542 292.959 49.9968 293.412 50.2697C294.506 50.9288 295.775 49.3665 296.799 48.5246C297.648 47.8278 297.962 46.7728 298.189 46.1602C298.392 45.6127 298.372 44.6839 298.035 44.3817C296.602 43.0997 296.056 48.0812 295.489 48.3623C293.563 49.3169 294.507 44.8572 294.439 45.3334C294.416 45.5844 294.416 45.8546 294.461 46.0838C294.506 46.313 294.596 46.4931 294.689 46.6787" stroke="#AFECB2" stroke-width="5.376" stroke-linecap="round"/>
<path d="M310.221 39.8925C308.553 39.8925 304.005 40.0726 302.38 40.5045C301.256 40.8031 301.172 42.8396 300.966 44.4332C300.775 45.9109 301.078 47.3011 301.35 48.0508C301.699 49.0109 302.714 49.6669 303.396 50.0332C304.187 50.4578 304.987 50.6711 306.346 50.7843C308.592 50.9715 310.67 50.2672 311.647 49.246C312.84 47.9984 312.63 46.5397 312.699 45.5806C312.784 44.3966 312.633 42.8559 312.291 41.8286C312.036 41.0622 311.271 40.351 310.384 39.8032C309.255 39.1063 308.09 39.1667 306.86 39.0514C304.872 38.8651 301.857 39.2076 301.218 39.754C300.606 40.2773 300.307 41.1614 299.763 42.4344C299.292 43.5345 299.216 44.6624 299.214 46.8877C299.214 48.2403 299.759 49.1211 300.146 49.8497C300.566 50.642 301.213 51.2141 302.009 51.7155C302.673 52.1345 303.666 52.1255 307.477 52.1044C309.084 52.0954 309.852 51.356 310.627 50.8321C311.297 50.379 312.215 49.6751 312.947 48.7419C313.665 47.8268 313.765 46.3133 313.837 44.8548C313.894 43.6843 312.319 42.9897 311.091 42.4637C309.745 41.8869 307.504 42.0755 305.482 42.2106C304.25 42.2929 303.765 43.1643 303.379 43.8663C302.367 45.7096 302.58 47.1182 302.738 47.8693C303.362 50.846 309.264 43.2148 309.379 43.0088C310.415 41.1471 307.311 47.9846 307.4 48.3721C308.354 47.8086 308.945 46.99 309.376 46.6707C309.582 46.6216 309.762 46.8017 310.084 46.9873" stroke="#AFECB2" stroke-width="5.376" stroke-linecap="round"/>
<path d="M318.145 38.4035C314.921 38.2671 313.375 38.3572 312.44 38.6525C312.056 38.7739 311.598 39.083 311.144 39.6049C310.474 40.3748 310.641 43.5172 310.799 45.5624C310.91 46.9984 311.549 48.0415 312.003 48.8608C312.409 49.5934 313.32 49.8179 314.568 50.204C315.799 50.5851 316.959 50.1385 317.504 49.8663C318.287 49.4751 318.914 48.5954 319.507 47.6847C320.129 46.7284 320.145 45.4574 320.124 42.599C320.119 41.9501 319.921 41.6835 319.604 41.4092C318.033 40.0514 315.7 39.8607 314.6 39.6547C313.881 39.5199 310.984 39.495 309.007 40.0831C307.652 40.4859 307.958 42.8978 307.934 45.2847C307.921 46.6562 308.638 47.3593 309.454 48.4494C310.509 49.858 311.047 50.4073 311.774 50.7272C312.744 51.1538 315.348 51.3651 317.412 50.9128C319.044 50.5551 319.913 49.6405 320.847 49.0027C321.766 48.3758 322.235 47.4575 322.623 46.3892C323.236 44.7013 322.603 41.8636 322.33 41.09C321.922 39.9359 320.786 39.3149 319.809 38.8824C318.948 38.5017 316.977 38.6764 315.103 39.3552C314.435 39.5971 314.144 40.491 313.871 41.3308C313.652 42.0068 313.824 42.6304 313.937 43.1297C313.99 43.363 314.095 43.539 314.277 43.5643C314.737 43.6283 315.142 43.0902 315.391 42.6365C315.838 41.8254 313.282 47.7604 312.87 49.7217C312.794 50.0844 312.824 50.3145 312.959 50.1828C314.948 48.2433 316.734 45.5911 316.893 45.4082C317.536 44.6681 317.326 47.7249 317.416 47.8852C317.595 48.2032 318.007 47.1833 318.212 46.7521C318.281 46.5461 318.281 46.366 318.214 46.1607C318.146 45.9553 318.011 45.7302 317.599 45.089" stroke="#AFECB2" stroke-width="5.376" stroke-linecap="round"/>
<path d="M299.121 38.4164C299.316 38.0229 300.282 37.1118 300.737 36.8137C301.2 36.5105 301.73 36.3164 302.241 36.1039C302.967 35.8017 303.489 35.7203 304.268 35.6207C306.647 35.3163 308.088 35.9741 308.571 36.1308C309.42 36.4055 310.501 37.2225 310.956 37.5635C311.397 37.8947 311.863 38.2154 312.502 38.8822C312.688 39.1521 312.83 39.3803 312.986 39.6069C313.057 39.721 313.114 39.8334 313.257 40.0343" stroke="#AFECB2" stroke-width="5.376" stroke-linecap="round"/>
<path d="M300.72 54.2225C300.919 54.5052 301.201 54.9021 301.655 55.1443C302.103 55.383 302.648 55.4709 303.103 55.5705C303.549 55.6683 304.011 55.7264 304.465 55.7694C304.956 55.8158 307.201 55.9256 308.553 55.8409C309.028 55.8111 309.461 55.4726 309.986 55.1605C310.455 54.7914 310.908 54.3945 311.278 53.9687C311.364 53.8546 311.448 53.7422 311.62 53.5413" stroke="#AFECB2" stroke-width="5.376" stroke-linecap="round"/>
<path d="M302.24 43.6821V43.9126" stroke="#0D0D0D" stroke-width="2" stroke-linecap="round"/>
<path d="M308 43.5413V43.6949" stroke="#0D0D0D" stroke-width="2" stroke-linecap="round"/>
<path d="M300.32 49.5702C300.386 49.339 300.552 49.0713 300.786 48.8297C300.931 48.679 301.087 48.6695 301.228 48.6861C301.577 48.7269 301.919 49.0188 302.212 49.1777C302.473 49.3188 302.704 49.5362 303.013 49.5537C303.422 49.5769 303.838 49.0208 304.246 48.7376C304.619 48.4793 305.105 48.3693 305.496 48.3941C305.927 48.4213 306.157 48.7686 306.507 48.9608C306.654 49.0415 307.039 49.0698 307.547 49.0451C307.963 49.0248 308.158 48.7036 308.69 48.3626C309.462 47.8682 309.958 47.919 310.277 47.977C310.41 48.0351 310.544 48.1021 310.669 48.1769C310.727 48.2187 310.777 48.2682 310.978 48.4194" stroke="#0D0D0D" stroke-width="1.6" stroke-linecap="round"/>
<path d="M274.734 81.35C271.577 79.5483 269.18 78.0447 265.94 77.9611C265.22 77.9426 264.809 78.6317 264.504 79.16C263.898 80.2102 263.897 82.5376 264.195 85.3191C264.588 88.9871 270.498 89.6224 273.896 90.6023C274.524 90.7833 274.58 91.5731 274.061 92.4017C271.458 96.5543 268.873 99.5384 268.037 102.564C267.875 103.152 267.96 103.765 268.258 104.221C268.557 104.677 269.153 104.975 270.056 105.129C270.959 105.282 272.151 105.282 272.988 104.761C280.066 100.354 275.032 84.2219 276.384 81.4358C277.591 78.9495 279.99 76.8436 283.225 74.6603C285.996 72.7905 289.761 72.7706 292.787 73.2944C293.423 73.4045 293.988 73.8182 294.369 74.2697C295.127 75.1667 295.053 76.5275 294.755 77.7286C293.879 81.2611 289.201 83.5987 283.485 86.3825C281.741 87.2318 280.459 87.8162 279.482 89.1663C278.466 90.5687 278.798 92.6297 279.021 94.2079C279.388 96.7952 283.738 99.6919 286.916 102.415C287.994 103.337 289.328 103.625 290.678 103.776C294.987 104.259 299.406 100.622 301.145 98.0709C302.582 95.9614 301.077 93.3973 300.402 92.1962C298.801 89.3481 295.668 87.5272 292.507 85.4975C291.101 84.5948 289.644 84.0593 287.842 84.3573C285.858 84.6856 284.672 86.3126 283.995 87.7349C283.564 88.6397 283.765 90.2004 284.212 91.415C285.723 95.5218 289.924 95.7906 293.608 97.3755C294.537 97.7749 295.487 97.6058 296.022 97.3077C296.557 97.0097 296.706 96.4137 296.783 95.7341C296.86 95.0545 296.86 94.3095 296.487 93.7021C295.369 92.6478 294.006 92.0382 292.73 91.7379C292.051 91.5866 291.306 91.4376 290.538 91.2841" stroke="#FFF06C" stroke-width="10.56" stroke-linecap="round"/>
<path d="M276.213 87.8783C276.213 87.7633 276.328 87.4168 276.617 86.924C277.021 86.6036 277.488 86.4278 277.951 86.3407C278.184 86.3111 278.414 86.3111 278.999 86.6594" stroke="#0D0D0D" stroke-width="2" stroke-linecap="round"/>
<path d="M284.713 85.5241C284.713 85.4092 284.771 85.1201 284.973 84.7144C285.117 84.5386 285.347 84.4236 285.782 84.3644C286.216 84.3052 286.848 84.3052 287.674 84.4794" stroke="#0D0D0D" stroke-width="2" stroke-linecap="round"/>
<path d="M282.713 90.5254C282.713 90.7552 282.713 92.1952 283.058 94.1977C283.188 94.9498 284.092 94.8785 284.534 94.7923C285.188 94.6647 285.44 94.1263 285.643 93.6631C285.838 93.2184 285.848 92.5034 285.761 91.7207C285.095 90.8179 284.456 90.1789 283.994 89.9177C283.704 89.8289 283.302 89.8289 282.888 89.8289" stroke="#0D0D0D" stroke-width="2" stroke-linecap="round"/>
<defs>
<clipPath id="clip0_257_2978">
<rect width="45" height="5" fill="white" transform="translate(149 123)"/>
</clipPath>
</defs>
</svg>
