<svg width="343" height="136" viewBox="0 0 343 136" fill="none" xmlns="http://www.w3.org/2000/svg">
<rect width="343" height="136" rx="8" fill="#52A2F9"/>
<g clip-path="url(#clip0_257_2981)">
<circle cx="151.5" cy="125.5" r="2.5" fill="#0D0D0D"/>
<circle cx="161.5" cy="125.5" r="2.5" fill="#0D0D0D"/>
<circle cx="171.5" cy="125.5" r="2.5" fill="#0D0D0D"/>
<circle cx="181.5" cy="125.5" r="2.5" fill="#C9C9C9"/>
<circle cx="191.5" cy="125.5" r="2.5" fill="#C9C9C9"/>
</g>
<rect x="308" y="8" width="24" height="14" rx="7" fill="#E0E0E0"/>
<path d="M314.668 18L316.746 12.3633H317.285V13.2734H317.062L315.406 18H314.668ZM315.609 16.3867L315.828 15.7891H318.375L318.594 16.3867H315.609ZM318.781 18L317.125 13.2734V12.3633H317.441L319.52 18H318.781ZM320.508 18V12.3633H322.441C322.999 12.3633 323.475 12.4753 323.871 12.6992C324.27 12.9206 324.574 13.2409 324.785 13.6602C324.996 14.0794 325.102 14.5846 325.102 15.1758V15.1836C325.102 15.7747 324.996 16.2812 324.785 16.7031C324.574 17.1224 324.271 17.444 323.875 17.668C323.479 17.8893 323.001 18 322.441 18H320.508ZM321.211 17.3672H322.395C322.814 17.3672 323.172 17.2812 323.469 17.1094C323.766 16.9375 323.992 16.6888 324.148 16.3633C324.305 16.0378 324.383 15.6471 324.383 15.1914V15.1836C324.383 14.7253 324.303 14.3333 324.145 14.0078C323.988 13.6797 323.762 13.4297 323.465 13.2578C323.168 13.0833 322.811 12.9961 322.395 12.9961H321.211V17.3672Z" fill="#0D0D0D"/>
<path d="M71.5803 46V35.8182H73.733V44.2251H78.098V46H71.5803ZM82.9341 46.1491C82.1619 46.1491 81.494 45.9851 80.9306 45.657C80.3704 45.3255 79.9379 44.8648 79.633 44.2749C79.3281 43.6816 79.1756 42.9938 79.1756 42.2116C79.1756 41.4228 79.3281 40.7334 79.633 40.1435C79.9379 39.5502 80.3704 39.0895 80.9306 38.7614C81.494 38.4299 82.1619 38.2642 82.9341 38.2642C83.7064 38.2642 84.3726 38.4299 84.9327 38.7614C85.4962 39.0895 85.9303 39.5502 86.2353 40.1435C86.5402 40.7334 86.6926 41.4228 86.6926 42.2116C86.6926 42.9938 86.5402 43.6816 86.2353 44.2749C85.9303 44.8648 85.4962 45.3255 84.9327 45.657C84.3726 45.9851 83.7064 46.1491 82.9341 46.1491ZM82.9441 44.5085C83.2954 44.5085 83.5887 44.4091 83.824 44.2102C84.0594 44.008 84.2367 43.733 84.356 43.3849C84.4786 43.0369 84.54 42.6409 84.54 42.1967C84.54 41.7526 84.4786 41.3565 84.356 41.0085C84.2367 40.6605 84.0594 40.3854 83.824 40.1832C83.5887 39.9811 83.2954 39.88 82.9441 39.88C82.5894 39.88 82.2911 39.9811 82.0492 40.1832C81.8105 40.3854 81.6299 40.6605 81.5073 41.0085C81.388 41.3565 81.3283 41.7526 81.3283 42.1967C81.3283 42.6409 81.388 43.0369 81.5073 43.3849C81.6299 43.733 81.8105 44.008 82.0492 44.2102C82.2911 44.4091 82.5894 44.5085 82.9441 44.5085ZM91.5201 46.1491C90.7379 46.1491 90.065 45.9834 89.5016 45.652C88.9415 45.3172 88.5106 44.8532 88.209 44.2599C87.9107 43.6667 87.7615 42.9839 87.7615 42.2116C87.7615 41.4295 87.9123 40.7434 88.214 40.1534C88.5189 39.5601 88.9514 39.0978 89.5115 38.7663C90.0717 38.4316 90.7379 38.2642 91.5101 38.2642C92.1763 38.2642 92.7596 38.3852 93.2601 38.6271C93.7606 38.8691 94.1567 39.2088 94.4483 39.6463C94.74 40.0838 94.9007 40.5975 94.9306 41.1875H92.932C92.8757 40.8063 92.7265 40.4998 92.4846 40.2678C92.2459 40.0324 91.9327 39.9148 91.5449 39.9148C91.2168 39.9148 90.9301 40.0043 90.6848 40.1832C90.4429 40.3589 90.254 40.6158 90.1181 40.9538C89.9822 41.2919 89.9142 41.7012 89.9142 42.1818C89.9142 42.669 89.9805 43.0833 90.1131 43.4247C90.249 43.7661 90.4396 44.0263 90.6848 44.2053C90.9301 44.3842 91.2168 44.4737 91.5449 44.4737C91.7869 44.4737 92.004 44.424 92.1962 44.3246C92.3917 44.2251 92.5525 44.081 92.6784 43.892C92.8077 43.6998 92.8922 43.4695 92.932 43.201H94.9306C94.8974 43.7843 94.7383 44.2981 94.4533 44.7422C94.1716 45.183 93.7821 45.5277 93.285 45.7763C92.7878 46.0249 92.1995 46.1491 91.5201 46.1491ZM98.4641 46.1442C97.9769 46.1442 97.5427 46.0597 97.1616 45.8906C96.7804 45.7183 96.4788 45.4647 96.2567 45.13C96.038 44.7919 95.9286 44.371 95.9286 43.8672C95.9286 43.4429 96.0065 43.0866 96.1623 42.7983C96.3181 42.5099 96.5302 42.2779 96.7987 42.1023C97.0671 41.9266 97.372 41.794 97.7134 41.7045C98.0581 41.6151 98.4194 41.5521 98.7972 41.5156C99.2414 41.4692 99.5993 41.4261 99.8711 41.3864C100.143 41.3433 100.34 41.2803 100.463 41.1974C100.585 41.1146 100.647 40.992 100.647 40.8295V40.7997C100.647 40.4848 100.547 40.2412 100.348 40.0689C100.153 39.8965 99.8744 39.8104 99.5131 39.8104C99.132 39.8104 98.8287 39.8949 98.6033 40.0639C98.378 40.2296 98.2288 40.4384 98.1559 40.6903L96.1971 40.5312C96.2965 40.0672 96.4921 39.6662 96.7837 39.3281C97.0754 38.9867 97.4516 38.7249 97.9123 38.5426C98.3763 38.357 98.9132 38.2642 99.5231 38.2642C99.9473 38.2642 100.353 38.3139 100.741 38.4134C101.132 38.5128 101.479 38.6669 101.78 38.8757C102.085 39.0845 102.325 39.353 102.501 39.6811C102.677 40.0059 102.765 40.3954 102.765 40.8494V46H100.756V44.9411H100.696C100.574 45.1797 100.41 45.3902 100.204 45.5724C99.9987 45.7514 99.7518 45.8923 99.4634 45.995C99.1751 46.0945 98.842 46.1442 98.4641 46.1442ZM99.0707 44.6825C99.3822 44.6825 99.6573 44.6212 99.896 44.4986C100.135 44.3726 100.322 44.2036 100.458 43.9915C100.594 43.7794 100.662 43.5391 100.662 43.2706V42.4602C100.595 42.5033 100.504 42.5431 100.388 42.5795C100.275 42.6127 100.148 42.6442 100.005 42.674C99.8628 42.7005 99.7203 42.7254 99.5778 42.7486C99.4353 42.7685 99.306 42.7867 99.19 42.8033C98.9414 42.8397 98.7243 42.8977 98.5387 42.9773C98.3531 43.0568 98.2089 43.1645 98.1062 43.3004C98.0034 43.433 97.9521 43.5987 97.9521 43.7976C97.9521 44.0859 98.0565 44.3063 98.2653 44.4588C98.4774 44.608 98.7459 44.6825 99.0707 44.6825ZM106.526 35.8182V46H104.408V35.8182H106.526ZM109.53 48.8636C109.261 48.8636 109.009 48.8421 108.774 48.799C108.542 48.7592 108.35 48.7079 108.197 48.6449L108.675 47.0639C108.923 47.1402 109.147 47.1816 109.346 47.1882C109.548 47.1948 109.722 47.1484 109.868 47.049C110.017 46.9496 110.138 46.7805 110.231 46.5419L110.355 46.2188L107.616 38.3636H109.843L111.424 43.9716H111.503L113.099 38.3636H115.341L112.373 46.8253C112.231 47.2363 112.037 47.5942 111.792 47.8991C111.55 48.2074 111.243 48.4444 110.872 48.6101C110.501 48.7791 110.053 48.8636 109.53 48.8636ZM118.249 44.608L118.194 45.1548C118.151 45.5923 118.068 46.0282 117.945 46.4624C117.826 46.8999 117.7 47.2959 117.567 47.6506C117.438 48.0052 117.334 48.2836 117.254 48.4858H115.882C115.932 48.2902 116 48.0168 116.086 47.6655C116.172 47.3175 116.253 46.9264 116.33 46.4922C116.406 46.058 116.454 45.6155 116.474 45.1648L116.499 44.608H118.249ZM132.817 34.366H134.287V40.82H132.817V34.366ZM130.003 37.068H133.433V38.244H130.003V37.068ZM127.203 34.744C127.838 34.744 128.402 34.87 128.897 35.122C129.401 35.374 129.798 35.7193 130.087 36.158C130.376 36.5967 130.521 37.1053 130.521 37.684C130.521 38.2533 130.376 38.7573 130.087 39.196C129.798 39.6347 129.401 39.98 128.897 40.232C128.402 40.4747 127.838 40.596 127.203 40.596C126.559 40.596 125.985 40.4747 125.481 40.232C124.977 39.98 124.58 39.6347 124.291 39.196C124.011 38.7573 123.871 38.2533 123.871 37.684C123.871 37.1053 124.011 36.5967 124.291 36.158C124.58 35.7193 124.977 35.374 125.481 35.122C125.985 34.87 126.559 34.744 127.203 34.744ZM127.203 35.948C126.83 35.948 126.498 36.018 126.209 36.158C125.92 36.298 125.691 36.4987 125.523 36.76C125.355 37.0213 125.271 37.3247 125.271 37.67C125.271 38.0247 125.355 38.3327 125.523 38.594C125.691 38.8553 125.92 39.056 126.209 39.196C126.498 39.336 126.825 39.406 127.189 39.406C127.562 39.406 127.894 39.336 128.183 39.196C128.472 39.056 128.701 38.8553 128.869 38.594C129.037 38.3327 129.121 38.0247 129.121 37.67C129.121 37.3247 129.037 37.0213 128.869 36.76C128.701 36.4987 128.472 36.298 128.183 36.158C127.894 36.018 127.567 35.948 127.203 35.948ZM125.957 41.45H134.287V44.712H127.427V46.462H125.985V43.634H132.831V42.598H125.957V41.45ZM125.985 45.846H134.707V46.994H125.985V45.846ZM137.016 35.598H143.008V43.97H137.016V35.598ZM141.566 36.774H138.458V42.808H141.566V36.774ZM145.01 34.366H146.48V47.162H145.01V34.366ZM146.158 39.35H148.468V40.568H146.158V39.35ZM158.981 39.336H161.291V40.554H158.981V39.336ZM157.889 34.352H159.359V47.148H157.889V34.352ZM149.895 35.598H151.365V43.536H149.895V35.598ZM149.895 42.738H150.959C151.883 42.738 152.835 42.7007 153.815 42.626C154.804 42.542 155.821 42.3927 156.867 42.178L157.021 43.396C155.947 43.6107 154.907 43.76 153.899 43.844C152.891 43.9187 151.911 43.956 150.959 43.956H149.895V42.738ZM166.661 42.836H167.655C168.439 42.836 169.139 42.8267 169.755 42.808C170.38 42.78 170.968 42.738 171.519 42.682C172.079 42.626 172.648 42.5467 173.227 42.444L173.381 43.648C172.783 43.76 172.195 43.844 171.617 43.9C171.047 43.956 170.445 43.998 169.811 44.026C169.176 44.0447 168.457 44.054 167.655 44.054H166.661V42.836ZM166.661 35.542H172.457V36.718H168.117V43.284H166.661V35.542ZM175.187 34.352H176.657V47.176H175.187V34.352ZM171.771 38.902H175.817V40.106H171.771V38.902ZM187.655 38.174H189.111V40.036H187.655V38.174ZM187.417 35.192H188.691V35.556C188.691 35.9293 188.611 36.2793 188.453 36.606C188.294 36.9233 188.065 37.2127 187.767 37.474C187.468 37.7353 187.109 37.9687 186.689 38.174C186.269 38.37 185.802 38.5333 185.289 38.664C184.775 38.7853 184.225 38.8693 183.637 38.916L183.161 37.81C183.674 37.782 184.145 37.7213 184.575 37.628C185.013 37.5347 185.405 37.418 185.751 37.278C186.105 37.1287 186.404 36.9653 186.647 36.788C186.899 36.6107 187.09 36.4193 187.221 36.214C187.351 35.9993 187.417 35.78 187.417 35.556V35.192ZM188.103 35.192H189.377V35.556C189.377 35.78 189.442 35.9993 189.573 36.214C189.703 36.4193 189.89 36.6107 190.133 36.788C190.385 36.9653 190.683 37.1287 191.029 37.278C191.383 37.418 191.775 37.5347 192.205 37.628C192.643 37.7213 193.115 37.782 193.619 37.81L193.157 38.916C192.569 38.8787 192.018 38.7947 191.505 38.664C190.991 38.5333 190.525 38.37 190.105 38.174C189.685 37.978 189.325 37.7493 189.027 37.488C188.737 37.2173 188.509 36.9233 188.341 36.606C188.182 36.2793 188.103 35.9293 188.103 35.556V35.192ZM183.665 34.716H193.129V35.85H183.665V34.716ZM183.665 42.206H193.101V43.326H183.665V42.206ZM182.615 39.518H194.207V40.694H182.615V39.518ZM188.383 43.83C189.615 43.83 190.567 43.9747 191.239 44.264C191.911 44.5533 192.247 44.9733 192.247 45.524C192.247 46.0747 191.911 46.49 191.239 46.77C190.567 47.0593 189.615 47.204 188.383 47.204C187.151 47.204 186.199 47.0593 185.527 46.77C184.855 46.49 184.519 46.0747 184.519 45.524C184.519 44.9733 184.855 44.5533 185.527 44.264C186.199 43.9747 187.151 43.83 188.383 43.83ZM188.383 44.824C187.617 44.824 187.029 44.88 186.619 44.992C186.217 45.104 186.017 45.2813 186.017 45.524C186.017 45.7667 186.217 45.944 186.619 46.056C187.029 46.168 187.617 46.224 188.383 46.224C189.148 46.224 189.731 46.168 190.133 46.056C190.543 45.944 190.749 45.7667 190.749 45.524C190.749 45.2813 190.543 45.104 190.133 44.992C189.731 44.88 189.148 44.824 188.383 44.824ZM187.655 41.142H189.111V42.892H187.655V41.142ZM198.91 35.29C199.544 35.29 200.104 35.4767 200.59 35.85C201.084 36.2233 201.472 36.746 201.752 37.418C202.041 38.09 202.186 38.888 202.186 39.812C202.186 40.7267 202.041 41.5247 201.752 42.206C201.472 42.878 201.084 43.4007 200.59 43.774C200.104 44.138 199.544 44.32 198.91 44.32C198.266 44.32 197.696 44.138 197.202 43.774C196.716 43.4007 196.329 42.878 196.04 42.206C195.76 41.5247 195.62 40.7267 195.62 39.812C195.62 38.888 195.76 38.09 196.04 37.418C196.329 36.746 196.716 36.2233 197.202 35.85C197.696 35.4767 198.266 35.29 198.91 35.29ZM198.91 36.62C198.536 36.62 198.205 36.746 197.916 36.998C197.636 37.25 197.416 37.614 197.258 38.09C197.108 38.566 197.034 39.1353 197.034 39.798C197.034 40.47 197.108 41.044 197.258 41.52C197.416 41.996 197.636 42.3647 197.916 42.626C198.205 42.878 198.536 43.004 198.91 43.004C199.274 43.004 199.596 42.878 199.876 42.626C200.165 42.3647 200.384 41.996 200.534 41.52C200.692 41.044 200.772 40.47 200.772 39.798C200.772 39.1353 200.692 38.566 200.534 38.09C200.384 37.614 200.165 37.25 199.876 36.998C199.596 36.746 199.274 36.62 198.91 36.62ZM203.936 34.366H205.406V47.162H203.936V34.366ZM205.084 39.35H207.394V40.568H205.084V39.35ZM217.501 34.366H218.971V41.8H217.501V34.366ZM211.509 35.794H212.713V36.732C212.713 37.5253 212.573 38.272 212.293 38.972C212.013 39.6627 211.607 40.2647 211.075 40.778C210.543 41.282 209.894 41.6693 209.129 41.94L208.387 40.778C209.059 40.5447 209.623 40.2227 210.081 39.812C210.547 39.4013 210.902 38.93 211.145 38.398C211.387 37.866 211.509 37.3107 211.509 36.732V35.794ZM211.817 35.794H212.993V36.732C212.993 37.264 213.109 37.7773 213.343 38.272C213.576 38.7667 213.917 39.21 214.365 39.602C214.813 39.994 215.359 40.302 216.003 40.526L215.275 41.66C214.528 41.408 213.898 41.0393 213.385 40.554C212.871 40.0593 212.479 39.4853 212.209 38.832C211.947 38.1693 211.817 37.4693 211.817 36.732V35.794ZM215.401 36.69H217.977V37.866H215.401V36.69ZM208.821 35.178H215.639V36.354H208.821V35.178ZM215.401 38.874H217.977V40.036H215.401V38.874ZM211.537 42.22H212.657V42.724C212.657 43.3213 212.549 43.9047 212.335 44.474C212.129 45.034 211.812 45.5333 211.383 45.972C210.963 46.4107 210.431 46.7513 209.787 46.994L209.059 45.916C209.609 45.7107 210.067 45.44 210.431 45.104C210.795 44.7587 211.07 44.3807 211.257 43.97C211.443 43.55 211.537 43.1347 211.537 42.724V42.22ZM211.887 42.22H212.951V42.724C212.951 43.1533 213.03 43.578 213.189 43.998C213.347 44.418 213.595 44.8053 213.931 45.16C214.267 45.5147 214.691 45.7993 215.205 46.014L214.589 47.106C213.954 46.854 213.436 46.4993 213.035 46.042C212.633 45.5847 212.339 45.0667 212.153 44.488C211.975 43.9093 211.887 43.3213 211.887 42.724V42.22ZM216.227 42.22H217.305V42.724C217.305 43.2653 217.211 43.8253 217.025 44.404C216.838 44.9827 216.544 45.5147 216.143 46C215.751 46.476 215.233 46.8447 214.589 47.106L213.987 46.014C214.5 45.7807 214.92 45.4773 215.247 45.104C215.583 44.7307 215.83 44.334 215.989 43.914C216.147 43.494 216.227 43.0973 216.227 42.724V42.22ZM216.563 42.22H217.669V42.724C217.669 43.1627 217.762 43.592 217.949 44.012C218.135 44.432 218.411 44.81 218.775 45.146C219.139 45.4727 219.601 45.7293 220.161 45.916L219.419 46.994C218.784 46.7607 218.252 46.4293 217.823 46C217.393 45.58 217.076 45.0853 216.871 44.516C216.665 43.9467 216.563 43.3493 216.563 42.724V42.22ZM227.033 34.562C228.471 34.562 229.586 34.7533 230.379 35.136C231.182 35.5093 231.583 36.0507 231.583 36.76C231.583 37.4693 231.182 38.0153 230.379 38.398C229.586 38.7807 228.471 38.972 227.033 38.972C225.596 38.972 224.476 38.7807 223.673 38.398C222.871 38.0153 222.469 37.4693 222.469 36.76C222.469 36.0507 222.871 35.5093 223.673 35.136C224.476 34.7533 225.596 34.562 227.033 34.562ZM227.019 35.654C226.366 35.654 225.811 35.696 225.353 35.78C224.905 35.864 224.565 35.99 224.331 36.158C224.107 36.3167 223.995 36.5173 223.995 36.76C223.995 37.0027 224.107 37.208 224.331 37.376C224.565 37.544 224.905 37.67 225.353 37.754C225.811 37.838 226.366 37.88 227.019 37.88C227.691 37.88 228.251 37.838 228.699 37.754C229.147 37.67 229.488 37.544 229.721 37.376C229.955 37.208 230.071 37.0027 230.071 36.76C230.071 36.5173 229.955 36.3167 229.721 36.158C229.488 35.99 229.147 35.864 228.699 35.78C228.251 35.696 227.691 35.654 227.019 35.654ZM221.251 39.714H232.815V40.876H221.251V39.714ZM222.609 41.8H231.359V44.866H224.079V46.224H222.637V43.83H229.917V42.906H222.609V41.8ZM222.637 45.916H231.723V47.036H222.637V45.916ZM242.768 34.352H244.224V47.148H242.768V34.352ZM243.762 39.504H246.03V40.722H243.762V39.504ZM236.566 35.71H237.924C237.924 36.5313 237.887 37.3293 237.812 38.104C237.738 38.8693 237.598 39.6113 237.392 40.33C237.187 41.0487 236.902 41.744 236.538 42.416C236.174 43.088 235.708 43.7367 235.138 44.362L233.976 43.536C234.49 42.9853 234.914 42.4207 235.25 41.842C235.586 41.2633 235.848 40.6613 236.034 40.036C236.23 39.4013 236.366 38.7387 236.44 38.048C236.524 37.3573 236.566 36.6293 236.566 35.864V35.71ZM234.466 35.71H237.126V36.9H234.466V35.71ZM240.066 35.71H241.438C241.438 36.55 241.406 37.3853 241.34 38.216C241.275 39.0467 241.149 39.868 240.962 40.68C240.776 41.4827 240.505 42.262 240.15 43.018C239.796 43.774 239.334 44.4973 238.764 45.188L237.602 44.39C238.116 43.7647 238.531 43.1207 238.848 42.458C239.175 41.786 239.427 41.0953 239.604 40.386C239.782 39.6767 239.903 38.944 239.968 38.188C240.034 37.432 240.066 36.6527 240.066 35.85V35.71ZM238.358 35.71H240.668V36.9H238.358V35.71ZM249.725 40.904H251.181V44.628H249.725V40.904ZM254.401 40.904H255.871V44.628H254.401V40.904ZM247.009 44.376H258.601V45.58H247.009V44.376ZM252.791 35.094C253.697 35.094 254.504 35.234 255.213 35.514C255.923 35.7847 256.478 36.172 256.879 36.676C257.29 37.1707 257.495 37.7587 257.495 38.44C257.495 39.1213 257.29 39.714 256.879 40.218C256.478 40.7127 255.923 41.1 255.213 41.38C254.504 41.6507 253.697 41.786 252.791 41.786C251.886 41.786 251.074 41.6507 250.355 41.38C249.646 41.1 249.086 40.7127 248.675 40.218C248.274 39.714 248.073 39.1213 248.073 38.44C248.073 37.7587 248.274 37.1707 248.675 36.676C249.086 36.172 249.646 35.7847 250.355 35.514C251.074 35.234 251.886 35.094 252.791 35.094ZM252.791 36.242C252.147 36.242 251.578 36.3307 251.083 36.508C250.589 36.6853 250.201 36.942 249.921 37.278C249.651 37.6047 249.515 37.992 249.515 38.44C249.515 38.888 249.651 39.28 249.921 39.616C250.201 39.9427 250.589 40.1993 251.083 40.386C251.578 40.5633 252.147 40.652 252.791 40.652C253.435 40.652 254 40.5633 254.485 40.386C254.98 40.1993 255.367 39.9427 255.647 39.616C255.927 39.28 256.067 38.888 256.067 38.44C256.067 37.992 255.927 37.6047 255.647 37.278C255.367 36.942 254.98 36.6853 254.485 36.508C254 36.3307 253.435 36.242 252.791 36.242ZM261.869 43.0717V42.9773C261.876 42.3608 261.937 41.8703 262.053 41.5057C262.172 41.1411 262.341 40.8461 262.56 40.6207C262.779 40.3954 263.042 40.1899 263.351 40.0043C263.55 39.8783 263.729 39.7375 263.888 39.5817C264.047 39.4259 264.173 39.2469 264.265 39.0447C264.358 38.8426 264.405 38.6188 264.405 38.3736C264.405 38.0786 264.335 37.8234 264.196 37.608C264.057 37.3925 263.871 37.2268 263.639 37.1108C263.41 36.9915 263.155 36.9318 262.873 36.9318C262.618 36.9318 262.375 36.9848 262.143 37.0909C261.911 37.197 261.718 37.3627 261.566 37.5881C261.413 37.8101 261.326 38.0968 261.302 38.4482H259.791C259.814 37.8516 259.965 37.3478 260.243 36.9368C260.522 36.5225 260.89 36.2093 261.347 35.9972C261.808 35.785 262.317 35.679 262.873 35.679C263.483 35.679 264.017 35.7933 264.474 36.022C264.932 36.2474 265.286 36.5639 265.538 36.9716C265.793 37.3759 265.921 37.8482 265.921 38.3885C265.921 38.7597 265.863 39.0945 265.747 39.3928C265.631 39.6877 265.465 39.9512 265.25 40.1832C265.038 40.4152 264.782 40.6207 264.484 40.7997C264.202 40.9754 263.974 41.1577 263.798 41.3466C263.626 41.5355 263.5 41.7592 263.42 42.0178C263.341 42.2763 263.298 42.5961 263.291 42.9773V43.0717H261.869ZM262.62 46.0945C262.348 46.0945 262.114 45.9983 261.919 45.8061C261.723 45.6106 261.626 45.3752 261.626 45.1001C261.626 44.8284 261.723 44.5964 261.919 44.4041C262.114 44.2086 262.348 44.1108 262.62 44.1108C262.888 44.1108 263.12 44.2086 263.316 44.4041C263.515 44.5964 263.614 44.8284 263.614 45.1001C263.614 45.2824 263.568 45.4498 263.475 45.6023C263.385 45.7514 263.266 45.8707 263.117 45.9602C262.968 46.0497 262.802 46.0945 262.62 46.0945ZM70.423 61.212H71.893V63.928H70.423V61.212ZM70.423 56.676H71.599V56.97C71.599 57.698 71.4543 58.3747 71.165 59C70.885 59.6253 70.4743 60.162 69.933 60.61C69.401 61.058 68.757 61.394 68.001 61.618L67.329 60.484C67.9823 60.2973 68.5376 60.0267 68.995 59.672C69.4616 59.3173 69.8163 58.9113 70.059 58.454C70.3016 57.9873 70.423 57.4927 70.423 56.97V56.676ZM70.717 56.676H71.907V56.97C71.907 57.4647 72.0283 57.9407 72.271 58.398C72.5136 58.846 72.8683 59.238 73.335 59.574C73.8016 59.91 74.357 60.1713 75.001 60.358L74.343 61.492C73.587 61.2773 72.9383 60.9507 72.397 60.512C71.8556 60.0733 71.4403 59.5507 71.151 58.944C70.8616 58.3373 70.717 57.6793 70.717 56.97V56.676ZM67.665 55.948H74.693V57.124H67.665V55.948ZM70.423 54.464H71.893V56.48H70.423V54.464ZM75.995 54.352H77.465V67.176H75.995V54.352ZM67.189 64.656L66.993 63.438C67.7583 63.438 68.603 63.4333 69.527 63.424C70.4603 63.4053 71.4123 63.368 72.383 63.312C73.363 63.2467 74.3103 63.144 75.225 63.004L75.337 64.082C74.3943 64.2593 73.4376 64.39 72.467 64.474C71.5056 64.5487 70.5723 64.5953 69.667 64.614C68.7616 64.6327 67.9356 64.6467 67.189 64.656ZM81.2719 55.094H89.3919V56.27H81.2719V55.094ZM79.8159 60.134H91.4079V61.324H79.8159V60.134ZM88.5239 55.094H89.9799V56.13C89.9799 56.7273 89.9612 57.3853 89.9239 58.104C89.8959 58.8227 89.7792 59.658 89.5739 60.61L88.1319 60.47C88.3279 59.546 88.4399 58.7387 88.4679 58.048C88.5052 57.3573 88.5239 56.718 88.5239 56.13V55.094ZM81.3139 65.706H90.3439V66.896H81.3139V65.706ZM81.3139 62.598H82.7699V65.846H81.3139V62.598ZM102.84 57.306H106.172V58.51H102.84V57.306ZM99.8999 54.926C100.544 54.926 101.118 55.052 101.622 55.304C102.126 55.556 102.518 55.9107 102.798 56.368C103.087 56.816 103.232 57.334 103.232 57.922C103.232 58.51 103.087 59.0327 102.798 59.49C102.518 59.938 102.126 60.2927 101.622 60.554C101.118 60.806 100.544 60.932 99.8999 60.932C99.2652 60.932 98.6959 60.806 98.1919 60.554C97.6879 60.2927 97.2912 59.938 97.0019 59.49C96.7219 59.0327 96.5819 58.51 96.5819 57.922C96.5819 57.334 96.7219 56.816 97.0019 56.368C97.2912 55.9107 97.6879 55.556 98.1919 55.304C98.6959 55.052 99.2652 54.926 99.8999 54.926ZM99.9139 56.144C99.5405 56.144 99.2045 56.2187 98.9059 56.368C98.6165 56.508 98.3879 56.7133 98.2199 56.984C98.0612 57.2547 97.9819 57.5673 97.9819 57.922C97.9819 58.2767 98.0612 58.5893 98.2199 58.86C98.3879 59.1307 98.6165 59.3407 98.9059 59.49C99.1952 59.63 99.5265 59.7 99.8999 59.7C100.273 59.7 100.605 59.63 100.894 59.49C101.183 59.3407 101.412 59.1307 101.58 58.86C101.748 58.5893 101.832 58.2767 101.832 57.922C101.832 57.5673 101.748 57.2547 101.58 56.984C101.412 56.7133 101.183 56.508 100.894 56.368C100.614 56.2187 100.287 56.144 99.9139 56.144ZM105.528 54.366H106.998V61.226H105.528V54.366ZM98.6819 61.842H100.138V63.27H105.542V61.842H106.998V66.994H98.6819V61.842ZM100.138 64.404V65.818H105.542V64.404H100.138ZM118.799 54.352H120.199V67.148H118.799V54.352ZM113.675 59.14H116.783V60.344H113.675V59.14ZM116.181 54.632H117.567V66.546H116.181V54.632ZM109.699 62.962H110.553C111.197 62.962 111.771 62.9573 112.275 62.948C112.779 62.9293 113.255 62.8967 113.703 62.85C114.151 62.794 114.608 62.7193 115.075 62.626L115.215 63.83C114.729 63.9233 114.253 63.998 113.787 64.054C113.329 64.1007 112.839 64.1333 112.317 64.152C111.794 64.1707 111.206 64.18 110.553 64.18H109.699V62.962ZM109.699 55.864H114.543V57.054H111.155V63.466H109.699V55.864ZM131.216 54.352H132.686V67.176H131.216V54.352ZM125.882 55.29C126.516 55.29 127.081 55.4767 127.576 55.85C128.08 56.2233 128.472 56.746 128.752 57.418C129.032 58.09 129.172 58.8833 129.172 59.798C129.172 60.722 129.032 61.5247 128.752 62.206C128.472 62.878 128.08 63.4007 127.576 63.774C127.081 64.138 126.516 64.32 125.882 64.32C125.247 64.32 124.678 64.138 124.174 63.774C123.679 63.4007 123.287 62.878 122.998 62.206C122.718 61.5247 122.578 60.722 122.578 59.798C122.578 58.8833 122.718 58.09 122.998 57.418C123.287 56.746 123.679 56.2233 124.174 55.85C124.678 55.4767 125.247 55.29 125.882 55.29ZM125.882 56.62C125.508 56.62 125.177 56.746 124.888 56.998C124.608 57.25 124.388 57.614 124.23 58.09C124.071 58.566 123.992 59.1353 123.992 59.798C123.992 60.47 124.071 61.044 124.23 61.52C124.388 61.996 124.608 62.3647 124.888 62.626C125.177 62.878 125.508 63.004 125.882 63.004C126.255 63.004 126.582 62.878 126.862 62.626C127.142 62.3647 127.361 61.996 127.52 61.52C127.678 61.044 127.758 60.47 127.758 59.798C127.758 59.1353 127.678 58.566 127.52 58.09C127.361 57.614 127.142 57.25 126.862 56.998C126.582 56.746 126.255 56.62 125.882 56.62ZM136.465 61.114H145.341V62.29H136.465V61.114ZM135.037 64.39H146.629V65.594H135.037V64.39ZM136.465 55.388H145.229V56.564H137.949V61.464H136.465V55.388ZM137.501 58.216H144.949V59.378H137.501V58.216ZM161.099 54.352H162.513V67.148H161.099V54.352ZM159.167 59.448H161.491V60.638H159.167V59.448ZM158.229 54.618H159.601V66.518H158.229V54.618ZM152.181 55.85H153.651V63.228H152.181V55.85ZM152.181 62.668H153.035C153.679 62.668 154.36 62.6447 155.079 62.598C155.807 62.542 156.581 62.4347 157.403 62.276L157.543 63.536C156.693 63.704 155.895 63.8113 155.149 63.858C154.402 63.9047 153.697 63.928 153.035 63.928H152.181V62.668ZM167.243 58.664H168.699V61.058H167.243V58.664ZM171.849 58.664H173.305V61.058H171.849V58.664ZM164.499 60.568H176.063V61.73H164.499V60.568ZM170.253 62.57C171.635 62.57 172.713 62.766 173.487 63.158C174.271 63.55 174.663 64.1147 174.663 64.852C174.663 65.58 174.271 66.1447 173.487 66.546C172.713 66.9473 171.635 67.148 170.253 67.148C168.881 67.148 167.803 66.9473 167.019 66.546C166.245 66.1447 165.857 65.58 165.857 64.852C165.857 64.1147 166.245 63.55 167.019 63.158C167.803 62.766 168.881 62.57 170.253 62.57ZM170.253 63.676C169.637 63.676 169.11 63.7227 168.671 63.816C168.233 63.9 167.897 64.0307 167.663 64.208C167.439 64.376 167.327 64.5907 167.327 64.852C167.327 65.1133 167.439 65.3327 167.663 65.51C167.897 65.678 168.233 65.8087 168.671 65.902C169.11 65.986 169.637 66.028 170.253 66.028C170.888 66.028 171.42 65.986 171.849 65.902C172.288 65.8087 172.619 65.678 172.843 65.51C173.067 65.3327 173.179 65.1133 173.179 64.852C173.179 64.5907 173.067 64.376 172.843 64.208C172.619 64.0307 172.288 63.9 171.849 63.816C171.42 63.7227 170.888 63.676 170.253 63.676ZM170.281 54.576C171.215 54.576 172.022 54.674 172.703 54.87C173.385 55.0567 173.907 55.332 174.271 55.696C174.645 56.0507 174.831 56.48 174.831 56.984C174.831 57.488 174.645 57.922 174.271 58.286C173.907 58.6407 173.385 58.916 172.703 59.112C172.022 59.2987 171.215 59.392 170.281 59.392C169.348 59.392 168.536 59.2987 167.845 59.112C167.164 58.916 166.637 58.6407 166.263 58.286C165.899 57.922 165.717 57.488 165.717 56.984C165.717 56.48 165.899 56.0507 166.263 55.696C166.637 55.332 167.164 55.0567 167.845 54.87C168.536 54.674 169.348 54.576 170.281 54.576ZM170.281 55.696C169.647 55.696 169.101 55.7473 168.643 55.85C168.186 55.9527 167.836 56.0973 167.593 56.284C167.351 56.4707 167.229 56.704 167.229 56.984C167.229 57.2547 167.351 57.488 167.593 57.684C167.836 57.8707 168.186 58.0153 168.643 58.118C169.101 58.2207 169.647 58.272 170.281 58.272C170.916 58.272 171.457 58.2207 171.905 58.118C172.363 58.0153 172.713 57.8707 172.955 57.684C173.198 57.488 173.319 57.2547 173.319 56.984C173.319 56.704 173.198 56.4707 172.955 56.284C172.713 56.0973 172.363 55.9527 171.905 55.85C171.457 55.7473 170.916 55.696 170.281 55.696ZM183.16 54.562C184.598 54.562 185.713 54.7533 186.506 55.136C187.309 55.5093 187.71 56.0507 187.71 56.76C187.71 57.4693 187.309 58.0153 186.506 58.398C185.713 58.7807 184.598 58.972 183.16 58.972C181.723 58.972 180.603 58.7807 179.8 58.398C178.998 58.0153 178.596 57.4693 178.596 56.76C178.596 56.0507 178.998 55.5093 179.8 55.136C180.603 54.7533 181.723 54.562 183.16 54.562ZM183.146 55.654C182.493 55.654 181.938 55.696 181.48 55.78C181.032 55.864 180.692 55.99 180.458 56.158C180.234 56.3167 180.122 56.5173 180.122 56.76C180.122 57.0027 180.234 57.208 180.458 57.376C180.692 57.544 181.032 57.67 181.48 57.754C181.938 57.838 182.493 57.88 183.146 57.88C183.818 57.88 184.378 57.838 184.826 57.754C185.274 57.67 185.615 57.544 185.848 57.376C186.082 57.208 186.198 57.0027 186.198 56.76C186.198 56.5173 186.082 56.3167 185.848 56.158C185.615 55.99 185.274 55.864 184.826 55.78C184.378 55.696 183.818 55.654 183.146 55.654ZM177.378 59.714H188.942V60.876H177.378V59.714ZM178.736 61.8H187.486V64.866H180.206V66.224H178.764V63.83H186.044V62.906H178.736V61.8ZM178.764 65.916H187.85V67.036H178.764V65.916ZM197.112 60.302H198.568V62.01H197.112V60.302ZM202.516 54.366H203.972V63.004H202.516V54.366ZM203.412 58.132H205.736V59.35H203.412V58.132ZM194.032 62.682L193.85 61.52C194.625 61.52 195.46 61.5153 196.356 61.506C197.262 61.4967 198.181 61.4687 199.114 61.422C200.057 61.366 200.967 61.2773 201.844 61.156L201.956 62.178C201.051 62.3367 200.132 62.4533 199.198 62.528C198.265 62.5933 197.355 62.6353 196.468 62.654C195.591 62.6727 194.779 62.682 194.032 62.682ZM195.446 63.592H203.972V67.162H202.516V64.74H195.446V63.592ZM194.172 55.416H201.48V56.494H194.172V55.416ZM197.826 56.9C198.75 56.9 199.488 57.0727 200.038 57.418C200.598 57.754 200.878 58.216 200.878 58.804C200.878 59.392 200.598 59.854 200.038 60.19C199.488 60.526 198.75 60.694 197.826 60.694C196.912 60.694 196.174 60.526 195.614 60.19C195.064 59.854 194.788 59.392 194.788 58.804C194.788 58.216 195.064 57.754 195.614 57.418C196.174 57.0727 196.912 56.9 197.826 56.9ZM197.826 57.88C197.322 57.88 196.921 57.9593 196.622 58.118C196.324 58.2767 196.174 58.5053 196.174 58.804C196.174 59.084 196.324 59.308 196.622 59.476C196.921 59.6347 197.322 59.714 197.826 59.714C198.34 59.714 198.741 59.6347 199.03 59.476C199.329 59.308 199.478 59.084 199.478 58.804C199.478 58.5053 199.329 58.2767 199.03 58.118C198.741 57.9593 198.34 57.88 197.826 57.88ZM197.112 54.254H198.568V55.934H197.112V54.254ZM215.913 54.366H217.383V63.648H215.913V54.366ZM209.039 65.706H217.747V66.896H209.039V65.706ZM209.039 62.71H210.495V66.168H209.039V62.71ZM210.481 55.22C211.125 55.22 211.704 55.3553 212.217 55.626C212.731 55.8967 213.137 56.2747 213.435 56.76C213.734 57.236 213.883 57.7867 213.883 58.412C213.883 59.028 213.734 59.5787 213.435 60.064C213.137 60.5493 212.731 60.9273 212.217 61.198C211.704 61.4687 211.125 61.604 210.481 61.604C209.837 61.604 209.259 61.4687 208.745 61.198C208.232 60.9273 207.826 60.5493 207.527 60.064C207.229 59.5787 207.079 59.028 207.079 58.412C207.079 57.7867 207.229 57.236 207.527 56.76C207.826 56.2747 208.232 55.8967 208.745 55.626C209.259 55.3553 209.837 55.22 210.481 55.22ZM210.481 56.494C210.108 56.494 209.772 56.5733 209.473 56.732C209.175 56.8907 208.941 57.1147 208.773 57.404C208.605 57.684 208.521 58.02 208.521 58.412C208.521 58.804 208.605 59.1447 208.773 59.434C208.941 59.714 209.175 59.9333 209.473 60.092C209.772 60.2507 210.108 60.33 210.481 60.33C210.855 60.33 211.191 60.2507 211.489 60.092C211.788 59.9333 212.021 59.714 212.189 59.434C212.367 59.1447 212.455 58.804 212.455 58.412C212.455 58.02 212.367 57.684 212.189 57.404C212.021 57.1147 211.788 56.8907 211.489 56.732C211.191 56.5733 210.855 56.494 210.481 56.494ZM219.706 56.424H225.95V57.614H219.706V56.424ZM222.828 58.342C223.37 58.342 223.846 58.468 224.256 58.72C224.676 58.972 225.008 59.322 225.25 59.77C225.493 60.2087 225.614 60.722 225.614 61.31C225.614 61.898 225.493 62.416 225.25 62.864C225.008 63.312 224.676 63.662 224.256 63.914C223.846 64.166 223.37 64.292 222.828 64.292C222.306 64.292 221.834 64.166 221.414 63.914C220.994 63.662 220.663 63.312 220.42 62.864C220.187 62.416 220.07 61.898 220.07 61.31C220.07 60.722 220.187 60.2087 220.42 59.77C220.663 59.322 220.994 58.972 221.414 58.72C221.834 58.468 222.306 58.342 222.828 58.342ZM222.842 59.574C222.562 59.574 222.31 59.6487 222.086 59.798C221.862 59.938 221.685 60.1387 221.554 60.4C221.433 60.652 221.372 60.9553 221.372 61.31C221.372 61.6647 221.433 61.9727 221.554 62.234C221.685 62.4953 221.862 62.7007 222.086 62.85C222.31 62.99 222.562 63.06 222.842 63.06C223.122 63.06 223.37 62.99 223.584 62.85C223.808 62.7007 223.986 62.4953 224.116 62.234C224.247 61.9727 224.312 61.6647 224.312 61.31C224.312 60.9553 224.247 60.652 224.116 60.4C223.986 60.1387 223.808 59.938 223.584 59.798C223.37 59.6487 223.122 59.574 222.842 59.574ZM229.212 54.352H230.612V67.148H229.212V54.352ZM227.406 59.658H229.674V60.862H227.406V59.658ZM226.496 54.618H227.868V66.56H226.496V54.618ZM222.114 54.716H223.57V57.166H222.114V54.716ZM232.599 64.39H244.191V65.594H232.599V64.39ZM237.639 61.464H239.109V64.698H237.639V61.464ZM233.901 55.22H235.357V57.362H241.405V55.22H242.861V61.814H233.901V55.22ZM235.357 58.538V60.638H241.405V58.538H235.357ZM250.518 58.818H252.828V60.022H250.518V58.818ZM247.984 55.528H249.118V57.838C249.118 58.5287 249.053 59.21 248.922 59.882C248.801 60.5447 248.619 61.17 248.376 61.758C248.133 62.346 247.83 62.878 247.466 63.354C247.102 63.8207 246.677 64.1987 246.192 64.488L245.282 63.382C245.739 63.1113 246.136 62.7753 246.472 62.374C246.808 61.9727 247.088 61.5247 247.312 61.03C247.545 60.5353 247.713 60.0173 247.816 59.476C247.928 58.9253 247.984 58.3793 247.984 57.838V55.528ZM248.278 55.528H249.398V57.768C249.398 58.2813 249.445 58.7993 249.538 59.322C249.641 59.8353 249.795 60.3253 250 60.792C250.205 61.2587 250.462 61.688 250.77 62.08C251.078 62.472 251.447 62.8033 251.876 63.074L251.064 64.208C250.579 63.9187 250.159 63.5453 249.804 63.088C249.459 62.6213 249.174 62.1033 248.95 61.534C248.726 60.9553 248.558 60.3487 248.446 59.714C248.334 59.07 248.278 58.4213 248.278 57.768V55.528ZM254.998 54.352H256.398V67.148H254.998V54.352ZM252.394 54.604H253.766V66.546H252.394V54.604ZM261.073 60.904H262.529V64.628H261.073V60.904ZM265.749 60.904H267.219V64.628H265.749V60.904ZM258.357 64.376H269.949V65.58H258.357V64.376ZM264.139 55.094C265.044 55.094 265.852 55.234 266.561 55.514C267.27 55.7847 267.826 56.172 268.227 56.676C268.638 57.1707 268.843 57.7587 268.843 58.44C268.843 59.1213 268.638 59.714 268.227 60.218C267.826 60.7127 267.27 61.1 266.561 61.38C265.852 61.6507 265.044 61.786 264.139 61.786C263.234 61.786 262.422 61.6507 261.703 61.38C260.994 61.1 260.434 60.7127 260.023 60.218C259.622 59.714 259.421 59.1213 259.421 58.44C259.421 57.7587 259.622 57.1707 260.023 56.676C260.434 56.172 260.994 55.7847 261.703 55.514C262.422 55.234 263.234 55.094 264.139 55.094ZM264.139 56.242C263.495 56.242 262.926 56.3307 262.431 56.508C261.936 56.6853 261.549 56.942 261.269 57.278C260.998 57.6047 260.863 57.992 260.863 58.44C260.863 58.888 260.998 59.28 261.269 59.616C261.549 59.9427 261.936 60.1993 262.431 60.386C262.926 60.5633 263.495 60.652 264.139 60.652C264.783 60.652 265.348 60.5633 265.833 60.386C266.328 60.1993 266.715 59.9427 266.995 59.616C267.275 59.28 267.415 58.888 267.415 58.44C267.415 57.992 267.275 57.6047 266.995 57.278C266.715 56.942 266.328 56.6853 265.833 56.508C265.348 56.3307 264.783 56.242 264.139 56.242ZM273.465 55.8182L273.336 63.0717H271.959L271.83 55.8182H273.465ZM272.65 66.0945C272.375 66.0945 272.14 65.9983 271.944 65.8061C271.749 65.6106 271.652 65.3752 271.656 65.1001C271.652 64.8284 271.749 64.5964 271.944 64.4041C272.14 64.2086 272.375 64.1108 272.65 64.1108C272.919 64.1108 273.151 64.2086 273.346 64.4041C273.542 64.5964 273.641 64.8284 273.644 65.1001C273.641 65.2824 273.593 65.4498 273.5 65.6023C273.411 65.7514 273.291 65.8707 273.142 65.9602C272.993 66.0497 272.829 66.0945 272.65 66.0945Z" fill="white"/>
<path d="M45 85H299" stroke="#F3F3F3" stroke-width="0.5"/>
<path d="M77.418 97.008H77.962V98.304C77.962 98.704 77.9113 99.096 77.81 99.48C77.714 99.864 77.5753 100.224 77.394 100.56C77.2127 100.896 76.9993 101.195 76.754 101.456C76.5087 101.717 76.242 101.925 75.954 102.08L75.546 101.544C75.8127 101.411 76.058 101.232 76.282 101.008C76.5113 100.779 76.7113 100.517 76.882 100.224C77.0527 99.9307 77.1833 99.6213 77.274 99.296C77.37 98.9653 77.418 98.6347 77.418 98.304V97.008ZM77.538 97.008H78.074V98.304C78.074 98.624 78.1193 98.9413 78.21 99.256C78.306 99.5707 78.4393 99.8667 78.61 100.144C78.7807 100.421 78.9753 100.669 79.194 100.888C79.418 101.107 79.658 101.28 79.914 101.408L79.506 101.936C79.2233 101.792 78.962 101.595 78.722 101.344C78.4873 101.093 78.2793 100.808 78.098 100.488C77.922 100.163 77.7833 99.816 77.682 99.448C77.586 99.0747 77.538 98.6933 77.538 98.304V97.008ZM80.546 96.384H81.21V103.624H80.546V96.384ZM81.058 99.312H82.394V99.88H81.058V99.312ZM84.6174 98.84H85.2814V100.2H84.6174V98.84ZM87.2734 98.84H87.9294V100.2H87.2734V98.84ZM83.0094 99.96H89.5454V100.496H83.0094V99.96ZM86.2734 101.048C87.0467 101.048 87.652 101.157 88.0894 101.376C88.5267 101.595 88.7454 101.909 88.7454 102.32C88.7454 102.736 88.5267 103.053 88.0894 103.272C87.652 103.496 87.0467 103.608 86.2734 103.608C85.5 103.608 84.892 103.496 84.4494 103.272C84.012 103.053 83.7934 102.736 83.7934 102.32C83.7934 101.909 84.012 101.595 84.4494 101.376C84.892 101.157 85.5 101.048 86.2734 101.048ZM86.2734 101.56C85.8947 101.56 85.5694 101.589 85.2974 101.648C85.0307 101.707 84.8254 101.795 84.6814 101.912C84.5374 102.024 84.4654 102.16 84.4654 102.32C84.4654 102.491 84.5374 102.635 84.6814 102.752C84.8254 102.864 85.0307 102.949 85.2974 103.008C85.5694 103.067 85.8947 103.096 86.2734 103.096C86.652 103.096 86.9747 103.067 87.2414 103.008C87.5134 102.949 87.7214 102.864 87.8654 102.752C88.0094 102.635 88.0814 102.491 88.0814 102.32C88.0814 102.16 88.0094 102.024 87.8654 101.912C87.7214 101.795 87.5134 101.707 87.2414 101.648C86.9747 101.589 86.652 101.56 86.2734 101.56ZM86.2734 96.52C86.796 96.52 87.2467 96.5733 87.6254 96.68C88.0094 96.7867 88.3027 96.9413 88.5054 97.144C88.7134 97.3413 88.8174 97.5813 88.8174 97.864C88.8174 98.1413 88.7134 98.3813 88.5054 98.584C88.3027 98.7867 88.0094 98.9413 87.6254 99.048C87.2467 99.1493 86.796 99.2 86.2734 99.2C85.7507 99.2 85.2974 99.1493 84.9134 99.048C84.5347 98.9413 84.2414 98.7867 84.0334 98.584C83.8307 98.3813 83.7294 98.1413 83.7294 97.864C83.7294 97.5813 83.8307 97.3413 84.0334 97.144C84.2414 96.9413 84.5347 96.7867 84.9134 96.68C85.2974 96.5733 85.7507 96.52 86.2734 96.52ZM86.2734 97.04C85.8947 97.04 85.564 97.072 85.2814 97.136C85.004 97.2 84.788 97.2933 84.6334 97.416C84.484 97.5387 84.4094 97.688 84.4094 97.864C84.4094 98.0347 84.484 98.184 84.6334 98.312C84.788 98.4347 85.004 98.528 85.2814 98.592C85.564 98.656 85.8947 98.688 86.2734 98.688C86.6627 98.688 86.996 98.656 87.2734 98.592C87.5507 98.528 87.764 98.4347 87.9134 98.312C88.0627 98.184 88.1374 98.0347 88.1374 97.864C88.1374 97.688 88.0627 97.5387 87.9134 97.416C87.764 97.2933 87.5507 97.2 87.2734 97.136C86.996 97.072 86.6627 97.04 86.2734 97.04ZM92.1528 97.424H92.6888V98.592C92.6888 98.9707 92.6354 99.3467 92.5288 99.72C92.4221 100.088 92.2728 100.437 92.0807 100.768C91.8941 101.093 91.6781 101.384 91.4328 101.64C91.1874 101.891 90.9234 102.088 90.6408 102.232L90.2488 101.704C90.5101 101.576 90.7528 101.403 90.9768 101.184C91.2061 100.96 91.4088 100.707 91.5848 100.424C91.7608 100.136 91.8994 99.8373 92.0008 99.528C92.1021 99.2133 92.1528 98.9013 92.1528 98.592V97.424ZM92.2808 97.424H92.8088V98.592C92.8088 98.88 92.8541 99.1707 92.9448 99.464C93.0408 99.7573 93.1741 100.037 93.3448 100.304C93.5154 100.571 93.7128 100.811 93.9368 101.024C94.1661 101.232 94.4088 101.4 94.6648 101.528L94.2888 102.056C94.0061 101.912 93.7421 101.72 93.4968 101.48C93.2514 101.235 93.0381 100.957 92.8568 100.648C92.6754 100.339 92.5341 100.008 92.4328 99.656C92.3314 99.304 92.2808 98.9493 92.2808 98.592V97.424ZM90.5048 97.128H94.4088V97.68H90.5048V97.128ZM95.2648 96.384H95.9288V103.624H95.2648V96.384ZM95.7768 99.304H97.1128V99.864H95.7768V99.304ZM105.25 96.384H105.914V103.624H105.25V96.384ZM100.154 97.16H104.25V97.704H100.154V97.16ZM100.042 101.832L99.9701 101.272C100.418 101.272 100.903 101.269 101.426 101.264C101.954 101.253 102.49 101.235 103.034 101.208C103.578 101.176 104.106 101.128 104.618 101.064L104.658 101.56C104.141 101.64 103.61 101.701 103.066 101.744C102.527 101.781 101.999 101.805 101.482 101.816C100.965 101.827 100.485 101.832 100.042 101.832ZM100.954 97.568H101.602V101.416H100.954V97.568ZM102.802 97.568H103.45V101.416H102.802V97.568ZM108.17 99.856H113.138V100.4H108.17V99.856ZM107.338 102.088H113.898V102.64H107.338V102.088ZM108.17 97.056H113.066V97.6H108.826V100.096H108.17V97.056ZM115.017 96.848H115.649V97.992H117.193V96.848H117.817V100.224H115.017V96.848ZM115.649 98.512V99.688H117.193V98.512H115.649ZM120.161 96.392H120.793V100.736H120.161V96.392ZM118.993 98.264H120.353V98.816H118.993V98.264ZM118.609 96.528H119.233V100.688H118.609V96.528ZM115.945 101.168H120.793V103.624H120.137V101.712H115.945V101.168ZM125.32 96.848C125.827 96.848 126.278 96.9307 126.672 97.096C127.067 97.2613 127.379 97.4933 127.608 97.792C127.838 98.0907 127.952 98.44 127.952 98.84C127.952 99.2453 127.838 99.5973 127.608 99.896C127.379 100.195 127.067 100.427 126.672 100.592C126.278 100.757 125.827 100.84 125.32 100.84C124.824 100.84 124.376 100.757 123.976 100.592C123.582 100.427 123.27 100.195 123.04 99.896C122.811 99.5973 122.696 99.2453 122.696 98.84C122.696 98.44 122.811 98.0907 123.04 97.792C123.27 97.4933 123.582 97.2613 123.976 97.096C124.376 96.9307 124.824 96.848 125.32 96.848ZM125.32 97.384C124.942 97.384 124.603 97.4453 124.304 97.568C124.006 97.6907 123.768 97.8613 123.592 98.08C123.416 98.2933 123.328 98.5467 123.328 98.84C123.328 99.128 123.416 99.3813 123.592 99.6C123.768 99.8187 124.006 99.9893 124.304 100.112C124.603 100.235 124.942 100.296 125.32 100.296C125.704 100.296 126.046 100.235 126.344 100.112C126.643 99.9893 126.878 99.8187 127.048 99.6C127.224 99.3813 127.312 99.128 127.312 98.84C127.312 98.5467 127.224 98.2933 127.048 98.08C126.878 97.8613 126.643 97.6907 126.344 97.568C126.046 97.4453 125.704 97.384 125.32 97.384ZM122.056 102.112H128.616V102.664H122.056V102.112ZM129.416 102.176H135.976V102.728H129.416V102.176ZM132.352 100.632H133.008V102.408H132.352V100.632ZM130.216 96.92H135.16V99.112H130.888V100.56H130.232V98.584H134.504V97.464H130.216V96.92ZM130.232 100.28H135.328V100.824H130.232V100.28ZM140.897 99.392H141.561V100.488H140.897V99.392ZM141.209 96.72C141.556 96.72 141.862 96.7813 142.129 96.904C142.401 97.0213 142.612 97.1867 142.761 97.4C142.916 97.6133 142.993 97.8613 142.993 98.144C142.993 98.4267 142.916 98.6773 142.761 98.896C142.612 99.1093 142.401 99.2773 142.129 99.4C141.862 99.5173 141.556 99.576 141.209 99.576C140.862 99.576 140.553 99.5173 140.281 99.4C140.014 99.2773 139.804 99.1093 139.649 98.896C139.5 98.6773 139.425 98.4267 139.425 98.144C139.425 97.8613 139.5 97.6133 139.649 97.4C139.804 97.1867 140.014 97.0213 140.281 96.904C140.553 96.7813 140.862 96.72 141.209 96.72ZM141.209 97.232C140.985 97.232 140.785 97.2693 140.609 97.344C140.433 97.4187 140.294 97.5253 140.193 97.664C140.097 97.8027 140.049 97.9627 140.049 98.144C140.049 98.3253 140.097 98.4853 140.193 98.624C140.294 98.7627 140.433 98.872 140.609 98.952C140.785 99.0267 140.985 99.064 141.209 99.064C141.438 99.064 141.638 99.0267 141.809 98.952C141.985 98.872 142.121 98.7627 142.217 98.624C142.318 98.4853 142.369 98.3253 142.369 98.144C142.369 97.9627 142.318 97.8027 142.217 97.664C142.121 97.5253 141.985 97.4187 141.809 97.344C141.638 97.2693 141.438 97.232 141.209 97.232ZM143.969 96.392H144.633V101.928H143.969V96.392ZM144.353 98.832H145.689V99.392H144.353V98.832ZM140.057 102.912H144.889V103.456H140.057V102.912ZM140.057 101.456H140.721V103.152H140.057V101.456ZM139.097 100.856L139.017 100.304C139.438 100.304 139.902 100.301 140.409 100.296C140.921 100.285 141.444 100.264 141.977 100.232C142.51 100.195 143.022 100.139 143.513 100.064L143.561 100.552C143.06 100.643 142.542 100.709 142.009 100.752C141.481 100.795 140.966 100.824 140.465 100.84C139.969 100.851 139.513 100.856 139.097 100.856ZM148.208 96.792H148.76V97.536C148.76 98.0053 148.675 98.4373 148.504 98.832C148.339 99.2267 148.104 99.5733 147.8 99.872C147.502 100.165 147.144 100.389 146.728 100.544L146.376 100.008C146.75 99.8747 147.072 99.6853 147.344 99.44C147.616 99.1947 147.827 98.9093 147.976 98.584C148.131 98.2533 148.208 97.904 148.208 97.536V96.792ZM148.328 96.792H148.864V97.512C148.864 97.8533 148.939 98.176 149.088 98.48C149.238 98.784 149.443 99.0533 149.704 99.288C149.971 99.5173 150.28 99.6907 150.632 99.808L150.272 100.328C149.883 100.179 149.542 99.968 149.248 99.696C148.955 99.424 148.728 99.1013 148.568 98.728C148.408 98.3547 148.328 97.9493 148.328 97.512V96.792ZM151.672 96.384H152.336V100.664H151.672V96.384ZM149.952 100.88C150.699 100.88 151.286 101 151.712 101.24C152.144 101.48 152.36 101.816 152.36 102.248C152.36 102.675 152.144 103.008 151.712 103.248C151.286 103.488 150.699 103.608 149.952 103.608C149.206 103.608 148.616 103.488 148.184 103.248C147.758 103.008 147.544 102.675 147.544 102.248C147.544 101.816 147.758 101.48 148.184 101.24C148.616 101 149.206 100.88 149.952 100.88ZM149.952 101.408C149.59 101.408 149.278 101.443 149.016 101.512C148.755 101.576 148.552 101.672 148.408 101.8C148.27 101.923 148.2 102.072 148.2 102.248C148.2 102.419 148.27 102.568 148.408 102.696C148.552 102.819 148.755 102.915 149.016 102.984C149.278 103.048 149.59 103.08 149.952 103.08C150.32 103.08 150.632 103.048 150.888 102.984C151.15 102.915 151.35 102.819 151.488 102.696C151.632 102.568 151.704 102.419 151.704 102.248C151.704 102.072 151.632 101.923 151.488 101.8C151.35 101.672 151.15 101.576 150.888 101.512C150.632 101.443 150.32 101.408 149.952 101.408ZM150.096 97.912H151.808V98.464H150.096V97.912ZM154.424 98.752H157.912V99.288H154.424V98.752ZM155.816 99.08H156.48V100.52H155.816V99.08ZM154.424 96.856H157.856V97.4H155.088V98.984H154.424V96.856ZM159 96.392H159.664V101.8H159V96.392ZM154.984 102.92H159.904V103.464H154.984V102.92ZM154.984 101.44H155.648V103.152H154.984V101.44ZM153.872 100.888L153.776 100.344C154.24 100.339 154.736 100.331 155.264 100.32C155.792 100.309 156.325 100.291 156.864 100.264C157.402 100.232 157.92 100.189 158.416 100.136L158.464 100.624C157.952 100.693 157.426 100.749 156.888 100.792C156.354 100.829 155.829 100.856 155.312 100.872C154.8 100.883 154.32 100.888 153.872 100.888ZM164.873 97.064H165.393V98.448C165.393 98.8267 165.353 99.1973 165.273 99.56C165.193 99.9173 165.081 100.256 164.937 100.576C164.793 100.896 164.614 101.184 164.401 101.44C164.193 101.691 163.958 101.896 163.697 102.056L163.273 101.568C163.524 101.419 163.745 101.232 163.937 101.008C164.134 100.784 164.302 100.533 164.441 100.256C164.585 99.9733 164.692 99.68 164.761 99.376C164.836 99.0667 164.873 98.7573 164.873 98.448V97.064ZM164.985 97.064H165.513V98.408C165.513 98.7067 165.545 99.0027 165.609 99.296C165.678 99.5893 165.777 99.8667 165.905 100.128C166.038 100.389 166.198 100.627 166.385 100.84C166.572 101.053 166.785 101.224 167.025 101.352L166.625 101.872C166.364 101.723 166.129 101.528 165.921 101.288C165.718 101.043 165.548 100.765 165.409 100.456C165.27 100.147 165.164 99.8187 165.089 99.472C165.02 99.1253 164.985 98.7707 164.985 98.408V97.064ZM168.865 96.384H169.505V103.624H168.865V96.384ZM167.713 99.296H169.105V99.84H167.713V99.296ZM167.273 96.536H167.905V103.256H167.273V96.536ZM170.713 102.176H177.273V102.728H170.713V102.176ZM173.649 100.632H174.305V102.408H173.649V100.632ZM171.513 96.92H176.457V99.112H172.185V100.56H171.529V98.584H175.801V97.464H171.513V96.92ZM171.529 100.28H176.625V100.824H171.529V100.28ZM178.064 100.056H184.624V100.6H178.064V100.056ZM181.064 100.4H181.736V102.064H181.064V100.4ZM178.904 102.912H183.896V103.464H178.904V102.912ZM178.904 101.352H179.568V103.064H178.904V101.352ZM181.336 96.568C181.848 96.568 182.293 96.6267 182.672 96.744C183.051 96.8613 183.344 97.0293 183.552 97.248C183.765 97.4613 183.872 97.72 183.872 98.024C183.872 98.3173 183.765 98.5733 183.552 98.792C183.344 99.0107 183.051 99.1787 182.672 99.296C182.293 99.4133 181.848 99.472 181.336 99.472C180.829 99.472 180.384 99.4133 180 99.296C179.621 99.1787 179.325 99.0107 179.112 98.792C178.904 98.5733 178.8 98.3173 178.8 98.024C178.8 97.72 178.904 97.4613 179.112 97.248C179.325 97.0293 179.621 96.8613 180 96.744C180.384 96.6267 180.829 96.568 181.336 96.568ZM181.336 97.104C180.973 97.104 180.653 97.1413 180.376 97.216C180.099 97.2907 179.883 97.3973 179.728 97.536C179.579 97.6693 179.504 97.832 179.504 98.024C179.504 98.2107 179.579 98.3733 179.728 98.512C179.883 98.6453 180.099 98.7493 180.376 98.824C180.653 98.8933 180.973 98.928 181.336 98.928C181.709 98.928 182.032 98.8933 182.304 98.824C182.576 98.7493 182.787 98.6453 182.936 98.512C183.091 98.3733 183.168 98.2107 183.168 98.024C183.168 97.832 183.091 97.6693 182.936 97.536C182.787 97.3973 182.576 97.2907 182.304 97.216C182.032 97.1413 181.709 97.104 181.336 97.104ZM192.953 96.384H193.617V103.624H192.953V96.384ZM190.833 97.168H191.489C191.489 97.6907 191.425 98.1947 191.297 98.68C191.175 99.1653 190.98 99.6267 190.713 100.064C190.447 100.496 190.1 100.899 189.673 101.272C189.247 101.645 188.729 101.979 188.121 102.272L187.769 101.736C188.468 101.4 189.044 101.008 189.497 100.56C189.951 100.112 190.287 99.6133 190.505 99.064C190.724 98.5093 190.833 97.912 190.833 97.272V97.168ZM188.105 97.168H191.113V97.704H188.105V97.168ZM195.929 98.392H200.833V98.936H195.929V98.392ZM195.929 96.528H196.585V98.632H195.929V96.528ZM195.041 99.776H201.585V100.32H195.041V99.776ZM198.305 100.96C199.078 100.96 199.683 101.075 200.121 101.304C200.558 101.533 200.777 101.859 200.777 102.28C200.777 102.696 200.558 103.019 200.121 103.248C199.683 103.477 199.078 103.592 198.305 103.592C197.531 103.592 196.923 103.477 196.481 103.248C196.043 103.019 195.825 102.696 195.825 102.28C195.825 101.859 196.043 101.533 196.481 101.304C196.923 101.075 197.531 100.96 198.305 100.96ZM198.297 101.488C197.923 101.488 197.601 101.52 197.329 101.584C197.062 101.643 196.857 101.731 196.713 101.848C196.569 101.965 196.497 102.109 196.497 102.28C196.497 102.445 196.569 102.589 196.713 102.712C196.857 102.829 197.062 102.92 197.329 102.984C197.601 103.043 197.923 103.072 198.297 103.072C198.681 103.072 199.006 103.043 199.273 102.984C199.545 102.92 199.753 102.829 199.897 102.712C200.041 102.589 200.113 102.445 200.113 102.28C200.113 102.109 200.041 101.965 199.897 101.848C199.753 101.731 199.545 101.643 199.273 101.584C199.006 101.52 198.681 101.488 198.297 101.488ZM202.4 99.408H208.944V99.944H202.4V99.408ZM203.272 98.288H208.16V98.824H203.272V98.288ZM203.272 96.624H208.088V97.16H203.928V98.712H203.272V96.624ZM203.192 100.576H208.096V102.272H203.856V103.184H203.208V101.776H207.448V101.096H203.192V100.576ZM203.208 103.008H208.312V103.536H203.208V103.008ZM213.023 96.512C213.823 96.512 214.447 96.6213 214.895 96.84C215.343 97.0533 215.567 97.36 215.567 97.76C215.567 98.1653 215.343 98.4773 214.895 98.696C214.447 98.9093 213.823 99.016 213.023 99.016C212.229 99.016 211.605 98.9093 211.151 98.696C210.703 98.4773 210.479 98.1653 210.479 97.76C210.479 97.36 210.703 97.0533 211.151 96.84C211.605 96.6213 212.229 96.512 213.023 96.512ZM213.023 97.008C212.634 97.008 212.301 97.0373 212.023 97.096C211.746 97.1547 211.533 97.24 211.383 97.352C211.239 97.464 211.167 97.6 211.167 97.76C211.167 97.92 211.239 98.0587 211.383 98.176C211.533 98.288 211.746 98.3733 212.023 98.432C212.301 98.4853 212.634 98.512 213.023 98.512C213.418 98.512 213.754 98.4853 214.031 98.432C214.309 98.3733 214.519 98.288 214.663 98.176C214.813 98.0587 214.887 97.92 214.887 97.76C214.887 97.6 214.813 97.464 214.663 97.352C214.519 97.24 214.309 97.1547 214.031 97.096C213.754 97.0373 213.418 97.008 213.023 97.008ZM209.759 99.504H216.295V100.04H209.759V99.504ZM210.551 100.656H215.455V102.288H211.215V103.16H210.567V101.8H214.807V101.168H210.551V100.656ZM210.567 103.024H215.671V103.544H210.567V103.024ZM219.977 100.8H225.297V101.32H219.977V100.8ZM220.265 98.072H225.177V98.6H220.265V98.072ZM219.361 99.328H225.921V99.864H219.361V99.328ZM220.265 96.496H220.921V98.36H220.265V96.496ZM222.329 98.288H222.985V99.584H222.329V98.288ZM222.633 101.656C223.331 101.656 223.867 101.739 224.241 101.904C224.619 102.069 224.809 102.312 224.809 102.632C224.809 102.952 224.619 103.195 224.241 103.36C223.867 103.525 223.331 103.608 222.633 103.608C221.939 103.608 221.403 103.525 221.025 103.36C220.651 103.195 220.465 102.952 220.465 102.632C220.465 102.312 220.651 102.069 221.025 101.904C221.403 101.739 221.939 101.656 222.633 101.656ZM222.633 102.128C222.163 102.128 221.798 102.171 221.537 102.256C221.281 102.336 221.153 102.461 221.153 102.632C221.153 102.803 221.281 102.928 221.537 103.008C221.798 103.093 222.163 103.136 222.633 103.136C223.107 103.136 223.473 103.093 223.729 103.008C223.99 102.928 224.121 102.803 224.121 102.632C224.121 102.461 223.99 102.336 223.729 102.256C223.473 102.171 223.107 102.128 222.633 102.128ZM222.305 100.144H222.969V101.136H222.305V100.144ZM231.984 96.384H232.656V103.624H231.984V96.384ZM228.736 98.104H229.272V98.728C229.272 99.112 229.221 99.4853 229.12 99.848C229.019 100.205 228.875 100.539 228.688 100.848C228.507 101.157 228.291 101.429 228.04 101.664C227.795 101.899 227.525 102.085 227.232 102.224L226.864 101.712C227.131 101.589 227.376 101.424 227.6 101.216C227.829 101.008 228.027 100.773 228.192 100.512C228.363 100.245 228.496 99.96 228.592 99.656C228.688 99.352 228.736 99.0427 228.736 98.728V98.104ZM228.856 98.104H229.392V98.728C229.392 99.0267 229.44 99.3227 229.536 99.616C229.632 99.904 229.765 100.176 229.936 100.432C230.107 100.683 230.307 100.907 230.536 101.104C230.765 101.301 231.016 101.461 231.288 101.584L230.92 102.096C230.627 101.963 230.355 101.784 230.104 101.56C229.853 101.331 229.635 101.069 229.448 100.776C229.261 100.477 229.115 100.155 229.008 99.808C228.907 99.4613 228.856 99.1013 228.856 98.728V98.104ZM227.056 97.64H231.04V98.176H227.056V97.64ZM228.728 96.52H229.392V97.936H228.728V96.52ZM236 97.424H236.544V98.592C236.544 98.976 236.49 99.3547 236.384 99.728C236.277 100.096 236.128 100.445 235.936 100.776C235.749 101.101 235.53 101.389 235.28 101.64C235.029 101.891 234.76 102.088 234.472 102.232L234.088 101.704C234.349 101.576 234.594 101.403 234.824 101.184C235.058 100.965 235.264 100.715 235.44 100.432C235.616 100.149 235.752 99.8507 235.848 99.536C235.949 99.2213 236 98.9067 236 98.592V97.424ZM236.136 97.424H236.672V98.592C236.672 98.896 236.72 99.2 236.816 99.504C236.917 99.8027 237.056 100.085 237.232 100.352C237.413 100.613 237.618 100.845 237.848 101.048C238.082 101.251 238.333 101.411 238.6 101.528L238.232 102.056C237.938 101.917 237.664 101.731 237.408 101.496C237.152 101.261 236.928 100.992 236.736 100.688C236.549 100.379 236.402 100.048 236.296 99.696C236.189 99.3387 236.136 98.9707 236.136 98.592V97.424ZM234.32 97.128H238.36V97.68H234.32V97.128ZM239.344 96.384H240.008V103.624H239.344V96.384ZM243.985 97.112H247.305V101.784H243.985V97.112ZM246.649 97.64H244.633V101.248H246.649V97.64ZM248.593 96.384H249.257V103.624H248.593V96.384ZM249.105 99.272H250.441V99.832H249.105V99.272ZM253.904 98.976H255.296V99.528H253.904V98.976ZM252.56 97.064H253.08V98.448C253.08 98.8213 253.04 99.1893 252.96 99.552C252.886 99.9147 252.774 100.256 252.624 100.576C252.48 100.896 252.304 101.184 252.096 101.44C251.888 101.696 251.654 101.904 251.392 102.064L250.976 101.568C251.222 101.419 251.443 101.232 251.64 101.008C251.838 100.784 252.003 100.533 252.136 100.256C252.275 99.9733 252.379 99.68 252.448 99.376C252.523 99.0667 252.56 98.7573 252.56 98.448V97.064ZM252.688 97.064H253.2V98.424C253.2 98.712 253.232 99.0027 253.296 99.296C253.366 99.584 253.462 99.8613 253.584 100.128C253.712 100.389 253.87 100.629 254.056 100.848C254.243 101.067 254.454 101.248 254.688 101.392L254.312 101.904C254.051 101.744 253.819 101.541 253.616 101.296C253.414 101.045 253.243 100.765 253.104 100.456C252.966 100.141 252.862 99.8107 252.792 99.464C252.723 99.1173 252.688 98.7707 252.688 98.424V97.064ZM256.568 96.384H257.208V103.624H256.568V96.384ZM255.096 96.536H255.72V103.256H255.096V96.536ZM260.024 100.112H260.68V102.272H260.024V100.112ZM262.696 100.112H263.36V102.272H262.696V100.112ZM258.416 102.144H264.976V102.696H258.416V102.144ZM261.68 96.84C262.192 96.84 262.645 96.9173 263.04 97.072C263.434 97.2267 263.744 97.4427 263.968 97.72C264.197 97.9973 264.312 98.3253 264.312 98.704C264.312 99.0773 264.197 99.4053 263.968 99.688C263.744 99.9653 263.434 100.181 263.04 100.336C262.645 100.485 262.192 100.56 261.68 100.56C261.173 100.56 260.72 100.485 260.32 100.336C259.925 100.181 259.616 99.9653 259.392 99.688C259.168 99.4053 259.056 99.0773 259.056 98.704C259.056 98.3253 259.168 97.9973 259.392 97.72C259.616 97.4427 259.925 97.2267 260.32 97.072C260.72 96.9173 261.173 96.84 261.68 96.84ZM261.68 97.368C261.296 97.368 260.954 97.424 260.656 97.536C260.357 97.648 260.122 97.8053 259.952 98.008C259.781 98.2053 259.696 98.4373 259.696 98.704C259.696 98.9707 259.781 99.2053 259.952 99.408C260.122 99.6053 260.357 99.76 260.656 99.872C260.954 99.984 261.296 100.04 261.68 100.04C262.069 100.04 262.413 99.984 262.712 99.872C263.01 99.76 263.245 99.6053 263.416 99.408C263.586 99.2053 263.672 98.9707 263.672 98.704C263.672 98.4373 263.586 98.2053 263.416 98.008C263.245 97.8053 263.01 97.648 262.712 97.536C262.413 97.424 262.069 97.368 261.68 97.368ZM266.562 103.039C266.424 103.039 266.305 102.99 266.203 102.891C266.104 102.789 266.055 102.669 266.055 102.531C266.055 102.391 266.104 102.271 266.203 102.172C266.305 102.073 266.424 102.023 266.562 102.023C266.703 102.023 266.823 102.073 266.922 102.172C267.021 102.271 267.07 102.391 267.07 102.531C267.07 102.669 267.021 102.789 266.922 102.891C266.823 102.99 266.703 103.039 266.562 103.039Z" fill="white"/>
<path d="M28.0439 31.4517C27.1725 31.9496 26.5992 32.455 26.3795 33.0189C25.8928 34.268 26.0334 35.3443 26.0004 38.6051C25.9817 40.4513 26.5954 41.568 27.1612 42.7628C27.7759 44.0607 28.919 44.6497 30.1137 45.3739C31.1958 46.0297 32.3137 46.1584 40.5214 46.3197C43.0078 46.3685 44.2556 46.0377 46.0793 45.6294C47.5214 45.3065 48.533 45.0947 50.0408 44.4054C51.4998 43.7384 51.6787 41.8962 52.3077 40.0394C52.7541 38.7216 52.75 34.3184 52.5623 31.6441C52.4814 30.4911 51.245 29.5695 49.9267 28.6888C48.545 27.7657 47.0355 27.4912 45.3381 27.1781C44.2147 26.9709 38.096 26.9254 34.1157 27.1441C32.8409 27.2142 31.8837 27.7401 30.2504 28.5567C29.1083 29.1278 28.4248 30.2522 27.8571 31.2593C27.3172 32.2172 27.165 33.2698 27.1942 38.2214C27.2064 40.276 28.5418 41.0663 29.4546 41.8217C30.0374 42.3039 30.7446 42.5147 32.9266 42.7967C38.4343 43.5084 42.9354 43.1465 44.2226 42.8325C45.0741 42.643 45.7059 42.4544 46.3952 42.2036C46.7734 42.0772 47.209 41.9527 47.8465 41.8245" stroke="#D9D9D9" stroke-width="5.586" stroke-linecap="round"/>
<path d="M35.1882 27.0852C34.323 27.2586 33.6884 27.373 32.9802 27.4606C32.4482 27.5263 32.0118 27.8065 31.405 28.038C30.9074 28.2278 30.3369 28.4133 29.815 28.5729C29.3262 28.7223 28.662 29.3635 28.1674 29.8724C27.7316 30.3207 27.3581 30.8685 27.069 31.2738C26.7551 31.7138 26.8085 32.2556 26.6208 32.7185C26.0586 34.1052 26.6334 36.7636 26.8072 37.2123C26.9997 37.7093 27.4986 38.2946 28.5081 39.1897C29.1732 39.7795 30.499 39.9149 31.7266 39.8018C32.6139 39.72 32.4427 38.3579 32.4431 36.9665C32.4435 35.8322 32.3291 33.8299 32.2277 33.1988C32.0044 31.8093 31.8653 35.5785 31.8219 36.3263C31.7936 36.8159 31.8072 37.5317 32.3222 36.7844C32.8371 36.0371 33.867 33.8057 34.5406 32.4845C35.2142 31.1632 35.5003 30.8199 35.7908 31.7874C36.0812 32.7549 36.3673 35.0436 36.5146 36.4229C36.662 37.8022 36.662 38.2027 36.662 38.2231C36.662 38.2435 36.662 37.8716 36.8623 36.4498C37.0625 35.028 37.4631 32.5677 38.1557 32.7879C38.8484 33.0081 39.8211 35.9834 40.3508 37.5733C40.8805 39.1633 40.9377 39.2777 40.9958 39.2509C41.0539 39.224 41.1111 39.0523 41.4553 37.5192C41.7995 35.986 42.4289 33.0965 43.3253 32.8811C44.2217 32.6656 45.366 35.2118 46.1701 36.0228C46.9742 36.8338 47.4033 35.8325 47.6673 35.2595C47.99 34.5589 48.2486 34.1394 48.5225 33.7341C48.6117 33.6022 48.7679 33.7866 48.884 34.0176C49.7407 35.7215 49.666 38.2071 49.6088 38.7706C49.5828 39.0265 47.8316 39.3913 44.8337 40.1559C43.3347 40.5383 41.8359 40.7203 40.6118 40.8382C38.4788 41.0436 37.1284 40.8703 36.4787 40.6973C36.2235 40.6294 36.1436 40.5244 36.0565 40.3371C35.8439 39.8802 35.7379 39.1113 35.6512 37.7168C35.4058 33.7699 35.7656 33.0133 36.0682 32.5482C36.6948 31.5849 37.9616 30.5538 38.1631 30.4095C38.3851 30.2505 39.6564 30.2929 41.4752 30.3215C43.2244 30.349 44.0864 30.5235 46.2763 30.7831C47.1118 30.8822 47.4969 31.4459 47.93 31.9808C48.1029 32.1966 48.3604 32.5399 48.5503 32.7311C48.7401 32.9223 48.8546 32.9509 48.9725 32.9803" stroke="#D9D9D9" stroke-width="5.586" stroke-linecap="round"/>
<path d="M34.0908 37.8257V38.0777" stroke="#0D0D0D" stroke-width="1.75" stroke-linecap="round"/>
<path d="M37.9404 37.8257V37.9937" stroke="#0D0D0D" stroke-width="1.75" stroke-linecap="round"/>
<path d="M34.0166 41.6781C34.7425 41.7621 35.7472 41.6512 36.6877 41.5802C37.0931 41.5386 37.6812 41.51 38.5326 41.4962C38.9959 41.4823 39.5227 41.4546 40.0654 41.426" stroke="#0D0D0D" stroke-width="1.4" stroke-linecap="round"/>
<path d="M299.145 70.8631C298.812 65.5987 299.032 63.2736 300.026 60.3094C301.822 54.9552 303.359 54.4459 304.106 53.6404C305.349 52.3008 307.014 51.8928 310.417 51.3086C315.435 50.4474 316.724 51.6099 317.782 52.1092C318.813 52.5955 319.883 54.5957 322.05 58.0351C323.115 59.7236 323.498 61.0368 323.887 62.9774C323.944 63.9194 323.999 64.5918 324.082 65.8309C324.11 66.8503 324.11 68.6628 324.11 70.5302" stroke="#E0D0FF" stroke-width="5.76" stroke-linecap="round"/>
<path d="M299.145 71.8617C299.697 72.857 300.473 73.8556 301.607 74.3017C303.857 75.1866 305.13 73.6958 306.104 73.1674C306.933 72.7176 307.243 71.9749 307.492 71.7244C308.016 71.1967 308.791 73.1333 309.931 73.9397C310.806 74.5586 312.835 74.3582 314.397 73.8614C315.53 73.5008 315.898 72.2545 316.341 71.558C316.827 70.7921 317.892 72.6906 318.808 73.3297C320.355 74.4091 323.328 73.2531 324.245 72.6681C324.448 72.5391 324.606 72.3643 324.746 72.1696C326.478 69.7572 324.999 63.9893 324.887 62.8784C324.776 61.7767 324.333 60.9369 324.056 59.9933C323.698 58.7753 323.224 57.9411 322.642 57.0523C322.084 56.2016 321.394 55.4446 320.784 54.7214C320.174 53.9984 319.286 53.5572 318.316 52.9181C317.455 52.3506 316.184 52.2224 314.906 52.0843C313.81 51.9658 312.796 52.2207 312.077 52.6901C310.413 53.7758 309.856 54.9353 308.857 55.7425C307.652 56.7152 306.141 58.4304 304.698 59.6795C303.198 60.9769 302.144 63.2537 301.283 66.0265C300.896 67.2754 300.809 68.7461 301.029 70.1325C301.17 71.0245 303.129 70.8631 304.737 70.7807C306.169 70.7073 306.797 68.9291 307.546 67.7341C308.902 65.5709 309.181 63.277 309.657 61.3821C310.023 59.9233 310.625 58.1159 311.125 56.0371C311.319 55.2271 311.294 54.892 310.937 55.4637C309.71 57.429 308.307 60.2545 306.976 62.2501C305.854 63.9335 305.472 65.1444 305.082 66.0606C304.85 66.6062 304.527 67.2531 304.361 67.5061C303.372 69.0092 305.349 63.2803 306.464 61.7674C306.63 61.5426 306.907 61.4895 307.075 61.5428C308.044 61.8496 308.129 65.3491 308.71 68.5122C308.901 69.5466 309.127 69.3685 309.597 68.5422C310.891 66.2637 311.847 64.3755 312.235 64.1783C312.936 63.8214 312.626 66.6906 312.873 67.5319C312.985 67.9139 313.614 65.4074 313.869 65.9841C314.124 66.5608 314.124 69.5816 314.096 69.3527C313.643 65.58 314.012 61.4912 314.15 61.0185C314.216 60.7943 314.621 62.5297 314.898 64.14C314.94 64.3838 315.287 61.4579 315.592 57.9037C315.622 57.5454 316.009 60.5225 316.12 63.8778C316.167 65.3143 316.287 61.8573 316.315 56.6387C316.323 55.0998 316.397 55.8141 316.288 58.5436C316.179 61.2731 315.905 65.9966 316.01 67.6884C316.14 69.7678 318.058 64.2174 318.834 62.8543C319.224 62.1689 319.946 66.842 320.445 70.1774C320.854 72.9073 320.947 65.0462 320.947 63.9078C320.947 62.4959 321.613 68.3616 321.613 68.2867C321.613 63.4921 321.28 61.16 321.142 60.049C321.108 59.7709 321.114 59.4956 321.032 59.4365C320.403 58.9854 318.521 61.6393 316.599 63.6715C314.865 65.5042 314.077 67.4112 313.1 69.1655C312.707 69.8704 312.349 70.5269 312.183 70.6143C311.963 70.7299 312.126 69.5483 311.962 69.3161C311.662 68.8943 311.018 70.1391 310.852 70.4179C310.423 71.1353 310.519 68.8126 310.242 68.4248C310.105 68.2322 309.856 68.1469 309.661 68.1727C309.465 68.1985 309.3 68.3633 309.408 68.4207C309.515 68.4781 309.9 68.4232 310.18 68.285C310.46 68.1469 310.625 67.9272 311.294 67.7008" stroke="#E0D0FF" stroke-width="5.76" stroke-linecap="round"/>
<path d="M306.175 59.311C305.841 59.8593 305.603 60.3833 305.387 60.8742C305.214 61.267 305.077 61.6504 304.957 62.0332C304.833 62.427 304.79 62.8689 304.658 63.2516C304.524 63.6422 304.36 64.0156 304.24 64.3984C304.123 64.77 304.121 65.1624 304.037 65.5451C303.949 65.9436 303.953 66.4281 303.834 67.3319C303.456 70.2035 303.881 70.6095 303.964 70.9923C304.12 71.375 304.263 71.6617 304.43 71.8523C304.502 71.9484 304.549 72.043 304.741 72.1405" stroke="#E0D0FF" stroke-width="5.76" stroke-linecap="round"/>
<path d="M308.36 65.0624C309.129 65.5291 309.869 65.6013 310.512 65.4763C310.67 65.4224 310.839 65.3512 310.983 65.2968C311.127 65.2424 311.24 65.2068 311.528 64.9546" stroke="#0D0D0D" stroke-width="1.44" stroke-linecap="round"/>
<path d="M315.782 64.788C316.551 65.2547 317.29 65.3269 317.934 65.2019C318.092 65.148 318.261 65.0768 318.405 65.0224C318.549 64.968 318.662 64.9324 318.95 64.6802" stroke="#0D0D0D" stroke-width="1.44" stroke-linecap="round"/>
<path d="M311.309 69.9369C311.542 69.8498 312.069 69.6147 312.612 69.4387C313.077 69.288 313.566 69.2626 315.716 69.2617C316.295 69.3489 316.56 69.4378 316.838 69.4963C316.971 69.5258 317.087 69.5549 317.471 69.6728" stroke="#0D0D0D" stroke-width="1.44" stroke-linecap="round"/>
<defs>
<clipPath id="clip0_257_2981">
<rect width="45" height="5" fill="white" transform="translate(149 123)"/>
</clipPath>
</defs>
</svg>
