<svg width="343" height="136" viewBox="0 0 343 136" fill="none" xmlns="http://www.w3.org/2000/svg">
<rect width="343" height="136" rx="8" fill="#01B295"/>
<g clip-path="url(#clip0_257_2982)">
<circle cx="151.5" cy="125.5" r="2.5" fill="#0D0D0D"/>
<circle cx="161.5" cy="125.5" r="2.5" fill="#0D0D0D"/>
<circle cx="171.5" cy="125.5" r="2.5" fill="#0D0D0D"/>
<circle cx="181.5" cy="125.5" r="2.5" fill="#0D0D0D"/>
<circle cx="191.5" cy="125.5" r="2.5" fill="#C9C9C9"/>
</g>
<rect x="308" y="8" width="24" height="14" rx="7" fill="#E0E0E0"/>
<path d="M314.668 18L316.746 12.3633H317.285V13.2734H317.062L315.406 18H314.668ZM315.609 16.3867L315.828 15.7891H318.375L318.594 16.3867H315.609ZM318.781 18L317.125 13.2734V12.3633H317.441L319.52 18H318.781ZM320.508 18V12.3633H322.441C322.999 12.3633 323.475 12.4753 323.871 12.6992C324.27 12.9206 324.574 13.2409 324.785 13.6602C324.996 14.0794 325.102 14.5846 325.102 15.1758V15.1836C325.102 15.7747 324.996 16.2812 324.785 16.7031C324.574 17.1224 324.271 17.444 323.875 17.668C323.479 17.8893 323.001 18 322.441 18H320.508ZM321.211 17.3672H322.395C322.814 17.3672 323.172 17.2812 323.469 17.1094C323.766 16.9375 323.992 16.6888 324.148 16.3633C324.305 16.0378 324.383 15.6471 324.383 15.1914V15.1836C324.383 14.7253 324.303 14.3333 324.145 14.0078C323.988 13.6797 323.762 13.4297 323.465 13.2578C323.168 13.0833 322.811 12.9961 322.395 12.9961H321.211V17.3672Z" fill="#0D0D0D"/>
<path d="M23.458 35.724H24.984V36.536C24.984 37.3573 24.8487 38.1367 24.578 38.874C24.3167 39.6113 23.9153 40.26 23.374 40.82C22.8327 41.3707 22.1467 41.7813 21.316 42.052L20.392 40.582C21.1013 40.3487 21.68 40.022 22.128 39.602C22.5853 39.1727 22.9213 38.692 23.136 38.16C23.3507 37.6187 23.458 37.0773 23.458 36.536V35.724ZM23.836 35.724H25.334V36.536C25.334 37.04 25.4367 37.53 25.642 38.006C25.8473 38.4727 26.1647 38.8927 26.594 39.266C27.0327 39.6393 27.602 39.9333 28.302 40.148L27.406 41.604C26.5847 41.3613 25.908 40.988 25.376 40.484C24.8533 39.9707 24.466 39.378 24.214 38.706C23.962 38.0247 23.836 37.3013 23.836 36.536V35.724ZM20.868 35.136H27.882V36.62H20.868V35.136ZM28.904 34.282H30.766V41.968H28.904V34.282ZM30.262 37.25H32.488V38.776H30.262V37.25ZM26.538 42.192C27.4433 42.192 28.2227 42.2947 28.876 42.5C29.5293 42.696 30.0333 42.9807 30.388 43.354C30.7427 43.7273 30.92 44.18 30.92 44.712C30.92 45.244 30.7427 45.6967 30.388 46.07C30.0333 46.4527 29.5293 46.742 28.876 46.938C28.2227 47.1433 27.4433 47.246 26.538 47.246C25.642 47.246 24.8627 47.1433 24.2 46.938C23.5467 46.742 23.038 46.4527 22.674 46.07C22.3193 45.6967 22.142 45.244 22.142 44.712C22.142 44.18 22.3193 43.7273 22.674 43.354C23.038 42.9807 23.5467 42.696 24.2 42.5C24.8627 42.2947 25.642 42.192 26.538 42.192ZM26.538 43.648C25.9873 43.648 25.5253 43.6853 25.152 43.76C24.7787 43.8347 24.494 43.9513 24.298 44.11C24.102 44.2687 24.004 44.4693 24.004 44.712C24.004 44.964 24.102 45.1693 24.298 45.328C24.494 45.4867 24.7787 45.608 25.152 45.692C25.5253 45.7667 25.9873 45.804 26.538 45.804C27.0887 45.804 27.5507 45.7667 27.924 45.692C28.3067 45.608 28.5913 45.4867 28.778 45.328C28.974 45.1693 29.072 44.964 29.072 44.712C29.072 44.4693 28.974 44.2687 28.778 44.11C28.5913 43.9513 28.3067 43.8347 27.924 43.76C27.5507 43.6853 27.0887 43.648 26.538 43.648ZM33.4529 44.208H45.1989V45.72H33.4529V44.208ZM38.3249 41.324H40.1869V44.614H38.3249V41.324ZM38.2689 34.996H39.8929V35.934C39.8929 36.4847 39.8136 37.0167 39.6549 37.53C39.5056 38.0433 39.2769 38.5287 38.9689 38.986C38.6702 39.4433 38.3016 39.8587 37.8629 40.232C37.4242 40.596 36.9202 40.9087 36.3509 41.17C35.7909 41.4313 35.1702 41.6227 34.4889 41.744L33.7189 40.19C34.3162 40.0967 34.8529 39.9473 35.3289 39.742C35.8049 39.5367 36.2249 39.294 36.5889 39.014C36.9622 38.7247 37.2702 38.412 37.5129 38.076C37.7649 37.7307 37.9516 37.376 38.0729 37.012C38.2036 36.648 38.2689 36.2887 38.2689 35.934V34.996ZM38.6189 34.996H40.2569V35.934C40.2569 36.298 40.3176 36.662 40.4389 37.026C40.5696 37.39 40.7562 37.74 40.9989 38.076C41.2509 38.412 41.5589 38.7247 41.9229 39.014C42.2869 39.294 42.7069 39.5367 43.1829 39.742C43.6682 39.9473 44.2049 40.0967 44.7929 40.19L44.0229 41.744C43.3416 41.6133 42.7209 41.422 42.1609 41.17C41.6009 40.9087 41.1016 40.596 40.6629 40.232C40.2242 39.868 39.8509 39.462 39.5429 39.014C39.2442 38.5567 39.0156 38.0713 38.8569 37.558C38.6982 37.0353 38.6189 36.494 38.6189 35.934V34.996ZM51.882 36.592H53.254V36.788C53.254 37.3853 53.1514 37.9687 52.946 38.538C52.7407 39.1073 52.4234 39.616 51.994 40.064C51.5647 40.512 51.0187 40.8527 50.356 41.086L49.544 39.714C50.076 39.5087 50.51 39.252 50.846 38.944C51.1914 38.6267 51.448 38.2813 51.616 37.908C51.7934 37.5253 51.882 37.152 51.882 36.788V36.592ZM52.274 36.592H53.646V36.788C53.646 37.152 53.73 37.5113 53.898 37.866C54.0754 38.2113 54.3367 38.5287 54.682 38.818C55.0367 39.098 55.4707 39.3267 55.984 39.504L55.2 40.876C54.528 40.6613 53.9727 40.344 53.534 39.924C53.1047 39.504 52.7874 39.0233 52.582 38.482C52.3767 37.9407 52.274 37.376 52.274 36.788V36.592ZM49.908 35.5H55.592V36.942H49.908V35.5ZM51.882 34.338H53.646V36.452H51.882V34.338ZM58.84 34.282H60.618V41.072H58.84V34.282ZM57.272 36.956H59.344V38.412H57.272V36.956ZM56.152 34.52H57.888V40.988H56.152V34.52ZM51.798 41.548H60.618V44.936H53.674V46.588H51.826V43.648H58.784V42.934H51.798V41.548ZM51.826 45.72H61.038V47.12H51.826V45.72ZM71.355 34.282H73.217V43.83H71.355V34.282ZM64.537 45.524H73.539V47.022H64.537V45.524ZM64.537 43.046H66.399V46.294H64.537V43.046ZM63.123 40.694H64.243C65.1483 40.694 65.9463 40.6847 66.637 40.666C67.3276 40.6473 67.9623 40.61 68.541 40.554C69.129 40.498 69.717 40.414 70.305 40.302L70.487 41.772C69.8896 41.884 69.2876 41.9727 68.681 42.038C68.0743 42.094 67.4163 42.136 66.707 42.164C65.9976 42.1827 65.1763 42.192 64.243 42.192H63.123V40.694ZM63.095 35.122H69.073V39.28H64.943V41.114H63.123V37.894H67.225V36.606H63.095V35.122ZM78.4519 36.326H79.9359V37.782C79.9359 38.5287 79.8565 39.2613 79.6979 39.98C79.5485 40.6987 79.3199 41.3753 79.0119 42.01C78.7132 42.6353 78.3352 43.1907 77.8779 43.676C77.4205 44.152 76.8885 44.53 76.2819 44.81L75.2179 43.34C75.7592 43.088 76.2305 42.7613 76.6319 42.36C77.0425 41.9587 77.3785 41.5107 77.6399 41.016C77.9105 40.512 78.1112 39.9847 78.2419 39.434C78.3819 38.874 78.4519 38.3233 78.4519 37.782V36.326ZM78.8579 36.326H80.3279V37.782C80.3279 38.2953 80.3932 38.818 80.5239 39.35C80.6639 39.8727 80.8645 40.372 81.1259 40.848C81.3872 41.3147 81.7185 41.7347 82.1199 42.108C82.5212 42.4813 82.9972 42.78 83.5479 43.004L82.5259 44.488C81.9099 44.2173 81.3732 43.8533 80.9159 43.396C80.4585 42.9387 80.0759 42.4113 79.7679 41.814C79.4599 41.2167 79.2312 40.5773 79.0819 39.896C78.9325 39.2053 78.8579 38.5007 78.8579 37.782V36.326ZM75.7359 35.514H83.0159V37.054H75.7359V35.514ZM84.2199 34.282H86.0819V47.246H84.2199V34.282ZM91.0105 35.8182L90.8166 42.9474H88.997L88.7981 35.8182H91.0105ZM89.9068 46.1293C89.5787 46.1293 89.2969 46.0133 89.0616 45.7812C88.8263 45.5459 88.7103 45.2642 88.7136 44.9361C88.7103 44.6113 88.8263 44.3329 89.0616 44.1009C89.2969 43.8688 89.5787 43.7528 89.9068 43.7528C90.2217 43.7528 90.4984 43.8688 90.737 44.1009C90.9757 44.3329 91.0967 44.6113 91.1 44.9361C91.0967 45.1548 91.0386 45.3554 90.926 45.5376C90.8166 45.7166 90.6724 45.8608 90.4934 45.9702C90.3145 46.0762 90.1189 46.1293 89.9068 46.1293ZM20.574 64.306H32.32V65.818H20.574V64.306ZM25.502 61.842H27.35V64.908H25.502V61.842ZM21.904 55.108H30.99V59.434H23.766V61.604H21.918V57.978H29.142V56.592H21.904V55.108ZM21.918 60.876H31.284V62.36H21.918V60.876ZM40.2289 57.054H42.7069V58.524H40.2289V57.054ZM38.2549 54.828H40.1869C40.1869 55.9947 39.9862 57.0073 39.5849 57.866C39.1929 58.7247 38.5676 59.4387 37.7089 60.008C36.8502 60.5773 35.7256 61.0253 34.3349 61.352L33.6629 59.938C34.5589 59.742 35.3009 59.504 35.8889 59.224C36.4862 58.944 36.9529 58.6267 37.2889 58.272C37.6342 57.9173 37.8816 57.53 38.0309 57.11C38.1802 56.6807 38.2549 56.2327 38.2549 55.766V54.828ZM34.3769 54.828H39.5849V56.27H34.3769V54.828ZM38.6189 56.984V58.216L33.9989 58.552L33.7469 57.152L38.6189 56.984ZM42.4269 54.268H44.3029V60.806H42.4269V54.268ZM35.7349 61.31H44.3029V64.838H37.5969V66.448H35.7489V63.494H42.4549V62.752H35.7349V61.31ZM35.7489 65.65H44.5549V67.106H35.7489V65.65ZM50.202 55.43H56.432V64.152H50.202V55.43ZM54.612 56.9H52.036V62.682H54.612V56.9ZM58.462 54.254H60.324V67.26H58.462V54.254ZM69.283 55.962H71.873V57.446H69.283V55.962ZM69.283 58.454H71.873V59.938H69.283V58.454ZM65.419 55.01H66.917V56.508C66.917 57.404 66.791 58.244 66.539 59.028C66.287 59.812 65.8996 60.498 65.377 61.086C64.8543 61.6647 64.1823 62.108 63.361 62.416L62.367 60.974C62.9083 60.778 63.3703 60.526 63.753 60.218C64.1356 59.91 64.4483 59.56 64.691 59.168C64.9336 58.7667 65.1156 58.342 65.237 57.894C65.3583 57.4367 65.419 56.9747 65.419 56.508V55.01ZM65.797 55.01H67.295V56.508C67.295 56.9467 67.351 57.3853 67.463 57.824C67.575 58.2533 67.7476 58.6593 67.981 59.042C68.2143 59.4247 68.513 59.77 68.877 60.078C69.241 60.386 69.6796 60.6333 70.193 60.82L69.171 62.276C68.4056 61.968 67.771 61.5247 67.267 60.946C66.7723 60.3673 66.4036 59.6953 66.161 58.93C65.9183 58.1647 65.797 57.3573 65.797 56.508V55.01ZM71.425 54.282H73.301V63.872H71.425V54.282ZM64.719 65.524H73.581V67.022H64.719V65.524ZM64.719 63.004H66.581V66.476H64.719V63.004ZM86.8721 54.282H88.7341V67.246H86.8721V54.282ZM88.3141 59.336H90.5961V60.876H88.3141V59.336ZM78.5001 56.186H86.0601V57.67H78.5001V56.186ZM82.3081 58.412C82.9334 58.412 83.4934 58.5473 83.9881 58.818C84.4828 59.0793 84.8701 59.4387 85.1501 59.896C85.4394 60.3533 85.5841 60.8853 85.5841 61.492C85.5841 62.0987 85.4394 62.6353 85.1501 63.102C84.8701 63.5593 84.4828 63.9233 83.9881 64.194C83.5028 64.4553 82.9428 64.586 82.3081 64.586C81.6828 64.586 81.1181 64.4553 80.6141 64.194C80.1194 63.9233 79.7274 63.5593 79.4381 63.102C79.1581 62.6353 79.0181 62.0987 79.0181 61.492C79.0181 60.8853 79.1581 60.3533 79.4381 59.896C79.7274 59.4387 80.1194 59.0793 80.6141 58.818C81.1181 58.5473 81.6828 58.412 82.3081 58.412ZM82.3081 59.924C82.0094 59.924 81.7481 59.9847 81.5241 60.106C81.3001 60.2273 81.1228 60.4047 80.9921 60.638C80.8614 60.8713 80.7961 61.156 80.7961 61.492C80.7961 61.8187 80.8614 62.1033 80.9921 62.346C81.1228 62.5793 81.3001 62.7613 81.5241 62.892C81.7481 63.0133 82.0094 63.074 82.3081 63.074C82.5974 63.074 82.8541 63.0133 83.0781 62.892C83.3021 62.7613 83.4794 62.5793 83.6101 62.346C83.7408 62.1033 83.8061 61.8187 83.8061 61.492C83.8061 61.156 83.7408 60.8713 83.6101 60.638C83.4794 60.4047 83.3021 60.2273 83.0781 60.106C82.8541 59.9847 82.5974 59.924 82.3081 59.924ZM81.3561 54.492H83.2321V56.76H81.3561V54.492ZM101.123 59.168H103.405V60.708H101.123V59.168ZM99.723 54.254H101.599V67.218H99.723V54.254ZM91.841 55.5H93.689V63.564H91.841V55.5ZM91.841 62.514H92.947C93.871 62.514 94.8323 62.4767 95.831 62.402C96.8297 62.3273 97.8517 62.1873 98.897 61.982L99.093 63.494C98.0103 63.718 96.9557 63.872 95.929 63.956C94.9023 64.0307 93.9083 64.068 92.947 64.068H91.841V62.514ZM110.508 59.518H112.37V61.492H110.508V59.518ZM111.432 54.8C112.057 54.8 112.613 54.912 113.098 55.136C113.583 55.3507 113.966 55.6587 114.246 56.06C114.526 56.452 114.666 56.9093 114.666 57.432C114.666 57.9453 114.526 58.4027 114.246 58.804C113.966 59.196 113.583 59.504 113.098 59.728C112.613 59.952 112.057 60.064 111.432 60.064C110.807 60.064 110.247 59.952 109.752 59.728C109.267 59.504 108.884 59.196 108.604 58.804C108.324 58.4027 108.184 57.9453 108.184 57.432C108.184 56.9093 108.324 56.452 108.604 56.06C108.884 55.6587 109.267 55.3507 109.752 55.136C110.247 54.912 110.807 54.8 111.432 54.8ZM111.432 56.186C111.143 56.186 110.881 56.2373 110.648 56.34C110.424 56.4333 110.247 56.5733 110.116 56.76C109.985 56.9467 109.92 57.1707 109.92 57.432C109.92 57.6933 109.985 57.9173 110.116 58.104C110.247 58.2813 110.424 58.4213 110.648 58.524C110.881 58.6173 111.143 58.664 111.432 58.664C111.731 58.664 111.992 58.6173 112.216 58.524C112.44 58.4213 112.613 58.2813 112.734 58.104C112.865 57.9173 112.93 57.6933 112.93 57.432C112.93 57.1707 112.865 56.9467 112.734 56.76C112.613 56.5733 112.44 56.4333 112.216 56.34C111.992 56.2373 111.731 56.186 111.432 56.186ZM115.982 54.282H117.844V64.166H115.982V54.282ZM117.2 58.356H119.482V59.868H117.2V58.356ZM109.206 65.524H118.292V67.008H109.206V65.524ZM109.206 63.326H111.068V66.168H109.206V63.326ZM107.736 62.486L107.512 61.016C108.249 61.016 109.057 61.0113 109.934 61.002C110.821 60.9833 111.721 60.946 112.636 60.89C113.56 60.834 114.447 60.7453 115.296 60.624L115.422 61.954C114.554 62.1127 113.663 62.234 112.748 62.318C111.833 62.3927 110.947 62.4393 110.088 62.458C109.229 62.4767 108.445 62.486 107.736 62.486ZM123.415 61.828H125.249V64.894H123.415V61.828ZM127.517 61.828H129.337V64.88H127.517V61.828ZM120.447 64.306H132.193V65.818H120.447V64.306ZM121.777 55.108H130.863V59.406H123.639V61.604H121.791V57.95H129.015V56.592H121.777V55.108ZM121.791 60.834H131.157V62.318H121.791V60.834ZM141.628 54.282H143.49V67.246H141.628V54.282ZM143.07 59.336H145.352V60.876H143.07V59.336ZM133.256 56.186H140.816V57.67H133.256V56.186ZM137.064 58.412C137.689 58.412 138.249 58.5473 138.744 58.818C139.239 59.0793 139.626 59.4387 139.906 59.896C140.195 60.3533 140.34 60.8853 140.34 61.492C140.34 62.0987 140.195 62.6353 139.906 63.102C139.626 63.5593 139.239 63.9233 138.744 64.194C138.259 64.4553 137.699 64.586 137.064 64.586C136.439 64.586 135.874 64.4553 135.37 64.194C134.875 63.9233 134.483 63.5593 134.194 63.102C133.914 62.6353 133.774 62.0987 133.774 61.492C133.774 60.8853 133.914 60.3533 134.194 59.896C134.483 59.4387 134.875 59.0793 135.37 58.818C135.874 58.5473 136.439 58.412 137.064 58.412ZM137.064 59.924C136.765 59.924 136.504 59.9847 136.28 60.106C136.056 60.2273 135.879 60.4047 135.748 60.638C135.617 60.8713 135.552 61.156 135.552 61.492C135.552 61.8187 135.617 62.1033 135.748 62.346C135.879 62.5793 136.056 62.7613 136.28 62.892C136.504 63.0133 136.765 63.074 137.064 63.074C137.353 63.074 137.61 63.0133 137.834 62.892C138.058 62.7613 138.235 62.5793 138.366 62.346C138.497 62.1033 138.562 61.8187 138.562 61.492C138.562 61.156 138.497 60.8713 138.366 60.638C138.235 60.4047 138.058 60.2273 137.834 60.106C137.61 59.9847 137.353 59.924 137.064 59.924ZM136.112 54.492H137.988V56.76H136.112V54.492ZM147.409 55.374H155.613V56.858H147.409V55.374ZM146.205 64.166H157.937V65.678H146.205V64.166ZM150.349 59.714H152.225V64.922H150.349V59.714ZM154.941 55.374H156.817V56.606C156.817 57.1473 156.808 57.7213 156.789 58.328C156.78 58.9347 156.738 59.6067 156.663 60.344C156.598 61.0813 156.476 61.9073 156.299 62.822L154.437 62.626C154.698 61.3287 154.848 60.1993 154.885 59.238C154.922 58.2673 154.941 57.39 154.941 56.606V55.374ZM162.324 64.222H174.07V65.734H162.324V64.222ZM167.252 61.45H169.1V64.586H167.252V61.45ZM163.556 55.094H165.418V57.096H170.934V55.094H172.782V61.842H163.556V55.094ZM165.418 58.552V60.358H170.934V58.552H165.418ZM178.045 54.968H179.571V56.13C179.571 56.9793 179.44 57.7867 179.179 58.552C178.927 59.308 178.535 59.9707 178.003 60.54C177.471 61.1093 176.794 61.534 175.973 61.814L174.993 60.358C175.721 60.106 176.309 59.7653 176.757 59.336C177.205 58.8973 177.532 58.398 177.737 57.838C177.942 57.278 178.045 56.7087 178.045 56.13V54.968ZM178.423 54.968H179.921V56.298C179.921 56.69 179.977 57.0727 180.089 57.446C180.21 57.8193 180.388 58.1693 180.621 58.496C180.854 58.8227 181.153 59.1167 181.517 59.378C181.881 59.63 182.32 59.8353 182.833 59.994L181.867 61.45C181.083 61.1887 180.434 60.8013 179.921 60.288C179.417 59.7747 179.039 59.1773 178.787 58.496C178.544 57.8147 178.423 57.082 178.423 56.298V54.968ZM183.533 54.282H185.395V61.94H183.533V54.282ZM184.891 57.278H187.117V58.818H184.891V57.278ZM181.167 62.234C182.072 62.234 182.852 62.3367 183.505 62.542C184.158 62.738 184.662 63.0227 185.017 63.396C185.372 63.76 185.549 64.208 185.549 64.74C185.549 65.2627 185.372 65.7107 185.017 66.084C184.662 66.4573 184.158 66.742 183.505 66.938C182.852 67.1433 182.072 67.246 181.167 67.246C180.271 67.246 179.492 67.1433 178.829 66.938C178.176 66.742 177.667 66.4573 177.303 66.084C176.948 65.7107 176.771 65.2627 176.771 64.74C176.771 64.208 176.948 63.76 177.303 63.396C177.667 63.0227 178.176 62.738 178.829 62.542C179.492 62.3367 180.271 62.234 181.167 62.234ZM181.167 63.676C180.616 63.676 180.154 63.718 179.781 63.802C179.408 63.8767 179.123 63.9933 178.927 64.152C178.731 64.3013 178.633 64.4973 178.633 64.74C178.633 64.9733 178.731 65.1693 178.927 65.328C179.123 65.4867 179.408 65.608 179.781 65.692C180.154 65.7667 180.616 65.804 181.167 65.804C181.718 65.804 182.18 65.7667 182.553 65.692C182.936 65.608 183.22 65.4867 183.407 65.328C183.603 65.1693 183.701 64.9733 183.701 64.74C183.701 64.4973 183.603 64.3013 183.407 64.152C183.22 63.9933 182.936 63.8767 182.553 63.802C182.18 63.718 181.718 63.676 181.167 63.676ZM193.948 54.45C195.422 54.45 196.57 54.6413 197.392 55.024C198.222 55.4067 198.638 55.9573 198.638 56.676C198.638 57.3853 198.222 57.9313 197.392 58.314C196.57 58.6967 195.422 58.888 193.948 58.888C192.464 58.888 191.306 58.6967 190.476 58.314C189.654 57.9313 189.244 57.3853 189.244 56.676C189.244 55.9573 189.654 55.4067 190.476 55.024C191.306 54.6413 192.464 54.45 193.948 54.45ZM193.934 55.822C193.318 55.822 192.804 55.8547 192.394 55.92C191.983 55.976 191.675 56.0693 191.47 56.2C191.274 56.3213 191.176 56.48 191.176 56.676C191.176 56.872 191.274 57.0353 191.47 57.166C191.675 57.2873 191.983 57.376 192.394 57.432C192.804 57.488 193.318 57.516 193.934 57.516C194.559 57.516 195.077 57.488 195.488 57.432C195.898 57.376 196.202 57.2873 196.398 57.166C196.594 57.0353 196.692 56.872 196.692 56.676C196.692 56.48 196.594 56.3213 196.398 56.2C196.202 56.0693 195.898 55.976 195.488 55.92C195.077 55.8547 194.559 55.822 193.934 55.822ZM188.068 59.49H199.8V60.96H188.068V59.49ZM189.412 61.688H198.372V65.006H191.274V66.154H189.426V63.718H196.538V63.06H189.412V61.688ZM189.426 65.748H198.722V67.162H189.426V65.748ZM212.531 54.282H214.393V61.842H212.531V54.282ZM213.889 57.208H216.115V58.748H213.889V57.208ZM204.565 55.024H206.413V56.662H208.961V55.024H210.795V61.198H204.565V55.024ZM206.413 58.104V59.742H208.961V58.104H206.413ZM205.979 62.416H214.477V63.872H207.827V66.658H205.979V62.416ZM205.979 65.608H214.729V67.092H205.979V65.608ZM222.932 54.926C223.847 54.926 224.668 55.08 225.396 55.388C226.133 55.696 226.712 56.13 227.132 56.69C227.561 57.25 227.776 57.908 227.776 58.664C227.776 59.42 227.561 60.0827 227.132 60.652C226.712 61.212 226.133 61.646 225.396 61.954C224.668 62.262 223.847 62.416 222.932 62.416C222.027 62.416 221.205 62.262 220.468 61.954C219.74 61.646 219.161 61.212 218.732 60.652C218.303 60.0827 218.088 59.42 218.088 58.664C218.088 57.908 218.303 57.25 218.732 56.69C219.161 56.13 219.74 55.696 220.468 55.388C221.205 55.08 222.027 54.926 222.932 54.926ZM222.932 56.438C222.353 56.438 221.835 56.5267 221.378 56.704C220.921 56.8813 220.561 57.138 220.3 57.474C220.048 57.8007 219.922 58.1973 219.922 58.664C219.922 59.1307 220.048 59.532 220.3 59.868C220.561 60.1947 220.921 60.4467 221.378 60.624C221.835 60.8013 222.353 60.89 222.932 60.89C223.529 60.89 224.052 60.8013 224.5 60.624C224.957 60.4467 225.312 60.1947 225.564 59.868C225.825 59.532 225.956 59.1307 225.956 58.664C225.956 58.1973 225.825 57.8007 225.564 57.474C225.312 57.138 224.957 56.8813 224.5 56.704C224.052 56.5267 223.529 56.438 222.932 56.438ZM217.08 64.152H228.826V65.678H217.08V64.152ZM235.055 58.636H237.211V60.148H235.055V58.636ZM232.297 55.402H233.711V57.572C233.711 58.3093 233.659 59.0327 233.557 59.742C233.454 60.4513 233.286 61.1187 233.053 61.744C232.829 62.3693 232.53 62.934 232.157 63.438C231.793 63.9327 231.349 64.3387 230.827 64.656L229.707 63.256C230.192 62.9667 230.598 62.612 230.925 62.192C231.251 61.772 231.517 61.31 231.723 60.806C231.928 60.302 232.073 59.7793 232.157 59.238C232.25 58.6873 232.297 58.132 232.297 57.572V55.402ZM232.703 55.402H234.089V57.488C234.089 58.02 234.126 58.5473 234.201 59.07C234.285 59.5927 234.415 60.092 234.593 60.568C234.77 61.044 235.003 61.4827 235.293 61.884C235.591 62.2853 235.965 62.6307 236.413 62.92L235.391 64.376C234.887 64.0587 234.457 63.6573 234.103 63.172C233.757 62.6773 233.482 62.122 233.277 61.506C233.071 60.89 232.922 60.2413 232.829 59.56C232.745 58.8787 232.703 58.188 232.703 57.488V55.402ZM239.311 54.268H241.089V67.232H239.311V54.268ZM236.679 54.478H238.415V66.658H236.679V54.478ZM245.414 60.862H247.276V64.488H245.414V60.862ZM250.118 60.862H251.98V64.488H250.118V60.862ZM242.838 64.222H254.584V65.734H242.838V64.222ZM248.69 54.912C249.623 54.912 250.454 55.0567 251.182 55.346C251.919 55.6353 252.493 56.0413 252.904 56.564C253.324 57.0773 253.534 57.6887 253.534 58.398C253.534 59.098 253.324 59.7093 252.904 60.232C252.493 60.7453 251.919 61.1467 251.182 61.436C250.454 61.7253 249.623 61.87 248.69 61.87C247.766 61.87 246.935 61.7253 246.198 61.436C245.47 61.1467 244.896 60.7453 244.476 60.232C244.056 59.7093 243.846 59.098 243.846 58.398C243.846 57.6887 244.056 57.0773 244.476 56.564C244.896 56.0413 245.47 55.6353 246.198 55.346C246.935 55.0567 247.766 54.912 248.69 54.912ZM248.69 56.354C248.092 56.354 247.565 56.438 247.108 56.606C246.66 56.7647 246.31 56.9933 246.058 57.292C245.806 57.5907 245.68 57.9593 245.68 58.398C245.68 58.818 245.806 59.182 246.058 59.49C246.31 59.7887 246.66 60.022 247.108 60.19C247.565 60.3487 248.092 60.428 248.69 60.428C249.296 60.428 249.824 60.3487 250.272 60.19C250.729 60.022 251.079 59.7887 251.322 59.49C251.574 59.182 251.7 58.818 251.7 58.398C251.7 57.9593 251.574 57.5907 251.322 57.292C251.079 56.9933 250.729 56.7647 250.272 56.606C249.824 56.438 249.296 56.354 248.69 56.354ZM257.226 66.1293C256.898 66.1293 256.616 66.0133 256.381 65.7812C256.148 65.5459 256.032 65.2642 256.032 64.9361C256.032 64.6113 256.148 64.3329 256.381 64.1009C256.616 63.8688 256.898 63.7528 257.226 63.7528C257.544 63.7528 257.822 63.8688 258.061 64.1009C258.3 64.3329 258.419 64.6113 258.419 64.9361C258.419 65.1548 258.363 65.3554 258.25 65.5376C258.14 65.7166 257.996 65.8608 257.817 65.9702C257.638 66.0762 257.441 66.1293 257.226 66.1293Z" fill="white"/>
<path d="M22 85H276" stroke="#F3F3F3" stroke-width="0.5"/>
<path d="M25.3753 96.384H26.0473V101.672H25.3753V96.384ZM25.8393 98.576H27.1113V99.136H25.8393V98.576ZM23.3993 96.944H24.1033C24.1033 97.568 23.9646 98.1333 23.6873 98.64C23.4153 99.1467 23.0259 99.5867 22.5193 99.96C22.0126 100.333 21.4126 100.629 20.7193 100.848L20.4393 100.312C21.0473 100.12 21.5726 99.872 22.0153 99.568C22.4579 99.264 22.7993 98.9147 23.0393 98.52C23.2793 98.1253 23.3993 97.6987 23.3993 97.24V96.944ZM20.7353 96.944H23.7433V97.496H20.7353V96.944ZM21.5353 102.92H26.3593V103.464H21.5353V102.92ZM21.5353 101.136H22.1993V103.136H21.5353V101.136ZM32.7426 96.384H33.4066V101.624H32.7426V96.384ZM33.1986 98.528H34.4786V99.08H33.1986V98.528ZM28.1266 99.792H28.6866C29.1826 99.792 29.6173 99.7867 29.9906 99.776C30.364 99.7653 30.708 99.7413 31.0226 99.704C31.3373 99.6667 31.6546 99.616 31.9746 99.552L32.0546 100.096C31.7186 100.16 31.388 100.211 31.0626 100.248C30.7426 100.285 30.3933 100.312 30.0146 100.328C29.636 100.339 29.1933 100.344 28.6866 100.344H28.1266V99.792ZM28.1266 97.008H31.3186V97.552H28.7826V100.088H28.1266V97.008ZM28.9026 102.92H33.7266V103.464H28.9026V102.92ZM28.9026 101.096H29.5586V103.168H28.9026V101.096ZM40.102 96.392H40.766V101.816H40.102V96.392ZM40.558 98.768H41.83V99.32H40.558V98.768ZM35.166 97.272H39.438V97.808H35.166V97.272ZM37.302 98.2C37.6433 98.2 37.9447 98.2587 38.206 98.376C38.4673 98.488 38.67 98.6453 38.814 98.848C38.958 99.0453 39.03 99.28 39.03 99.552C39.03 99.824 38.958 100.061 38.814 100.264C38.67 100.461 38.4673 100.616 38.206 100.728C37.9447 100.84 37.6433 100.896 37.302 100.896C36.9607 100.896 36.6593 100.84 36.398 100.728C36.1367 100.616 35.9313 100.461 35.782 100.264C35.638 100.061 35.566 99.824 35.566 99.552C35.566 99.28 35.638 99.0453 35.782 98.848C35.9313 98.6453 36.1367 98.488 36.398 98.376C36.6593 98.2587 36.9607 98.2 37.302 98.2ZM37.302 98.72C36.9767 98.72 36.7127 98.7973 36.51 98.952C36.3073 99.1013 36.206 99.3013 36.206 99.552C36.206 99.8027 36.3073 100.003 36.51 100.152C36.7127 100.301 36.9767 100.376 37.302 100.376C37.6327 100.376 37.8967 100.301 38.094 100.152C38.2967 100.003 38.398 99.8027 38.398 99.552C38.398 99.3013 38.2967 99.1013 38.094 98.952C37.8967 98.7973 37.6327 98.72 37.302 98.72ZM36.974 96.392H37.638V97.544H36.974V96.392ZM36.262 102.92H41.086V103.464H36.262V102.92ZM36.262 101.384H36.918V103.144H36.262V101.384ZM45.1674 97.096H48.4954V101.808H45.1674V97.096ZM47.8554 97.624H45.8234V101.272H47.8554V97.624ZM50.0154 96.384H50.6794V103.632H50.0154V96.384ZM55.9508 97.456H57.5748V98H55.9508V97.456ZM55.9508 98.936H57.5748V99.48H55.9508V98.936ZM53.9348 96.792H54.4708V97.712C54.4708 98.1867 54.3881 98.632 54.2228 99.048C54.0574 99.4587 53.8254 99.8187 53.5268 100.128C53.2334 100.432 52.8868 100.667 52.4868 100.832L52.1348 100.304C52.4068 100.197 52.6521 100.059 52.8708 99.888C53.0894 99.712 53.2761 99.5093 53.4308 99.28C53.5908 99.0507 53.7134 98.8053 53.7988 98.544C53.8894 98.2773 53.9348 98 53.9348 97.712V96.792ZM54.0548 96.792H54.5908V97.712C54.5908 97.9787 54.6308 98.2373 54.7108 98.488C54.7961 98.7387 54.9161 98.9733 55.0708 99.192C55.2254 99.4107 55.4094 99.6053 55.6228 99.776C55.8414 99.9467 56.0788 100.083 56.3348 100.184L55.9668 100.704C55.5881 100.549 55.2548 100.323 54.9668 100.024C54.6788 99.72 54.4548 99.3707 54.2948 98.976C54.1348 98.5813 54.0548 98.16 54.0548 97.712V96.792ZM57.4068 96.392H58.0708V101.792H57.4068V96.392ZM53.4228 102.92H58.2388V103.464H53.4228V102.92ZM53.4228 101.24H54.0868V103.208H53.4228V101.24ZM64.6561 96.64H65.2401V97.048C65.2401 97.3253 65.1868 97.5867 65.0801 97.832C64.9735 98.072 64.8268 98.2933 64.6401 98.496C64.4588 98.6987 64.2455 98.88 64.0001 99.04C63.7548 99.2 63.4881 99.3333 63.2001 99.44C62.9175 99.5467 62.6268 99.624 62.3281 99.672L62.0561 99.136C62.3228 99.0987 62.5815 99.0347 62.8321 98.944C63.0881 98.8533 63.3255 98.744 63.5441 98.616C63.7628 98.4827 63.9548 98.3333 64.1201 98.168C64.2908 98.0027 64.4215 97.8267 64.5121 97.64C64.6081 97.448 64.6561 97.2507 64.6561 97.048V96.64ZM64.7681 96.64H65.3441V97.048C65.3441 97.2507 65.3921 97.4453 65.4881 97.632C65.5841 97.8187 65.7148 97.9947 65.8801 98.16C66.0508 98.3253 66.2455 98.4747 66.4641 98.608C66.6828 98.7413 66.9175 98.8533 67.1681 98.944C67.4241 99.0347 67.6828 99.0987 67.9441 99.136L67.6801 99.672C67.3815 99.624 67.0908 99.5467 66.8081 99.44C66.5255 99.328 66.2588 99.192 66.0081 99.032C65.7628 98.872 65.5468 98.6907 65.3601 98.488C65.1788 98.2853 65.0348 98.064 64.9281 97.824C64.8215 97.5787 64.7681 97.32 64.7681 97.048V96.64ZM64.6561 100.872H65.3121V103.624H64.6561V100.872ZM61.7281 100.456H68.2641V101.008H61.7281V100.456ZM74.5515 96.384H75.1835V100.96H74.5515V96.384ZM73.3675 98.352H74.7355V98.896H73.3675V98.352ZM72.9995 96.528H73.6235V100.704H72.9995V96.528ZM69.0475 97.248H72.7115V97.776H69.0475V97.248ZM70.8875 98.152C71.1915 98.152 71.4582 98.2027 71.6875 98.304C71.9222 98.4053 72.1035 98.5493 72.2315 98.736C72.3648 98.9227 72.4315 99.1413 72.4315 99.392C72.4315 99.6427 72.3648 99.8613 72.2315 100.048C72.1035 100.229 71.9222 100.371 71.6875 100.472C71.4582 100.573 71.1915 100.624 70.8875 100.624C70.5888 100.624 70.3222 100.573 70.0875 100.472C69.8528 100.371 69.6715 100.229 69.5435 100.048C69.4155 99.8613 69.3515 99.6427 69.3515 99.392C69.3515 99.1413 69.4155 98.9227 69.5435 98.736C69.6715 98.5493 69.8528 98.4053 70.0875 98.304C70.3222 98.2027 70.5888 98.152 70.8875 98.152ZM70.8875 98.648C70.6102 98.648 70.3835 98.7147 70.2075 98.848C70.0315 98.9813 69.9435 99.1627 69.9435 99.392C69.9435 99.616 70.0288 99.7973 70.1995 99.936C70.3755 100.069 70.6048 100.136 70.8875 100.136C71.1702 100.136 71.3968 100.069 71.5675 99.936C71.7435 99.7973 71.8315 99.616 71.8315 99.392C71.8315 99.1627 71.7435 98.9813 71.5675 98.848C71.3968 98.7147 71.1702 98.648 70.8875 98.648ZM70.5595 96.44H71.2155V97.552H70.5595V96.44ZM72.8075 101.088C73.5648 101.088 74.1568 101.197 74.5835 101.416C75.0102 101.635 75.2235 101.947 75.2235 102.352C75.2235 102.752 75.0102 103.061 74.5835 103.28C74.1568 103.499 73.5648 103.608 72.8075 103.608C72.0502 103.608 71.4582 103.499 71.0315 103.28C70.6048 103.061 70.3915 102.752 70.3915 102.352C70.3915 101.947 70.6048 101.635 71.0315 101.416C71.4582 101.197 72.0502 101.088 72.8075 101.088ZM72.8075 101.6C72.2528 101.6 71.8208 101.664 71.5115 101.792C71.2022 101.92 71.0475 102.107 71.0475 102.352C71.0475 102.592 71.2022 102.776 71.5115 102.904C71.8208 103.032 72.2528 103.096 72.8075 103.096C73.3568 103.096 73.7862 103.032 74.0955 102.904C74.4048 102.776 74.5595 102.592 74.5595 102.352C74.5595 102.107 74.4048 101.92 74.0955 101.792C73.7862 101.664 73.3568 101.6 72.8075 101.6ZM79.7109 96.848C80.2175 96.848 80.6682 96.9307 81.0629 97.096C81.4575 97.2613 81.7695 97.4933 81.9989 97.792C82.2282 98.0907 82.3429 98.44 82.3429 98.84C82.3429 99.2453 82.2282 99.5973 81.9989 99.896C81.7695 100.195 81.4575 100.427 81.0629 100.592C80.6682 100.757 80.2175 100.84 79.7109 100.84C79.2149 100.84 78.7669 100.757 78.3669 100.592C77.9722 100.427 77.6602 100.195 77.4309 99.896C77.2015 99.5973 77.0869 99.2453 77.0869 98.84C77.0869 98.44 77.2015 98.0907 77.4309 97.792C77.6602 97.4933 77.9722 97.2613 78.3669 97.096C78.7669 96.9307 79.2149 96.848 79.7109 96.848ZM79.7109 97.384C79.3322 97.384 78.9935 97.4453 78.6949 97.568C78.3962 97.6907 78.1589 97.8613 77.9829 98.08C77.8069 98.2933 77.7189 98.5467 77.7189 98.84C77.7189 99.128 77.8069 99.3813 77.9829 99.6C78.1589 99.8187 78.3962 99.9893 78.6949 100.112C78.9935 100.235 79.3322 100.296 79.7109 100.296C80.0949 100.296 80.4362 100.235 80.7349 100.112C81.0335 99.9893 81.2682 99.8187 81.4389 99.6C81.6149 99.3813 81.7029 99.128 81.7029 98.84C81.7029 98.5467 81.6149 98.2933 81.4389 98.08C81.2682 97.8613 81.0335 97.6907 80.7349 97.568C80.4362 97.4453 80.0949 97.384 79.7109 97.384ZM76.4469 102.112H83.0069V102.664H76.4469V102.112ZM83.8063 102.176H90.3663V102.728H83.8063V102.176ZM86.7423 100.632H87.3983V102.408H86.7423V100.632ZM84.6063 96.92H89.5503V99.112H85.2783V100.56H84.6223V98.584H88.8943V97.464H84.6063V96.92ZM84.6223 100.28H89.7183V100.824H84.6223V100.28ZM98.3676 96.392H99.0316V101.816H98.3676V96.392ZM98.8236 98.768H100.096V99.32H98.8236V98.768ZM93.4316 97.272H97.7036V97.808H93.4316V97.272ZM95.5676 98.2C95.909 98.2 96.2103 98.2587 96.4716 98.376C96.733 98.488 96.9356 98.6453 97.0796 98.848C97.2236 99.0453 97.2956 99.28 97.2956 99.552C97.2956 99.824 97.2236 100.061 97.0796 100.264C96.9356 100.461 96.733 100.616 96.4716 100.728C96.2103 100.84 95.909 100.896 95.5676 100.896C95.2263 100.896 94.925 100.84 94.6636 100.728C94.4023 100.616 94.197 100.461 94.0476 100.264C93.9036 100.061 93.8316 99.824 93.8316 99.552C93.8316 99.28 93.9036 99.0453 94.0476 98.848C94.197 98.6453 94.4023 98.488 94.6636 98.376C94.925 98.2587 95.2263 98.2 95.5676 98.2ZM95.5676 98.72C95.2423 98.72 94.9783 98.7973 94.7756 98.952C94.573 99.1013 94.4716 99.3013 94.4716 99.552C94.4716 99.8027 94.573 100.003 94.7756 100.152C94.9783 100.301 95.2423 100.376 95.5676 100.376C95.8983 100.376 96.1623 100.301 96.3596 100.152C96.5623 100.003 96.6636 99.8027 96.6636 99.552C96.6636 99.3013 96.5623 99.1013 96.3596 98.952C96.1623 98.7973 95.8983 98.72 95.5676 98.72ZM95.2396 96.392H95.9036V97.544H95.2396V96.392ZM94.5276 102.92H99.3516V103.464H94.5276V102.92ZM94.5276 101.384H95.1836V103.144H94.5276V101.384ZM101.607 96.728H106.263V97.272H101.607V96.728ZM100.775 99.312H107.335V99.856H100.775V99.312ZM103.711 99.688H104.375V101.384H103.711V99.688ZM105.831 96.728H106.487V97.256C106.487 97.5547 106.476 97.8933 106.455 98.272C106.434 98.6453 106.364 99.08 106.247 99.576L105.599 99.504C105.716 99.0133 105.783 98.5893 105.799 98.232C105.82 97.8747 105.831 97.5493 105.831 97.256V96.728ZM101.455 101.176H106.527V103.624H105.863V101.712H101.455V101.176ZM111.896 96.84H112.424V97.808C112.424 98.1653 112.358 98.52 112.224 98.872C112.091 99.224 111.899 99.5413 111.648 99.824C111.403 100.107 111.102 100.328 110.744 100.488L110.384 99.976C110.699 99.8373 110.968 99.6507 111.192 99.416C111.422 99.176 111.595 98.9147 111.712 98.632C111.835 98.3493 111.896 98.0747 111.896 97.808V96.84ZM112.008 96.84H112.536V97.808C112.536 98.0693 112.592 98.3307 112.704 98.592C112.822 98.848 112.99 99.08 113.208 99.288C113.432 99.4907 113.696 99.6533 114 99.776L113.648 100.288C113.302 100.149 113.006 99.952 112.76 99.696C112.515 99.44 112.328 99.1493 112.2 98.824C112.072 98.4987 112.008 98.16 112.008 97.808V96.84ZM115.848 96.392H116.48V100.856H115.848V96.392ZM114.696 98.328H116.056V98.872H114.696V98.328ZM114.296 96.528H114.92V100.624H114.296V96.528ZM114.104 101.016C114.6 101.016 115.027 101.067 115.384 101.168C115.747 101.269 116.027 101.419 116.224 101.616C116.422 101.808 116.52 102.04 116.52 102.312C116.52 102.584 116.422 102.816 116.224 103.008C116.027 103.205 115.747 103.355 115.384 103.456C115.027 103.557 114.6 103.608 114.104 103.608C113.608 103.608 113.179 103.557 112.816 103.456C112.454 103.355 112.174 103.205 111.976 103.008C111.784 102.816 111.688 102.584 111.688 102.312C111.688 102.04 111.784 101.808 111.976 101.616C112.174 101.419 112.454 101.269 112.816 101.168C113.179 101.067 113.608 101.016 114.104 101.016ZM114.104 101.528C113.56 101.528 113.131 101.597 112.816 101.736C112.502 101.875 112.344 102.067 112.344 102.312C112.344 102.557 112.502 102.749 112.816 102.888C113.131 103.027 113.56 103.096 114.104 103.096C114.467 103.096 114.779 103.064 115.04 103C115.302 102.941 115.502 102.853 115.64 102.736C115.784 102.619 115.856 102.477 115.856 102.312C115.856 102.067 115.699 101.875 115.384 101.736C115.075 101.597 114.648 101.528 114.104 101.528ZM122.688 96.384H123.352V100.656H122.688V96.384ZM123.072 98.232H124.408V98.792H123.072V98.232ZM118.664 100.984H123.352V102.448H119.336V103.208H118.68V102.008H122.696V101.448H118.664V100.984ZM118.68 103.072H123.624V103.544H118.68V103.072ZM119.64 99.352H120.296V100.272H119.64V99.352ZM117.784 100.488L117.704 100C118.13 100 118.602 99.9973 119.12 99.992C119.637 99.9813 120.165 99.9627 120.704 99.936C121.242 99.904 121.76 99.8533 122.256 99.784L122.304 100.216C121.792 100.301 121.266 100.365 120.728 100.408C120.194 100.445 119.674 100.469 119.168 100.48C118.666 100.485 118.205 100.488 117.784 100.488ZM117.888 96.936H122.04V97.408H117.888V96.936ZM119.96 97.64C120.472 97.64 120.88 97.7227 121.184 97.888C121.493 98.0533 121.648 98.2853 121.648 98.584C121.648 98.888 121.493 99.1253 121.184 99.296C120.88 99.4613 120.472 99.544 119.96 99.544C119.448 99.544 119.037 99.4613 118.728 99.296C118.424 99.1253 118.272 98.888 118.272 98.584C118.272 98.2853 118.424 98.0533 118.728 97.888C119.037 97.7227 119.448 97.64 119.96 97.64ZM119.96 98.08C119.634 98.08 119.376 98.1253 119.184 98.216C118.997 98.3067 118.904 98.4293 118.904 98.584C118.904 98.744 118.997 98.872 119.184 98.968C119.376 99.0587 119.634 99.104 119.96 99.104C120.285 99.104 120.541 99.0587 120.728 98.968C120.92 98.872 121.016 98.744 121.016 98.584C121.016 98.4293 120.92 98.3067 120.728 98.216C120.541 98.1253 120.285 98.08 119.96 98.08ZM119.64 96.32H120.296V97.184H119.64V96.32ZM129.193 97.12H129.737V97.712C129.737 98.1493 129.652 98.56 129.481 98.944C129.316 99.328 129.081 99.664 128.777 99.952C128.473 100.235 128.121 100.451 127.721 100.6L127.377 100.072C127.644 99.976 127.886 99.848 128.105 99.688C128.329 99.528 128.524 99.344 128.689 99.136C128.854 98.9227 128.98 98.696 129.065 98.456C129.15 98.2107 129.193 97.9627 129.193 97.712V97.12ZM129.321 97.12H129.865V97.704C129.865 98.0133 129.937 98.3147 130.081 98.608C130.225 98.896 130.43 99.1547 130.697 99.384C130.964 99.608 131.27 99.784 131.617 99.912L131.281 100.432C130.886 100.288 130.542 100.08 130.249 99.808C129.956 99.536 129.726 99.2187 129.561 98.856C129.401 98.4933 129.321 98.1093 129.321 97.704V97.12ZM131.225 98.272H132.833V98.824H131.225V98.272ZM127.585 96.88H131.449V97.424H127.585V96.88ZM128.473 101.104H133.305V103.624H132.641V101.648H128.473V101.104ZM132.641 96.384H133.305V100.712H132.641V96.384ZM134.713 99.904H141.249V100.44H134.713V99.904ZM137.977 101.04C138.75 101.04 139.355 101.152 139.793 101.376C140.23 101.595 140.449 101.912 140.449 102.328C140.449 102.739 140.23 103.056 139.793 103.28C139.355 103.509 138.75 103.624 137.977 103.624C137.203 103.624 136.595 103.509 136.153 103.28C135.715 103.056 135.497 102.739 135.497 102.328C135.497 101.912 135.715 101.595 136.153 101.376C136.595 101.152 137.203 101.04 137.977 101.04ZM137.977 101.552C137.598 101.552 137.273 101.584 137.001 101.648C136.734 101.707 136.529 101.795 136.385 101.912C136.241 102.024 136.169 102.163 136.169 102.328C136.169 102.488 136.241 102.629 136.385 102.752C136.529 102.869 136.734 102.957 137.001 103.016C137.273 103.075 137.598 103.104 137.977 103.104C138.355 103.104 138.678 103.075 138.945 103.016C139.217 102.957 139.425 102.869 139.569 102.752C139.713 102.629 139.785 102.488 139.785 102.328C139.785 102.163 139.713 102.024 139.569 101.912C139.425 101.795 139.217 101.707 138.945 101.648C138.678 101.584 138.355 101.552 137.977 101.552ZM137.977 96.568C138.499 96.568 138.95 96.624 139.329 96.736C139.707 96.848 140.001 97.0053 140.209 97.208C140.417 97.4107 140.521 97.656 140.521 97.944C140.521 98.232 140.417 98.48 140.209 98.688C140.001 98.8907 139.707 99.048 139.329 99.16C138.95 99.2667 138.499 99.32 137.977 99.32C137.459 99.32 137.009 99.2667 136.625 99.16C136.246 99.048 135.953 98.8907 135.745 98.688C135.537 98.48 135.433 98.232 135.433 97.944C135.433 97.656 135.537 97.4107 135.745 97.208C135.953 97.0053 136.246 96.848 136.625 96.736C137.009 96.624 137.459 96.568 137.977 96.568ZM137.977 97.096C137.598 97.096 137.267 97.1307 136.985 97.2C136.707 97.264 136.491 97.36 136.337 97.488C136.187 97.6107 136.113 97.7627 136.113 97.944C136.113 98.1253 136.187 98.28 136.337 98.408C136.491 98.5307 136.707 98.6267 136.985 98.696C137.267 98.76 137.598 98.792 137.977 98.792C138.361 98.792 138.691 98.76 138.969 98.696C139.251 98.6267 139.467 98.5307 139.617 98.408C139.766 98.28 139.841 98.1253 139.841 97.944C139.841 97.7627 139.766 97.6107 139.617 97.488C139.467 97.36 139.251 97.264 138.969 97.2C138.691 97.1307 138.361 97.096 137.977 97.096ZM144.322 102.168H150.882V102.728H144.322V102.168ZM147.25 100.296H147.906V102.416H147.25V100.296ZM144.898 97.08H150.266V97.624H144.898V97.08ZM144.914 99.992H150.25V100.52H144.914V99.992ZM146.018 97.512H146.682V100.08H146.018V97.512ZM148.482 97.512H149.138V100.08H148.482V97.512ZM156.945 96.392H157.609V101.672H156.945V96.392ZM152.961 102.92H157.833V103.464H152.961V102.92ZM152.961 101.136H153.625V103.104H152.961V101.136ZM153.729 96.896C154.092 96.896 154.415 96.9707 154.697 97.12C154.98 97.2693 155.204 97.48 155.369 97.752C155.535 98.0187 155.617 98.3253 155.617 98.672C155.617 99.0187 155.535 99.328 155.369 99.6C155.204 99.8667 154.98 100.077 154.697 100.232C154.415 100.381 154.092 100.456 153.729 100.456C153.372 100.456 153.049 100.381 152.761 100.232C152.479 100.077 152.255 99.8667 152.089 99.6C151.924 99.328 151.841 99.0187 151.841 98.672C151.841 98.3253 151.924 98.0187 152.089 97.752C152.255 97.48 152.479 97.2693 152.761 97.12C153.049 96.9707 153.372 96.896 153.729 96.896ZM153.729 97.472C153.495 97.472 153.284 97.5227 153.097 97.624C152.911 97.7253 152.761 97.8667 152.649 98.048C152.543 98.2293 152.489 98.4373 152.489 98.672C152.489 98.912 152.543 99.1227 152.649 99.304C152.761 99.48 152.911 99.6187 153.097 99.72C153.284 99.8213 153.495 99.872 153.729 99.872C153.964 99.872 154.175 99.8213 154.361 99.72C154.553 99.6187 154.703 99.48 154.809 99.304C154.916 99.1227 154.969 98.912 154.969 98.672C154.969 98.4373 154.916 98.2293 154.809 98.048C154.703 97.8667 154.553 97.7253 154.361 97.624C154.175 97.5227 153.964 97.472 153.729 97.472ZM159.881 100.288H164.849V100.824H159.881V100.288ZM159.041 102.136H165.601V102.688H159.041V102.136ZM159.881 97.008H164.777V97.552H160.553V100.448H159.881V97.008ZM160.345 98.616H164.617V99.152H160.345V98.616ZM166.392 99.744H172.952V100.256H166.392V99.744ZM167.176 100.832H172.136V102.376H167.848V103.224H167.192V101.92H171.48V101.312H167.176V100.832ZM167.192 103.048H172.368V103.528H167.192V103.048ZM167.224 96.6H172.112V98.104H167.896V98.888H167.24V97.656H171.456V97.072H167.224V96.6ZM167.24 98.728H172.24V99.208H167.24V98.728ZM180.905 96.384H181.569V103.624H180.905V96.384ZM181.417 99.232H182.753V99.8H181.417V99.232ZM176.297 97H176.953V98.904H179.009V97H179.665V101.888H176.297V97ZM176.953 99.432V101.336H179.009V99.432H176.953ZM183.369 102.176H189.929V102.728H183.369V102.176ZM186.305 100.632H186.961V102.408H186.305V100.632ZM184.169 96.92H189.113V99.112H184.841V100.56H184.185V98.584H188.457V97.464H184.169V96.92ZM184.185 100.28H189.281V100.824H184.185V100.28ZM194.258 100.944H198.97V101.488H194.914V103.264H194.258V100.944ZM194.258 102.984H199.082V103.528H194.258V102.984ZM198.266 96.384H198.93V100.536H198.266V96.384ZM196.538 98.208H198.45V98.76H196.538V98.208ZM194.954 96.776C195.306 96.776 195.621 96.8507 195.898 97C196.181 97.144 196.402 97.3467 196.562 97.608C196.727 97.864 196.81 98.16 196.81 98.496C196.81 98.832 196.727 99.1307 196.562 99.392C196.402 99.648 196.181 99.8507 195.898 100C195.621 100.144 195.306 100.216 194.954 100.216C194.597 100.216 194.277 100.144 193.994 100C193.717 99.8507 193.495 99.648 193.33 99.392C193.17 99.1307 193.09 98.832 193.09 98.496C193.09 98.16 193.17 97.864 193.33 97.608C193.495 97.3467 193.717 97.144 193.994 97C194.277 96.8507 194.597 96.776 194.954 96.776ZM194.954 97.336C194.719 97.336 194.509 97.3867 194.322 97.488C194.135 97.584 193.989 97.72 193.882 97.896C193.775 98.0667 193.722 98.2667 193.722 98.496C193.722 98.72 193.775 98.92 193.882 99.096C193.989 99.2667 194.135 99.4027 194.322 99.504C194.509 99.6 194.719 99.648 194.954 99.648C195.183 99.648 195.391 99.6 195.578 99.504C195.765 99.4027 195.911 99.2667 196.018 99.096C196.125 98.92 196.178 98.72 196.178 98.496C196.178 98.2667 196.125 98.0667 196.018 97.896C195.911 97.72 195.765 97.584 195.578 97.488C195.391 97.3867 195.183 97.336 194.954 97.336ZM203.602 96.512C204.402 96.512 205.026 96.6213 205.474 96.84C205.922 97.0533 206.146 97.36 206.146 97.76C206.146 98.1653 205.922 98.4773 205.474 98.696C205.026 98.9093 204.402 99.016 203.602 99.016C202.807 99.016 202.183 98.9093 201.73 98.696C201.282 98.4773 201.058 98.1653 201.058 97.76C201.058 97.36 201.282 97.0533 201.73 96.84C202.183 96.6213 202.807 96.512 203.602 96.512ZM203.602 97.008C203.212 97.008 202.879 97.0373 202.602 97.096C202.324 97.1547 202.111 97.24 201.962 97.352C201.818 97.464 201.746 97.6 201.746 97.76C201.746 97.92 201.818 98.0587 201.962 98.176C202.111 98.288 202.324 98.3733 202.602 98.432C202.879 98.4853 203.212 98.512 203.602 98.512C203.996 98.512 204.332 98.4853 204.61 98.432C204.887 98.3733 205.098 98.288 205.242 98.176C205.391 98.0587 205.466 97.92 205.466 97.76C205.466 97.6 205.391 97.464 205.242 97.352C205.098 97.24 204.887 97.1547 204.61 97.096C204.332 97.0373 203.996 97.008 203.602 97.008ZM200.338 99.504H206.874V100.04H200.338V99.504ZM201.13 100.656H206.034V102.288H201.794V103.16H201.146V101.8H205.386V101.168H201.13V100.656ZM201.146 103.024H206.25V103.544H201.146V103.024ZM212.875 96.64H213.459V97.048C213.459 97.3253 213.406 97.5867 213.299 97.832C213.192 98.072 213.046 98.2933 212.859 98.496C212.678 98.6987 212.464 98.88 212.219 99.04C211.974 99.2 211.707 99.3333 211.419 99.44C211.136 99.5467 210.846 99.624 210.547 99.672L210.275 99.136C210.542 99.0987 210.8 99.0347 211.051 98.944C211.307 98.8533 211.544 98.744 211.763 98.616C211.982 98.4827 212.174 98.3333 212.339 98.168C212.51 98.0027 212.64 97.8267 212.731 97.64C212.827 97.448 212.875 97.2507 212.875 97.048V96.64ZM212.987 96.64H213.563V97.048C213.563 97.2507 213.611 97.4453 213.707 97.632C213.803 97.8187 213.934 97.9947 214.099 98.16C214.27 98.3253 214.464 98.4747 214.683 98.608C214.902 98.7413 215.136 98.8533 215.387 98.944C215.643 99.0347 215.902 99.0987 216.163 99.136L215.899 99.672C215.6 99.624 215.31 99.5467 215.027 99.44C214.744 99.328 214.478 99.192 214.227 99.032C213.982 98.872 213.766 98.6907 213.579 98.488C213.398 98.2853 213.254 98.064 213.147 97.824C213.04 97.5787 212.987 97.32 212.987 97.048V96.64ZM212.875 100.872H213.531V103.624H212.875V100.872ZM209.947 100.456H216.483V101.008H209.947V100.456ZM221.356 100.84H221.876V101.224C221.876 101.539 221.812 101.848 221.684 102.152C221.556 102.456 221.37 102.728 221.124 102.968C220.884 103.208 220.588 103.392 220.236 103.52L219.908 103.032C220.212 102.92 220.471 102.765 220.684 102.568C220.903 102.371 221.068 102.157 221.18 101.928C221.298 101.693 221.356 101.459 221.356 101.224V100.84ZM221.508 100.84H221.996V101.224C221.996 101.469 222.044 101.712 222.14 101.952C222.236 102.192 222.38 102.411 222.572 102.608C222.77 102.805 223.01 102.963 223.292 103.08L223.02 103.584C222.668 103.445 222.38 103.253 222.156 103.008C221.938 102.763 221.775 102.485 221.668 102.176C221.562 101.861 221.508 101.544 221.508 101.224V100.84ZM224.036 100.84H224.524V101.224C224.524 101.507 224.468 101.803 224.356 102.112C224.25 102.421 224.084 102.709 223.86 102.976C223.642 103.237 223.362 103.44 223.02 103.584L222.732 103.08C223.02 102.947 223.26 102.776 223.452 102.568C223.644 102.355 223.788 102.131 223.884 101.896C223.986 101.656 224.036 101.432 224.036 101.224V100.84ZM224.164 100.84H224.684V101.224C224.684 101.475 224.74 101.717 224.852 101.952C224.97 102.187 225.135 102.4 225.348 102.592C225.567 102.779 225.828 102.925 226.132 103.032L225.804 103.52C225.452 103.392 225.154 103.213 224.908 102.984C224.663 102.749 224.476 102.483 224.348 102.184C224.226 101.88 224.164 101.56 224.164 101.224V100.84ZM224.82 96.392H225.484V100.52H224.82V96.392ZM221.604 96.808C221.972 96.808 222.298 96.88 222.58 97.024C222.863 97.168 223.084 97.368 223.244 97.624C223.41 97.8747 223.492 98.168 223.492 98.504C223.492 98.8347 223.41 99.1253 223.244 99.376C223.084 99.6267 222.863 99.824 222.58 99.968C222.298 100.112 221.972 100.184 221.604 100.184C221.242 100.184 220.916 100.112 220.628 99.968C220.346 99.824 220.122 99.6267 219.956 99.376C219.796 99.1253 219.716 98.8347 219.716 98.504C219.716 98.168 219.796 97.8747 219.956 97.624C220.122 97.368 220.346 97.168 220.628 97.024C220.916 96.88 221.242 96.808 221.604 96.808ZM221.604 97.368C221.37 97.368 221.159 97.416 220.972 97.512C220.786 97.608 220.636 97.7413 220.524 97.912C220.418 98.0773 220.364 98.2747 220.364 98.504C220.364 98.728 220.418 98.9253 220.524 99.096C220.636 99.2613 220.786 99.392 220.972 99.488C221.159 99.584 221.37 99.632 221.604 99.632C221.844 99.632 222.058 99.584 222.244 99.488C222.431 99.392 222.578 99.2613 222.684 99.096C222.791 98.9253 222.844 98.728 222.844 98.504C222.844 98.2747 222.791 98.0773 222.684 97.912C222.578 97.7413 222.431 97.608 222.244 97.512C222.058 97.416 221.844 97.368 221.604 97.368ZM227.74 100.728H228.396V101.56H231.94V100.728H232.596V103.528H227.74V100.728ZM228.396 102.08V102.992H231.94V102.08H228.396ZM226.916 99.68H233.452V100.224H226.916V99.68ZM229.844 96.464H230.42V96.792C230.42 97.0427 230.366 97.28 230.26 97.504C230.153 97.7227 230.006 97.9253 229.82 98.112C229.638 98.2933 229.425 98.456 229.18 98.6C228.94 98.744 228.678 98.864 228.396 98.96C228.118 99.056 227.83 99.128 227.532 99.176L227.284 98.648C227.545 98.6107 227.798 98.552 228.044 98.472C228.294 98.392 228.529 98.296 228.748 98.184C228.966 98.0667 229.158 97.936 229.324 97.792C229.489 97.6427 229.617 97.4853 229.708 97.32C229.798 97.1493 229.844 96.9733 229.844 96.792V96.464ZM229.956 96.464H230.524V96.792C230.524 96.968 230.569 97.1413 230.66 97.312C230.756 97.4773 230.886 97.6347 231.052 97.784C231.217 97.928 231.406 98.0587 231.62 98.176C231.838 98.2933 232.07 98.3947 232.316 98.48C232.566 98.56 232.82 98.616 233.076 98.648L232.836 99.176C232.537 99.128 232.246 99.056 231.964 98.96C231.686 98.864 231.425 98.744 231.18 98.6C230.94 98.4507 230.726 98.2827 230.54 98.096C230.358 97.9093 230.214 97.7067 230.108 97.488C230.006 97.2693 229.956 97.0373 229.956 96.792V96.464ZM239.539 96.384H240.195V103.624H239.539V96.384ZM234.731 97.096H235.387V101.576H234.731V97.096ZM234.731 101.184H235.323C235.878 101.184 236.44 101.16 237.011 101.112C237.587 101.059 238.179 100.971 238.787 100.848L238.875 101.408C238.246 101.541 237.64 101.635 237.059 101.688C236.478 101.736 235.899 101.76 235.323 101.76H234.731V101.184ZM246.53 96.384H247.194V103.632H246.53V96.384ZM247.042 99.24H248.378V99.792H247.042V99.24ZM241.946 101.264H242.514C242.957 101.264 243.362 101.259 243.73 101.248C244.104 101.232 244.461 101.205 244.802 101.168C245.149 101.131 245.501 101.08 245.858 101.016L245.938 101.584C245.565 101.648 245.202 101.699 244.85 101.736C244.504 101.773 244.141 101.797 243.762 101.808C243.384 101.819 242.968 101.824 242.514 101.824H241.946V101.264ZM241.946 97.088H245.298V97.632H242.602V101.52H241.946V97.088ZM249.781 103.039C249.643 103.039 249.523 102.99 249.422 102.891C249.323 102.789 249.273 102.669 249.273 102.531C249.273 102.391 249.323 102.271 249.422 102.172C249.523 102.073 249.643 102.023 249.781 102.023C249.922 102.023 250.042 102.073 250.141 102.172C250.24 102.271 250.289 102.391 250.289 102.531C250.289 102.669 250.24 102.789 250.141 102.891C250.042 102.99 249.922 103.039 249.781 103.039Z" fill="white"/>
<path d="M280.666 84.5883C279.482 84.532 276.75 84.7554 275.44 85.5519C274.361 86.2082 272.831 87.7639 271.8 88.9048C270.927 89.8704 271.061 91.2328 271.001 94.2694C270.972 95.7556 271.623 96.6357 272.165 97.5464C272.715 98.4713 273.837 99.1939 275.741 100.162C277.705 101.16 280.775 100.337 281.995 99.8829C284.434 98.9762 285.492 98.406 286.291 97.6948C287.286 96.8098 287.6 95.111 288.083 92.8163C288.67 90.027 288.114 87.9446 287.972 87.491C287.541 86.1096 285.673 85.0454 284.593 84.8731C283.488 84.6969 282.603 84.4757 279.003 84.5022C277.967 84.5098 277.373 85.2108 276.607 85.806C275.066 87.0038 275.208 90.9872 275.887 94.4416C276.098 95.5163 276.798 96.0695 277.364 96.4106C278.732 97.2345 280.318 95.2816 281.599 94.2293C282.659 93.3582 283.052 92.0395 283.336 91.2737C283.589 90.5894 283.565 89.4284 283.143 89.0506C281.352 87.4481 280.669 93.675 279.961 94.0263C277.554 95.2196 278.734 89.645 278.648 90.2402C278.619 90.554 278.619 90.8917 278.676 91.1782C278.732 91.4647 278.844 91.6899 278.96 91.9218" stroke="#AFECB2" stroke-width="6.72" stroke-linecap="round"/>
<path d="M298.376 83.4391C296.292 83.4391 290.606 83.6642 288.574 84.204C287.169 84.5773 287.065 87.1229 286.807 89.1149C286.569 90.9621 286.947 92.6998 287.288 93.6369C287.723 94.837 288.992 95.657 289.845 96.115C290.833 96.6457 291.834 96.9123 293.532 97.0538C296.34 97.2878 298.937 96.4075 300.158 95.1309C301.65 93.5714 301.388 91.7481 301.474 90.5492C301.58 89.0692 301.391 87.1434 300.964 85.8591C300.645 84.9011 299.689 84.0121 298.579 83.3274C297.168 82.4563 295.712 82.5318 294.174 82.3877C291.69 82.1548 287.921 82.5829 287.122 83.266C286.357 83.92 285.984 85.0252 285.303 86.6164C284.715 87.9915 284.619 89.4014 284.618 92.183C284.617 93.8738 285.298 94.9749 285.782 95.8856C286.307 96.8759 287.116 97.591 288.11 98.2178C288.941 98.7415 290.183 98.7303 294.946 98.7039C296.954 98.6927 297.915 97.7684 298.884 97.1135C299.722 96.5472 300.869 95.6673 301.784 94.5007C302.681 93.3569 302.806 91.465 302.896 89.6419C302.968 88.1789 300.999 87.3105 299.464 86.653C297.781 85.9321 294.98 86.1678 292.453 86.3367C290.912 86.4396 290.305 87.5288 289.824 88.4063C288.558 90.7104 288.825 92.4712 289.022 93.4101C289.803 97.1309 297.18 87.5919 297.323 87.3344C298.618 85.0073 294.738 93.5542 294.85 94.0386C296.043 93.3342 296.781 92.3109 297.32 91.9118C297.578 91.8504 297.803 92.0756 298.205 92.3075" stroke="#AFECB2" stroke-width="6.72" stroke-linecap="round"/>
<path d="M308.28 81.5778C304.25 81.4072 302.318 81.5198 301.15 81.889C300.67 82.0407 300.097 82.4271 299.53 83.0794C298.692 84.0418 298.9 87.9699 299.098 90.5264C299.237 92.3214 300.036 93.6252 300.603 94.6493C301.11 95.5651 302.25 95.8457 303.809 96.3284C305.349 96.8047 306.798 96.2465 307.48 95.9063C308.459 95.4172 309.242 94.3176 309.983 93.1792C310.761 91.9839 310.781 90.3951 310.754 86.8221C310.748 86.011 310.501 85.6777 310.104 85.3349C308.141 83.6376 305.224 83.3992 303.849 83.1417C302.95 82.9733 299.33 82.9422 296.858 83.6772C295.164 84.1808 295.547 87.1956 295.517 90.1793C295.5 91.8936 296.397 92.7725 297.417 94.1351C298.736 95.8958 299.408 96.5825 300.317 96.9824C301.529 97.5156 304.784 97.7797 307.364 97.2143C309.405 96.7673 310.491 95.624 311.659 94.8267C312.807 94.0432 313.393 92.8953 313.878 91.5599C314.645 89.45 313.854 85.9028 313.512 84.9359C313.002 83.4932 311.582 82.717 310.36 82.1764C309.285 81.7005 306.82 81.9189 304.478 82.7673C303.643 83.0697 303.28 84.1871 302.939 85.2369C302.664 86.0818 302.879 86.8613 303.021 87.4855C303.087 87.7771 303.218 87.9972 303.445 88.0287C304.021 88.1087 304.527 87.4361 304.839 86.869C305.397 85.8551 302.202 93.2739 301.687 95.7255C301.592 96.1788 301.629 96.4665 301.798 96.3019C304.285 93.8775 306.517 90.5622 306.716 90.3337C307.52 89.4085 307.257 93.2295 307.37 93.4299C307.593 93.8273 308.108 92.5525 308.364 92.0135C308.451 91.756 308.451 91.5309 308.366 91.2742C308.282 91.0175 308.113 90.7361 307.598 89.9346" stroke="#AFECB2" stroke-width="6.72" stroke-linecap="round"/>
<path d="M284.5 81.5939C284.744 81.1021 285.952 79.9631 286.52 79.5906C287.099 79.2115 287.762 78.9689 288.4 78.7034C289.309 78.3256 289.961 78.2238 290.934 78.0993C293.908 77.7188 295.709 78.541 296.313 78.7369C297.374 79.0804 298.725 80.1015 299.294 80.5278C299.846 80.9418 300.429 81.3427 301.227 82.1761C301.459 82.5136 301.637 82.7989 301.832 83.082C301.921 83.2246 301.991 83.3651 302.17 83.6164" stroke="#AFECB2" stroke-width="6.72" stroke-linecap="round"/>
<path d="M286.5 101.352C286.748 101.705 287.1 102.201 287.669 102.504C288.229 102.802 288.91 102.912 289.478 103.037C290.036 103.159 290.613 103.231 291.181 103.285C291.795 103.343 294.601 103.48 296.291 103.375C296.885 103.337 297.426 102.914 298.082 102.524C298.669 102.063 299.235 101.567 299.698 101.034C299.805 100.892 299.91 100.751 300.125 100.5" stroke="#AFECB2" stroke-width="6.72" stroke-linecap="round"/>
<path d="M288.4 88.176V88.4641" stroke="#0D0D0D" stroke-width="2.5" stroke-linecap="round"/>
<path d="M295.6 88V88.192" stroke="#0D0D0D" stroke-width="2.5" stroke-linecap="round"/>
<path d="M286 95.5363C286.083 95.2473 286.29 94.9127 286.582 94.6106C286.763 94.4223 286.958 94.4105 287.135 94.4311C287.571 94.4821 287.999 94.847 288.365 95.0456C288.69 95.222 288.98 95.4938 289.366 95.5157C289.877 95.5447 290.397 94.8495 290.907 94.4955C291.373 94.1726 291.981 94.0352 292.47 94.0662C293.008 94.1002 293.295 94.5343 293.733 94.7745C293.917 94.8754 294.398 94.9108 295.033 94.8799C295.554 94.8545 295.797 94.453 296.463 94.0268C297.427 93.4088 298.048 93.4723 298.445 93.5448C298.612 93.6174 298.779 93.7012 298.935 93.7947C299.009 93.8469 299.071 93.9089 299.322 94.0977" stroke="#0D0D0D" stroke-width="2" stroke-linecap="round"/>
<path d="M308.766 40.9966C308.43 42.243 307.088 44.9284 306.251 46.3987C305.88 47.0499 305.592 47.6137 305.053 48.4583C304.587 49.1871 304.208 50.2119 303.802 51.1437C303.407 52.051 303.262 53.0169 302.924 53.8296C302.689 54.3932 302.451 55.3455 302.13 56.4465C301.924 57.1502 301.977 58.8517 302.094 60.0616C302.175 60.8916 302.684 61.531 303.258 62.5768C303.643 63.2779 304.538 63.7603 305.301 64.2006C305.957 64.5788 306.703 64.7088 308.436 64.877C310.948 65.1208 311.634 64.8102 312.31 64.7093C312.96 64.6125 313.492 64.4393 314.168 64.1865C315.04 63.86 315.452 63.1909 315.942 62.6675C316.485 62.0873 316.601 61.2999 316.838 60.7588C317.059 60.2546 317.142 59.5448 317.193 58.9348C317.248 58.2849 317.446 57.5506 317.464 53.6958C317.47 52.3086 317.144 51.7745 316.806 50.9811C316.532 50.3363 316.165 49.5127 315.76 48.7178C315.394 48.002 315.016 47.4171 314.645 46.7919C314.306 46.2214 313.768 45.5951 313.294 44.9339C312.812 44.2612 312.349 43.7691 311.875 43.2954C311.267 42.6868 310.728 42.2815 310.288 41.826C310.08 41.6115 309.882 41.4029 309.646 41.2509C309.524 41.1724 309.344 41.1993 309.241 41.2829C308.731 41.6968 308.969 44.0528 308.885 45.4862C308.807 46.803 308.563 48.625 308.446 49.5224C308.322 50.4697 308.158 51.1949 307.737 53.6872C307.539 54.8657 307.349 56.29 307.061 57.9812C307.003 58.3216 306.976 58.5234 307.494 57.8409C308.012 57.1584 309.082 55.5867 309.934 54.1918C310.787 52.797 311.389 51.6266 311.782 51.1407C312.176 50.6548 312.343 50.8888 312.463 51.1934C312.718 51.8428 312.751 53.181 312.769 54.9174C312.797 57.7409 311.773 59.3026 311.722 59.4055C311.273 60.3174 312.578 56.9811 313.475 56.4339C313.638 56.3346 313.796 56.3994 313.949 56.4997C314.316 56.741 314.508 57.1412 314.609 57.5445C314.675 57.808 314.643 58.2153 314.593 58.4722C314.519 58.8526 312.935 58.9328 311.539 59.2353C310.75 59.4062 310.256 60.2805 309.982 60.8227C310.014 60.925 310.148 60.9919 310.284 61.0765C310.42 61.1611 310.554 61.2614 310.691 61.3648" stroke="#C8E1FF" stroke-width="7.3568" stroke-linecap="round"/>
<path d="M315.816 50.3962C315.956 51.1001 316.181 51.6061 316.464 52.0164C316.736 52.4119 316.943 52.9039 317.225 53.3696C317.51 53.8394 317.62 54.3421 317.747 54.8358C317.835 55.1756 317.79 55.4995 317.832 56.3527C318.012 59.9797 317.537 60.4336 317.41 60.8854C317.275 61.3656 316.973 61.7872 316.747 62.239C316.526 62.6809 316.212 63.0563 315.888 63.4099C315.45 63.6502 315.112 63.7915 314.831 63.8338C314.662 63.8482 314.439 63.8482 314.208 63.8482" stroke="#C8E1FF" stroke-width="7.3568" stroke-linecap="round"/>
<path d="M314.124 47.3506C314.433 47.6315 314.77 48.2491 315.138 48.8713C315.446 49.3938 315.589 49.8582 315.885 50.2398C316.183 50.6239 316.266 51.1273 316.407 51.5791C316.552 52.0392 316.858 52.4809 317.154 52.8625C317.46 53.2568 317.564 53.75 317.733 54.2018C317.902 54.6541 317.902 55.1882 317.917 57.6904C317.922 58.6384 317.565 59.1358 317.283 59.6164C317.046 60.0197 316.636 60.4895 316.226 60.9142C316.015 60.9717 315.733 61.0276 315.395 61.1261C315.225 61.1689 315.058 61.1968 314.885 61.2255" stroke="#C8E1FF" stroke-width="7.3568" stroke-linecap="round"/>
<path d="M311.79 48.0459L312.154 48.1657" stroke="#0D0D0D" stroke-width="1.6" stroke-linecap="round"/>
<path d="M307.332 48.8057L307.696 48.6858" stroke="#0D0D0D" stroke-width="1.6" stroke-linecap="round"/>
<path d="M307.739 53.2372C308.033 53.1572 308.584 52.9426 309.316 52.66C309.903 52.5107 310.497 52.3761 311.222 52.2147C311.614 52.1466 312.054 52.1066 312.507 52.0654" stroke="#0D0D0D" stroke-width="1.28" stroke-linecap="round"/>
<defs>
<clipPath id="clip0_257_2982">
<rect width="45" height="5" fill="white" transform="translate(149 123)"/>
</clipPath>
</defs>
</svg>
