<svg width="343" height="136" viewBox="0 0 343 136" fill="none" xmlns="http://www.w3.org/2000/svg">
<rect width="343" height="136" rx="8" fill="#52A2F9"/>
<g clip-path="url(#clip0_257_2980)">
<circle cx="151.5" cy="125.5" r="2.5" fill="#0D0D0D"/>
<circle cx="161.5" cy="125.5" r="2.5" fill="#0D0D0D"/>
<circle cx="171.5" cy="125.5" r="2.5" fill="#0D0D0D"/>
<circle cx="181.5" cy="125.5" r="2.5" fill="#0D0D0D"/>
<circle cx="191.5" cy="125.5" r="2.5" fill="#0D0D0D"/>
</g>
<rect x="308" y="8" width="24" height="14" rx="7" fill="#E0E0E0"/>
<path d="M314.668 18L316.746 12.3633H317.285V13.2734H317.062L315.406 18H314.668ZM315.609 16.3867L315.828 15.7891H318.375L318.594 16.3867H315.609ZM318.781 18L317.125 13.2734V12.3633H317.441L319.52 18H318.781ZM320.508 18V12.3633H322.441C322.999 12.3633 323.475 12.4753 323.871 12.6992C324.27 12.9206 324.574 13.2409 324.785 13.6602C324.996 14.0794 325.102 14.5846 325.102 15.1758V15.1836C325.102 15.7747 324.996 16.2812 324.785 16.7031C324.574 17.1224 324.271 17.444 323.875 17.668C323.479 17.8893 323.001 18 322.441 18H320.508ZM321.211 17.3672H322.395C322.814 17.3672 323.172 17.2812 323.469 17.1094C323.766 16.9375 323.992 16.6888 324.148 16.3633C324.305 16.0378 324.383 15.6471 324.383 15.1914V15.1836C324.383 14.7253 324.303 14.3333 324.145 14.0078C323.988 13.6797 323.762 13.4297 323.465 13.2578C323.168 13.0833 322.811 12.9961 322.395 12.9961H321.211V17.3672Z" fill="#0D0D0D"/>
<path d="M80.5617 44.254H82.4237V57.26H80.5617V44.254ZM75.4377 45.164C76.1003 45.164 76.6883 45.3553 77.2017 45.738C77.715 46.1113 78.1163 46.648 78.4057 47.348C78.7043 48.0387 78.8537 48.8553 78.8537 49.798C78.8537 50.75 78.7043 51.576 78.4057 52.276C78.1163 52.9667 77.715 53.5033 77.2017 53.886C76.6883 54.2593 76.1003 54.446 75.4377 54.446C74.7843 54.446 74.201 54.2593 73.6877 53.886C73.1743 53.5033 72.7683 52.9667 72.4697 52.276C72.1803 51.576 72.0357 50.75 72.0357 49.798C72.0357 48.8553 72.1803 48.0387 72.4697 47.348C72.7683 46.648 73.1743 46.1113 73.6877 45.738C74.201 45.3553 74.7843 45.164 75.4377 45.164ZM75.4377 46.858C75.1203 46.858 74.8403 46.97 74.5977 47.194C74.355 47.418 74.1637 47.7493 74.0237 48.188C73.893 48.6173 73.8277 49.154 73.8277 49.798C73.8277 50.4327 73.893 50.974 74.0237 51.422C74.1637 51.8607 74.355 52.192 74.5977 52.416C74.8403 52.64 75.1203 52.752 75.4377 52.752C75.7643 52.752 76.049 52.64 76.2917 52.416C76.5343 52.192 76.721 51.8607 76.8517 51.422C76.9917 50.974 77.0617 50.4327 77.0617 49.798C77.0617 49.154 76.9917 48.6173 76.8517 48.188C76.721 47.7493 76.5343 47.418 76.2917 47.194C76.049 46.97 75.7643 46.858 75.4377 46.858ZM89.1208 44.856H97.3388V46.326H89.1208V44.856ZM87.8188 50.12H99.4808V51.604H87.8188V50.12ZM92.1308 47.726H93.9928V50.344H92.1308V47.726ZM96.2468 44.856H98.1088V45.864C98.1088 46.368 98.0948 46.9093 98.0668 47.488C98.0388 48.0573 97.9455 48.6967 97.7868 49.406L95.9528 49.224C96.1021 48.5427 96.1861 47.936 96.2048 47.404C96.2328 46.872 96.2468 46.3587 96.2468 45.864V44.856ZM92.6628 52.36H94.2588V52.752C94.2588 53.312 94.1468 53.8393 93.9228 54.334C93.7081 54.8193 93.3815 55.258 92.9428 55.65C92.5041 56.042 91.9675 56.3687 91.3328 56.63C90.7075 56.9007 89.9795 57.092 89.1488 57.204L88.4768 55.762C89.2048 55.678 89.8301 55.538 90.3528 55.342C90.8755 55.1367 91.3095 54.8987 91.6548 54.628C92.0001 54.348 92.2521 54.0493 92.4108 53.732C92.5788 53.4053 92.6628 53.0787 92.6628 52.752V52.36ZM92.9288 52.36H94.5248V52.752C94.5248 53.0787 94.6041 53.4053 94.7628 53.732C94.9308 54.0493 95.1875 54.348 95.5328 54.628C95.8781 54.8987 96.3121 55.1367 96.8348 55.342C97.3575 55.538 97.9781 55.678 98.6968 55.762L98.0388 57.204C97.2175 57.092 96.4848 56.9007 95.8408 56.63C95.2061 56.3687 94.6695 56.042 94.2308 55.65C93.8015 55.258 93.4748 54.8193 93.2508 54.334C93.0361 53.8393 92.9288 53.312 92.9288 52.752V52.36ZM105.85 49.042H107.978V50.54H105.85V49.042ZM110.022 44.268H111.8V57.232H110.022V44.268ZM107.39 44.478H109.126V56.658H107.39V44.478ZM103.582 45.178C104.151 45.178 104.646 45.3693 105.066 45.752C105.495 46.1253 105.822 46.6667 106.046 47.376C106.279 48.076 106.396 48.916 106.396 49.896C106.396 50.8667 106.279 51.7067 106.046 52.416C105.822 53.1253 105.495 53.6713 105.066 54.054C104.646 54.4273 104.146 54.614 103.568 54.614C103.008 54.614 102.513 54.4273 102.084 54.054C101.664 53.6713 101.337 53.1253 101.104 52.416C100.88 51.7067 100.768 50.8667 100.768 49.896C100.768 48.916 100.88 48.076 101.104 47.376C101.337 46.6667 101.664 46.1253 102.084 45.752C102.513 45.3693 103.012 45.178 103.582 45.178ZM103.582 46.942C103.348 46.942 103.148 47.0493 102.98 47.264C102.812 47.4787 102.681 47.8053 102.588 48.244C102.504 48.6733 102.462 49.224 102.462 49.896C102.462 50.5493 102.504 51.0953 102.588 51.534C102.681 51.9727 102.812 52.304 102.98 52.528C103.148 52.7427 103.348 52.85 103.582 52.85C103.815 52.85 104.016 52.7427 104.184 52.528C104.361 52.304 104.492 51.9727 104.576 51.534C104.66 51.0953 104.702 50.5493 104.702 49.896C104.702 49.224 104.66 48.6733 104.576 48.244C104.492 47.8053 104.361 47.4787 104.184 47.264C104.016 47.0493 103.815 46.942 103.582 46.942ZM125.133 44.268H127.009V51.758H125.133V44.268ZM126.477 47.334H128.703V48.86H126.477V47.334ZM122.753 51.982C123.649 51.982 124.424 52.0893 125.077 52.304C125.73 52.5187 126.234 52.822 126.589 53.214C126.953 53.5967 127.135 54.0633 127.135 54.614C127.135 55.1647 126.953 55.636 126.589 56.028C126.234 56.4293 125.73 56.7327 125.077 56.938C124.424 57.1527 123.649 57.26 122.753 57.26C121.866 57.26 121.092 57.1527 120.429 56.938C119.766 56.7327 119.253 56.4293 118.889 56.028C118.534 55.636 118.357 55.1647 118.357 54.614C118.357 54.0633 118.534 53.5967 118.889 53.214C119.253 52.822 119.766 52.5187 120.429 52.304C121.092 52.0893 121.866 51.982 122.753 51.982ZM122.753 53.466C122.202 53.466 121.74 53.508 121.367 53.592C120.994 53.676 120.704 53.802 120.499 53.97C120.303 54.138 120.205 54.3527 120.205 54.614C120.205 54.866 120.303 55.0807 120.499 55.258C120.704 55.426 120.994 55.552 121.367 55.636C121.74 55.72 122.202 55.762 122.753 55.762C123.304 55.762 123.766 55.72 124.139 55.636C124.522 55.552 124.811 55.426 125.007 55.258C125.203 55.0807 125.301 54.866 125.301 54.614C125.301 54.3527 125.203 54.138 125.007 53.97C124.811 53.802 124.522 53.676 124.139 53.592C123.766 53.508 123.304 53.466 122.753 53.466ZM117.223 49.588H118.315C119.267 49.588 120.079 49.5787 120.751 49.56C121.423 49.5413 122.025 49.504 122.557 49.448C123.089 49.3827 123.616 49.294 124.139 49.182L124.321 50.666C123.789 50.778 123.248 50.8667 122.697 50.932C122.146 50.988 121.521 51.03 120.821 51.058C120.13 51.0767 119.295 51.086 118.315 51.086H117.223V49.588ZM117.223 45.136H123.033V46.634H119.085V50.61H117.223V45.136ZM138.572 44.282H140.434V53.732H138.572V44.282ZM131.796 55.524H140.77V57.022H131.796V55.524ZM131.796 52.822H133.658V56.294H131.796V52.822ZM132.706 44.996H134.246V46.256C134.246 47.096 134.11 47.8987 133.84 48.664C133.578 49.4293 133.177 50.1013 132.636 50.68C132.094 51.2587 131.404 51.6973 130.564 51.996L129.612 50.512C130.34 50.26 130.928 49.91 131.376 49.462C131.833 49.014 132.169 48.51 132.384 47.95C132.598 47.39 132.706 46.8253 132.706 46.256V44.996ZM133.084 44.996H134.596V46.256C134.596 46.676 134.652 47.0913 134.764 47.502C134.885 47.9033 135.067 48.286 135.31 48.65C135.552 49.0047 135.865 49.3267 136.248 49.616C136.63 49.9053 137.083 50.134 137.606 50.302L136.668 51.772C135.846 51.5013 135.17 51.0907 134.638 50.54C134.106 49.9893 133.714 49.3453 133.462 48.608C133.21 47.8707 133.084 47.0867 133.084 46.256V44.996ZM146.719 45.136C147.391 45.136 147.997 45.2713 148.539 45.542C149.08 45.8127 149.505 46.1907 149.813 46.676C150.121 47.152 150.275 47.7027 150.275 48.328C150.275 48.944 150.121 49.4947 149.813 49.98C149.505 50.4653 149.08 50.8433 148.539 51.114C147.997 51.3847 147.391 51.52 146.719 51.52C146.037 51.52 145.426 51.3847 144.885 51.114C144.343 50.8433 143.914 50.4653 143.597 49.98C143.289 49.4947 143.135 48.944 143.135 48.328C143.135 47.7027 143.289 47.152 143.597 46.676C143.914 46.1907 144.343 45.8127 144.885 45.542C145.426 45.2713 146.037 45.136 146.719 45.136ZM146.719 46.732C146.383 46.732 146.079 46.7973 145.809 46.928C145.547 47.0493 145.337 47.2313 145.179 47.474C145.029 47.7073 144.955 47.992 144.955 48.328C144.955 48.664 145.029 48.9533 145.179 49.196C145.337 49.4387 145.547 49.6253 145.809 49.756C146.079 49.8773 146.383 49.938 146.719 49.938C147.045 49.938 147.339 49.8773 147.601 49.756C147.862 49.6253 148.067 49.4387 148.217 49.196C148.375 48.9533 148.455 48.664 148.455 48.328C148.455 47.992 148.375 47.7073 148.217 47.474C148.067 47.2313 147.862 47.0493 147.601 46.928C147.339 46.7973 147.045 46.732 146.719 46.732ZM151.493 44.254H153.355V57.26H151.493V44.254ZM142.813 54.642L142.603 53.13C143.359 53.13 144.194 53.1253 145.109 53.116C146.033 53.0973 146.98 53.06 147.951 53.004C148.931 52.9387 149.878 52.8407 150.793 52.71L150.919 54.054C149.985 54.2407 149.038 54.376 148.077 54.46C147.115 54.5347 146.187 54.586 145.291 54.614C144.395 54.6327 143.569 54.642 142.813 54.642ZM166.94 44.254H168.816V57.218H166.94V44.254ZM168.34 49.224H170.622V50.75H168.34V49.224ZM163.538 45.598H165.372C165.372 46.8953 165.185 48.1227 164.812 49.28C164.448 50.4373 163.841 51.5013 162.992 52.472C162.152 53.4333 161.013 54.2733 159.576 54.992L158.526 53.578C159.664 52.99 160.602 52.3273 161.34 51.59C162.086 50.8527 162.637 50.0173 162.992 49.084C163.356 48.1413 163.538 47.0913 163.538 45.934V45.598ZM159.24 45.598H164.504V47.096H159.24V45.598ZM180.925 44.268H182.703V57.232H180.925V44.268ZM175.801 49.238H178.559V50.722H175.801V49.238ZM178.195 44.548H179.931V56.658H178.195V44.548ZM175.381 45.794H177.173C177.173 47.026 177.028 48.174 176.739 49.238C176.449 50.302 175.959 51.2773 175.269 52.164C174.587 53.0507 173.64 53.844 172.427 54.544L171.377 53.242C172.357 52.654 173.136 52.0147 173.715 51.324C174.303 50.624 174.727 49.854 174.989 49.014C175.25 48.1647 175.381 47.2173 175.381 46.172V45.794ZM172.091 45.794H175.955V47.292H172.091V45.794ZM184.424 50.092H196.156V51.436H184.424V50.092ZM185.74 52.094H194.77V55.174H187.602V56.28H185.754V53.998H192.936V53.354H185.74V52.094ZM185.754 55.874H195.134V57.134H185.754V55.874ZM185.852 44.492H194.728V47.558H187.714V48.608H185.88V46.382H192.894V45.752H185.852V44.492ZM185.88 48.23H194.966V49.49H185.88V48.23ZM206.367 53.214C207.804 53.214 208.915 53.3867 209.699 53.732C210.483 54.0773 210.875 54.5767 210.875 55.23C210.875 55.8927 210.483 56.392 209.699 56.728C208.915 57.0733 207.804 57.246 206.367 57.246C204.939 57.246 203.833 57.0733 203.049 56.728C202.265 56.392 201.873 55.8927 201.873 55.23C201.873 54.5767 202.265 54.0773 203.049 53.732C203.833 53.3867 204.939 53.214 206.367 53.214ZM206.381 54.558C205.475 54.558 204.813 54.6093 204.393 54.712C203.973 54.8147 203.763 54.992 203.763 55.244C203.763 55.4773 203.973 55.65 204.393 55.762C204.813 55.8647 205.475 55.916 206.381 55.916C207.277 55.916 207.93 55.8647 208.341 55.762C208.761 55.65 208.971 55.4773 208.971 55.244C208.971 54.992 208.761 54.8147 208.341 54.712C207.93 54.6093 207.277 54.558 206.381 54.558ZM201.089 45.206H211.659V46.606H201.089V45.206ZM206.395 46.942C207.795 46.942 208.868 47.1007 209.615 47.418C210.361 47.726 210.735 48.188 210.735 48.804C210.735 49.4107 210.361 49.8727 209.615 50.19C208.868 50.498 207.795 50.652 206.395 50.652C205.013 50.652 203.945 50.498 203.189 50.19C202.433 49.8727 202.055 49.4107 202.055 48.804C202.055 48.188 202.433 47.726 203.189 47.418C203.945 47.1007 205.013 46.942 206.395 46.942ZM206.395 48.188C205.601 48.188 205.013 48.2393 204.631 48.342C204.248 48.4353 204.057 48.5893 204.057 48.804C204.057 49.0093 204.248 49.1587 204.631 49.252C205.013 49.3453 205.601 49.392 206.395 49.392C207.207 49.392 207.799 49.3453 208.173 49.252C208.555 49.1587 208.747 49.0093 208.747 48.804C208.747 48.5893 208.555 48.4353 208.173 48.342C207.799 48.2393 207.207 48.188 206.395 48.188ZM205.471 44.17H207.319V46.172H205.471V44.17ZM200.529 51.282H212.261V52.724H200.529V51.282ZM205.471 50.064H207.319V51.884H205.471V50.064ZM213.422 54.222H225.168V55.734H213.422V54.222ZM218.35 51.45H220.198V54.586H218.35V51.45ZM214.654 45.094H216.516V47.096H222.032V45.094H223.88V51.842H214.654V45.094ZM216.516 48.552V50.358H222.032V48.552H216.516ZM234.603 44.282H236.465V57.246H234.603V44.282ZM236.045 49.336H238.327V50.876H236.045V49.336ZM226.231 46.186H233.791V47.67H226.231V46.186ZM230.039 48.412C230.664 48.412 231.224 48.5473 231.719 48.818C232.213 49.0793 232.601 49.4387 232.881 49.896C233.17 50.3533 233.315 50.8853 233.315 51.492C233.315 52.0987 233.17 52.6353 232.881 53.102C232.601 53.5593 232.213 53.9233 231.719 54.194C231.233 54.4553 230.673 54.586 230.039 54.586C229.413 54.586 228.849 54.4553 228.345 54.194C227.85 53.9233 227.458 53.5593 227.169 53.102C226.889 52.6353 226.749 52.0987 226.749 51.492C226.749 50.8853 226.889 50.3533 227.169 49.896C227.458 49.4387 227.85 49.0793 228.345 48.818C228.849 48.5473 229.413 48.412 230.039 48.412ZM230.039 49.924C229.74 49.924 229.479 49.9847 229.255 50.106C229.031 50.2273 228.853 50.4047 228.723 50.638C228.592 50.8713 228.527 51.156 228.527 51.492C228.527 51.8187 228.592 52.1033 228.723 52.346C228.853 52.5793 229.031 52.7613 229.255 52.892C229.479 53.0133 229.74 53.074 230.039 53.074C230.328 53.074 230.585 53.0133 230.809 52.892C231.033 52.7613 231.21 52.5793 231.341 52.346C231.471 52.1033 231.537 51.8187 231.537 51.492C231.537 51.156 231.471 50.8713 231.341 50.638C231.21 50.4047 231.033 50.2273 230.809 50.106C230.585 49.9847 230.328 49.924 230.039 49.924ZM229.087 44.492H230.963V46.76H229.087V44.492ZM244.275 48.636H246.431V50.148H244.275V48.636ZM241.517 45.402H242.931V47.572C242.931 48.3093 242.88 49.0327 242.777 49.742C242.675 50.4513 242.507 51.1187 242.273 51.744C242.049 52.3693 241.751 52.934 241.377 53.438C241.013 53.9327 240.57 54.3387 240.047 54.656L238.927 53.256C239.413 52.9667 239.819 52.612 240.145 52.192C240.472 51.772 240.738 51.31 240.943 50.806C241.149 50.302 241.293 49.7793 241.377 49.238C241.471 48.6873 241.517 48.132 241.517 47.572V45.402ZM241.923 45.402H243.309V47.488C243.309 48.02 243.347 48.5473 243.421 49.07C243.505 49.5927 243.636 50.092 243.813 50.568C243.991 51.044 244.224 51.4827 244.513 51.884C244.812 52.2853 245.185 52.6307 245.633 52.92L244.611 54.376C244.107 54.0587 243.678 53.6573 243.323 53.172C242.978 52.6773 242.703 52.122 242.497 51.506C242.292 50.89 242.143 50.2413 242.049 49.56C241.965 48.8787 241.923 48.188 241.923 47.488V45.402ZM248.531 44.268H250.309V57.232H248.531V44.268ZM245.899 44.478H247.635V56.658H245.899V44.478ZM254.634 50.862H256.496V54.488H254.634V50.862ZM259.338 50.862H261.2V54.488H259.338V50.862ZM252.058 54.222H263.804V55.734H252.058V54.222ZM257.91 44.912C258.844 44.912 259.674 45.0567 260.402 45.346C261.14 45.6353 261.714 46.0413 262.124 46.564C262.544 47.0773 262.754 47.6887 262.754 48.398C262.754 49.098 262.544 49.7093 262.124 50.232C261.714 50.7453 261.14 51.1467 260.402 51.436C259.674 51.7253 258.844 51.87 257.91 51.87C256.986 51.87 256.156 51.7253 255.418 51.436C254.69 51.1467 254.116 50.7453 253.696 50.232C253.276 49.7093 253.066 49.098 253.066 48.398C253.066 47.6887 253.276 47.0773 253.696 46.564C254.116 46.0413 254.69 45.6353 255.418 45.346C256.156 45.0567 256.986 44.912 257.91 44.912ZM257.91 46.354C257.313 46.354 256.786 46.438 256.328 46.606C255.88 46.7647 255.53 46.9933 255.278 47.292C255.026 47.5907 254.9 47.9593 254.9 48.398C254.9 48.818 255.026 49.182 255.278 49.49C255.53 49.7887 255.88 50.022 256.328 50.19C256.786 50.3487 257.313 50.428 257.91 50.428C258.517 50.428 259.044 50.3487 259.492 50.19C259.95 50.022 260.3 49.7887 260.542 49.49C260.794 49.182 260.92 48.818 260.92 48.398C260.92 47.9593 260.794 47.5907 260.542 47.292C260.3 46.9933 259.95 46.7647 259.492 46.606C259.044 46.438 258.517 46.354 257.91 46.354ZM267.739 45.8182L267.545 52.9474H265.725L265.527 45.8182H267.739ZM266.635 56.1293C266.307 56.1293 266.025 56.0133 265.79 55.7812C265.555 55.5459 265.439 55.2642 265.442 54.9361C265.439 54.6113 265.555 54.3329 265.79 54.1009C266.025 53.8688 266.307 53.7528 266.635 53.7528C266.95 53.7528 267.227 53.8688 267.466 54.1009C267.704 54.3329 267.825 54.6113 267.828 54.9361C267.825 55.1548 267.767 55.3554 267.654 55.5376C267.545 55.7166 267.401 55.8608 267.222 55.9702C267.043 56.0762 266.847 56.1293 266.635 56.1293Z" fill="white"/>
<path d="M45 85H299" stroke="#F3F3F3" stroke-width="0.5"/>
<path d="M80.6645 96.392H81.3285V101.816H80.6645V96.392ZM81.1205 98.768H82.3925V99.32H81.1205V98.768ZM75.7285 97.272H80.0005V97.808H75.7285V97.272ZM77.8645 98.2C78.2058 98.2 78.5072 98.2587 78.7685 98.376C79.0298 98.488 79.2325 98.6453 79.3765 98.848C79.5205 99.0453 79.5925 99.28 79.5925 99.552C79.5925 99.824 79.5205 100.061 79.3765 100.264C79.2325 100.461 79.0298 100.616 78.7685 100.728C78.5072 100.84 78.2058 100.896 77.8645 100.896C77.5232 100.896 77.2218 100.84 76.9605 100.728C76.6992 100.616 76.4938 100.461 76.3445 100.264C76.2005 100.061 76.1285 99.824 76.1285 99.552C76.1285 99.28 76.2005 99.0453 76.3445 98.848C76.4938 98.6453 76.6992 98.488 76.9605 98.376C77.2218 98.2587 77.5232 98.2 77.8645 98.2ZM77.8645 98.72C77.5392 98.72 77.2752 98.7973 77.0725 98.952C76.8698 99.1013 76.7685 99.3013 76.7685 99.552C76.7685 99.8027 76.8698 100.003 77.0725 100.152C77.2752 100.301 77.5392 100.376 77.8645 100.376C78.1952 100.376 78.4592 100.301 78.6565 100.152C78.8592 100.003 78.9605 99.8027 78.9605 99.552C78.9605 99.3013 78.8592 99.1013 78.6565 98.952C78.4592 98.7973 78.1952 98.72 77.8645 98.72ZM77.5365 96.392H78.2005V97.544H77.5365V96.392ZM76.8245 102.92H81.6485V103.464H76.8245V102.92ZM76.8245 101.384H77.4805V103.144H76.8245V101.384ZM83.9039 96.728H88.5599V97.272H83.9039V96.728ZM83.0719 99.312H89.6319V99.856H83.0719V99.312ZM86.0079 99.688H86.6719V101.384H86.0079V99.688ZM88.1279 96.728H88.7839V97.256C88.7839 97.5547 88.7732 97.8933 88.7519 98.272C88.7305 98.6453 88.6612 99.08 88.5439 99.576L87.8959 99.504C88.0132 99.0133 88.0799 98.5893 88.0959 98.232C88.1172 97.8747 88.1279 97.5493 88.1279 97.256V96.728ZM83.7519 101.176H88.8239V103.624H88.1599V101.712H83.7519V101.176ZM94.1933 96.84H94.7213V97.808C94.7213 98.1653 94.6546 98.52 94.5213 98.872C94.3879 99.224 94.1959 99.5413 93.9453 99.824C93.6999 100.107 93.3986 100.328 93.0413 100.488L92.6813 99.976C92.9959 99.8373 93.2653 99.6507 93.4893 99.416C93.7186 99.176 93.8919 98.9147 94.0093 98.632C94.1319 98.3493 94.1933 98.0747 94.1933 97.808V96.84ZM94.3053 96.84H94.8333V97.808C94.8333 98.0693 94.8893 98.3307 95.0013 98.592C95.1186 98.848 95.2866 99.08 95.5053 99.288C95.7293 99.4907 95.9933 99.6533 96.2973 99.776L95.9453 100.288C95.5986 100.149 95.3026 99.952 95.0573 99.696C94.8119 99.44 94.6253 99.1493 94.4973 98.824C94.3693 98.4987 94.3053 98.16 94.3053 97.808V96.84ZM98.1453 96.392H98.7773V100.856H98.1453V96.392ZM96.9933 98.328H98.3533V98.872H96.9933V98.328ZM96.5933 96.528H97.2173V100.624H96.5933V96.528ZM96.4013 101.016C96.8973 101.016 97.3239 101.067 97.6813 101.168C98.0439 101.269 98.3239 101.419 98.5213 101.616C98.7186 101.808 98.8173 102.04 98.8173 102.312C98.8173 102.584 98.7186 102.816 98.5213 103.008C98.3239 103.205 98.0439 103.355 97.6813 103.456C97.3239 103.557 96.8973 103.608 96.4013 103.608C95.9053 103.608 95.4759 103.557 95.1133 103.456C94.7506 103.355 94.4706 103.205 94.2733 103.008C94.0813 102.816 93.9853 102.584 93.9853 102.312C93.9853 102.04 94.0813 101.808 94.2733 101.616C94.4706 101.419 94.7506 101.269 95.1133 101.168C95.4759 101.067 95.9053 101.016 96.4013 101.016ZM96.4013 101.528C95.8573 101.528 95.4279 101.597 95.1133 101.736C94.7986 101.875 94.6413 102.067 94.6413 102.312C94.6413 102.557 94.7986 102.749 95.1133 102.888C95.4279 103.027 95.8573 103.096 96.4013 103.096C96.7639 103.096 97.0759 103.064 97.3373 103C97.5986 102.941 97.7986 102.853 97.9373 102.736C98.0813 102.619 98.1533 102.477 98.1533 102.312C98.1533 102.067 97.9959 101.875 97.6813 101.736C97.3719 101.597 96.9453 101.528 96.4013 101.528ZM104.985 96.384H105.649V100.656H104.985V96.384ZM105.369 98.232H106.705V98.792H105.369V98.232ZM100.961 100.984H105.649V102.448H101.633V103.208H100.977V102.008H104.993V101.448H100.961V100.984ZM100.977 103.072H105.921V103.544H100.977V103.072ZM101.937 99.352H102.593V100.272H101.937V99.352ZM100.081 100.488L100.001 100C100.427 100 100.899 99.9973 101.417 99.992C101.934 99.9813 102.462 99.9627 103.001 99.936C103.539 99.904 104.057 99.8533 104.553 99.784L104.601 100.216C104.089 100.301 103.563 100.365 103.025 100.408C102.491 100.445 101.971 100.469 101.465 100.48C100.963 100.485 100.502 100.488 100.081 100.488ZM100.185 96.936H104.337V97.408H100.185V96.936ZM102.257 97.64C102.769 97.64 103.177 97.7227 103.481 97.888C103.79 98.0533 103.945 98.2853 103.945 98.584C103.945 98.888 103.79 99.1253 103.481 99.296C103.177 99.4613 102.769 99.544 102.257 99.544C101.745 99.544 101.334 99.4613 101.025 99.296C100.721 99.1253 100.569 98.888 100.569 98.584C100.569 98.2853 100.721 98.0533 101.025 97.888C101.334 97.7227 101.745 97.64 102.257 97.64ZM102.257 98.08C101.931 98.08 101.673 98.1253 101.481 98.216C101.294 98.3067 101.201 98.4293 101.201 98.584C101.201 98.744 101.294 98.872 101.481 98.968C101.673 99.0587 101.931 99.104 102.257 99.104C102.582 99.104 102.838 99.0587 103.025 98.968C103.217 98.872 103.313 98.744 103.313 98.584C103.313 98.4293 103.217 98.3067 103.025 98.216C102.838 98.1253 102.582 98.08 102.257 98.08ZM101.937 96.32H102.593V97.184H101.937V96.32ZM110.336 99.2H111.696V99.744H110.336V99.2ZM112.912 96.384H113.552V103.624H112.912V96.384ZM111.472 96.536H112.104V103.256H111.472V96.536ZM109.024 96.992C109.339 96.992 109.611 97.0933 109.84 97.296C110.075 97.4987 110.256 97.7893 110.384 98.168C110.512 98.5467 110.576 98.992 110.576 99.504C110.576 100.021 110.512 100.469 110.384 100.848C110.256 101.227 110.075 101.52 109.84 101.728C109.611 101.931 109.339 102.032 109.024 102.032C108.72 102.032 108.451 101.931 108.216 101.728C107.987 101.52 107.808 101.227 107.68 100.848C107.552 100.469 107.488 100.021 107.488 99.504C107.488 98.992 107.552 98.5467 107.68 98.168C107.808 97.7893 107.987 97.4987 108.216 97.296C108.451 97.0933 108.72 96.992 109.024 96.992ZM109.024 97.608C108.837 97.608 108.675 97.6853 108.536 97.84C108.397 97.9947 108.291 98.2133 108.216 98.496C108.141 98.7787 108.104 99.1147 108.104 99.504C108.104 99.8933 108.141 100.232 108.216 100.52C108.291 100.803 108.397 101.021 108.536 101.176C108.675 101.331 108.837 101.408 109.024 101.408C109.216 101.408 109.381 101.331 109.52 101.176C109.664 101.021 109.773 100.803 109.848 100.52C109.923 100.232 109.96 99.8933 109.96 99.504C109.96 99.1147 109.923 98.7787 109.848 98.496C109.773 98.2133 109.664 97.9947 109.52 97.84C109.381 97.6853 109.216 97.608 109.024 97.608ZM118.849 97.12H119.393V97.712C119.393 98.1493 119.308 98.56 119.137 98.944C118.972 99.328 118.737 99.664 118.433 99.952C118.129 100.235 117.777 100.451 117.377 100.6L117.033 100.072C117.3 99.976 117.543 99.848 117.761 99.688C117.985 99.528 118.18 99.344 118.345 99.136C118.511 98.9227 118.636 98.696 118.721 98.456C118.807 98.2107 118.849 97.9627 118.849 97.712V97.12ZM118.977 97.12H119.521V97.704C119.521 98.0133 119.593 98.3147 119.737 98.608C119.881 98.896 120.087 99.1547 120.353 99.384C120.62 99.608 120.927 99.784 121.273 99.912L120.937 100.432C120.543 100.288 120.199 100.08 119.905 99.808C119.612 99.536 119.383 99.2187 119.217 98.856C119.057 98.4933 118.977 98.1093 118.977 97.704V97.12ZM120.881 98.272H122.489V98.824H120.881V98.272ZM117.241 96.88H121.105V97.424H117.241V96.88ZM118.129 101.104H122.961V103.624H122.297V101.648H118.129V101.104ZM122.297 96.384H122.961V100.712H122.297V96.384ZM124.369 99.904H130.905V100.44H124.369V99.904ZM127.633 101.04C128.406 101.04 129.011 101.152 129.449 101.376C129.886 101.595 130.105 101.912 130.105 102.328C130.105 102.739 129.886 103.056 129.449 103.28C129.011 103.509 128.406 103.624 127.633 103.624C126.859 103.624 126.251 103.509 125.809 103.28C125.371 103.056 125.153 102.739 125.153 102.328C125.153 101.912 125.371 101.595 125.809 101.376C126.251 101.152 126.859 101.04 127.633 101.04ZM127.633 101.552C127.254 101.552 126.929 101.584 126.657 101.648C126.39 101.707 126.185 101.795 126.041 101.912C125.897 102.024 125.825 102.163 125.825 102.328C125.825 102.488 125.897 102.629 126.041 102.752C126.185 102.869 126.39 102.957 126.657 103.016C126.929 103.075 127.254 103.104 127.633 103.104C128.011 103.104 128.334 103.075 128.601 103.016C128.873 102.957 129.081 102.869 129.225 102.752C129.369 102.629 129.441 102.488 129.441 102.328C129.441 102.163 129.369 102.024 129.225 101.912C129.081 101.795 128.873 101.707 128.601 101.648C128.334 101.584 128.011 101.552 127.633 101.552ZM127.633 96.568C128.155 96.568 128.606 96.624 128.985 96.736C129.363 96.848 129.657 97.0053 129.865 97.208C130.073 97.4107 130.177 97.656 130.177 97.944C130.177 98.232 130.073 98.48 129.865 98.688C129.657 98.8907 129.363 99.048 128.985 99.16C128.606 99.2667 128.155 99.32 127.633 99.32C127.115 99.32 126.665 99.2667 126.281 99.16C125.902 99.048 125.609 98.8907 125.401 98.688C125.193 98.48 125.089 98.232 125.089 97.944C125.089 97.656 125.193 97.4107 125.401 97.208C125.609 97.0053 125.902 96.848 126.281 96.736C126.665 96.624 127.115 96.568 127.633 96.568ZM127.633 97.096C127.254 97.096 126.923 97.1307 126.641 97.2C126.363 97.264 126.147 97.36 125.993 97.488C125.843 97.6107 125.769 97.7627 125.769 97.944C125.769 98.1253 125.843 98.28 125.993 98.408C126.147 98.5307 126.363 98.6267 126.641 98.696C126.923 98.76 127.254 98.792 127.633 98.792C128.017 98.792 128.347 98.76 128.625 98.696C128.907 98.6267 129.123 98.5307 129.273 98.408C129.422 98.28 129.497 98.1253 129.497 97.944C129.497 97.7627 129.422 97.6107 129.273 97.488C129.123 97.36 128.907 97.264 128.625 97.2C128.347 97.1307 128.017 97.096 127.633 97.096ZM136.914 100H137.57V101.264H136.914V100ZM133.978 99.768H140.514V100.312H133.978V99.768ZM137.242 101.064C138.015 101.064 138.621 101.173 139.058 101.392C139.495 101.611 139.714 101.925 139.714 102.336C139.714 102.741 139.495 103.053 139.058 103.272C138.621 103.496 138.015 103.608 137.242 103.608C136.469 103.608 135.861 103.496 135.418 103.272C134.981 103.053 134.762 102.741 134.762 102.336C134.762 101.925 134.981 101.611 135.418 101.392C135.861 101.173 136.469 101.064 137.242 101.064ZM137.242 101.584C136.863 101.584 136.538 101.613 136.266 101.672C135.999 101.731 135.794 101.816 135.65 101.928C135.506 102.04 135.434 102.176 135.434 102.336C135.434 102.496 135.506 102.632 135.65 102.744C135.794 102.856 135.999 102.941 136.266 103C136.538 103.064 136.863 103.096 137.242 103.096C137.621 103.096 137.943 103.064 138.21 103C138.482 102.941 138.69 102.856 138.834 102.744C138.978 102.632 139.05 102.496 139.05 102.336C139.05 102.176 138.978 102.04 138.834 101.928C138.69 101.816 138.482 101.731 138.21 101.672C137.943 101.613 137.621 101.584 137.242 101.584ZM136.818 96.984H137.402V97.2C137.402 97.4347 137.351 97.6507 137.25 97.848C137.154 98.0453 137.018 98.2293 136.842 98.4C136.666 98.5653 136.458 98.712 136.218 98.84C135.983 98.968 135.727 99.0747 135.45 99.16C135.173 99.24 134.882 99.2987 134.578 99.336L134.338 98.808C134.599 98.7813 134.85 98.736 135.09 98.672C135.335 98.6027 135.562 98.52 135.77 98.424C135.983 98.3227 136.167 98.208 136.322 98.08C136.477 97.952 136.597 97.8133 136.682 97.664C136.773 97.5147 136.818 97.36 136.818 97.2V96.984ZM137.09 96.984H137.674V97.2C137.674 97.3653 137.717 97.5227 137.802 97.672C137.893 97.816 138.015 97.952 138.17 98.08C138.325 98.2027 138.506 98.3147 138.714 98.416C138.927 98.512 139.154 98.5947 139.394 98.664C139.639 98.7333 139.893 98.7813 140.154 98.808L139.914 99.336C139.61 99.2987 139.319 99.24 139.042 99.16C138.765 99.0747 138.506 98.968 138.266 98.84C138.031 98.712 137.826 98.5653 137.65 98.4C137.474 98.2347 137.335 98.0507 137.234 97.848C137.138 97.6453 137.09 97.4293 137.09 97.2V96.984ZM134.578 96.72H139.922V97.256H134.578V96.72ZM146.602 96.392H147.266V101.672H146.602V96.392ZM142.618 102.92H147.49V103.464H142.618V102.92ZM142.618 101.136H143.282V103.104H142.618V101.136ZM143.386 96.896C143.748 96.896 144.071 96.9707 144.354 97.12C144.636 97.2693 144.86 97.48 145.026 97.752C145.191 98.0187 145.274 98.3253 145.274 98.672C145.274 99.0187 145.191 99.328 145.026 99.6C144.86 99.8667 144.636 100.077 144.354 100.232C144.071 100.381 143.748 100.456 143.386 100.456C143.028 100.456 142.706 100.381 142.418 100.232C142.135 100.077 141.911 99.8667 141.746 99.6C141.58 99.328 141.498 99.0187 141.498 98.672C141.498 98.3253 141.58 98.0187 141.746 97.752C141.911 97.48 142.135 97.2693 142.418 97.12C142.706 96.9707 143.028 96.896 143.386 96.896ZM143.386 97.472C143.151 97.472 142.94 97.5227 142.754 97.624C142.567 97.7253 142.418 97.8667 142.306 98.048C142.199 98.2293 142.146 98.4373 142.146 98.672C142.146 98.912 142.199 99.1227 142.306 99.304C142.418 99.48 142.567 99.6187 142.754 99.72C142.94 99.8213 143.151 99.872 143.386 99.872C143.62 99.872 143.831 99.8213 144.018 99.72C144.21 99.6187 144.359 99.48 144.466 99.304C144.572 99.1227 144.626 98.912 144.626 98.672C144.626 98.4373 144.572 98.2293 144.466 98.048C144.359 97.8667 144.21 97.7253 144.018 97.624C143.831 97.5227 143.62 97.472 143.386 97.472ZM152.955 100H153.619V101.648H152.955V100ZM153.291 96.856C153.67 96.856 154.003 96.928 154.291 97.072C154.584 97.2107 154.814 97.408 154.979 97.664C155.144 97.92 155.227 98.2187 155.227 98.56C155.227 98.8907 155.144 99.1867 154.979 99.448C154.814 99.704 154.584 99.904 154.291 100.048C154.003 100.187 153.67 100.256 153.291 100.256C152.918 100.256 152.584 100.187 152.291 100.048C151.998 99.904 151.766 99.704 151.595 99.448C151.43 99.1867 151.347 98.8907 151.347 98.56C151.347 98.2187 151.43 97.92 151.595 97.664C151.766 97.408 151.998 97.2107 152.291 97.072C152.584 96.928 152.918 96.856 153.291 96.856ZM153.291 97.432C153.046 97.432 152.824 97.48 152.627 97.576C152.435 97.6667 152.283 97.7973 152.171 97.968C152.059 98.1333 152.003 98.3307 152.003 98.56C152.003 98.7787 152.059 98.976 152.171 99.152C152.283 99.3227 152.435 99.456 152.627 99.552C152.824 99.6427 153.046 99.688 153.291 99.688C153.542 99.688 153.763 99.6427 153.955 99.552C154.147 99.456 154.299 99.3227 154.411 99.152C154.523 98.976 154.579 98.7787 154.579 98.56C154.579 98.3307 154.523 98.1333 154.411 97.968C154.299 97.7973 154.147 97.6667 153.955 97.576C153.763 97.48 153.542 97.432 153.291 97.432ZM156.179 96.384H156.843V103.632H156.179V96.384ZM151.075 102.056L150.987 101.504C151.43 101.504 151.915 101.501 152.443 101.496C152.971 101.485 153.515 101.464 154.075 101.432C154.64 101.395 155.184 101.336 155.707 101.256L155.763 101.744C155.219 101.845 154.667 101.917 154.107 101.96C153.552 102.003 153.016 102.029 152.499 102.04C151.982 102.051 151.507 102.056 151.075 102.056ZM159.138 96.728H163.794V97.272H159.138V96.728ZM158.306 99.312H164.866V99.856H158.306V99.312ZM161.242 99.688H161.906V101.384H161.242V99.688ZM163.362 96.728H164.018V97.256C164.018 97.5547 164.008 97.8933 163.986 98.272C163.965 98.6453 163.896 99.08 163.778 99.576L163.13 99.504C163.248 99.0133 163.314 98.5893 163.33 98.232C163.352 97.8747 163.362 97.5493 163.362 97.256V96.728ZM158.986 101.176H164.058V103.624H163.394V101.712H158.986V101.176ZM170.93 96.392H171.594V101.672H170.93V96.392ZM166.946 102.92H171.818V103.464H166.946V102.92ZM166.946 101.136H167.61V103.104H166.946V101.136ZM167.714 96.896C168.076 96.896 168.399 96.9707 168.682 97.12C168.964 97.2693 169.188 97.48 169.354 97.752C169.519 98.0187 169.602 98.3253 169.602 98.672C169.602 99.0187 169.519 99.328 169.354 99.6C169.188 99.8667 168.964 100.077 168.682 100.232C168.399 100.381 168.076 100.456 167.714 100.456C167.356 100.456 167.034 100.381 166.746 100.232C166.463 100.077 166.239 99.8667 166.074 99.6C165.908 99.328 165.826 99.0187 165.826 98.672C165.826 98.3253 165.908 98.0187 166.074 97.752C166.239 97.48 166.463 97.2693 166.746 97.12C167.034 96.9707 167.356 96.896 167.714 96.896ZM167.714 97.472C167.479 97.472 167.268 97.5227 167.082 97.624C166.895 97.7253 166.746 97.8667 166.634 98.048C166.527 98.2293 166.474 98.4373 166.474 98.672C166.474 98.912 166.527 99.1227 166.634 99.304C166.746 99.48 166.895 99.6187 167.082 99.72C167.268 99.8213 167.479 99.872 167.714 99.872C167.948 99.872 168.159 99.8213 168.346 99.72C168.538 99.6187 168.687 99.48 168.794 99.304C168.9 99.1227 168.954 98.912 168.954 98.672C168.954 98.4373 168.9 98.2293 168.794 98.048C168.687 97.8667 168.538 97.7253 168.346 97.624C168.159 97.5227 167.948 97.472 167.714 97.472ZM176.955 100.864H177.635V103.624H176.955V100.864ZM179.443 100.864H180.115V103.624H179.443V100.864ZM175.267 100.504H181.827V101.048H175.267V100.504ZM178.531 96.672C179.038 96.672 179.48 96.7387 179.859 96.872C180.238 97 180.534 97.1813 180.747 97.416C180.96 97.6507 181.067 97.9307 181.067 98.256C181.067 98.5707 180.96 98.848 180.747 99.088C180.534 99.3227 180.238 99.504 179.859 99.632C179.48 99.76 179.038 99.824 178.531 99.824C178.035 99.824 177.595 99.76 177.211 99.632C176.832 99.504 176.536 99.3227 176.323 99.088C176.11 98.848 176.003 98.5707 176.003 98.256C176.003 97.9307 176.11 97.6507 176.323 97.416C176.536 97.1813 176.832 97 177.211 96.872C177.595 96.7387 178.035 96.672 178.531 96.672ZM178.531 97.208C178.168 97.208 177.846 97.2507 177.563 97.336C177.286 97.4213 177.07 97.544 176.915 97.704C176.76 97.8587 176.683 98.0427 176.683 98.256C176.683 98.464 176.76 98.648 176.915 98.808C177.07 98.9627 177.286 99.0827 177.563 99.168C177.846 99.248 178.168 99.288 178.531 99.288C178.904 99.288 179.23 99.248 179.507 99.168C179.784 99.0827 180 98.9627 180.155 98.808C180.31 98.648 180.387 98.464 180.387 98.256C180.387 98.0427 180.31 97.8587 180.155 97.704C180 97.544 179.784 97.4213 179.507 97.336C179.23 97.2507 178.904 97.208 178.531 97.208ZM187.922 96.384H188.586V103.632H187.922V96.384ZM186.37 99.016H188.114V99.56H186.37V99.016ZM184.466 97.416H185.002V98.504C185.002 98.8933 184.949 99.2773 184.842 99.656C184.741 100.029 184.597 100.381 184.41 100.712C184.229 101.043 184.013 101.336 183.762 101.592C183.517 101.848 183.253 102.051 182.97 102.2L182.57 101.672C182.832 101.544 183.077 101.368 183.306 101.144C183.536 100.92 183.736 100.667 183.906 100.384C184.082 100.096 184.218 99.792 184.314 99.472C184.416 99.1467 184.466 98.824 184.466 98.504V97.416ZM184.61 97.416H185.138V98.504C185.138 98.8027 185.186 99.1067 185.282 99.416C185.378 99.72 185.512 100.008 185.682 100.28C185.858 100.552 186.061 100.797 186.29 101.016C186.52 101.229 186.765 101.397 187.026 101.52L186.634 102.048C186.346 101.904 186.08 101.709 185.834 101.464C185.589 101.219 185.373 100.939 185.186 100.624C185.005 100.304 184.864 99.9627 184.762 99.6C184.661 99.2373 184.61 98.872 184.61 98.504V97.416ZM182.842 97.128H186.77V97.672H182.842V97.128ZM189.994 99.408H196.538V99.944H189.994V99.408ZM190.866 98.288H195.754V98.824H190.866V98.288ZM190.866 96.624H195.682V97.16H191.522V98.712H190.866V96.624ZM190.786 100.576H195.69V102.272H191.45V103.184H190.802V101.776H195.042V101.096H190.786V100.576ZM190.802 103.008H195.906V103.536H190.802V103.008ZM200.289 99.2H201.649V99.744H200.289V99.2ZM202.865 96.384H203.505V103.624H202.865V96.384ZM201.425 96.536H202.057V103.256H201.425V96.536ZM198.977 96.992C199.292 96.992 199.564 97.0933 199.793 97.296C200.028 97.4987 200.209 97.7893 200.337 98.168C200.465 98.5467 200.529 98.992 200.529 99.504C200.529 100.021 200.465 100.469 200.337 100.848C200.209 101.227 200.028 101.52 199.793 101.728C199.564 101.931 199.292 102.032 198.977 102.032C198.673 102.032 198.404 101.931 198.169 101.728C197.94 101.52 197.761 101.227 197.633 100.848C197.505 100.469 197.441 100.021 197.441 99.504C197.441 98.992 197.505 98.5467 197.633 98.168C197.761 97.7893 197.94 97.4987 198.169 97.296C198.404 97.0933 198.673 96.992 198.977 96.992ZM198.977 97.608C198.79 97.608 198.628 97.6853 198.489 97.84C198.35 97.9947 198.244 98.2133 198.169 98.496C198.094 98.7787 198.057 99.1147 198.057 99.504C198.057 99.8933 198.094 100.232 198.169 100.52C198.244 100.803 198.35 101.021 198.489 101.176C198.628 101.331 198.79 101.408 198.977 101.408C199.169 101.408 199.334 101.331 199.473 101.176C199.617 101.021 199.726 100.803 199.801 100.52C199.876 100.232 199.913 99.8933 199.913 99.504C199.913 99.1147 199.876 98.7787 199.801 98.496C199.726 98.2133 199.617 97.9947 199.473 97.84C199.334 97.6853 199.169 97.608 198.977 97.608ZM210.225 96.384H210.865V103.624H210.225V96.384ZM207.081 99.344H208.905V99.88H207.081V99.344ZM208.72 96.576H209.345V103.256H208.72V96.576ZM207.169 97.304H207.809C207.809 97.9333 207.718 98.5387 207.537 99.12C207.361 99.696 207.073 100.235 206.673 100.736C206.273 101.232 205.747 101.675 205.097 102.064L204.713 101.584C205.278 101.243 205.742 100.859 206.105 100.432C206.467 100 206.734 99.5333 206.905 99.032C207.081 98.5253 207.169 97.9893 207.169 97.424V97.304ZM205.025 97.304H207.417V97.848H205.025V97.304ZM219.218 96.384H219.882V103.624H219.218V96.384ZM219.73 99.232H221.066V99.8H219.73V99.232ZM214.61 97H215.266V98.904H217.322V97H217.978V101.888H214.61V97ZM215.266 99.432V101.336H217.322V99.432H215.266ZM221.681 102.176H228.241V102.728H221.681V102.176ZM224.617 100.632H225.273V102.408H224.617V100.632ZM222.481 96.92H227.425V99.112H223.153V100.56H222.497V98.584H226.769V97.464H222.481V96.92ZM222.497 100.28H227.593V100.824H222.497V100.28ZM232.091 99.672H237.099V100.216H232.091V99.672ZM231.291 102.144H237.851V102.688H231.291V102.144ZM234.227 100H234.891V102.312H234.227V100ZM232.091 97H232.763V99.904H232.091V97ZM241.586 99.992H242.242V101.08H241.586V99.992ZM238.658 99.6H245.178V100.104H238.658V99.6ZM241.586 96.344H242.242V97.216H241.586V96.344ZM241.554 97.28H242.138V97.392C242.138 97.68 242.061 97.9333 241.906 98.152C241.751 98.3707 241.538 98.5573 241.266 98.712C240.994 98.8667 240.679 98.992 240.322 99.088C239.97 99.1787 239.594 99.24 239.194 99.272L238.994 98.768C239.351 98.7467 239.685 98.7013 239.994 98.632C240.303 98.5573 240.575 98.4613 240.81 98.344C241.045 98.2267 241.226 98.088 241.354 97.928C241.487 97.768 241.554 97.5893 241.554 97.392V97.28ZM241.698 97.28H242.274V97.392C242.274 97.5893 242.341 97.768 242.474 97.928C242.607 98.088 242.791 98.2267 243.026 98.344C243.261 98.4613 243.53 98.5573 243.834 98.632C244.143 98.7013 244.477 98.7467 244.834 98.768L244.634 99.272C244.234 99.24 243.855 99.1787 243.498 99.088C243.146 98.992 242.834 98.8667 242.562 98.712C242.295 98.5573 242.085 98.3707 241.93 98.152C241.775 97.9333 241.698 97.68 241.698 97.392V97.28ZM239.322 97.016H244.522V97.528H239.322V97.016ZM239.442 100.768H244.346V102.352H240.106V103.224H239.458V101.88H243.698V101.264H239.442V100.768ZM239.458 103.032H244.562V103.544H239.458V103.032ZM248.073 98.84H248.737V100.032H248.073V98.84ZM251.273 96.392H251.937V100.552H251.273V96.392ZM246.129 100.384L246.033 99.84C246.476 99.84 246.959 99.8373 247.481 99.832C248.009 99.8213 248.548 99.8 249.097 99.768C249.652 99.7307 250.183 99.6773 250.689 99.608L250.729 100.08C250.207 100.171 249.673 100.237 249.129 100.28C248.585 100.323 248.057 100.349 247.545 100.36C247.033 100.371 246.561 100.379 246.129 100.384ZM246.681 98.504H250.153V99.032H246.681V98.504ZM246.681 96.744H250.089V97.288H247.345V98.704H246.681V96.744ZM247.201 100.88H247.857V101.64H251.289V100.88H251.937V103.528H247.201V100.88ZM247.857 102.152V102.984H251.289V102.152H247.857ZM258.633 96.384H259.289V103.624H258.633V96.384ZM253.825 97.096H254.481V101.576H253.825V97.096ZM253.825 101.184H254.417C254.971 101.184 255.534 101.16 256.105 101.112C256.681 101.059 257.273 100.971 257.881 100.848L257.969 101.408C257.339 101.541 256.734 101.635 256.153 101.688C255.571 101.736 254.993 101.76 254.417 101.76H253.825V101.184ZM265.624 96.384H266.288V103.632H265.624V96.384ZM266.136 99.24H267.472V99.792H266.136V99.24ZM261.04 101.264H261.608C262.051 101.264 262.456 101.259 262.824 101.248C263.197 101.232 263.555 101.205 263.896 101.168C264.243 101.131 264.595 101.08 264.952 101.016L265.032 101.584C264.659 101.648 264.296 101.699 263.944 101.736C263.597 101.773 263.235 101.797 262.856 101.808C262.477 101.819 262.061 101.824 261.608 101.824H261.04V101.264ZM261.04 97.088H264.392V97.632H261.696V101.52H261.04V97.088Z" fill="white"/>
<path d="M30.7337 44.35C27.5774 42.5483 25.1796 41.0447 21.9398 40.9611C21.2203 40.9426 20.8086 41.6317 20.5038 42.16C19.8979 43.2102 19.8965 45.5376 20.1945 48.3191C20.5875 51.9871 26.4982 52.6224 29.8961 53.6023C30.5238 53.7833 30.5802 54.5731 30.0609 55.4017C27.4584 59.5543 24.8726 62.5384 24.0372 65.5638C23.8749 66.1517 23.9605 66.7649 24.2585 67.221C24.5565 67.677 25.1526 67.975 26.0557 68.1286C26.9587 68.2821 28.1508 68.2821 28.9885 67.7606C36.0661 63.3537 31.0317 47.2219 32.3841 44.4358C33.591 41.9495 35.9897 39.8436 39.2251 37.6603C41.9959 35.7905 45.7613 35.7706 48.7866 36.2944C49.423 36.4045 49.9878 36.8182 50.3693 37.2697C51.1272 38.1667 51.0534 39.5275 50.7554 40.7286C49.8789 44.2611 45.2013 46.5987 39.4847 49.3825C37.7407 50.2318 36.4593 50.8162 35.4817 52.1663C34.4663 53.5687 34.7976 55.6297 35.0212 57.2079C35.3876 59.7952 39.7376 62.6919 42.9165 65.4148C43.9936 66.3374 45.3278 66.6249 46.6779 66.7762C50.9872 67.2591 55.4063 63.6221 57.1448 61.0709C58.5822 58.9614 57.0771 56.3973 56.402 55.1962C54.8012 52.3481 51.6675 50.5272 48.5067 48.4975C47.101 47.5948 45.6438 47.0593 43.8422 47.3573C41.8578 47.6856 40.6723 49.3126 39.995 50.7349C39.5641 51.6397 39.7647 53.2004 40.2117 54.415C41.7231 58.5218 45.9238 58.7906 49.6084 60.3755C50.5371 60.7749 51.4869 60.6058 52.022 60.3077C52.5571 60.0097 52.7061 59.4137 52.7828 58.7341C52.8596 58.0545 52.8596 57.3095 52.4871 56.7021C51.3695 55.6478 50.0058 55.0382 48.7302 54.7379C48.0506 54.5866 47.3055 54.4376 46.5379 54.2841" stroke="#FFF06C" stroke-width="10.56" stroke-linecap="round"/>
<path d="M32.2134 50.8783C32.2134 50.7633 32.3283 50.4168 32.6174 49.924C33.0213 49.6036 33.488 49.4278 33.9512 49.3407C34.1845 49.3111 34.4143 49.3111 34.9994 49.6594" stroke="#0D0D0D" stroke-width="2" stroke-linecap="round"/>
<path d="M40.7134 48.5241C40.7134 48.4092 40.7708 48.1201 40.9728 47.7144C41.1174 47.5386 41.3472 47.4236 41.7816 47.3644C42.2161 47.3052 42.8482 47.3052 43.6735 47.4794" stroke="#0D0D0D" stroke-width="2" stroke-linecap="round"/>
<path d="M38.7134 53.5254C38.7134 53.7552 38.7134 55.1952 39.0581 57.1977C39.1876 57.9498 40.0925 57.8785 40.5339 57.7923C41.1876 57.6647 41.4402 57.1263 41.6431 56.6631C41.8378 56.2184 41.8476 55.5034 41.7615 54.7207C41.0954 53.8179 40.4564 53.1789 39.9941 52.9177C39.7042 52.8289 39.3019 52.8289 38.8875 52.8289" stroke="#0D0D0D" stroke-width="2" stroke-linecap="round"/>
<path d="M306.908 79.845C309.118 78.5838 310.796 77.5313 313.064 77.4728C313.568 77.4598 313.856 77.9422 314.069 78.312C314.493 79.0472 314.494 80.6763 314.286 82.6234C314.011 85.191 309.873 85.6357 307.495 86.3216C307.055 86.4483 307.016 87.0012 307.379 87.5812C309.201 90.488 311.011 92.5769 311.596 94.6946C311.709 95.1062 311.65 95.5354 311.441 95.8547C311.232 96.1739 310.815 96.3825 310.183 96.49C309.551 96.5975 308.716 96.5975 308.13 96.2324C303.176 93.1476 306.7 81.8553 305.753 79.9051C304.908 78.1646 303.229 76.6905 300.964 75.1622C299.025 73.8534 296.389 73.8394 294.271 74.2061C293.826 74.2832 293.43 74.5727 293.163 74.8888C292.633 75.5167 292.684 76.4692 292.893 77.31C293.507 79.7828 296.781 81.4191 300.783 83.3678C302.003 83.9623 302.9 84.3713 303.585 85.3164C304.295 86.2981 304.064 87.7408 303.907 88.8455C303.651 90.6567 300.606 92.6843 298.38 94.5903C297.626 95.2362 296.692 95.4375 295.747 95.5434C292.731 95.8813 289.637 93.3355 288.421 91.5496C287.414 90.073 288.468 88.2781 288.94 87.4374C290.061 85.4436 292.255 84.169 294.467 82.7482C295.451 82.1164 296.471 81.7415 297.732 81.9501C299.121 82.1799 299.951 83.3188 300.425 84.3144C300.727 84.9478 300.587 86.0403 300.274 86.8905C299.216 89.7652 296.275 89.9534 293.696 91.0628C293.046 91.3425 292.381 91.224 292.006 91.0154C291.632 90.8068 291.528 90.3896 291.474 89.9139C291.42 89.4382 291.42 88.9166 291.681 88.4915C292.463 87.7534 293.418 87.3267 294.311 87.1165C294.786 87.0106 295.308 86.9063 295.845 86.7989" stroke="#FFF06C" stroke-width="7.392" stroke-linecap="round"/>
<path d="M305.873 84.4147C305.873 84.3342 305.792 84.0916 305.59 83.7467C305.307 83.5224 304.98 83.3993 304.656 83.3384C304.493 83.3177 304.332 83.3177 303.922 83.5614" stroke="#0D0D0D" stroke-width="1.4" stroke-linecap="round"/>
<path d="M299.922 82.7669C299.922 82.6864 299.882 82.4841 299.741 82.2001C299.64 82.077 299.479 81.9965 299.175 81.9551C298.87 81.9136 298.428 81.9136 297.85 82.0355" stroke="#0D0D0D" stroke-width="1.4" stroke-linecap="round"/>
<path d="M301.322 86.2678C301.322 86.4287 301.322 87.4367 301.081 88.8385C300.99 89.3649 300.357 89.315 300.048 89.2547C299.59 89.1654 299.413 88.7885 299.271 88.4643C299.135 88.153 299.128 87.6525 299.189 87.1046C299.655 86.4726 300.102 86.0253 300.426 85.8424C300.629 85.7803 300.91 85.7803 301.2 85.7803" stroke="#0D0D0D" stroke-width="1.4" stroke-linecap="round"/>
<defs>
<clipPath id="clip0_257_2980">
<rect width="45" height="5" fill="white" transform="translate(149 123)"/>
</clipPath>
</defs>
</svg>
