<svg width="19" height="27" viewBox="0 0 19 27" fill="none" xmlns="http://www.w3.org/2000/svg">
<path d="M4.29688 16.9189C4.10352 16.9189 3.94238 16.8545 3.81348 16.7256C3.68457 16.5967 3.62012 16.4355 3.62012 16.2422C3.62012 16.0632 3.68457 15.9092 3.81348 15.7803C3.94238 15.6514 4.10352 15.5869 4.29688 15.5869H13.7715C13.9648 15.5869 14.126 15.6514 14.2549 15.7803C14.3838 15.9092 14.4482 16.0632 14.4482 16.2422C14.4482 16.4355 14.3838 16.5967 14.2549 16.7256C14.126 16.8545 13.9648 16.9189 13.7715 16.9189H4.29688ZM4.29688 20.9365C4.11068 20.9365 3.94954 20.8721 3.81348 20.7432C3.68457 20.6071 3.62012 20.4495 3.62012 20.2705C3.62012 20.0843 3.68457 19.9268 3.81348 19.7979C3.94238 19.6689 4.10352 19.6045 4.29688 19.6045H9.71094C9.89714 19.6045 10.0547 19.6689 10.1836 19.7979C10.3125 19.9268 10.377 20.0843 10.377 20.2705C10.377 20.4495 10.3089 20.6071 10.1729 20.7432C10.0439 20.8721 9.88997 20.9365 9.71094 20.9365H4.29688ZM4.55469 11.2578C4.26107 11.2578 4.014 11.1576 3.81348 10.957C3.61296 10.7493 3.5127 10.5023 3.5127 10.2158C3.5127 9.9222 3.61296 9.67513 3.81348 9.47461C4.014 9.27409 4.26107 9.17383 4.55469 9.17383C4.84115 9.17383 5.08464 9.27409 5.28516 9.47461C5.49284 9.67513 5.59668 9.9222 5.59668 10.2158C5.59668 10.5023 5.49284 10.7493 5.28516 10.957C5.08464 11.1576 4.84115 11.2578 4.55469 11.2578ZM4.08203 10.5273L4.58691 9.65723L9.32422 12.042L8.80859 12.9229L4.08203 10.5273ZM8.96973 13.3955C8.68327 13.3955 8.43978 13.2952 8.23926 13.0947C8.03874 12.887 7.93848 12.64 7.93848 12.3535C7.93848 12.0599 8.03874 11.8128 8.23926 11.6123C8.43978 11.4118 8.68327 11.3115 8.96973 11.3115C9.26335 11.3115 9.51042 11.4118 9.71094 11.6123C9.91862 11.8128 10.0225 12.0599 10.0225 12.3535C10.0225 12.64 9.91862 12.887 9.71094 13.0947C9.51042 13.2952 9.26335 13.3955 8.96973 13.3955ZM8.75488 11.9775L13.2666 8.63672L13.8574 9.45312L9.33496 12.7939L8.75488 11.9775ZM13.5029 10.1836C13.2165 10.1836 12.973 10.0833 12.7725 9.88281C12.5719 9.67513 12.4717 9.42806 12.4717 9.1416C12.4717 8.84798 12.5719 8.60091 12.7725 8.40039C12.973 8.19987 13.2165 8.09961 13.5029 8.09961C13.7965 8.09961 14.0436 8.19987 14.2441 8.40039C14.4518 8.60091 14.5557 8.84798 14.5557 9.1416C14.5557 9.42806 14.4518 9.67513 14.2441 9.88281C14.0436 10.0833 13.7965 10.1836 13.5029 10.1836ZM3.33008 26.0283C2.22005 26.0283 1.38574 25.7454 0.827148 25.1797C0.275716 24.6211 0 23.7796 0 22.6553V6.37012C0 5.26725 0.264974 4.42936 0.794922 3.85645C1.33203 3.28353 2.1377 2.99707 3.21191 2.99707H3.46973C3.46257 3.04004 3.45898 3.08659 3.45898 3.13672C3.45898 3.17969 3.45898 3.22266 3.45898 3.26562V4.23242C3.45898 4.43294 3.47331 4.59766 3.50195 4.72656H3.24414C2.74284 4.72656 2.36328 4.87695 2.10547 5.17773C1.85482 5.47852 1.72949 5.88314 1.72949 6.3916V22.6338C1.72949 23.1709 1.86914 23.5827 2.14844 23.8691C2.4349 24.1556 2.85742 24.2988 3.41602 24.2988H14.6523C15.2109 24.2988 15.6299 24.1556 15.9092 23.8691C16.1956 23.5827 16.3389 23.1709 16.3389 22.6338V6.3916C16.3389 5.88314 16.21 5.47852 15.9521 5.17773C15.7015 4.87695 15.3255 4.72656 14.8242 4.72656H14.5664C14.5951 4.59766 14.6094 4.43294 14.6094 4.23242V3.26562C14.6094 3.22266 14.6094 3.17969 14.6094 3.13672C14.6094 3.08659 14.6058 3.04004 14.5986 2.99707H14.8564C15.9307 2.99707 16.7327 3.28353 17.2627 3.85645C17.7998 4.42936 18.0684 5.26725 18.0684 6.37012V22.6553C18.0684 23.7796 17.7891 24.6211 17.2305 25.1797C16.679 25.7454 15.8483 26.0283 14.7383 26.0283H3.33008ZM5.71484 5.45703C5.39974 5.45703 5.15267 5.36393 4.97363 5.17773C4.80176 4.99154 4.71582 4.73014 4.71582 4.39355V3.26562C4.71582 2.92904 4.80176 2.66764 4.97363 2.48145C5.15267 2.29525 5.39974 2.20215 5.71484 2.20215H6.70312C6.73893 1.59342 6.97884 1.07422 7.42285 0.644531C7.87402 0.214844 8.41113 0 9.03418 0C9.65723 0 10.1908 0.214844 10.6348 0.644531C11.0859 1.07422 11.3294 1.59342 11.3652 2.20215H12.3535C12.6686 2.20215 12.9121 2.29525 13.084 2.48145C13.263 2.66764 13.3525 2.92904 13.3525 3.26562V4.39355C13.3525 4.73014 13.263 4.99154 13.084 5.17773C12.9121 5.36393 12.6686 5.45703 12.3535 5.45703H5.71484ZM9.03418 3.22266C9.29199 3.22266 9.51042 3.12956 9.68945 2.94336C9.87565 2.75716 9.96875 2.53874 9.96875 2.28809C9.96875 2.02311 9.87565 1.80111 9.68945 1.62207C9.51042 1.43587 9.29199 1.34277 9.03418 1.34277C8.77637 1.34277 8.55436 1.43587 8.36816 1.62207C8.18913 1.80111 8.09961 2.02311 8.09961 2.28809C8.09961 2.53874 8.18913 2.75716 8.36816 2.94336C8.55436 3.12956 8.77637 3.22266 9.03418 3.22266Z" fill="black"/>
</svg>
