<svg width="24" height="25" viewBox="0 0 24 25" fill="none" xmlns="http://www.w3.org/2000/svg">
<path d="M11.9414 13.1738C12.1823 13.1738 12.4069 13.0892 12.6152 12.9199C12.8236 12.7507 12.9277 12.4935 12.9277 12.1484L15.75 10.0586C15.8867 10.1302 16.0332 10.166 16.1895 10.166C16.4694 10.166 16.7038 10.0716 16.8926 9.88281C17.0814 9.69401 17.1758 9.46615 17.1758 9.19922C17.1758 8.91927 17.0814 8.6849 16.8926 8.49609C16.7038 8.30078 16.4694 8.20312 16.1895 8.20312C16.0267 8.20312 15.8704 8.24544 15.7207 8.33008C15.571 8.4082 15.4473 8.52539 15.3496 8.68164C15.2585 8.83789 15.2194 9.02995 15.2324 9.25781L12.4102 11.3379C12.2734 11.2533 12.1172 11.2109 11.9414 11.2109C11.7135 11.2109 11.5117 11.2891 11.3359 11.4453L8.77734 10.1562C8.76432 9.8763 8.66016 9.64844 8.46484 9.47266C8.27604 9.29688 8.05469 9.20898 7.80078 9.20898C7.52734 9.20898 7.29622 9.30664 7.10742 9.50195C6.91862 9.69076 6.82422 9.92188 6.82422 10.1953C6.82422 10.4622 6.91862 10.6934 7.10742 10.8887C7.29622 11.0775 7.52734 11.1719 7.80078 11.1719C8.0026 11.1719 8.18815 11.1133 8.35742 10.9961L10.9844 12.334C11.0104 12.5684 11.1146 12.7669 11.2969 12.9297C11.4792 13.0924 11.694 13.1738 11.9414 13.1738ZM7.55664 16.4258H16.4434C16.6191 16.4258 16.7689 16.3639 16.8926 16.2402C17.0163 16.1165 17.0781 15.9668 17.0781 15.791C17.0781 15.6217 17.0163 15.4785 16.8926 15.3613C16.7689 15.2376 16.6191 15.1758 16.4434 15.1758H7.55664C7.38086 15.1758 7.23112 15.2376 7.10742 15.3613C6.98372 15.4785 6.92188 15.6217 6.92188 15.791C6.92188 15.9668 6.98372 16.1165 7.10742 16.2402C7.23112 16.3639 7.38086 16.4258 7.55664 16.4258ZM7.55664 20.1953H12.6348C12.804 20.1953 12.9505 20.1335 13.0742 20.0098C13.1979 19.8861 13.2598 19.7363 13.2598 19.5605C13.2598 19.3913 13.1979 19.2448 13.0742 19.1211C12.957 18.9974 12.8105 18.9355 12.6348 18.9355H7.55664C7.38086 18.9355 7.23112 18.9974 7.10742 19.1211C6.98372 19.2448 6.92188 19.3913 6.92188 19.5605C6.92188 19.7363 6.98372 19.8861 7.10742 20.0098C7.23112 20.1335 7.38086 20.1953 7.55664 20.1953ZM6.81445 23.6621C5.80534 23.6621 5.04688 23.4049 4.53906 22.8906C4.03776 22.3828 3.78711 21.6178 3.78711 20.5957V5.78125C3.78711 4.75911 4.03451 3.99414 4.5293 3.48633C5.02409 2.97201 5.75326 2.71484 6.7168 2.71484H6.94141C6.94141 2.73438 6.94141 2.75716 6.94141 2.7832C6.94141 2.80273 6.94141 2.82227 6.94141 2.8418V3.99414C6.94141 4.60612 7.13021 5.11068 7.50781 5.50781C7.88542 5.89844 8.37695 6.09375 8.98242 6.09375H15.0176C15.623 6.09375 16.1146 5.89844 16.4922 5.50781C16.8698 5.11068 17.0586 4.60612 17.0586 3.99414V2.8418C17.0586 2.82227 17.0586 2.80273 17.0586 2.7832C17.0586 2.75716 17.0586 2.73438 17.0586 2.71484H17.2832C18.2467 2.71484 18.9759 2.97201 19.4707 3.48633C19.9655 3.99414 20.2129 4.75911 20.2129 5.78125V20.5957C20.2129 21.6178 19.959 22.3828 19.4512 22.8906C18.9499 23.4049 18.1947 23.6621 17.1855 23.6621H6.81445ZM8.98242 4.96094C8.69596 4.96094 8.47135 4.8763 8.30859 4.70703C8.15234 4.53776 8.07422 4.30013 8.07422 3.99414V2.96875C8.07422 2.66276 8.15234 2.42513 8.30859 2.25586C8.47135 2.08659 8.69596 2.00195 8.98242 2.00195H9.88086C9.91341 1.44857 10.1315 0.976562 10.5352 0.585938C10.9453 0.195312 11.4336 0 12 0C12.5664 0 13.0514 0.195312 13.4551 0.585938C13.8652 0.976562 14.0866 1.44857 14.1191 2.00195H15.0176C15.304 2.00195 15.5254 2.08659 15.6816 2.25586C15.8444 2.42513 15.9258 2.66276 15.9258 2.96875V3.99414C15.9258 4.30013 15.8444 4.53776 15.6816 4.70703C15.5254 4.8763 15.304 4.96094 15.0176 4.96094H8.98242ZM12 2.92969C12.2344 2.92969 12.4329 2.84505 12.5957 2.67578C12.765 2.50651 12.8496 2.30794 12.8496 2.08008C12.8496 1.83919 12.765 1.63737 12.5957 1.47461C12.4329 1.30534 12.2344 1.2207 12 1.2207C11.7656 1.2207 11.5638 1.30534 11.3945 1.47461C11.2318 1.63737 11.1504 1.83919 11.1504 2.08008C11.1504 2.30794 11.2318 2.50651 11.3945 2.67578C11.5638 2.84505 11.7656 2.92969 12 2.92969Z" fill="#5482FF"/>
</svg>
