<svg width="23" height="18" viewBox="0 0 23 18" fill="none" xmlns="http://www.w3.org/2000/svg">
<path d="M0 14.8438V6.83594H22.1777V14.8438C22.1777 15.8529 21.9336 16.6081 21.4453 17.1094C20.957 17.6172 20.2767 17.8711 19.4043 17.8711H3.06641C2.04427 17.8711 1.27604 17.6172 0.761719 17.1094C0.253906 16.6081 0 15.8529 0 14.8438ZM0 5.55664V2.93945C0 1.95638 0.234375 1.2207 0.703125 0.732422C1.17188 0.244141 1.83594 0 2.69531 0H5.47852C5.79753 0 6.07422 0.0227865 6.30859 0.0683594C6.54948 0.113932 6.76758 0.188802 6.96289 0.292969C7.16471 0.397135 7.37305 0.540365 7.58789 0.722656L8.18359 1.21094C8.43099 1.41927 8.66862 1.56901 8.89648 1.66016C9.12435 1.74479 9.4043 1.78711 9.73633 1.78711H19.1113C20.127 1.78711 20.8919 2.04102 21.4062 2.54883C21.9206 3.05664 22.1777 3.81185 22.1777 4.81445V5.55664H0Z" fill="#5482FF"/>
</svg>
