<svg width="25" height="20" viewBox="0 0 25 20" fill="none" xmlns="http://www.w3.org/2000/svg">
<path d="M3.37305 19.6582C2.2487 19.6582 1.40365 19.3789 0.837891 18.8203C0.279297 18.2689 0 17.4382 0 16.3281V3.2334C0 2.15202 0.257812 1.34277 0.773438 0.805664C1.28906 0.268555 2.01953 0 2.96484 0H6.02637C6.37728 0 6.68164 0.0250651 6.93945 0.0751953C7.20443 0.125326 7.44434 0.207682 7.65918 0.322266C7.88118 0.436849 8.11035 0.594401 8.34668 0.794922L9.00195 1.33203C9.27409 1.5612 9.53548 1.72591 9.78613 1.82617C10.0368 1.91927 10.3447 1.96582 10.71 1.96582H21.0225C22.1396 1.96582 22.9811 2.24512 23.5469 2.80371C24.1126 3.3623 24.3955 4.19303 24.3955 5.2959V16.3281C24.3955 17.4382 24.127 18.2689 23.5898 18.8203C23.0527 19.3789 22.3044 19.6582 21.3447 19.6582H3.37305ZM3.39453 17.9287H20.9902C21.5202 17.9287 21.932 17.7891 22.2256 17.5098C22.5192 17.2233 22.666 16.8044 22.666 16.2529V5.39258C22.666 4.83398 22.5192 4.41146 22.2256 4.125C21.932 3.83854 21.5202 3.69531 20.9902 3.69531H10.2588C9.90788 3.69531 9.59993 3.67025 9.33496 3.62012C9.06999 3.56999 8.8265 3.48763 8.60449 3.37305C8.38249 3.25846 8.1569 3.10449 7.92773 2.91113L7.27246 2.36328C7.00033 2.13411 6.73893 1.9694 6.48828 1.86914C6.24479 1.76888 5.94401 1.71875 5.58594 1.71875H3.31934C2.80371 1.71875 2.40983 1.85482 2.1377 2.12695C1.86556 2.39909 1.72949 2.80013 1.72949 3.33008V16.2422C1.72949 16.8008 1.87272 17.2233 2.15918 17.5098C2.44564 17.7891 2.85742 17.9287 3.39453 17.9287ZM1.05273 7.62695V6.00488H23.332V7.62695H1.05273Z" fill="black"/>
</svg>
