<svg width="26" height="23" viewBox="0 0 26 23" fill="none" xmlns="http://www.w3.org/2000/svg">
<path d="M9.71094 21.4844V14.5449C9.71094 14.3014 9.78613 14.1045 9.93652 13.9541C10.0869 13.8037 10.2874 13.7285 10.5381 13.7285H15.125C15.3757 13.7285 15.5726 13.8037 15.7158 13.9541C15.8662 14.1045 15.9414 14.3014 15.9414 14.5449V21.4844H9.71094ZM0.923828 11.4727C0.63737 11.4727 0.411784 11.3867 0.24707 11.2148C0.0823568 11.0358 0 10.8353 0 10.6133C0 10.334 0.114583 10.1012 0.34375 9.91504L11.5371 0.515625C11.9382 0.171875 12.3678 0 12.8262 0C13.2845 0 13.7142 0.171875 14.1152 0.515625L25.3086 9.91504C25.5378 10.1012 25.6523 10.334 25.6523 10.6133C25.6523 10.8353 25.57 11.0358 25.4053 11.2148C25.2477 11.3867 25.0221 11.4727 24.7285 11.4727C24.5781 11.4727 24.4385 11.4368 24.3096 11.3652C24.1878 11.2936 24.0732 11.2148 23.9658 11.1289L13.2021 2.09473C13.0876 1.99447 12.9622 1.94434 12.8262 1.94434C12.6901 1.94434 12.5648 1.99447 12.4502 2.09473L1.69727 11.1289C1.58268 11.2148 1.46094 11.2936 1.33203 11.3652C1.21029 11.4368 1.07422 11.4727 0.923828 11.4727ZM19.8193 5.76855V3.20117C19.8193 2.96484 19.891 2.77865 20.0342 2.64258C20.1774 2.49935 20.3636 2.42773 20.5928 2.42773H21.7422C21.9785 2.42773 22.1647 2.49935 22.3008 2.64258C22.444 2.77865 22.5156 2.96484 22.5156 3.20117V8.0459L19.8193 5.76855ZM5.56445 22.5908C4.79818 22.5908 4.2002 22.3831 3.77051 21.9678C3.34798 21.5596 3.13672 20.9759 3.13672 20.2168V8.31445L4.86621 7.1543V19.7871C4.86621 20.138 4.95573 20.403 5.13477 20.582C5.32096 20.7682 5.58594 20.8613 5.92969 20.8613H19.7334C20.0771 20.8613 20.3385 20.7682 20.5176 20.582C20.6966 20.403 20.7861 20.138 20.7861 19.7871V7.14355L22.5156 8.31445V20.2168C22.5156 20.9688 22.3044 21.5524 21.8818 21.9678C21.4593 22.3831 20.8649 22.5908 20.0986 22.5908H5.56445Z" fill="black"/>
</svg>
