<svg width="24" height="24" viewBox="0 0 24 24" fill="none" xmlns="http://www.w3.org/2000/svg">
<path d="M9.36328 20.6406H14.6367V14.8984C14.6367 14.6771 14.5684 14.498 14.4316 14.3613C14.3014 14.2246 14.1224 14.1562 13.8945 14.1562H10.1152C9.88737 14.1562 9.70508 14.2246 9.56836 14.3613C9.43164 14.498 9.36328 14.6771 9.36328 14.8984V20.6406ZM3.38672 20.0645V12.3105L11.4141 5.58203C11.8047 5.25 12.1953 5.25 12.5859 5.58203L20.6133 12.3105V20.0645C20.6133 20.7415 20.418 21.2689 20.0273 21.6465C19.6432 22.0241 19.1094 22.2129 18.4258 22.2129H5.58398C4.89388 22.2129 4.35352 22.0241 3.96289 21.6465C3.57878 21.2689 3.38672 20.7415 3.38672 20.0645ZM1.17969 12.1055C0.919271 12.1055 0.714193 12.0273 0.564453 11.8711C0.414714 11.7083 0.339844 11.526 0.339844 11.3242C0.339844 11.0703 0.44401 10.8587 0.652344 10.6895L10.8281 2.14453C11.1927 1.83203 11.5833 1.67578 12 1.67578C12.4167 1.67578 12.8073 1.83203 13.1719 2.14453L23.3477 10.6895C23.556 10.8587 23.6602 11.0703 23.6602 11.3242C23.6602 11.526 23.5853 11.7083 23.4355 11.8711C23.2923 12.0273 23.0872 12.1055 22.8203 12.1055C22.6836 12.1055 22.5566 12.0729 22.4395 12.0078C22.3288 11.9427 22.2246 11.8711 22.127 11.793L12.3418 3.58008C12.2376 3.48893 12.1237 3.44336 12 3.44336C11.8763 3.44336 11.7624 3.48893 11.6582 3.58008L1.88281 11.793C1.77865 11.8711 1.66797 11.9427 1.55078 12.0078C1.4401 12.0729 1.31641 12.1055 1.17969 12.1055ZM18.3574 6.91992V4.58594C18.3574 4.37109 18.4225 4.20182 18.5527 4.07812C18.6829 3.94792 18.8522 3.88281 19.0605 3.88281H20.1055C20.3203 3.88281 20.4896 3.94792 20.6133 4.07812C20.7435 4.20182 20.8086 4.37109 20.8086 4.58594V8.99023L18.3574 6.91992Z" fill="#5482FF"/>
</svg>
