<svg width="17" height="16" viewBox="0 0 17 16" fill="none" xmlns="http://www.w3.org/2000/svg">
<path d="M0.882812 15.1094C0.601562 15.1094 0.382812 15.0312 0.226562 14.875C0.0755208 14.7188 0 14.4948 0 14.2031V3.69531C0 3.42969 0.0546875 3.20312 0.164062 3.01562C0.273438 2.82292 0.442708 2.66146 0.671875 2.53125L4.73438 0.21875C4.97917 0.0729167 5.2474 0 5.53906 0C5.82552 0 6.08854 0.0729167 6.32812 0.21875L10.5703 2.82031L14.7109 0.515625C14.8411 0.447917 14.9583 0.398438 15.0625 0.367188C15.1667 0.330729 15.2682 0.3125 15.3672 0.3125C15.6484 0.3125 15.8646 0.390625 16.0156 0.546875C16.1719 0.703125 16.25 0.924479 16.25 1.21094V11.7344C16.25 11.9948 16.1953 12.2214 16.0859 12.4141C15.9766 12.6016 15.8047 12.7604 15.5703 12.8906L11.4844 15.2109C11.25 15.3464 10.9896 15.4141 10.7031 15.4141C10.401 15.4141 10.1094 15.3359 9.82812 15.1797L5.50781 12.7578L1.53125 14.8984C1.40625 14.9714 1.29167 15.0234 1.1875 15.0547C1.08333 15.0911 0.981771 15.1094 0.882812 15.1094ZM5 11.5156V1.53906C4.95312 1.5651 4.90625 1.59115 4.85938 1.61719C4.81771 1.64323 4.77083 1.66927 4.71875 1.69531L1.51562 3.57031C1.42188 3.6224 1.35417 3.6849 1.3125 3.75781C1.27604 3.82552 1.25781 3.90625 1.25781 4V13.3672C1.25781 13.4505 1.29167 13.4922 1.35938 13.4922C1.38542 13.4922 1.42448 13.4792 1.47656 13.4531L5 11.5156ZM6.25781 11.6406L9.64844 13.5547C9.70573 13.5859 9.76302 13.6146 9.82031 13.6406C9.8776 13.6719 9.9349 13.7031 9.99219 13.7344V3.96875L6.50781 1.84375C6.46615 1.81771 6.42448 1.79427 6.38281 1.77344C6.34115 1.7474 6.29948 1.72396 6.25781 1.70312V11.6406ZM11.25 13.875C11.3073 13.8438 11.3646 13.8125 11.4219 13.7812C11.4844 13.75 11.5443 13.7161 11.6016 13.6797L14.7344 11.8594C14.8281 11.8073 14.8932 11.7448 14.9297 11.6719C14.9714 11.599 14.9922 11.5156 14.9922 11.4219V2.05469C14.9922 2.01302 14.9818 1.98177 14.9609 1.96094C14.9453 1.9401 14.9193 1.92969 14.8828 1.92969C14.862 1.92969 14.8255 1.94271 14.7734 1.96875L11.25 3.89062V13.875Z" fill="#A6A6A6"/>
</svg>
