<svg width="25" height="23" viewBox="0 0 25 23" fill="none" xmlns="http://www.w3.org/2000/svg">
<path d="M4.66211 22.5049C4.28971 22.5049 4.00684 22.4154 3.81348 22.2363C3.62012 22.0645 3.51986 21.846 3.5127 21.5811C3.50553 21.3232 3.59505 21.069 3.78125 20.8184C3.94596 20.6107 4.1429 20.3421 4.37207 20.0127C4.60124 19.6904 4.8304 19.3503 5.05957 18.9922C5.28874 18.6341 5.48568 18.2975 5.65039 17.9824C4.51888 17.4596 3.52702 16.7793 2.6748 15.9414C1.82975 15.1035 1.1709 14.1582 0.698242 13.1055C0.232747 12.0527 0 10.9391 0 9.76465C0 8.41113 0.311523 7.14355 0.93457 5.96191C1.56478 4.78027 2.4349 3.74544 3.54492 2.85742C4.66211 1.96224 5.95833 1.264 7.43359 0.762695C8.90885 0.254232 10.4915 0 12.1816 0C13.8717 0 15.4544 0.254232 16.9297 0.762695C18.4049 1.264 19.6976 1.96224 20.8076 2.85742C21.9248 3.74544 22.7949 4.78027 23.418 5.96191C24.0482 7.14355 24.3633 8.41113 24.3633 9.76465C24.3633 10.889 24.1484 11.9525 23.7188 12.9551C23.2962 13.9505 22.6911 14.8564 21.9033 15.6729C21.1227 16.4893 20.1882 17.1911 19.0996 17.7783C18.0182 18.3584 16.8151 18.7988 15.4902 19.0996C14.1654 19.4004 12.7546 19.5293 11.2578 19.4863C10.5345 20.0091 9.75391 20.4997 8.91602 20.958C8.07812 21.4163 7.27962 21.7887 6.52051 22.0752C5.76139 22.3617 5.14193 22.5049 4.66211 22.5049ZM5.79004 20.7217C6.1123 20.5856 6.52051 20.3779 7.01465 20.0986C7.50879 19.8193 8.02083 19.5078 8.55078 19.1641C9.08073 18.8275 9.56413 18.5016 10.001 18.1865C10.2015 18.029 10.3949 17.9144 10.5811 17.8428C10.7744 17.764 10.9821 17.7246 11.2041 17.7246C11.4189 17.7318 11.6087 17.7389 11.7734 17.7461C11.9382 17.7461 12.0742 17.7461 12.1816 17.7461C13.6283 17.7461 14.9818 17.5384 16.2422 17.123C17.5026 16.7077 18.6055 16.1348 19.5508 15.4043C20.5033 14.6738 21.248 13.8252 21.7852 12.8584C22.3223 11.8916 22.5908 10.8604 22.5908 9.76465C22.5908 8.66178 22.3223 7.63053 21.7852 6.6709C21.248 5.7041 20.5033 4.85547 19.5508 4.125C18.6055 3.38737 17.5026 2.81087 16.2422 2.39551C14.9818 1.98014 13.6283 1.77246 12.1816 1.77246C10.735 1.77246 9.38151 1.98014 8.12109 2.39551C6.86068 2.81087 5.75423 3.38737 4.80176 4.125C3.85645 4.85547 3.11523 5.7041 2.57812 6.6709C2.04818 7.63053 1.7832 8.66178 1.7832 9.76465C1.7832 10.7171 1.99089 11.623 2.40625 12.4824C2.82161 13.3418 3.42318 14.1296 4.21094 14.8457C5.00586 15.5547 5.96549 16.1706 7.08984 16.6934C7.43359 16.8581 7.63411 17.0586 7.69141 17.2949C7.7487 17.5312 7.70215 17.7891 7.55176 18.0684C7.36556 18.4121 7.08984 18.8275 6.72461 19.3145C6.35938 19.8086 6.02637 20.2419 5.72559 20.6143C5.69694 20.6501 5.68978 20.6787 5.7041 20.7002C5.71842 20.7288 5.74707 20.736 5.79004 20.7217Z" fill="black"/>
</svg>
