<svg width="17" height="18" viewBox="0 0 17 18" fill="none" xmlns="http://www.w3.org/2000/svg">
<path d="M1.66992 17.5586C1.14909 17.5586 0.738932 17.4414 0.439453 17.207C0.146484 16.9792 0 16.6634 0 16.2598C0 15.6283 0.188802 14.9674 0.566406 14.2773C0.94401 13.5807 1.49089 12.9297 2.20703 12.3242C2.92318 11.7122 3.78581 11.2174 4.79492 10.8398C5.81055 10.4557 6.94987 10.2637 8.21289 10.2637C9.48242 10.2637 10.6217 10.4557 11.6309 10.8398C12.6465 11.2174 13.5091 11.7122 14.2188 12.3242C14.9349 12.9297 15.4818 13.5807 15.8594 14.2773C16.2435 14.9674 16.4355 15.6283 16.4355 16.2598C16.4355 16.6634 16.2858 16.9792 15.9863 17.207C15.6934 17.4414 15.2865 17.5586 14.7656 17.5586H1.66992ZM8.22266 8.51562C7.52604 8.51562 6.88151 8.32682 6.28906 7.94922C5.69661 7.5651 5.2181 7.05078 4.85352 6.40625C4.49544 5.75521 4.31641 5.02604 4.31641 4.21875C4.31641 3.42448 4.49544 2.70833 4.85352 2.07031C5.2181 1.43229 5.69661 0.927734 6.28906 0.556641C6.88151 0.185547 7.52604 0 8.22266 0C8.91927 0 9.5638 0.182292 10.1562 0.546875C10.7487 0.911458 11.224 1.41276 11.582 2.05078C11.9466 2.68229 12.1289 3.39844 12.1289 4.19922C12.1289 5.01302 11.9466 5.74544 11.582 6.39648C11.224 7.04753 10.7487 7.5651 10.1562 7.94922C9.5638 8.32682 8.91927 8.51562 8.22266 8.51562Z" fill="#5482FF"/>
</svg>
