<svg width="20" height="16" viewBox="0 0 20 16" fill="none" xmlns="http://www.w3.org/2000/svg">
<path d="M2.98504 4.47096C2.44732 4.77823 2.09349 5.09016 1.9579 5.43817C1.65756 6.20901 1.74432 6.87327 1.72395 8.88567C1.71242 10.025 2.09117 10.7142 2.44034 11.4515C2.81968 12.2525 3.5251 12.616 4.26244 13.0629C4.93021 13.4677 5.62013 13.5471 10.6855 13.6466C12.22 13.6768 12.99 13.4726 14.1155 13.2206C15.0055 13.0214 15.6297 12.8907 16.5603 12.4653C17.4607 12.0536 17.5711 10.9167 17.9593 9.77082C18.2348 8.95752 18.2323 6.2401 18.1164 4.58969C18.0665 3.87816 17.3034 3.30938 16.4899 2.76584C15.6372 2.19615 14.7056 2.02675 13.6581 1.83354C12.9648 1.70567 9.18868 1.67758 6.73225 1.81259C5.94549 1.85584 5.35476 2.18039 4.34682 2.68436C3.64195 3.0368 3.22016 3.73072 2.86982 4.35224C2.53661 4.94338 2.44267 5.59297 2.4607 8.64881C2.46819 9.91685 3.29232 10.4046 3.85565 10.8707C4.21535 11.1684 4.65177 11.2984 5.99841 11.4725C9.39746 11.9117 12.1753 11.6884 12.9696 11.4946C13.4951 11.3776 13.8851 11.2612 14.3105 11.1064C14.5438 11.0284 14.8127 10.9516 15.2061 10.8725" stroke="#D9D9D9" stroke-width="3.44736" stroke-linecap="round"/>
<path d="M7.39409 1.77612C6.86013 1.88313 6.4685 1.95375 6.03139 2.00779C5.70311 2.04837 5.43377 2.22126 5.05925 2.36411C4.75217 2.48124 4.40011 2.59577 4.07803 2.69422C3.77635 2.78643 3.36645 3.18216 3.06122 3.49621C2.7923 3.77292 2.56178 4.11095 2.38335 4.36107C2.18965 4.63261 2.22258 4.96699 2.10674 5.25269C1.75978 6.10847 2.1145 7.74909 2.22177 8.02597C2.34061 8.33269 2.64845 8.69394 3.27148 9.24635C3.68197 9.61031 4.50016 9.69389 5.25775 9.62407C5.80536 9.5736 5.69968 8.733 5.69994 7.87429C5.70016 7.17426 5.62959 5.93858 5.56699 5.54909C5.42918 4.69158 5.34335 7.01772 5.3166 7.47917C5.29908 7.78136 5.3075 8.22312 5.62531 7.76193C5.94311 7.30074 6.57871 5.9236 6.99442 5.10823C7.41013 4.29286 7.58669 4.08099 7.76592 4.67807C7.94515 5.27516 8.12171 6.68761 8.21266 7.53883C8.30362 8.39005 8.30362 8.63723 8.30362 8.6498C8.30362 8.66237 8.30362 8.43285 8.42721 7.55542C8.5508 6.67798 8.79798 5.15959 9.22546 5.29549C9.65294 5.43138 10.2532 7.26758 10.5801 8.2488C10.907 9.23003 10.9423 9.30065 10.9782 9.28407C11.014 9.26748 11.0493 9.16155 11.2617 8.21536C11.4742 7.26918 11.8626 5.48596 12.4158 5.353C12.969 5.22005 13.6752 6.7914 14.1715 7.29192C14.6677 7.79243 14.9325 7.17448 15.0954 6.82083C15.2946 6.38847 15.4542 6.12958 15.6232 5.87946C15.6783 5.79806 15.7746 5.91183 15.8463 6.05441C16.3751 7.10593 16.3289 8.6399 16.2936 8.98767C16.2776 9.14561 15.1968 9.37074 13.3467 9.84263C12.4216 10.0786 11.4966 10.1909 10.7412 10.2637C9.42483 10.3905 8.59146 10.2835 8.19046 10.1767C8.033 10.1348 7.98368 10.07 7.92991 9.95445C7.79871 9.67246 7.73329 9.19793 7.67979 8.33735C7.52836 5.90155 7.75041 5.43459 7.93713 5.14755C8.32384 4.55308 9.10562 3.91674 9.23001 3.82766C9.36701 3.72955 10.1516 3.7557 11.2741 3.77335C12.3536 3.79033 12.8855 3.89801 14.237 4.05825C14.7526 4.11939 14.9903 4.46728 15.2575 4.79738C15.3643 4.9306 15.5232 5.14247 15.6404 5.26044C15.7575 5.37842 15.8281 5.39607 15.9009 5.41426" stroke="#D9D9D9" stroke-width="3.44736" stroke-linecap="round"/>
<path d="M6.71674 8.40466V8.5602" stroke="#0D0D0D" stroke-width="1.08" stroke-linecap="round"/>
<path d="M9.09271 8.40466V8.50836" stroke="#0D0D0D" stroke-width="1.08" stroke-linecap="round"/>
<path d="M6.67108 10.7821C7.11904 10.834 7.73913 10.7655 8.31955 10.7217C8.56972 10.6961 8.93264 10.6784 9.45811 10.6699C9.74405 10.6613 10.0691 10.6442 10.4041 10.6266" stroke="#0D0D0D" stroke-width="0.864" stroke-linecap="round"/>
</svg>
