<svg width="22" height="14" viewBox="0 0 22 14" fill="none" xmlns="http://www.w3.org/2000/svg">
<path d="M5.62711 4.29766C5.1158 4.27335 3.93551 4.36987 3.36967 4.71393C2.90337 4.99748 2.24243 5.66951 1.79706 6.16241C1.42013 6.57955 1.47767 7.16808 1.45189 8.47989C1.43927 9.12196 1.7208 9.50215 1.95472 9.89557C2.19229 10.2951 2.67712 10.6073 3.49972 11.0254C4.34798 11.4566 5.67427 11.1009 6.20141 10.9049C7.25505 10.5132 7.71214 10.2669 8.05732 9.95967C8.48683 9.57737 8.62278 8.84348 8.83128 7.85217C9.08473 6.6472 8.84455 5.74761 8.7834 5.55163C8.59718 4.95486 7.79024 4.49512 7.3235 4.4207C6.84614 4.3446 6.46407 4.24904 4.90877 4.26046C4.46125 4.26374 4.20443 4.56658 3.87362 4.82371C3.20791 5.34115 3.26948 7.06199 3.56271 8.5543C3.65393 9.01855 3.95613 9.25754 4.20074 9.40489C4.79157 9.76081 5.47681 8.91715 6.03012 8.46258C6.48816 8.08626 6.65784 7.51657 6.78051 7.18577C6.89014 6.89013 6.87961 6.38859 6.69726 6.2254C5.9237 5.5331 5.62859 8.22313 5.32246 8.3749C4.28269 8.89039 4.79236 6.48217 4.75552 6.73929C4.743 6.87486 4.743 7.02073 4.76731 7.14451C4.79162 7.26828 4.84025 7.36554 4.89035 7.46574" stroke="#AFECB2" stroke-width="2.90304" stroke-linecap="round"/>
<path d="M13.2776 3.80117C12.3773 3.80117 9.92094 3.89842 9.04345 4.13161C8.43652 4.2929 8.39142 5.39258 8.28017 6.25311C8.177 7.05111 8.34059 7.80178 8.48757 8.20663C8.6758 8.72507 9.22396 9.07933 9.59234 9.27715C10.0193 9.50643 10.4514 9.62158 11.1852 9.68274C12.3982 9.78383 13.52 9.4035 14.0475 8.85204C14.692 8.17833 14.5787 7.39067 14.6159 6.87273C14.6619 6.23338 14.5802 5.40142 14.3957 4.84663C14.258 4.43277 13.8449 4.04872 13.3657 3.75291C12.756 3.37663 12.1268 3.40921 11.4626 3.34696C10.3895 3.24637 8.76128 3.43131 8.4161 3.72639C8.08558 4.00893 7.92431 4.48636 7.63035 5.17376C7.37629 5.76782 7.33491 6.37689 7.33417 7.57854C7.33372 8.30896 7.62814 8.78462 7.83701 9.17805C8.06414 9.60587 8.41353 9.91481 8.84306 10.1856C9.20199 10.4118 9.73822 10.407 11.796 10.3956C12.6636 10.3907 13.0787 9.99144 13.4972 9.70852C13.859 9.46388 14.3548 9.08375 14.75 8.57981C15.1376 8.08567 15.1917 7.26837 15.2304 6.48077C15.2614 5.84875 14.4108 5.47362 13.7477 5.1896C13.0206 4.87815 11.8107 4.97999 10.7188 5.05293C10.0535 5.09737 9.79127 5.56792 9.58313 5.94699C9.03658 6.9424 9.15176 7.70306 9.23685 8.10864C9.5741 9.71605 12.7612 5.59518 12.823 5.48393C13.3823 4.47865 11.7061 8.1709 11.7544 8.38014C12.2697 8.07586 12.5887 7.6338 12.8216 7.4614C12.9328 7.43487 13.0301 7.53213 13.2039 7.63233" stroke="#AFECB2" stroke-width="2.90304" stroke-linecap="round"/>
<path d="M17.5565 2.99711C15.8156 2.92343 14.9808 2.97206 14.4762 3.13156C14.2689 3.19708 14.0216 3.36401 13.7762 3.64582C13.4143 4.06156 13.5044 5.75849 13.5898 6.86289C13.6498 7.63833 13.995 8.20158 14.24 8.64401C14.4591 9.03962 14.9514 9.16085 15.6251 9.36935C16.2902 9.57515 16.9163 9.33399 17.2106 9.187C17.6337 8.97575 17.9721 8.50071 18.2922 8.00892C18.6283 7.49253 18.6366 6.80616 18.6252 5.26264C18.6226 4.91226 18.5158 4.76828 18.3445 4.62019C17.4964 3.88693 16.2363 3.78397 15.6424 3.67272C15.2541 3.59995 13.69 3.58651 12.6221 3.90406C11.8905 4.12159 12.0559 5.42399 12.043 6.71296C12.0356 7.45352 12.4228 7.8332 12.8638 8.42187C13.4335 9.18251 13.7239 9.47913 14.1166 9.6519C14.6401 9.88223 16.0462 9.99634 17.1609 9.7521C18.0424 9.55897 18.5114 9.06507 19.0161 8.72063C19.512 8.38215 19.7654 7.88625 19.975 7.30937C20.3061 6.3979 19.9643 4.86553 19.8166 4.44779C19.5962 3.82458 18.9829 3.48926 18.455 3.25571C17.9904 3.05013 16.9259 3.14446 15.9139 3.511C15.5534 3.6416 15.3964 4.12435 15.249 4.57783C15.1304 4.94286 15.2232 5.27959 15.2844 5.54925C15.3129 5.67519 15.3698 5.77028 15.4678 5.7839C15.7164 5.81848 15.9349 5.52788 16.0698 5.2829C16.3108 4.84489 14.9307 8.04981 14.7082 9.10891C14.6671 9.30476 14.6832 9.42903 14.7561 9.35793C15.8306 8.31057 16.7947 6.87836 16.8806 6.77964C17.2281 6.37998 17.1145 8.03066 17.1631 8.11722C17.2595 8.2889 17.4821 7.73816 17.5927 7.50534C17.6302 7.39409 17.6302 7.29684 17.5938 7.18596C17.5573 7.07508 17.4843 6.95351 17.2618 6.60723" stroke="#AFECB2" stroke-width="2.90304" stroke-linecap="round"/>
<path d="M7.28345 3.0041C7.38875 2.79165 7.91068 2.29961 8.15624 2.13867C8.40607 1.97492 8.69242 1.87012 8.96832 1.75539C9.36076 1.5922 9.64246 1.54822 10.063 1.49442C11.3478 1.33005 12.1256 1.68526 12.3868 1.76987C12.8449 1.91825 13.4288 2.35939 13.6744 2.54356C13.9129 2.72242 14.1646 2.89557 14.5095 3.25563C14.6097 3.40141 14.6865 3.52464 14.7707 3.64696C14.8093 3.70858 14.8396 3.76928 14.9169 3.8778" stroke="#AFECB2" stroke-width="2.90304" stroke-linecap="round"/>
<path d="M8.14746 11.5394C8.25461 11.6921 8.40682 11.9063 8.65237 12.0372C8.89423 12.166 9.18855 12.2135 9.43411 12.2673C9.67503 12.3201 9.92431 12.3515 10.1699 12.3747C10.4349 12.3998 11.6469 12.4591 12.3771 12.4133C12.6338 12.3972 12.8673 12.2144 13.151 12.0459C13.4044 11.8466 13.6491 11.6323 13.8489 11.4024C13.8951 11.3407 13.9406 11.28 14.0335 11.1715" stroke="#AFECB2" stroke-width="2.90304" stroke-linecap="round"/>
<path d="M8.9682 5.84753V5.97197" stroke="#0D0D0D" stroke-width="1.08" stroke-linecap="round"/>
<path d="M12.0787 5.77148V5.85444" stroke="#0D0D0D" stroke-width="1.08" stroke-linecap="round"/>
<path d="M7.93146 9.02726C7.96712 8.90243 8.05683 8.75788 8.18274 8.62737C8.26124 8.54601 8.3454 8.54091 8.42173 8.54982C8.61034 8.57186 8.79501 8.72951 8.95321 8.81529C9.09373 8.8915 9.21868 9.00889 9.38539 9.01835C9.60637 9.03088 9.83094 8.73059 10.0514 8.57765C10.2525 8.43816 10.5151 8.37879 10.7265 8.39216C10.9588 8.40686 11.083 8.59441 11.2722 8.69816C11.3516 8.74175 11.5594 8.75707 11.8339 8.74369C12.0587 8.73274 12.1638 8.55928 12.4513 8.37514C12.8681 8.1082 13.136 8.13561 13.3078 8.16695C13.3797 8.1983 13.4521 8.2345 13.5195 8.2749C13.5513 8.29746 13.578 8.32421 13.6867 8.40581" stroke="#0D0D0D" stroke-width="0.864" stroke-linecap="round"/>
</svg>
