<svg width="21" height="19" viewBox="0 0 21 19" fill="none" xmlns="http://www.w3.org/2000/svg">
<path d="M6.9179 5.88798C5.55437 5.10964 4.51855 4.46006 3.11893 4.42397C2.80813 4.41596 2.63028 4.71366 2.4986 4.94189C2.23685 5.39559 2.23624 6.401 2.36498 7.60263C2.53476 9.1872 5.08816 9.46164 6.55605 9.88494C6.82722 9.96314 6.85158 10.3043 6.62725 10.6623C5.50296 12.4562 4.3859 13.7454 4.02503 15.0523C3.9549 15.3063 3.99186 15.5712 4.12061 15.7682C4.24936 15.9652 4.50685 16.094 4.89699 16.1603C5.28712 16.2266 5.8021 16.2266 6.16396 16.0013C9.22148 14.0976 7.04665 7.12862 7.63088 5.92504C8.15227 4.85094 9.18851 3.94118 10.5862 2.99802C11.7832 2.19028 13.4098 2.18165 14.7168 2.40793C14.9917 2.45553 15.2357 2.63421 15.4005 2.82928C15.7279 3.21676 15.696 3.80462 15.5673 4.32351C15.1886 5.84956 13.1679 6.85941 10.6983 8.06201C9.94492 8.42891 9.39138 8.68136 8.96906 9.26461C8.53038 9.87045 8.67353 10.7608 8.77009 11.4426C8.92839 12.5603 10.8076 13.8117 12.1809 14.9879C12.6462 15.3865 13.2225 15.5107 13.8058 15.5761C15.6674 15.7847 17.5765 14.2135 18.3275 13.1114C18.9485 12.2001 18.2982 11.0924 18.0066 10.5735C17.3151 9.34312 15.9613 8.55652 14.5958 7.67968C13.9886 7.28973 13.3591 7.05838 12.5808 7.18713C11.7235 7.32893 11.2114 8.03178 10.9188 8.64624C10.7326 9.03712 10.8193 9.71132 11.0124 10.2361C11.6653 12.0102 13.48 12.1263 15.0718 12.811C15.473 12.9835 15.8833 12.9105 16.1144 12.7817C16.3456 12.653 16.41 12.3955 16.4431 12.1019C16.4763 11.8083 16.4763 11.4865 16.3154 11.2241C15.8326 10.7686 15.2435 10.5053 14.6924 10.3755C14.3988 10.3102 14.0769 10.2458 13.7453 10.1795" stroke="#FFF06C" stroke-width="4.56192" stroke-linecap="round"/>
<path d="M7.55719 8.70816C7.55719 8.65851 7.60684 8.50882 7.73171 8.29594C7.90623 8.15753 8.10782 8.08155 8.30791 8.04394C8.40871 8.03115 8.50801 8.03115 8.76076 8.1816" stroke="#0D0D0D" stroke-width="0.864" stroke-linecap="round"/>
<path d="M11.2292 7.69116C11.2292 7.64151 11.254 7.51664 11.3413 7.34137C11.4037 7.2654 11.503 7.21575 11.6907 7.19018C11.8784 7.1646 12.1514 7.1646 12.508 7.23982" stroke="#0D0D0D" stroke-width="0.864" stroke-linecap="round"/>
<path d="M10.3652 9.85167C10.3652 9.95097 10.3652 10.5731 10.5141 11.4381C10.5701 11.763 10.9609 11.7322 11.1516 11.695C11.434 11.6399 11.5432 11.4073 11.6308 11.2072C11.7149 11.0151 11.7192 10.7062 11.6819 10.3681C11.3942 9.97805 11.1182 9.70198 10.9184 9.58914C10.7932 9.55078 10.6194 9.55078 10.4404 9.55078" stroke="#0D0D0D" stroke-width="0.864" stroke-linecap="round"/>
</svg>
